G04 #@! TF.GenerationSoftware,KiCad,Pcbnew,7.0.9*
G04 #@! TF.CreationDate,2023-12-23T03:50:24-05:00*
G04 #@! TF.ProjectId,Lily58_Pro,4c696c79-3538-45f5-9072-6f2e6b696361,rev?*
G04 #@! TF.SameCoordinates,Original*
G04 #@! TF.FileFunction,Legend,Bot*
G04 #@! TF.FilePolarity,Positive*
%FSLAX46Y46*%
G04 Gerber Fmt 4.6, Leading zero omitted, Abs format (unit mm)*
G04 Created by KiCad (PCBNEW 7.0.9) date 2023-12-23 03:50:24*
%MOMM*%
%LPD*%
G01*
G04 APERTURE LIST*
%ADD10C,0.150000*%
%ADD11C,0.120000*%
%ADD12C,0.381000*%
%ADD13C,0.899160*%
G04 #@! TA.AperFunction,Profile*
%ADD14C,0.200000*%
G04 #@! TD*
G04 #@! TA.AperFunction,Profile*
%ADD15C,0.150000*%
G04 #@! TD*
G04 APERTURE END LIST*
D10*
X85362295Y-66538095D02*
X84981342Y-66271428D01*
X85362295Y-66080952D02*
X84562295Y-66080952D01*
X84562295Y-66080952D02*
X84562295Y-66385714D01*
X84562295Y-66385714D02*
X84600390Y-66461904D01*
X84600390Y-66461904D02*
X84638485Y-66499999D01*
X84638485Y-66499999D02*
X84714676Y-66538095D01*
X84714676Y-66538095D02*
X84828961Y-66538095D01*
X84828961Y-66538095D02*
X84905152Y-66499999D01*
X84905152Y-66499999D02*
X84943247Y-66461904D01*
X84943247Y-66461904D02*
X84981342Y-66385714D01*
X84981342Y-66385714D02*
X84981342Y-66080952D01*
X84943247Y-66880952D02*
X84943247Y-67147618D01*
X85362295Y-67261904D02*
X85362295Y-66880952D01*
X85362295Y-66880952D02*
X84562295Y-66880952D01*
X84562295Y-66880952D02*
X84562295Y-67261904D01*
X85324200Y-67566666D02*
X85362295Y-67680952D01*
X85362295Y-67680952D02*
X85362295Y-67871428D01*
X85362295Y-67871428D02*
X85324200Y-67947619D01*
X85324200Y-67947619D02*
X85286104Y-67985714D01*
X85286104Y-67985714D02*
X85209914Y-68023809D01*
X85209914Y-68023809D02*
X85133723Y-68023809D01*
X85133723Y-68023809D02*
X85057533Y-67985714D01*
X85057533Y-67985714D02*
X85019438Y-67947619D01*
X85019438Y-67947619D02*
X84981342Y-67871428D01*
X84981342Y-67871428D02*
X84943247Y-67719047D01*
X84943247Y-67719047D02*
X84905152Y-67642857D01*
X84905152Y-67642857D02*
X84867057Y-67604762D01*
X84867057Y-67604762D02*
X84790866Y-67566666D01*
X84790866Y-67566666D02*
X84714676Y-67566666D01*
X84714676Y-67566666D02*
X84638485Y-67604762D01*
X84638485Y-67604762D02*
X84600390Y-67642857D01*
X84600390Y-67642857D02*
X84562295Y-67719047D01*
X84562295Y-67719047D02*
X84562295Y-67909524D01*
X84562295Y-67909524D02*
X84600390Y-68023809D01*
X84943247Y-68366667D02*
X84943247Y-68633333D01*
X85362295Y-68747619D02*
X85362295Y-68366667D01*
X85362295Y-68366667D02*
X84562295Y-68366667D01*
X84562295Y-68366667D02*
X84562295Y-68747619D01*
X84562295Y-68976191D02*
X84562295Y-69433334D01*
X85362295Y-69204762D02*
X84562295Y-69204762D01*
X98938485Y-51903481D02*
X98862295Y-51903481D01*
X98862295Y-51903481D02*
X98786104Y-51941576D01*
X98786104Y-51941576D02*
X98748009Y-51979671D01*
X98748009Y-51979671D02*
X98709914Y-52055862D01*
X98709914Y-52055862D02*
X98671819Y-52208243D01*
X98671819Y-52208243D02*
X98671819Y-52398719D01*
X98671819Y-52398719D02*
X98709914Y-52551100D01*
X98709914Y-52551100D02*
X98748009Y-52627290D01*
X98748009Y-52627290D02*
X98786104Y-52665386D01*
X98786104Y-52665386D02*
X98862295Y-52703481D01*
X98862295Y-52703481D02*
X98938485Y-52703481D01*
X98938485Y-52703481D02*
X99014676Y-52665386D01*
X99014676Y-52665386D02*
X99052771Y-52627290D01*
X99052771Y-52627290D02*
X99090866Y-52551100D01*
X99090866Y-52551100D02*
X99128962Y-52398719D01*
X99128962Y-52398719D02*
X99128962Y-52208243D01*
X99128962Y-52208243D02*
X99090866Y-52055862D01*
X99090866Y-52055862D02*
X99052771Y-51979671D01*
X99052771Y-51979671D02*
X99014676Y-51941576D01*
X99014676Y-51941576D02*
X98938485Y-51903481D01*
X98367057Y-51979671D02*
X98328961Y-51941576D01*
X98328961Y-51941576D02*
X98252771Y-51903481D01*
X98252771Y-51903481D02*
X98062295Y-51903481D01*
X98062295Y-51903481D02*
X97986104Y-51941576D01*
X97986104Y-51941576D02*
X97948009Y-51979671D01*
X97948009Y-51979671D02*
X97909914Y-52055862D01*
X97909914Y-52055862D02*
X97909914Y-52132052D01*
X97909914Y-52132052D02*
X97948009Y-52246338D01*
X97948009Y-52246338D02*
X98405152Y-52703481D01*
X98405152Y-52703481D02*
X97909914Y-52703481D01*
X97414675Y-51903481D02*
X97338485Y-51903481D01*
X97338485Y-51903481D02*
X97262294Y-51941576D01*
X97262294Y-51941576D02*
X97224199Y-51979671D01*
X97224199Y-51979671D02*
X97186104Y-52055862D01*
X97186104Y-52055862D02*
X97148009Y-52208243D01*
X97148009Y-52208243D02*
X97148009Y-52398719D01*
X97148009Y-52398719D02*
X97186104Y-52551100D01*
X97186104Y-52551100D02*
X97224199Y-52627290D01*
X97224199Y-52627290D02*
X97262294Y-52665386D01*
X97262294Y-52665386D02*
X97338485Y-52703481D01*
X97338485Y-52703481D02*
X97414675Y-52703481D01*
X97414675Y-52703481D02*
X97490866Y-52665386D01*
X97490866Y-52665386D02*
X97528961Y-52627290D01*
X97528961Y-52627290D02*
X97567056Y-52551100D01*
X97567056Y-52551100D02*
X97605152Y-52398719D01*
X97605152Y-52398719D02*
X97605152Y-52208243D01*
X97605152Y-52208243D02*
X97567056Y-52055862D01*
X97567056Y-52055862D02*
X97528961Y-51979671D01*
X97528961Y-51979671D02*
X97490866Y-51941576D01*
X97490866Y-51941576D02*
X97414675Y-51903481D01*
X103819801Y-41781576D02*
X103895991Y-41743481D01*
X103895991Y-41743481D02*
X104010277Y-41743481D01*
X104010277Y-41743481D02*
X104124563Y-41781576D01*
X104124563Y-41781576D02*
X104200753Y-41857766D01*
X104200753Y-41857766D02*
X104238848Y-41933957D01*
X104238848Y-41933957D02*
X104276944Y-42086338D01*
X104276944Y-42086338D02*
X104276944Y-42200624D01*
X104276944Y-42200624D02*
X104238848Y-42353005D01*
X104238848Y-42353005D02*
X104200753Y-42429195D01*
X104200753Y-42429195D02*
X104124563Y-42505386D01*
X104124563Y-42505386D02*
X104010277Y-42543481D01*
X104010277Y-42543481D02*
X103934086Y-42543481D01*
X103934086Y-42543481D02*
X103819801Y-42505386D01*
X103819801Y-42505386D02*
X103781705Y-42467290D01*
X103781705Y-42467290D02*
X103781705Y-42200624D01*
X103781705Y-42200624D02*
X103934086Y-42200624D01*
X103438848Y-42543481D02*
X103438848Y-41743481D01*
X103438848Y-41743481D02*
X102981705Y-42543481D01*
X102981705Y-42543481D02*
X102981705Y-41743481D01*
X102600753Y-42543481D02*
X102600753Y-41743481D01*
X102600753Y-41743481D02*
X102410277Y-41743481D01*
X102410277Y-41743481D02*
X102295991Y-41781576D01*
X102295991Y-41781576D02*
X102219801Y-41857766D01*
X102219801Y-41857766D02*
X102181706Y-41933957D01*
X102181706Y-41933957D02*
X102143610Y-42086338D01*
X102143610Y-42086338D02*
X102143610Y-42200624D01*
X102143610Y-42200624D02*
X102181706Y-42353005D01*
X102181706Y-42353005D02*
X102219801Y-42429195D01*
X102219801Y-42429195D02*
X102295991Y-42505386D01*
X102295991Y-42505386D02*
X102410277Y-42543481D01*
X102410277Y-42543481D02*
X102600753Y-42543481D01*
X98930277Y-41743481D02*
X98854087Y-41743481D01*
X98854087Y-41743481D02*
X98777896Y-41781576D01*
X98777896Y-41781576D02*
X98739801Y-41819671D01*
X98739801Y-41819671D02*
X98701706Y-41895862D01*
X98701706Y-41895862D02*
X98663611Y-42048243D01*
X98663611Y-42048243D02*
X98663611Y-42238719D01*
X98663611Y-42238719D02*
X98701706Y-42391100D01*
X98701706Y-42391100D02*
X98739801Y-42467290D01*
X98739801Y-42467290D02*
X98777896Y-42505386D01*
X98777896Y-42505386D02*
X98854087Y-42543481D01*
X98854087Y-42543481D02*
X98930277Y-42543481D01*
X98930277Y-42543481D02*
X99006468Y-42505386D01*
X99006468Y-42505386D02*
X99044563Y-42467290D01*
X99044563Y-42467290D02*
X99082658Y-42391100D01*
X99082658Y-42391100D02*
X99120754Y-42238719D01*
X99120754Y-42238719D02*
X99120754Y-42048243D01*
X99120754Y-42048243D02*
X99082658Y-41895862D01*
X99082658Y-41895862D02*
X99044563Y-41819671D01*
X99044563Y-41819671D02*
X99006468Y-41781576D01*
X99006468Y-41781576D02*
X98930277Y-41743481D01*
X98168372Y-41743481D02*
X98092182Y-41743481D01*
X98092182Y-41743481D02*
X98015991Y-41781576D01*
X98015991Y-41781576D02*
X97977896Y-41819671D01*
X97977896Y-41819671D02*
X97939801Y-41895862D01*
X97939801Y-41895862D02*
X97901706Y-42048243D01*
X97901706Y-42048243D02*
X97901706Y-42238719D01*
X97901706Y-42238719D02*
X97939801Y-42391100D01*
X97939801Y-42391100D02*
X97977896Y-42467290D01*
X97977896Y-42467290D02*
X98015991Y-42505386D01*
X98015991Y-42505386D02*
X98092182Y-42543481D01*
X98092182Y-42543481D02*
X98168372Y-42543481D01*
X98168372Y-42543481D02*
X98244563Y-42505386D01*
X98244563Y-42505386D02*
X98282658Y-42467290D01*
X98282658Y-42467290D02*
X98320753Y-42391100D01*
X98320753Y-42391100D02*
X98358849Y-42238719D01*
X98358849Y-42238719D02*
X98358849Y-42048243D01*
X98358849Y-42048243D02*
X98320753Y-41895862D01*
X98320753Y-41895862D02*
X98282658Y-41819671D01*
X98282658Y-41819671D02*
X98244563Y-41781576D01*
X98244563Y-41781576D02*
X98168372Y-41743481D01*
X97444563Y-42086338D02*
X97520753Y-42048243D01*
X97520753Y-42048243D02*
X97558848Y-42010147D01*
X97558848Y-42010147D02*
X97596944Y-41933957D01*
X97596944Y-41933957D02*
X97596944Y-41895862D01*
X97596944Y-41895862D02*
X97558848Y-41819671D01*
X97558848Y-41819671D02*
X97520753Y-41781576D01*
X97520753Y-41781576D02*
X97444563Y-41743481D01*
X97444563Y-41743481D02*
X97292182Y-41743481D01*
X97292182Y-41743481D02*
X97215991Y-41781576D01*
X97215991Y-41781576D02*
X97177896Y-41819671D01*
X97177896Y-41819671D02*
X97139801Y-41895862D01*
X97139801Y-41895862D02*
X97139801Y-41933957D01*
X97139801Y-41933957D02*
X97177896Y-42010147D01*
X97177896Y-42010147D02*
X97215991Y-42048243D01*
X97215991Y-42048243D02*
X97292182Y-42086338D01*
X97292182Y-42086338D02*
X97444563Y-42086338D01*
X97444563Y-42086338D02*
X97520753Y-42124433D01*
X97520753Y-42124433D02*
X97558848Y-42162528D01*
X97558848Y-42162528D02*
X97596944Y-42238719D01*
X97596944Y-42238719D02*
X97596944Y-42391100D01*
X97596944Y-42391100D02*
X97558848Y-42467290D01*
X97558848Y-42467290D02*
X97520753Y-42505386D01*
X97520753Y-42505386D02*
X97444563Y-42543481D01*
X97444563Y-42543481D02*
X97292182Y-42543481D01*
X97292182Y-42543481D02*
X97215991Y-42505386D01*
X97215991Y-42505386D02*
X97177896Y-42467290D01*
X97177896Y-42467290D02*
X97139801Y-42391100D01*
X97139801Y-42391100D02*
X97139801Y-42238719D01*
X97139801Y-42238719D02*
X97177896Y-42162528D01*
X97177896Y-42162528D02*
X97215991Y-42124433D01*
X97215991Y-42124433D02*
X97292182Y-42086338D01*
X104010277Y-54443481D02*
X103934087Y-54443481D01*
X103934087Y-54443481D02*
X103857896Y-54481576D01*
X103857896Y-54481576D02*
X103819801Y-54519671D01*
X103819801Y-54519671D02*
X103781706Y-54595862D01*
X103781706Y-54595862D02*
X103743611Y-54748243D01*
X103743611Y-54748243D02*
X103743611Y-54938719D01*
X103743611Y-54938719D02*
X103781706Y-55091100D01*
X103781706Y-55091100D02*
X103819801Y-55167290D01*
X103819801Y-55167290D02*
X103857896Y-55205386D01*
X103857896Y-55205386D02*
X103934087Y-55243481D01*
X103934087Y-55243481D02*
X104010277Y-55243481D01*
X104010277Y-55243481D02*
X104086468Y-55205386D01*
X104086468Y-55205386D02*
X104124563Y-55167290D01*
X104124563Y-55167290D02*
X104162658Y-55091100D01*
X104162658Y-55091100D02*
X104200754Y-54938719D01*
X104200754Y-54938719D02*
X104200754Y-54748243D01*
X104200754Y-54748243D02*
X104162658Y-54595862D01*
X104162658Y-54595862D02*
X104124563Y-54519671D01*
X104124563Y-54519671D02*
X104086468Y-54481576D01*
X104086468Y-54481576D02*
X104010277Y-54443481D01*
X103248372Y-54443481D02*
X103172182Y-54443481D01*
X103172182Y-54443481D02*
X103095991Y-54481576D01*
X103095991Y-54481576D02*
X103057896Y-54519671D01*
X103057896Y-54519671D02*
X103019801Y-54595862D01*
X103019801Y-54595862D02*
X102981706Y-54748243D01*
X102981706Y-54748243D02*
X102981706Y-54938719D01*
X102981706Y-54938719D02*
X103019801Y-55091100D01*
X103019801Y-55091100D02*
X103057896Y-55167290D01*
X103057896Y-55167290D02*
X103095991Y-55205386D01*
X103095991Y-55205386D02*
X103172182Y-55243481D01*
X103172182Y-55243481D02*
X103248372Y-55243481D01*
X103248372Y-55243481D02*
X103324563Y-55205386D01*
X103324563Y-55205386D02*
X103362658Y-55167290D01*
X103362658Y-55167290D02*
X103400753Y-55091100D01*
X103400753Y-55091100D02*
X103438849Y-54938719D01*
X103438849Y-54938719D02*
X103438849Y-54748243D01*
X103438849Y-54748243D02*
X103400753Y-54595862D01*
X103400753Y-54595862D02*
X103362658Y-54519671D01*
X103362658Y-54519671D02*
X103324563Y-54481576D01*
X103324563Y-54481576D02*
X103248372Y-54443481D01*
X102676944Y-54519671D02*
X102638848Y-54481576D01*
X102638848Y-54481576D02*
X102562658Y-54443481D01*
X102562658Y-54443481D02*
X102372182Y-54443481D01*
X102372182Y-54443481D02*
X102295991Y-54481576D01*
X102295991Y-54481576D02*
X102257896Y-54519671D01*
X102257896Y-54519671D02*
X102219801Y-54595862D01*
X102219801Y-54595862D02*
X102219801Y-54672052D01*
X102219801Y-54672052D02*
X102257896Y-54786338D01*
X102257896Y-54786338D02*
X102715039Y-55243481D01*
X102715039Y-55243481D02*
X102219801Y-55243481D01*
X103743611Y-57783481D02*
X104200754Y-57783481D01*
X103972182Y-57783481D02*
X103972182Y-56983481D01*
X103972182Y-56983481D02*
X104048373Y-57097766D01*
X104048373Y-57097766D02*
X104124563Y-57173957D01*
X104124563Y-57173957D02*
X104200754Y-57212052D01*
X102981706Y-57783481D02*
X103438849Y-57783481D01*
X103210277Y-57783481D02*
X103210277Y-56983481D01*
X103210277Y-56983481D02*
X103286468Y-57097766D01*
X103286468Y-57097766D02*
X103362658Y-57173957D01*
X103362658Y-57173957D02*
X103438849Y-57212052D01*
X102257896Y-56983481D02*
X102638848Y-56983481D01*
X102638848Y-56983481D02*
X102676944Y-57364433D01*
X102676944Y-57364433D02*
X102638848Y-57326338D01*
X102638848Y-57326338D02*
X102562658Y-57288243D01*
X102562658Y-57288243D02*
X102372182Y-57288243D01*
X102372182Y-57288243D02*
X102295991Y-57326338D01*
X102295991Y-57326338D02*
X102257896Y-57364433D01*
X102257896Y-57364433D02*
X102219801Y-57440624D01*
X102219801Y-57440624D02*
X102219801Y-57631100D01*
X102219801Y-57631100D02*
X102257896Y-57707290D01*
X102257896Y-57707290D02*
X102295991Y-57745386D01*
X102295991Y-57745386D02*
X102372182Y-57783481D01*
X102372182Y-57783481D02*
X102562658Y-57783481D01*
X102562658Y-57783481D02*
X102638848Y-57745386D01*
X102638848Y-57745386D02*
X102676944Y-57707290D01*
X98663611Y-65403481D02*
X99120754Y-65403481D01*
X98892182Y-65403481D02*
X98892182Y-64603481D01*
X98892182Y-64603481D02*
X98968373Y-64717766D01*
X98968373Y-64717766D02*
X99044563Y-64793957D01*
X99044563Y-64793957D02*
X99120754Y-64832052D01*
X98168372Y-64603481D02*
X98092182Y-64603481D01*
X98092182Y-64603481D02*
X98015991Y-64641576D01*
X98015991Y-64641576D02*
X97977896Y-64679671D01*
X97977896Y-64679671D02*
X97939801Y-64755862D01*
X97939801Y-64755862D02*
X97901706Y-64908243D01*
X97901706Y-64908243D02*
X97901706Y-65098719D01*
X97901706Y-65098719D02*
X97939801Y-65251100D01*
X97939801Y-65251100D02*
X97977896Y-65327290D01*
X97977896Y-65327290D02*
X98015991Y-65365386D01*
X98015991Y-65365386D02*
X98092182Y-65403481D01*
X98092182Y-65403481D02*
X98168372Y-65403481D01*
X98168372Y-65403481D02*
X98244563Y-65365386D01*
X98244563Y-65365386D02*
X98282658Y-65327290D01*
X98282658Y-65327290D02*
X98320753Y-65251100D01*
X98320753Y-65251100D02*
X98358849Y-65098719D01*
X98358849Y-65098719D02*
X98358849Y-64908243D01*
X98358849Y-64908243D02*
X98320753Y-64755862D01*
X98320753Y-64755862D02*
X98282658Y-64679671D01*
X98282658Y-64679671D02*
X98244563Y-64641576D01*
X98244563Y-64641576D02*
X98168372Y-64603481D01*
X97215991Y-64870147D02*
X97215991Y-65403481D01*
X97406467Y-64565386D02*
X97596944Y-65136814D01*
X97596944Y-65136814D02*
X97101705Y-65136814D01*
X104010277Y-67143481D02*
X103934087Y-67143481D01*
X103934087Y-67143481D02*
X103857896Y-67181576D01*
X103857896Y-67181576D02*
X103819801Y-67219671D01*
X103819801Y-67219671D02*
X103781706Y-67295862D01*
X103781706Y-67295862D02*
X103743611Y-67448243D01*
X103743611Y-67448243D02*
X103743611Y-67638719D01*
X103743611Y-67638719D02*
X103781706Y-67791100D01*
X103781706Y-67791100D02*
X103819801Y-67867290D01*
X103819801Y-67867290D02*
X103857896Y-67905386D01*
X103857896Y-67905386D02*
X103934087Y-67943481D01*
X103934087Y-67943481D02*
X104010277Y-67943481D01*
X104010277Y-67943481D02*
X104086468Y-67905386D01*
X104086468Y-67905386D02*
X104124563Y-67867290D01*
X104124563Y-67867290D02*
X104162658Y-67791100D01*
X104162658Y-67791100D02*
X104200754Y-67638719D01*
X104200754Y-67638719D02*
X104200754Y-67448243D01*
X104200754Y-67448243D02*
X104162658Y-67295862D01*
X104162658Y-67295862D02*
X104124563Y-67219671D01*
X104124563Y-67219671D02*
X104086468Y-67181576D01*
X104086468Y-67181576D02*
X104010277Y-67143481D01*
X103248372Y-67143481D02*
X103172182Y-67143481D01*
X103172182Y-67143481D02*
X103095991Y-67181576D01*
X103095991Y-67181576D02*
X103057896Y-67219671D01*
X103057896Y-67219671D02*
X103019801Y-67295862D01*
X103019801Y-67295862D02*
X102981706Y-67448243D01*
X102981706Y-67448243D02*
X102981706Y-67638719D01*
X102981706Y-67638719D02*
X103019801Y-67791100D01*
X103019801Y-67791100D02*
X103057896Y-67867290D01*
X103057896Y-67867290D02*
X103095991Y-67905386D01*
X103095991Y-67905386D02*
X103172182Y-67943481D01*
X103172182Y-67943481D02*
X103248372Y-67943481D01*
X103248372Y-67943481D02*
X103324563Y-67905386D01*
X103324563Y-67905386D02*
X103362658Y-67867290D01*
X103362658Y-67867290D02*
X103400753Y-67791100D01*
X103400753Y-67791100D02*
X103438849Y-67638719D01*
X103438849Y-67638719D02*
X103438849Y-67448243D01*
X103438849Y-67448243D02*
X103400753Y-67295862D01*
X103400753Y-67295862D02*
X103362658Y-67219671D01*
X103362658Y-67219671D02*
X103324563Y-67181576D01*
X103324563Y-67181576D02*
X103248372Y-67143481D01*
X102600753Y-67943481D02*
X102448372Y-67943481D01*
X102448372Y-67943481D02*
X102372182Y-67905386D01*
X102372182Y-67905386D02*
X102334086Y-67867290D01*
X102334086Y-67867290D02*
X102257896Y-67753005D01*
X102257896Y-67753005D02*
X102219801Y-67600624D01*
X102219801Y-67600624D02*
X102219801Y-67295862D01*
X102219801Y-67295862D02*
X102257896Y-67219671D01*
X102257896Y-67219671D02*
X102295991Y-67181576D01*
X102295991Y-67181576D02*
X102372182Y-67143481D01*
X102372182Y-67143481D02*
X102524563Y-67143481D01*
X102524563Y-67143481D02*
X102600753Y-67181576D01*
X102600753Y-67181576D02*
X102638848Y-67219671D01*
X102638848Y-67219671D02*
X102676944Y-67295862D01*
X102676944Y-67295862D02*
X102676944Y-67486338D01*
X102676944Y-67486338D02*
X102638848Y-67562528D01*
X102638848Y-67562528D02*
X102600753Y-67600624D01*
X102600753Y-67600624D02*
X102524563Y-67638719D01*
X102524563Y-67638719D02*
X102372182Y-67638719D01*
X102372182Y-67638719D02*
X102295991Y-67600624D01*
X102295991Y-67600624D02*
X102257896Y-67562528D01*
X102257896Y-67562528D02*
X102219801Y-67486338D01*
X98930277Y-54443481D02*
X98854087Y-54443481D01*
X98854087Y-54443481D02*
X98777896Y-54481576D01*
X98777896Y-54481576D02*
X98739801Y-54519671D01*
X98739801Y-54519671D02*
X98701706Y-54595862D01*
X98701706Y-54595862D02*
X98663611Y-54748243D01*
X98663611Y-54748243D02*
X98663611Y-54938719D01*
X98663611Y-54938719D02*
X98701706Y-55091100D01*
X98701706Y-55091100D02*
X98739801Y-55167290D01*
X98739801Y-55167290D02*
X98777896Y-55205386D01*
X98777896Y-55205386D02*
X98854087Y-55243481D01*
X98854087Y-55243481D02*
X98930277Y-55243481D01*
X98930277Y-55243481D02*
X99006468Y-55205386D01*
X99006468Y-55205386D02*
X99044563Y-55167290D01*
X99044563Y-55167290D02*
X99082658Y-55091100D01*
X99082658Y-55091100D02*
X99120754Y-54938719D01*
X99120754Y-54938719D02*
X99120754Y-54748243D01*
X99120754Y-54748243D02*
X99082658Y-54595862D01*
X99082658Y-54595862D02*
X99044563Y-54519671D01*
X99044563Y-54519671D02*
X99006468Y-54481576D01*
X99006468Y-54481576D02*
X98930277Y-54443481D01*
X98358849Y-54519671D02*
X98320753Y-54481576D01*
X98320753Y-54481576D02*
X98244563Y-54443481D01*
X98244563Y-54443481D02*
X98054087Y-54443481D01*
X98054087Y-54443481D02*
X97977896Y-54481576D01*
X97977896Y-54481576D02*
X97939801Y-54519671D01*
X97939801Y-54519671D02*
X97901706Y-54595862D01*
X97901706Y-54595862D02*
X97901706Y-54672052D01*
X97901706Y-54672052D02*
X97939801Y-54786338D01*
X97939801Y-54786338D02*
X98396944Y-55243481D01*
X98396944Y-55243481D02*
X97901706Y-55243481D01*
X97596944Y-54519671D02*
X97558848Y-54481576D01*
X97558848Y-54481576D02*
X97482658Y-54443481D01*
X97482658Y-54443481D02*
X97292182Y-54443481D01*
X97292182Y-54443481D02*
X97215991Y-54481576D01*
X97215991Y-54481576D02*
X97177896Y-54519671D01*
X97177896Y-54519671D02*
X97139801Y-54595862D01*
X97139801Y-54595862D02*
X97139801Y-54672052D01*
X97139801Y-54672052D02*
X97177896Y-54786338D01*
X97177896Y-54786338D02*
X97635039Y-55243481D01*
X97635039Y-55243481D02*
X97139801Y-55243481D01*
X98930277Y-56983481D02*
X98854087Y-56983481D01*
X98854087Y-56983481D02*
X98777896Y-57021576D01*
X98777896Y-57021576D02*
X98739801Y-57059671D01*
X98739801Y-57059671D02*
X98701706Y-57135862D01*
X98701706Y-57135862D02*
X98663611Y-57288243D01*
X98663611Y-57288243D02*
X98663611Y-57478719D01*
X98663611Y-57478719D02*
X98701706Y-57631100D01*
X98701706Y-57631100D02*
X98739801Y-57707290D01*
X98739801Y-57707290D02*
X98777896Y-57745386D01*
X98777896Y-57745386D02*
X98854087Y-57783481D01*
X98854087Y-57783481D02*
X98930277Y-57783481D01*
X98930277Y-57783481D02*
X99006468Y-57745386D01*
X99006468Y-57745386D02*
X99044563Y-57707290D01*
X99044563Y-57707290D02*
X99082658Y-57631100D01*
X99082658Y-57631100D02*
X99120754Y-57478719D01*
X99120754Y-57478719D02*
X99120754Y-57288243D01*
X99120754Y-57288243D02*
X99082658Y-57135862D01*
X99082658Y-57135862D02*
X99044563Y-57059671D01*
X99044563Y-57059671D02*
X99006468Y-57021576D01*
X99006468Y-57021576D02*
X98930277Y-56983481D01*
X98358849Y-57059671D02*
X98320753Y-57021576D01*
X98320753Y-57021576D02*
X98244563Y-56983481D01*
X98244563Y-56983481D02*
X98054087Y-56983481D01*
X98054087Y-56983481D02*
X97977896Y-57021576D01*
X97977896Y-57021576D02*
X97939801Y-57059671D01*
X97939801Y-57059671D02*
X97901706Y-57135862D01*
X97901706Y-57135862D02*
X97901706Y-57212052D01*
X97901706Y-57212052D02*
X97939801Y-57326338D01*
X97939801Y-57326338D02*
X98396944Y-57783481D01*
X98396944Y-57783481D02*
X97901706Y-57783481D01*
X97215991Y-57250147D02*
X97215991Y-57783481D01*
X97406467Y-56945386D02*
X97596944Y-57516814D01*
X97596944Y-57516814D02*
X97101705Y-57516814D01*
X104010277Y-51903481D02*
X103934087Y-51903481D01*
X103934087Y-51903481D02*
X103857896Y-51941576D01*
X103857896Y-51941576D02*
X103819801Y-51979671D01*
X103819801Y-51979671D02*
X103781706Y-52055862D01*
X103781706Y-52055862D02*
X103743611Y-52208243D01*
X103743611Y-52208243D02*
X103743611Y-52398719D01*
X103743611Y-52398719D02*
X103781706Y-52551100D01*
X103781706Y-52551100D02*
X103819801Y-52627290D01*
X103819801Y-52627290D02*
X103857896Y-52665386D01*
X103857896Y-52665386D02*
X103934087Y-52703481D01*
X103934087Y-52703481D02*
X104010277Y-52703481D01*
X104010277Y-52703481D02*
X104086468Y-52665386D01*
X104086468Y-52665386D02*
X104124563Y-52627290D01*
X104124563Y-52627290D02*
X104162658Y-52551100D01*
X104162658Y-52551100D02*
X104200754Y-52398719D01*
X104200754Y-52398719D02*
X104200754Y-52208243D01*
X104200754Y-52208243D02*
X104162658Y-52055862D01*
X104162658Y-52055862D02*
X104124563Y-51979671D01*
X104124563Y-51979671D02*
X104086468Y-51941576D01*
X104086468Y-51941576D02*
X104010277Y-51903481D01*
X103438849Y-51979671D02*
X103400753Y-51941576D01*
X103400753Y-51941576D02*
X103324563Y-51903481D01*
X103324563Y-51903481D02*
X103134087Y-51903481D01*
X103134087Y-51903481D02*
X103057896Y-51941576D01*
X103057896Y-51941576D02*
X103019801Y-51979671D01*
X103019801Y-51979671D02*
X102981706Y-52055862D01*
X102981706Y-52055862D02*
X102981706Y-52132052D01*
X102981706Y-52132052D02*
X103019801Y-52246338D01*
X103019801Y-52246338D02*
X103476944Y-52703481D01*
X103476944Y-52703481D02*
X102981706Y-52703481D01*
X102600753Y-52703481D02*
X102448372Y-52703481D01*
X102448372Y-52703481D02*
X102372182Y-52665386D01*
X102372182Y-52665386D02*
X102334086Y-52627290D01*
X102334086Y-52627290D02*
X102257896Y-52513005D01*
X102257896Y-52513005D02*
X102219801Y-52360624D01*
X102219801Y-52360624D02*
X102219801Y-52055862D01*
X102219801Y-52055862D02*
X102257896Y-51979671D01*
X102257896Y-51979671D02*
X102295991Y-51941576D01*
X102295991Y-51941576D02*
X102372182Y-51903481D01*
X102372182Y-51903481D02*
X102524563Y-51903481D01*
X102524563Y-51903481D02*
X102600753Y-51941576D01*
X102600753Y-51941576D02*
X102638848Y-51979671D01*
X102638848Y-51979671D02*
X102676944Y-52055862D01*
X102676944Y-52055862D02*
X102676944Y-52246338D01*
X102676944Y-52246338D02*
X102638848Y-52322528D01*
X102638848Y-52322528D02*
X102600753Y-52360624D01*
X102600753Y-52360624D02*
X102524563Y-52398719D01*
X102524563Y-52398719D02*
X102372182Y-52398719D01*
X102372182Y-52398719D02*
X102295991Y-52360624D01*
X102295991Y-52360624D02*
X102257896Y-52322528D01*
X102257896Y-52322528D02*
X102219801Y-52246338D01*
X104010277Y-64603481D02*
X103934087Y-64603481D01*
X103934087Y-64603481D02*
X103857896Y-64641576D01*
X103857896Y-64641576D02*
X103819801Y-64679671D01*
X103819801Y-64679671D02*
X103781706Y-64755862D01*
X103781706Y-64755862D02*
X103743611Y-64908243D01*
X103743611Y-64908243D02*
X103743611Y-65098719D01*
X103743611Y-65098719D02*
X103781706Y-65251100D01*
X103781706Y-65251100D02*
X103819801Y-65327290D01*
X103819801Y-65327290D02*
X103857896Y-65365386D01*
X103857896Y-65365386D02*
X103934087Y-65403481D01*
X103934087Y-65403481D02*
X104010277Y-65403481D01*
X104010277Y-65403481D02*
X104086468Y-65365386D01*
X104086468Y-65365386D02*
X104124563Y-65327290D01*
X104124563Y-65327290D02*
X104162658Y-65251100D01*
X104162658Y-65251100D02*
X104200754Y-65098719D01*
X104200754Y-65098719D02*
X104200754Y-64908243D01*
X104200754Y-64908243D02*
X104162658Y-64755862D01*
X104162658Y-64755862D02*
X104124563Y-64679671D01*
X104124563Y-64679671D02*
X104086468Y-64641576D01*
X104086468Y-64641576D02*
X104010277Y-64603481D01*
X102981706Y-65403481D02*
X103438849Y-65403481D01*
X103210277Y-65403481D02*
X103210277Y-64603481D01*
X103210277Y-64603481D02*
X103286468Y-64717766D01*
X103286468Y-64717766D02*
X103362658Y-64793957D01*
X103362658Y-64793957D02*
X103438849Y-64832052D01*
X102486467Y-64603481D02*
X102410277Y-64603481D01*
X102410277Y-64603481D02*
X102334086Y-64641576D01*
X102334086Y-64641576D02*
X102295991Y-64679671D01*
X102295991Y-64679671D02*
X102257896Y-64755862D01*
X102257896Y-64755862D02*
X102219801Y-64908243D01*
X102219801Y-64908243D02*
X102219801Y-65098719D01*
X102219801Y-65098719D02*
X102257896Y-65251100D01*
X102257896Y-65251100D02*
X102295991Y-65327290D01*
X102295991Y-65327290D02*
X102334086Y-65365386D01*
X102334086Y-65365386D02*
X102410277Y-65403481D01*
X102410277Y-65403481D02*
X102486467Y-65403481D01*
X102486467Y-65403481D02*
X102562658Y-65365386D01*
X102562658Y-65365386D02*
X102600753Y-65327290D01*
X102600753Y-65327290D02*
X102638848Y-65251100D01*
X102638848Y-65251100D02*
X102676944Y-65098719D01*
X102676944Y-65098719D02*
X102676944Y-64908243D01*
X102676944Y-64908243D02*
X102638848Y-64755862D01*
X102638848Y-64755862D02*
X102600753Y-64679671D01*
X102600753Y-64679671D02*
X102562658Y-64641576D01*
X102562658Y-64641576D02*
X102486467Y-64603481D01*
X98739801Y-46861576D02*
X98815991Y-46823481D01*
X98815991Y-46823481D02*
X98930277Y-46823481D01*
X98930277Y-46823481D02*
X99044563Y-46861576D01*
X99044563Y-46861576D02*
X99120753Y-46937766D01*
X99120753Y-46937766D02*
X99158848Y-47013957D01*
X99158848Y-47013957D02*
X99196944Y-47166338D01*
X99196944Y-47166338D02*
X99196944Y-47280624D01*
X99196944Y-47280624D02*
X99158848Y-47433005D01*
X99158848Y-47433005D02*
X99120753Y-47509195D01*
X99120753Y-47509195D02*
X99044563Y-47585386D01*
X99044563Y-47585386D02*
X98930277Y-47623481D01*
X98930277Y-47623481D02*
X98854086Y-47623481D01*
X98854086Y-47623481D02*
X98739801Y-47585386D01*
X98739801Y-47585386D02*
X98701705Y-47547290D01*
X98701705Y-47547290D02*
X98701705Y-47280624D01*
X98701705Y-47280624D02*
X98854086Y-47280624D01*
X98358848Y-47623481D02*
X98358848Y-46823481D01*
X98358848Y-46823481D02*
X97901705Y-47623481D01*
X97901705Y-47623481D02*
X97901705Y-46823481D01*
X97520753Y-47623481D02*
X97520753Y-46823481D01*
X97520753Y-46823481D02*
X97330277Y-46823481D01*
X97330277Y-46823481D02*
X97215991Y-46861576D01*
X97215991Y-46861576D02*
X97139801Y-46937766D01*
X97139801Y-46937766D02*
X97101706Y-47013957D01*
X97101706Y-47013957D02*
X97063610Y-47166338D01*
X97063610Y-47166338D02*
X97063610Y-47280624D01*
X97063610Y-47280624D02*
X97101706Y-47433005D01*
X97101706Y-47433005D02*
X97139801Y-47509195D01*
X97139801Y-47509195D02*
X97215991Y-47585386D01*
X97215991Y-47585386D02*
X97330277Y-47623481D01*
X97330277Y-47623481D02*
X97520753Y-47623481D01*
X98930277Y-62063481D02*
X98854087Y-62063481D01*
X98854087Y-62063481D02*
X98777896Y-62101576D01*
X98777896Y-62101576D02*
X98739801Y-62139671D01*
X98739801Y-62139671D02*
X98701706Y-62215862D01*
X98701706Y-62215862D02*
X98663611Y-62368243D01*
X98663611Y-62368243D02*
X98663611Y-62558719D01*
X98663611Y-62558719D02*
X98701706Y-62711100D01*
X98701706Y-62711100D02*
X98739801Y-62787290D01*
X98739801Y-62787290D02*
X98777896Y-62825386D01*
X98777896Y-62825386D02*
X98854087Y-62863481D01*
X98854087Y-62863481D02*
X98930277Y-62863481D01*
X98930277Y-62863481D02*
X99006468Y-62825386D01*
X99006468Y-62825386D02*
X99044563Y-62787290D01*
X99044563Y-62787290D02*
X99082658Y-62711100D01*
X99082658Y-62711100D02*
X99120754Y-62558719D01*
X99120754Y-62558719D02*
X99120754Y-62368243D01*
X99120754Y-62368243D02*
X99082658Y-62215862D01*
X99082658Y-62215862D02*
X99044563Y-62139671D01*
X99044563Y-62139671D02*
X99006468Y-62101576D01*
X99006468Y-62101576D02*
X98930277Y-62063481D01*
X97901706Y-62863481D02*
X98358849Y-62863481D01*
X98130277Y-62863481D02*
X98130277Y-62063481D01*
X98130277Y-62063481D02*
X98206468Y-62177766D01*
X98206468Y-62177766D02*
X98282658Y-62253957D01*
X98282658Y-62253957D02*
X98358849Y-62292052D01*
X97139801Y-62863481D02*
X97596944Y-62863481D01*
X97368372Y-62863481D02*
X97368372Y-62063481D01*
X97368372Y-62063481D02*
X97444563Y-62177766D01*
X97444563Y-62177766D02*
X97520753Y-62253957D01*
X97520753Y-62253957D02*
X97596944Y-62292052D01*
X103743611Y-60323481D02*
X104200754Y-60323481D01*
X103972182Y-60323481D02*
X103972182Y-59523481D01*
X103972182Y-59523481D02*
X104048373Y-59637766D01*
X104048373Y-59637766D02*
X104124563Y-59713957D01*
X104124563Y-59713957D02*
X104200754Y-59752052D01*
X102981706Y-60323481D02*
X103438849Y-60323481D01*
X103210277Y-60323481D02*
X103210277Y-59523481D01*
X103210277Y-59523481D02*
X103286468Y-59637766D01*
X103286468Y-59637766D02*
X103362658Y-59713957D01*
X103362658Y-59713957D02*
X103438849Y-59752052D01*
X102715039Y-59523481D02*
X102219801Y-59523481D01*
X102219801Y-59523481D02*
X102486467Y-59828243D01*
X102486467Y-59828243D02*
X102372182Y-59828243D01*
X102372182Y-59828243D02*
X102295991Y-59866338D01*
X102295991Y-59866338D02*
X102257896Y-59904433D01*
X102257896Y-59904433D02*
X102219801Y-59980624D01*
X102219801Y-59980624D02*
X102219801Y-60171100D01*
X102219801Y-60171100D02*
X102257896Y-60247290D01*
X102257896Y-60247290D02*
X102295991Y-60285386D01*
X102295991Y-60285386D02*
X102372182Y-60323481D01*
X102372182Y-60323481D02*
X102600753Y-60323481D01*
X102600753Y-60323481D02*
X102676944Y-60285386D01*
X102676944Y-60285386D02*
X102715039Y-60247290D01*
X104276944Y-46823481D02*
X104010277Y-47623481D01*
X104010277Y-47623481D02*
X103743611Y-46823481D01*
X103019801Y-47547290D02*
X103057897Y-47585386D01*
X103057897Y-47585386D02*
X103172182Y-47623481D01*
X103172182Y-47623481D02*
X103248373Y-47623481D01*
X103248373Y-47623481D02*
X103362659Y-47585386D01*
X103362659Y-47585386D02*
X103438849Y-47509195D01*
X103438849Y-47509195D02*
X103476944Y-47433005D01*
X103476944Y-47433005D02*
X103515040Y-47280624D01*
X103515040Y-47280624D02*
X103515040Y-47166338D01*
X103515040Y-47166338D02*
X103476944Y-47013957D01*
X103476944Y-47013957D02*
X103438849Y-46937766D01*
X103438849Y-46937766D02*
X103362659Y-46861576D01*
X103362659Y-46861576D02*
X103248373Y-46823481D01*
X103248373Y-46823481D02*
X103172182Y-46823481D01*
X103172182Y-46823481D02*
X103057897Y-46861576D01*
X103057897Y-46861576D02*
X103019801Y-46899671D01*
X102219801Y-47547290D02*
X102257897Y-47585386D01*
X102257897Y-47585386D02*
X102372182Y-47623481D01*
X102372182Y-47623481D02*
X102448373Y-47623481D01*
X102448373Y-47623481D02*
X102562659Y-47585386D01*
X102562659Y-47585386D02*
X102638849Y-47509195D01*
X102638849Y-47509195D02*
X102676944Y-47433005D01*
X102676944Y-47433005D02*
X102715040Y-47280624D01*
X102715040Y-47280624D02*
X102715040Y-47166338D01*
X102715040Y-47166338D02*
X102676944Y-47013957D01*
X102676944Y-47013957D02*
X102638849Y-46937766D01*
X102638849Y-46937766D02*
X102562659Y-46861576D01*
X102562659Y-46861576D02*
X102448373Y-46823481D01*
X102448373Y-46823481D02*
X102372182Y-46823481D01*
X102372182Y-46823481D02*
X102257897Y-46861576D01*
X102257897Y-46861576D02*
X102219801Y-46899671D01*
X98930277Y-39203481D02*
X98854087Y-39203481D01*
X98854087Y-39203481D02*
X98777896Y-39241576D01*
X98777896Y-39241576D02*
X98739801Y-39279671D01*
X98739801Y-39279671D02*
X98701706Y-39355862D01*
X98701706Y-39355862D02*
X98663611Y-39508243D01*
X98663611Y-39508243D02*
X98663611Y-39698719D01*
X98663611Y-39698719D02*
X98701706Y-39851100D01*
X98701706Y-39851100D02*
X98739801Y-39927290D01*
X98739801Y-39927290D02*
X98777896Y-39965386D01*
X98777896Y-39965386D02*
X98854087Y-40003481D01*
X98854087Y-40003481D02*
X98930277Y-40003481D01*
X98930277Y-40003481D02*
X99006468Y-39965386D01*
X99006468Y-39965386D02*
X99044563Y-39927290D01*
X99044563Y-39927290D02*
X99082658Y-39851100D01*
X99082658Y-39851100D02*
X99120754Y-39698719D01*
X99120754Y-39698719D02*
X99120754Y-39508243D01*
X99120754Y-39508243D02*
X99082658Y-39355862D01*
X99082658Y-39355862D02*
X99044563Y-39279671D01*
X99044563Y-39279671D02*
X99006468Y-39241576D01*
X99006468Y-39241576D02*
X98930277Y-39203481D01*
X98168372Y-39203481D02*
X98092182Y-39203481D01*
X98092182Y-39203481D02*
X98015991Y-39241576D01*
X98015991Y-39241576D02*
X97977896Y-39279671D01*
X97977896Y-39279671D02*
X97939801Y-39355862D01*
X97939801Y-39355862D02*
X97901706Y-39508243D01*
X97901706Y-39508243D02*
X97901706Y-39698719D01*
X97901706Y-39698719D02*
X97939801Y-39851100D01*
X97939801Y-39851100D02*
X97977896Y-39927290D01*
X97977896Y-39927290D02*
X98015991Y-39965386D01*
X98015991Y-39965386D02*
X98092182Y-40003481D01*
X98092182Y-40003481D02*
X98168372Y-40003481D01*
X98168372Y-40003481D02*
X98244563Y-39965386D01*
X98244563Y-39965386D02*
X98282658Y-39927290D01*
X98282658Y-39927290D02*
X98320753Y-39851100D01*
X98320753Y-39851100D02*
X98358849Y-39698719D01*
X98358849Y-39698719D02*
X98358849Y-39508243D01*
X98358849Y-39508243D02*
X98320753Y-39355862D01*
X98320753Y-39355862D02*
X98282658Y-39279671D01*
X98282658Y-39279671D02*
X98244563Y-39241576D01*
X98244563Y-39241576D02*
X98168372Y-39203481D01*
X97215991Y-39203481D02*
X97368372Y-39203481D01*
X97368372Y-39203481D02*
X97444563Y-39241576D01*
X97444563Y-39241576D02*
X97482658Y-39279671D01*
X97482658Y-39279671D02*
X97558848Y-39393957D01*
X97558848Y-39393957D02*
X97596944Y-39546338D01*
X97596944Y-39546338D02*
X97596944Y-39851100D01*
X97596944Y-39851100D02*
X97558848Y-39927290D01*
X97558848Y-39927290D02*
X97520753Y-39965386D01*
X97520753Y-39965386D02*
X97444563Y-40003481D01*
X97444563Y-40003481D02*
X97292182Y-40003481D01*
X97292182Y-40003481D02*
X97215991Y-39965386D01*
X97215991Y-39965386D02*
X97177896Y-39927290D01*
X97177896Y-39927290D02*
X97139801Y-39851100D01*
X97139801Y-39851100D02*
X97139801Y-39660624D01*
X97139801Y-39660624D02*
X97177896Y-39584433D01*
X97177896Y-39584433D02*
X97215991Y-39546338D01*
X97215991Y-39546338D02*
X97292182Y-39508243D01*
X97292182Y-39508243D02*
X97444563Y-39508243D01*
X97444563Y-39508243D02*
X97520753Y-39546338D01*
X97520753Y-39546338D02*
X97558848Y-39584433D01*
X97558848Y-39584433D02*
X97596944Y-39660624D01*
X98663611Y-60323481D02*
X99120754Y-60323481D01*
X98892182Y-60323481D02*
X98892182Y-59523481D01*
X98892182Y-59523481D02*
X98968373Y-59637766D01*
X98968373Y-59637766D02*
X99044563Y-59713957D01*
X99044563Y-59713957D02*
X99120754Y-59752052D01*
X98168372Y-59523481D02*
X98092182Y-59523481D01*
X98092182Y-59523481D02*
X98015991Y-59561576D01*
X98015991Y-59561576D02*
X97977896Y-59599671D01*
X97977896Y-59599671D02*
X97939801Y-59675862D01*
X97939801Y-59675862D02*
X97901706Y-59828243D01*
X97901706Y-59828243D02*
X97901706Y-60018719D01*
X97901706Y-60018719D02*
X97939801Y-60171100D01*
X97939801Y-60171100D02*
X97977896Y-60247290D01*
X97977896Y-60247290D02*
X98015991Y-60285386D01*
X98015991Y-60285386D02*
X98092182Y-60323481D01*
X98092182Y-60323481D02*
X98168372Y-60323481D01*
X98168372Y-60323481D02*
X98244563Y-60285386D01*
X98244563Y-60285386D02*
X98282658Y-60247290D01*
X98282658Y-60247290D02*
X98320753Y-60171100D01*
X98320753Y-60171100D02*
X98358849Y-60018719D01*
X98358849Y-60018719D02*
X98358849Y-59828243D01*
X98358849Y-59828243D02*
X98320753Y-59675862D01*
X98320753Y-59675862D02*
X98282658Y-59599671D01*
X98282658Y-59599671D02*
X98244563Y-59561576D01*
X98244563Y-59561576D02*
X98168372Y-59523481D01*
X97406467Y-59523481D02*
X97330277Y-59523481D01*
X97330277Y-59523481D02*
X97254086Y-59561576D01*
X97254086Y-59561576D02*
X97215991Y-59599671D01*
X97215991Y-59599671D02*
X97177896Y-59675862D01*
X97177896Y-59675862D02*
X97139801Y-59828243D01*
X97139801Y-59828243D02*
X97139801Y-60018719D01*
X97139801Y-60018719D02*
X97177896Y-60171100D01*
X97177896Y-60171100D02*
X97215991Y-60247290D01*
X97215991Y-60247290D02*
X97254086Y-60285386D01*
X97254086Y-60285386D02*
X97330277Y-60323481D01*
X97330277Y-60323481D02*
X97406467Y-60323481D01*
X97406467Y-60323481D02*
X97482658Y-60285386D01*
X97482658Y-60285386D02*
X97520753Y-60247290D01*
X97520753Y-60247290D02*
X97558848Y-60171100D01*
X97558848Y-60171100D02*
X97596944Y-60018719D01*
X97596944Y-60018719D02*
X97596944Y-59828243D01*
X97596944Y-59828243D02*
X97558848Y-59675862D01*
X97558848Y-59675862D02*
X97520753Y-59599671D01*
X97520753Y-59599671D02*
X97482658Y-59561576D01*
X97482658Y-59561576D02*
X97406467Y-59523481D01*
X98739801Y-44321576D02*
X98815991Y-44283481D01*
X98815991Y-44283481D02*
X98930277Y-44283481D01*
X98930277Y-44283481D02*
X99044563Y-44321576D01*
X99044563Y-44321576D02*
X99120753Y-44397766D01*
X99120753Y-44397766D02*
X99158848Y-44473957D01*
X99158848Y-44473957D02*
X99196944Y-44626338D01*
X99196944Y-44626338D02*
X99196944Y-44740624D01*
X99196944Y-44740624D02*
X99158848Y-44893005D01*
X99158848Y-44893005D02*
X99120753Y-44969195D01*
X99120753Y-44969195D02*
X99044563Y-45045386D01*
X99044563Y-45045386D02*
X98930277Y-45083481D01*
X98930277Y-45083481D02*
X98854086Y-45083481D01*
X98854086Y-45083481D02*
X98739801Y-45045386D01*
X98739801Y-45045386D02*
X98701705Y-45007290D01*
X98701705Y-45007290D02*
X98701705Y-44740624D01*
X98701705Y-44740624D02*
X98854086Y-44740624D01*
X98358848Y-45083481D02*
X98358848Y-44283481D01*
X98358848Y-44283481D02*
X97901705Y-45083481D01*
X97901705Y-45083481D02*
X97901705Y-44283481D01*
X97520753Y-45083481D02*
X97520753Y-44283481D01*
X97520753Y-44283481D02*
X97330277Y-44283481D01*
X97330277Y-44283481D02*
X97215991Y-44321576D01*
X97215991Y-44321576D02*
X97139801Y-44397766D01*
X97139801Y-44397766D02*
X97101706Y-44473957D01*
X97101706Y-44473957D02*
X97063610Y-44626338D01*
X97063610Y-44626338D02*
X97063610Y-44740624D01*
X97063610Y-44740624D02*
X97101706Y-44893005D01*
X97101706Y-44893005D02*
X97139801Y-44969195D01*
X97139801Y-44969195D02*
X97215991Y-45045386D01*
X97215991Y-45045386D02*
X97330277Y-45083481D01*
X97330277Y-45083481D02*
X97520753Y-45083481D01*
X103648372Y-45083481D02*
X103915039Y-44702528D01*
X104105515Y-45083481D02*
X104105515Y-44283481D01*
X104105515Y-44283481D02*
X103800753Y-44283481D01*
X103800753Y-44283481D02*
X103724563Y-44321576D01*
X103724563Y-44321576D02*
X103686468Y-44359671D01*
X103686468Y-44359671D02*
X103648372Y-44435862D01*
X103648372Y-44435862D02*
X103648372Y-44550147D01*
X103648372Y-44550147D02*
X103686468Y-44626338D01*
X103686468Y-44626338D02*
X103724563Y-44664433D01*
X103724563Y-44664433D02*
X103800753Y-44702528D01*
X103800753Y-44702528D02*
X104105515Y-44702528D01*
X103343611Y-45045386D02*
X103229325Y-45083481D01*
X103229325Y-45083481D02*
X103038849Y-45083481D01*
X103038849Y-45083481D02*
X102962658Y-45045386D01*
X102962658Y-45045386D02*
X102924563Y-45007290D01*
X102924563Y-45007290D02*
X102886468Y-44931100D01*
X102886468Y-44931100D02*
X102886468Y-44854909D01*
X102886468Y-44854909D02*
X102924563Y-44778719D01*
X102924563Y-44778719D02*
X102962658Y-44740624D01*
X102962658Y-44740624D02*
X103038849Y-44702528D01*
X103038849Y-44702528D02*
X103191230Y-44664433D01*
X103191230Y-44664433D02*
X103267420Y-44626338D01*
X103267420Y-44626338D02*
X103305515Y-44588243D01*
X103305515Y-44588243D02*
X103343611Y-44512052D01*
X103343611Y-44512052D02*
X103343611Y-44435862D01*
X103343611Y-44435862D02*
X103305515Y-44359671D01*
X103305515Y-44359671D02*
X103267420Y-44321576D01*
X103267420Y-44321576D02*
X103191230Y-44283481D01*
X103191230Y-44283481D02*
X103000753Y-44283481D01*
X103000753Y-44283481D02*
X102886468Y-44321576D01*
X102657896Y-44283481D02*
X102200753Y-44283481D01*
X102429325Y-45083481D02*
X102429325Y-44283481D01*
X104010277Y-49363481D02*
X103934087Y-49363481D01*
X103934087Y-49363481D02*
X103857896Y-49401576D01*
X103857896Y-49401576D02*
X103819801Y-49439671D01*
X103819801Y-49439671D02*
X103781706Y-49515862D01*
X103781706Y-49515862D02*
X103743611Y-49668243D01*
X103743611Y-49668243D02*
X103743611Y-49858719D01*
X103743611Y-49858719D02*
X103781706Y-50011100D01*
X103781706Y-50011100D02*
X103819801Y-50087290D01*
X103819801Y-50087290D02*
X103857896Y-50125386D01*
X103857896Y-50125386D02*
X103934087Y-50163481D01*
X103934087Y-50163481D02*
X104010277Y-50163481D01*
X104010277Y-50163481D02*
X104086468Y-50125386D01*
X104086468Y-50125386D02*
X104124563Y-50087290D01*
X104124563Y-50087290D02*
X104162658Y-50011100D01*
X104162658Y-50011100D02*
X104200754Y-49858719D01*
X104200754Y-49858719D02*
X104200754Y-49668243D01*
X104200754Y-49668243D02*
X104162658Y-49515862D01*
X104162658Y-49515862D02*
X104124563Y-49439671D01*
X104124563Y-49439671D02*
X104086468Y-49401576D01*
X104086468Y-49401576D02*
X104010277Y-49363481D01*
X103476944Y-49363481D02*
X102981706Y-49363481D01*
X102981706Y-49363481D02*
X103248372Y-49668243D01*
X103248372Y-49668243D02*
X103134087Y-49668243D01*
X103134087Y-49668243D02*
X103057896Y-49706338D01*
X103057896Y-49706338D02*
X103019801Y-49744433D01*
X103019801Y-49744433D02*
X102981706Y-49820624D01*
X102981706Y-49820624D02*
X102981706Y-50011100D01*
X102981706Y-50011100D02*
X103019801Y-50087290D01*
X103019801Y-50087290D02*
X103057896Y-50125386D01*
X103057896Y-50125386D02*
X103134087Y-50163481D01*
X103134087Y-50163481D02*
X103362658Y-50163481D01*
X103362658Y-50163481D02*
X103438849Y-50125386D01*
X103438849Y-50125386D02*
X103476944Y-50087290D01*
X102219801Y-50163481D02*
X102676944Y-50163481D01*
X102448372Y-50163481D02*
X102448372Y-49363481D01*
X102448372Y-49363481D02*
X102524563Y-49477766D01*
X102524563Y-49477766D02*
X102600753Y-49553957D01*
X102600753Y-49553957D02*
X102676944Y-49592052D01*
X98930277Y-49363481D02*
X98854087Y-49363481D01*
X98854087Y-49363481D02*
X98777896Y-49401576D01*
X98777896Y-49401576D02*
X98739801Y-49439671D01*
X98739801Y-49439671D02*
X98701706Y-49515862D01*
X98701706Y-49515862D02*
X98663611Y-49668243D01*
X98663611Y-49668243D02*
X98663611Y-49858719D01*
X98663611Y-49858719D02*
X98701706Y-50011100D01*
X98701706Y-50011100D02*
X98739801Y-50087290D01*
X98739801Y-50087290D02*
X98777896Y-50125386D01*
X98777896Y-50125386D02*
X98854087Y-50163481D01*
X98854087Y-50163481D02*
X98930277Y-50163481D01*
X98930277Y-50163481D02*
X99006468Y-50125386D01*
X99006468Y-50125386D02*
X99044563Y-50087290D01*
X99044563Y-50087290D02*
X99082658Y-50011100D01*
X99082658Y-50011100D02*
X99120754Y-49858719D01*
X99120754Y-49858719D02*
X99120754Y-49668243D01*
X99120754Y-49668243D02*
X99082658Y-49515862D01*
X99082658Y-49515862D02*
X99044563Y-49439671D01*
X99044563Y-49439671D02*
X99006468Y-49401576D01*
X99006468Y-49401576D02*
X98930277Y-49363481D01*
X97901706Y-50163481D02*
X98358849Y-50163481D01*
X98130277Y-50163481D02*
X98130277Y-49363481D01*
X98130277Y-49363481D02*
X98206468Y-49477766D01*
X98206468Y-49477766D02*
X98282658Y-49553957D01*
X98282658Y-49553957D02*
X98358849Y-49592052D01*
X97635039Y-49363481D02*
X97101705Y-49363481D01*
X97101705Y-49363481D02*
X97444563Y-50163481D01*
X98663611Y-67943481D02*
X99120754Y-67943481D01*
X98892182Y-67943481D02*
X98892182Y-67143481D01*
X98892182Y-67143481D02*
X98968373Y-67257766D01*
X98968373Y-67257766D02*
X99044563Y-67333957D01*
X99044563Y-67333957D02*
X99120754Y-67372052D01*
X98168372Y-67143481D02*
X98092182Y-67143481D01*
X98092182Y-67143481D02*
X98015991Y-67181576D01*
X98015991Y-67181576D02*
X97977896Y-67219671D01*
X97977896Y-67219671D02*
X97939801Y-67295862D01*
X97939801Y-67295862D02*
X97901706Y-67448243D01*
X97901706Y-67448243D02*
X97901706Y-67638719D01*
X97901706Y-67638719D02*
X97939801Y-67791100D01*
X97939801Y-67791100D02*
X97977896Y-67867290D01*
X97977896Y-67867290D02*
X98015991Y-67905386D01*
X98015991Y-67905386D02*
X98092182Y-67943481D01*
X98092182Y-67943481D02*
X98168372Y-67943481D01*
X98168372Y-67943481D02*
X98244563Y-67905386D01*
X98244563Y-67905386D02*
X98282658Y-67867290D01*
X98282658Y-67867290D02*
X98320753Y-67791100D01*
X98320753Y-67791100D02*
X98358849Y-67638719D01*
X98358849Y-67638719D02*
X98358849Y-67448243D01*
X98358849Y-67448243D02*
X98320753Y-67295862D01*
X98320753Y-67295862D02*
X98282658Y-67219671D01*
X98282658Y-67219671D02*
X98244563Y-67181576D01*
X98244563Y-67181576D02*
X98168372Y-67143481D01*
X97215991Y-67143481D02*
X97368372Y-67143481D01*
X97368372Y-67143481D02*
X97444563Y-67181576D01*
X97444563Y-67181576D02*
X97482658Y-67219671D01*
X97482658Y-67219671D02*
X97558848Y-67333957D01*
X97558848Y-67333957D02*
X97596944Y-67486338D01*
X97596944Y-67486338D02*
X97596944Y-67791100D01*
X97596944Y-67791100D02*
X97558848Y-67867290D01*
X97558848Y-67867290D02*
X97520753Y-67905386D01*
X97520753Y-67905386D02*
X97444563Y-67943481D01*
X97444563Y-67943481D02*
X97292182Y-67943481D01*
X97292182Y-67943481D02*
X97215991Y-67905386D01*
X97215991Y-67905386D02*
X97177896Y-67867290D01*
X97177896Y-67867290D02*
X97139801Y-67791100D01*
X97139801Y-67791100D02*
X97139801Y-67600624D01*
X97139801Y-67600624D02*
X97177896Y-67524433D01*
X97177896Y-67524433D02*
X97215991Y-67486338D01*
X97215991Y-67486338D02*
X97292182Y-67448243D01*
X97292182Y-67448243D02*
X97444563Y-67448243D01*
X97444563Y-67448243D02*
X97520753Y-67486338D01*
X97520753Y-67486338D02*
X97558848Y-67524433D01*
X97558848Y-67524433D02*
X97596944Y-67600624D01*
X103762658Y-40003481D02*
X104029325Y-39622528D01*
X104219801Y-40003481D02*
X104219801Y-39203481D01*
X104219801Y-39203481D02*
X103915039Y-39203481D01*
X103915039Y-39203481D02*
X103838849Y-39241576D01*
X103838849Y-39241576D02*
X103800754Y-39279671D01*
X103800754Y-39279671D02*
X103762658Y-39355862D01*
X103762658Y-39355862D02*
X103762658Y-39470147D01*
X103762658Y-39470147D02*
X103800754Y-39546338D01*
X103800754Y-39546338D02*
X103838849Y-39584433D01*
X103838849Y-39584433D02*
X103915039Y-39622528D01*
X103915039Y-39622528D02*
X104219801Y-39622528D01*
X103457897Y-39774909D02*
X103076944Y-39774909D01*
X103534087Y-40003481D02*
X103267420Y-39203481D01*
X103267420Y-39203481D02*
X103000754Y-40003481D01*
X102810278Y-39203481D02*
X102619802Y-40003481D01*
X102619802Y-40003481D02*
X102467421Y-39432052D01*
X102467421Y-39432052D02*
X102315040Y-40003481D01*
X102315040Y-40003481D02*
X102124564Y-39203481D01*
X103743611Y-62863481D02*
X104200754Y-62863481D01*
X103972182Y-62863481D02*
X103972182Y-62063481D01*
X103972182Y-62063481D02*
X104048373Y-62177766D01*
X104048373Y-62177766D02*
X104124563Y-62253957D01*
X104124563Y-62253957D02*
X104200754Y-62292052D01*
X102981706Y-62863481D02*
X103438849Y-62863481D01*
X103210277Y-62863481D02*
X103210277Y-62063481D01*
X103210277Y-62063481D02*
X103286468Y-62177766D01*
X103286468Y-62177766D02*
X103362658Y-62253957D01*
X103362658Y-62253957D02*
X103438849Y-62292052D01*
X102219801Y-62863481D02*
X102676944Y-62863481D01*
X102448372Y-62863481D02*
X102448372Y-62063481D01*
X102448372Y-62063481D02*
X102524563Y-62177766D01*
X102524563Y-62177766D02*
X102600753Y-62253957D01*
X102600753Y-62253957D02*
X102676944Y-62292052D01*
X83150000Y-39300000D02*
X83650000Y-39300000D01*
X83150000Y-51300000D02*
X83150000Y-39300000D01*
X83650000Y-39300000D02*
X83650000Y-37400000D01*
X83700000Y-37400000D02*
X88650000Y-37400000D01*
X88650000Y-39300000D02*
X88650000Y-37400000D01*
X89150000Y-39300000D02*
X88650000Y-39300000D01*
X89150000Y-39300000D02*
X89150000Y-51300000D01*
X89150000Y-51300000D02*
X83150000Y-51300000D01*
X83200000Y-70700000D02*
X83900000Y-70700000D01*
X83200000Y-70700000D02*
X83200000Y-64800000D01*
X83200000Y-70700000D02*
X83200000Y-64700000D01*
X86700000Y-70700000D02*
X86100000Y-70700000D01*
X83200000Y-64700000D02*
X83900000Y-64700000D01*
X86700000Y-64700000D02*
X86700000Y-70700000D01*
X86700000Y-64700000D02*
X86100000Y-64700000D01*
X113225000Y-51375000D02*
X113225000Y-56025000D01*
X114400000Y-45150000D02*
X114400000Y-49095000D01*
X114400000Y-49104000D02*
X118010000Y-49104000D01*
X117000000Y-56025000D02*
X113225000Y-56025000D01*
X117925000Y-51375000D02*
X113225000Y-51375000D01*
X118220000Y-57500000D02*
X118220000Y-58200000D01*
X119950000Y-58550000D02*
X119950000Y-59950000D01*
X119950000Y-59250000D02*
X120850000Y-58550000D01*
X120850000Y-58550000D02*
X120850000Y-59950000D01*
X120850000Y-59950000D02*
X119950000Y-59250000D01*
X122775000Y-53575000D02*
X120225000Y-53575000D01*
X122775000Y-58225000D02*
X118225000Y-58225000D01*
X122800000Y-53599999D02*
X122800000Y-58200000D01*
X125300000Y-43196000D02*
X116675000Y-43196000D01*
X125300000Y-47104000D02*
X125300000Y-43196000D01*
X125300000Y-47150000D02*
X120250000Y-47196000D01*
X116675000Y-43196001D02*
G75*
G03*
X114411001Y-45080000I-190000J-2073999D01*
G01*
X118220000Y-57450000D02*
G75*
G03*
X117000000Y-56030000I-1320000J100000D01*
G01*
X120275000Y-47200001D02*
G75*
G03*
X118015001Y-49079999I-190001J-2069997D01*
G01*
X117930001Y-51400000D02*
G75*
G03*
X120300000Y-53569999I2269999J100000D01*
G01*
X132225000Y-48975000D02*
X132225000Y-53625000D01*
X133400000Y-42750000D02*
X133400000Y-46695000D01*
X133400000Y-46704000D02*
X137010000Y-46704000D01*
X136000000Y-53625000D02*
X132225000Y-53625000D01*
X136925000Y-48975000D02*
X132225000Y-48975000D01*
X137220000Y-55100000D02*
X137220000Y-55800000D01*
X138950000Y-56150000D02*
X138950000Y-57550000D01*
X138950000Y-56850000D02*
X139850000Y-56150000D01*
X139850000Y-56150000D02*
X139850000Y-57550000D01*
X139850000Y-57550000D02*
X138950000Y-56850000D01*
X141775000Y-51175000D02*
X139225000Y-51175000D01*
X141775000Y-55825000D02*
X137225000Y-55825000D01*
X141800000Y-51199999D02*
X141800000Y-55800000D01*
X144300000Y-40796000D02*
X135675000Y-40796000D01*
X144300000Y-44704000D02*
X144300000Y-40796000D01*
X144300000Y-44750000D02*
X139250000Y-44796000D01*
X135675000Y-40796001D02*
G75*
G03*
X133411001Y-42680000I-190000J-2073999D01*
G01*
X137220000Y-55050000D02*
G75*
G03*
X136000000Y-53630000I-1320000J100000D01*
G01*
X139275000Y-44800001D02*
G75*
G03*
X137015001Y-46679999I-190001J-2069997D01*
G01*
X136930001Y-49000000D02*
G75*
G03*
X139300000Y-51169999I2269999J100000D01*
G01*
X151325000Y-47585000D02*
X151325000Y-52235000D01*
X152500000Y-41360000D02*
X152500000Y-45305000D01*
X152500000Y-45314000D02*
X156110000Y-45314000D01*
X155100000Y-52235000D02*
X151325000Y-52235000D01*
X156025000Y-47585000D02*
X151325000Y-47585000D01*
X156320000Y-53710000D02*
X156320000Y-54410000D01*
X158050000Y-54760000D02*
X158050000Y-56160000D01*
X158050000Y-55460000D02*
X158950000Y-54760000D01*
X158950000Y-54760000D02*
X158950000Y-56160000D01*
X158950000Y-56160000D02*
X158050000Y-55460000D01*
X160875000Y-49785000D02*
X158325000Y-49785000D01*
X160875000Y-54435000D02*
X156325000Y-54435000D01*
X160900000Y-49809999D02*
X160900000Y-54410000D01*
X163400000Y-39406000D02*
X154775000Y-39406000D01*
X163400000Y-43314000D02*
X163400000Y-39406000D01*
X163400000Y-43360000D02*
X158350000Y-43406000D01*
X154775000Y-39406001D02*
G75*
G03*
X152511001Y-41290000I-190000J-2073999D01*
G01*
X156320000Y-53660000D02*
G75*
G03*
X155100000Y-52240000I-1320000J100000D01*
G01*
X158375000Y-43410001D02*
G75*
G03*
X156115001Y-45289999I-190001J-2069997D01*
G01*
X156030001Y-47610000D02*
G75*
G03*
X158400000Y-49779999I2269999J100000D01*
G01*
X170325000Y-48975000D02*
X170325000Y-53625000D01*
X171500000Y-42750000D02*
X171500000Y-46695000D01*
X171500000Y-46704000D02*
X175110000Y-46704000D01*
X174100000Y-53625000D02*
X170325000Y-53625000D01*
X175025000Y-48975000D02*
X170325000Y-48975000D01*
X175320000Y-55100000D02*
X175320000Y-55800000D01*
X177050000Y-56150000D02*
X177050000Y-57550000D01*
X177050000Y-56850000D02*
X177950000Y-56150000D01*
X177950000Y-56150000D02*
X177950000Y-57550000D01*
X177950000Y-57550000D02*
X177050000Y-56850000D01*
X179875000Y-51175000D02*
X177325000Y-51175000D01*
X179875000Y-55825000D02*
X175325000Y-55825000D01*
X179900000Y-51199999D02*
X179900000Y-55800000D01*
X182400000Y-40796000D02*
X173775000Y-40796000D01*
X182400000Y-44704000D02*
X182400000Y-40796000D01*
X182400000Y-44750000D02*
X177350000Y-44796000D01*
X173775000Y-40796001D02*
G75*
G03*
X171511001Y-42680000I-190000J-2073999D01*
G01*
X175320000Y-55050000D02*
G75*
G03*
X174100000Y-53630000I-1320000J100000D01*
G01*
X177375000Y-44800001D02*
G75*
G03*
X175115001Y-46679999I-190001J-2069997D01*
G01*
X175030001Y-49000000D02*
G75*
G03*
X177400000Y-51169999I2269999J100000D01*
G01*
X189425000Y-53775000D02*
X189425000Y-58425000D01*
X190600000Y-47550000D02*
X190600000Y-51495000D01*
X190600000Y-51504000D02*
X194210000Y-51504000D01*
X193200000Y-58425000D02*
X189425000Y-58425000D01*
X194125000Y-53775000D02*
X189425000Y-53775000D01*
X194420000Y-59900000D02*
X194420000Y-60600000D01*
X196150000Y-60950000D02*
X196150000Y-62350000D01*
X196150000Y-61650000D02*
X197050000Y-60950000D01*
X197050000Y-60950000D02*
X197050000Y-62350000D01*
X197050000Y-62350000D02*
X196150000Y-61650000D01*
X198975000Y-55975000D02*
X196425000Y-55975000D01*
X198975000Y-60625000D02*
X194425000Y-60625000D01*
X199000000Y-55999999D02*
X199000000Y-60600000D01*
X201500000Y-45596000D02*
X192875000Y-45596000D01*
X201500000Y-49504000D02*
X201500000Y-45596000D01*
X201500000Y-49550000D02*
X196450000Y-49596000D01*
X192875000Y-45596001D02*
G75*
G03*
X190611001Y-47480000I-190000J-2073999D01*
G01*
X194420000Y-59850000D02*
G75*
G03*
X193200000Y-58430000I-1320000J100000D01*
G01*
X196475000Y-49600001D02*
G75*
G03*
X194215001Y-51479999I-190001J-2069997D01*
G01*
X194130001Y-53800000D02*
G75*
G03*
X196500000Y-55969999I2269999J100000D01*
G01*
X208425000Y-55275000D02*
X208425000Y-59925000D01*
X209600000Y-49050000D02*
X209600000Y-52995000D01*
X209600000Y-53004000D02*
X213210000Y-53004000D01*
X212200000Y-59925000D02*
X208425000Y-59925000D01*
X213125000Y-55275000D02*
X208425000Y-55275000D01*
X213420000Y-61400000D02*
X213420000Y-62100000D01*
X215150000Y-62450000D02*
X215150000Y-63850000D01*
X215150000Y-63150000D02*
X216050000Y-62450000D01*
X216050000Y-62450000D02*
X216050000Y-63850000D01*
X216050000Y-63850000D02*
X215150000Y-63150000D01*
X217975000Y-57475000D02*
X215425000Y-57475000D01*
X217975000Y-62125000D02*
X213425000Y-62125000D01*
X218000000Y-57499999D02*
X218000000Y-62100000D01*
X220500000Y-47096000D02*
X211875000Y-47096000D01*
X220500000Y-51004000D02*
X220500000Y-47096000D01*
X220500000Y-51050000D02*
X215450000Y-51096000D01*
X211875000Y-47096001D02*
G75*
G03*
X209611001Y-48980000I-190000J-2073999D01*
G01*
X213420000Y-61350000D02*
G75*
G03*
X212200000Y-59930000I-1320000J100000D01*
G01*
X215475000Y-51100001D02*
G75*
G03*
X213215001Y-52979999I-190001J-2069997D01*
G01*
X213130001Y-55300000D02*
G75*
G03*
X215500000Y-57469999I2269999J100000D01*
G01*
X113225000Y-70475000D02*
X113225000Y-75125000D01*
X114400000Y-64250000D02*
X114400000Y-68195000D01*
X114400000Y-68204000D02*
X118010000Y-68204000D01*
X117000000Y-75125000D02*
X113225000Y-75125000D01*
X117925000Y-70475000D02*
X113225000Y-70475000D01*
X118220000Y-76600000D02*
X118220000Y-77300000D01*
X119950000Y-77650000D02*
X119950000Y-79050000D01*
X119950000Y-78350000D02*
X120850000Y-77650000D01*
X120850000Y-77650000D02*
X120850000Y-79050000D01*
X120850000Y-79050000D02*
X119950000Y-78350000D01*
X122775000Y-72675000D02*
X120225000Y-72675000D01*
X122775000Y-77325000D02*
X118225000Y-77325000D01*
X122800000Y-72699999D02*
X122800000Y-77300000D01*
X125300000Y-62296000D02*
X116675000Y-62296000D01*
X125300000Y-66204000D02*
X125300000Y-62296000D01*
X125300000Y-66250000D02*
X120250000Y-66296000D01*
X116675000Y-62296001D02*
G75*
G03*
X114411001Y-64180000I-190000J-2073999D01*
G01*
X118220000Y-76550000D02*
G75*
G03*
X117000000Y-75130000I-1320000J100000D01*
G01*
X120275000Y-66300001D02*
G75*
G03*
X118015001Y-68179999I-190001J-2069997D01*
G01*
X117930001Y-70500000D02*
G75*
G03*
X120300000Y-72669999I2269999J100000D01*
G01*
X132225000Y-68075000D02*
X132225000Y-72725000D01*
X133400000Y-61850000D02*
X133400000Y-65795000D01*
X133400000Y-65804000D02*
X137010000Y-65804000D01*
X136000000Y-72725000D02*
X132225000Y-72725000D01*
X136925000Y-68075000D02*
X132225000Y-68075000D01*
X137220000Y-74200000D02*
X137220000Y-74900000D01*
X138950000Y-75250000D02*
X138950000Y-76650000D01*
X138950000Y-75950000D02*
X139850000Y-75250000D01*
X139850000Y-75250000D02*
X139850000Y-76650000D01*
X139850000Y-76650000D02*
X138950000Y-75950000D01*
X141775000Y-70275000D02*
X139225000Y-70275000D01*
X141775000Y-74925000D02*
X137225000Y-74925000D01*
X141800000Y-70299999D02*
X141800000Y-74900000D01*
X144300000Y-59896000D02*
X135675000Y-59896000D01*
X144300000Y-63804000D02*
X144300000Y-59896000D01*
X144300000Y-63850000D02*
X139250000Y-63896000D01*
X135675000Y-59896001D02*
G75*
G03*
X133411001Y-61780000I-190000J-2073999D01*
G01*
X137220000Y-74150000D02*
G75*
G03*
X136000000Y-72730000I-1320000J100000D01*
G01*
X139275000Y-63900001D02*
G75*
G03*
X137015001Y-65779999I-190001J-2069997D01*
G01*
X136930001Y-68100000D02*
G75*
G03*
X139300000Y-70269999I2269999J100000D01*
G01*
X151325000Y-66675000D02*
X151325000Y-71325000D01*
X152500000Y-60450000D02*
X152500000Y-64395000D01*
X152500000Y-64404000D02*
X156110000Y-64404000D01*
X155100000Y-71325000D02*
X151325000Y-71325000D01*
X156025000Y-66675000D02*
X151325000Y-66675000D01*
X156320000Y-72800000D02*
X156320000Y-73500000D01*
X158050000Y-73850000D02*
X158050000Y-75250000D01*
X158050000Y-74550000D02*
X158950000Y-73850000D01*
X158950000Y-73850000D02*
X158950000Y-75250000D01*
X158950000Y-75250000D02*
X158050000Y-74550000D01*
X160875000Y-68875000D02*
X158325000Y-68875000D01*
X160875000Y-73525000D02*
X156325000Y-73525000D01*
X160900000Y-68899999D02*
X160900000Y-73500000D01*
X163400000Y-58496000D02*
X154775000Y-58496000D01*
X163400000Y-62404000D02*
X163400000Y-58496000D01*
X163400000Y-62450000D02*
X158350000Y-62496000D01*
X154775000Y-58496001D02*
G75*
G03*
X152511001Y-60380000I-190000J-2073999D01*
G01*
X156320000Y-72750000D02*
G75*
G03*
X155100000Y-71330000I-1320000J100000D01*
G01*
X158375000Y-62500001D02*
G75*
G03*
X156115001Y-64379999I-190001J-2069997D01*
G01*
X156030001Y-66700000D02*
G75*
G03*
X158400000Y-68869999I2269999J100000D01*
G01*
X170325000Y-67975000D02*
X170325000Y-72625000D01*
X171500000Y-61750000D02*
X171500000Y-65695000D01*
X171500000Y-65704000D02*
X175110000Y-65704000D01*
X174100000Y-72625000D02*
X170325000Y-72625000D01*
X175025000Y-67975000D02*
X170325000Y-67975000D01*
X175320000Y-74100000D02*
X175320000Y-74800000D01*
X177050000Y-75150000D02*
X177050000Y-76550000D01*
X177050000Y-75850000D02*
X177950000Y-75150000D01*
X177950000Y-75150000D02*
X177950000Y-76550000D01*
X177950000Y-76550000D02*
X177050000Y-75850000D01*
X179875000Y-70175000D02*
X177325000Y-70175000D01*
X179875000Y-74825000D02*
X175325000Y-74825000D01*
X179900000Y-70199999D02*
X179900000Y-74800000D01*
X182400000Y-59796000D02*
X173775000Y-59796000D01*
X182400000Y-63704000D02*
X182400000Y-59796000D01*
X182400000Y-63750000D02*
X177350000Y-63796000D01*
X173775000Y-59796001D02*
G75*
G03*
X171511001Y-61680000I-190000J-2073999D01*
G01*
X175320000Y-74050000D02*
G75*
G03*
X174100000Y-72630000I-1320000J100000D01*
G01*
X177375000Y-63800001D02*
G75*
G03*
X175115001Y-65679999I-190001J-2069997D01*
G01*
X175030001Y-68000000D02*
G75*
G03*
X177400000Y-70169999I2269999J100000D01*
G01*
X189425000Y-72675000D02*
X189425000Y-77325000D01*
X190600000Y-66450000D02*
X190600000Y-70395000D01*
X190600000Y-70404000D02*
X194210000Y-70404000D01*
X193200000Y-77325000D02*
X189425000Y-77325000D01*
X194125000Y-72675000D02*
X189425000Y-72675000D01*
X194420000Y-78800000D02*
X194420000Y-79500000D01*
X196150000Y-79850000D02*
X196150000Y-81250000D01*
X196150000Y-80550000D02*
X197050000Y-79850000D01*
X197050000Y-79850000D02*
X197050000Y-81250000D01*
X197050000Y-81250000D02*
X196150000Y-80550000D01*
X198975000Y-74875000D02*
X196425000Y-74875000D01*
X198975000Y-79525000D02*
X194425000Y-79525000D01*
X199000000Y-74899999D02*
X199000000Y-79500000D01*
X201500000Y-64496000D02*
X192875000Y-64496000D01*
X201500000Y-68404000D02*
X201500000Y-64496000D01*
X201500000Y-68450000D02*
X196450000Y-68496000D01*
X192875000Y-64496001D02*
G75*
G03*
X190611001Y-66380000I-190000J-2073999D01*
G01*
X194420000Y-78750000D02*
G75*
G03*
X193200000Y-77330000I-1320000J100000D01*
G01*
X196475000Y-68500001D02*
G75*
G03*
X194215001Y-70379999I-190001J-2069997D01*
G01*
X194130001Y-72700000D02*
G75*
G03*
X196500000Y-74869999I2269999J100000D01*
G01*
X208425000Y-74175000D02*
X208425000Y-78825000D01*
X209600000Y-67950000D02*
X209600000Y-71895000D01*
X209600000Y-71904000D02*
X213210000Y-71904000D01*
X212200000Y-78825000D02*
X208425000Y-78825000D01*
X213125000Y-74175000D02*
X208425000Y-74175000D01*
X213420000Y-80300000D02*
X213420000Y-81000000D01*
X215150000Y-81350000D02*
X215150000Y-82750000D01*
X215150000Y-82050000D02*
X216050000Y-81350000D01*
X216050000Y-81350000D02*
X216050000Y-82750000D01*
X216050000Y-82750000D02*
X215150000Y-82050000D01*
X217975000Y-76375000D02*
X215425000Y-76375000D01*
X217975000Y-81025000D02*
X213425000Y-81025000D01*
X218000000Y-76399999D02*
X218000000Y-81000000D01*
X220500000Y-65996000D02*
X211875000Y-65996000D01*
X220500000Y-69904000D02*
X220500000Y-65996000D01*
X220500000Y-69950000D02*
X215450000Y-69996000D01*
X211875000Y-65996001D02*
G75*
G03*
X209611001Y-67880000I-190000J-2073999D01*
G01*
X213420000Y-80250000D02*
G75*
G03*
X212200000Y-78830000I-1320000J100000D01*
G01*
X215475000Y-70000001D02*
G75*
G03*
X213215001Y-71879999I-190001J-2069997D01*
G01*
X213130001Y-74200000D02*
G75*
G03*
X215500000Y-76369999I2269999J100000D01*
G01*
X113225000Y-89475000D02*
X113225000Y-94125000D01*
X114400000Y-83250000D02*
X114400000Y-87195000D01*
X114400000Y-87204000D02*
X118010000Y-87204000D01*
X117000000Y-94125000D02*
X113225000Y-94125000D01*
X117925000Y-89475000D02*
X113225000Y-89475000D01*
X118220000Y-95600000D02*
X118220000Y-96300000D01*
X119950000Y-96650000D02*
X119950000Y-98050000D01*
X119950000Y-97350000D02*
X120850000Y-96650000D01*
X120850000Y-96650000D02*
X120850000Y-98050000D01*
X120850000Y-98050000D02*
X119950000Y-97350000D01*
X122775000Y-91675000D02*
X120225000Y-91675000D01*
X122775000Y-96325000D02*
X118225000Y-96325000D01*
X122800000Y-91699999D02*
X122800000Y-96300000D01*
X125300000Y-81296000D02*
X116675000Y-81296000D01*
X125300000Y-85204000D02*
X125300000Y-81296000D01*
X125300000Y-85250000D02*
X120250000Y-85296000D01*
X116675000Y-81296001D02*
G75*
G03*
X114411001Y-83180000I-190000J-2073999D01*
G01*
X118220000Y-95550000D02*
G75*
G03*
X117000000Y-94130000I-1320000J100000D01*
G01*
X120275000Y-85300001D02*
G75*
G03*
X118015001Y-87179999I-190001J-2069997D01*
G01*
X117930001Y-89500000D02*
G75*
G03*
X120300000Y-91669999I2269999J100000D01*
G01*
X132225000Y-87075000D02*
X132225000Y-91725000D01*
X133400000Y-80850000D02*
X133400000Y-84795000D01*
X133400000Y-84804000D02*
X137010000Y-84804000D01*
X136000000Y-91725000D02*
X132225000Y-91725000D01*
X136925000Y-87075000D02*
X132225000Y-87075000D01*
X137220000Y-93200000D02*
X137220000Y-93900000D01*
X138950000Y-94250000D02*
X138950000Y-95650000D01*
X138950000Y-94950000D02*
X139850000Y-94250000D01*
X139850000Y-94250000D02*
X139850000Y-95650000D01*
X139850000Y-95650000D02*
X138950000Y-94950000D01*
X141775000Y-89275000D02*
X139225000Y-89275000D01*
X141775000Y-93925000D02*
X137225000Y-93925000D01*
X141800000Y-89299999D02*
X141800000Y-93900000D01*
X144300000Y-78896000D02*
X135675000Y-78896000D01*
X144300000Y-82804000D02*
X144300000Y-78896000D01*
X144300000Y-82850000D02*
X139250000Y-82896000D01*
X135675000Y-78896001D02*
G75*
G03*
X133411001Y-80780000I-190000J-2073999D01*
G01*
X137220000Y-93150000D02*
G75*
G03*
X136000000Y-91730000I-1320000J100000D01*
G01*
X139275000Y-82900001D02*
G75*
G03*
X137015001Y-84779999I-190001J-2069997D01*
G01*
X136930001Y-87100000D02*
G75*
G03*
X139300000Y-89269999I2269999J100000D01*
G01*
X151325000Y-85775000D02*
X151325000Y-90425000D01*
X152500000Y-79550000D02*
X152500000Y-83495000D01*
X152500000Y-83504000D02*
X156110000Y-83504000D01*
X155100000Y-90425000D02*
X151325000Y-90425000D01*
X156025000Y-85775000D02*
X151325000Y-85775000D01*
X156320000Y-91900000D02*
X156320000Y-92600000D01*
X158050000Y-92950000D02*
X158050000Y-94350000D01*
X158050000Y-93650000D02*
X158950000Y-92950000D01*
X158950000Y-92950000D02*
X158950000Y-94350000D01*
X158950000Y-94350000D02*
X158050000Y-93650000D01*
X160875000Y-87975000D02*
X158325000Y-87975000D01*
X160875000Y-92625000D02*
X156325000Y-92625000D01*
X160900000Y-87999999D02*
X160900000Y-92600000D01*
X163400000Y-77596000D02*
X154775000Y-77596000D01*
X163400000Y-81504000D02*
X163400000Y-77596000D01*
X163400000Y-81550000D02*
X158350000Y-81596000D01*
X154775000Y-77596001D02*
G75*
G03*
X152511001Y-79480000I-190000J-2073999D01*
G01*
X156320000Y-91850000D02*
G75*
G03*
X155100000Y-90430000I-1320000J100000D01*
G01*
X158375000Y-81600001D02*
G75*
G03*
X156115001Y-83479999I-190001J-2069997D01*
G01*
X156030001Y-85800000D02*
G75*
G03*
X158400000Y-87969999I2269999J100000D01*
G01*
X170325000Y-87075000D02*
X170325000Y-91725000D01*
X171500000Y-80850000D02*
X171500000Y-84795000D01*
X171500000Y-84804000D02*
X175110000Y-84804000D01*
X174100000Y-91725000D02*
X170325000Y-91725000D01*
X175025000Y-87075000D02*
X170325000Y-87075000D01*
X175320000Y-93200000D02*
X175320000Y-93900000D01*
X177050000Y-94250000D02*
X177050000Y-95650000D01*
X177050000Y-94950000D02*
X177950000Y-94250000D01*
X177950000Y-94250000D02*
X177950000Y-95650000D01*
X177950000Y-95650000D02*
X177050000Y-94950000D01*
X179875000Y-89275000D02*
X177325000Y-89275000D01*
X179875000Y-93925000D02*
X175325000Y-93925000D01*
X179900000Y-89299999D02*
X179900000Y-93900000D01*
X182400000Y-78896000D02*
X173775000Y-78896000D01*
X182400000Y-82804000D02*
X182400000Y-78896000D01*
X182400000Y-82850000D02*
X177350000Y-82896000D01*
X173775000Y-78896001D02*
G75*
G03*
X171511001Y-80780000I-190000J-2073999D01*
G01*
X175320000Y-93150000D02*
G75*
G03*
X174100000Y-91730000I-1320000J100000D01*
G01*
X177375000Y-82900001D02*
G75*
G03*
X175115001Y-84779999I-190001J-2069997D01*
G01*
X175030001Y-87100000D02*
G75*
G03*
X177400000Y-89269999I2269999J100000D01*
G01*
X189425000Y-91875000D02*
X189425000Y-96525000D01*
X190600000Y-85650000D02*
X190600000Y-89595000D01*
X190600000Y-89604000D02*
X194210000Y-89604000D01*
X193200000Y-96525000D02*
X189425000Y-96525000D01*
X194125000Y-91875000D02*
X189425000Y-91875000D01*
X194420000Y-98000000D02*
X194420000Y-98700000D01*
X196150000Y-99050000D02*
X196150000Y-100450000D01*
X196150000Y-99750000D02*
X197050000Y-99050000D01*
X197050000Y-99050000D02*
X197050000Y-100450000D01*
X197050000Y-100450000D02*
X196150000Y-99750000D01*
X198975000Y-94075000D02*
X196425000Y-94075000D01*
X198975000Y-98725000D02*
X194425000Y-98725000D01*
X199000000Y-94099999D02*
X199000000Y-98700000D01*
X201500000Y-83696000D02*
X192875000Y-83696000D01*
X201500000Y-87604000D02*
X201500000Y-83696000D01*
X201500000Y-87650000D02*
X196450000Y-87696000D01*
X192875000Y-83696001D02*
G75*
G03*
X190611001Y-85580000I-190000J-2073999D01*
G01*
X194420000Y-97950000D02*
G75*
G03*
X193200000Y-96530000I-1320000J100000D01*
G01*
X196475000Y-87700001D02*
G75*
G03*
X194215001Y-89579999I-190001J-2069997D01*
G01*
X194130001Y-91900000D02*
G75*
G03*
X196500000Y-94069999I2269999J100000D01*
G01*
X208425000Y-93375000D02*
X208425000Y-98025000D01*
X209600000Y-87150000D02*
X209600000Y-91095000D01*
X209600000Y-91104000D02*
X213210000Y-91104000D01*
X212200000Y-98025000D02*
X208425000Y-98025000D01*
X213125000Y-93375000D02*
X208425000Y-93375000D01*
X213420000Y-99500000D02*
X213420000Y-100200000D01*
X215150000Y-100550000D02*
X215150000Y-101950000D01*
X215150000Y-101250000D02*
X216050000Y-100550000D01*
X216050000Y-100550000D02*
X216050000Y-101950000D01*
X216050000Y-101950000D02*
X215150000Y-101250000D01*
X217975000Y-95575000D02*
X215425000Y-95575000D01*
X217975000Y-100225000D02*
X213425000Y-100225000D01*
X218000000Y-95599999D02*
X218000000Y-100200000D01*
X220500000Y-85196000D02*
X211875000Y-85196000D01*
X220500000Y-89104000D02*
X220500000Y-85196000D01*
X220500000Y-89150000D02*
X215450000Y-89196000D01*
X211875000Y-85196001D02*
G75*
G03*
X209611001Y-87080000I-190000J-2073999D01*
G01*
X213420000Y-99450000D02*
G75*
G03*
X212200000Y-98030000I-1320000J100000D01*
G01*
X215475000Y-89200001D02*
G75*
G03*
X213215001Y-91079999I-190001J-2069997D01*
G01*
X213130001Y-93400000D02*
G75*
G03*
X215500000Y-95569999I2269999J100000D01*
G01*
X113225000Y-108475000D02*
X113225000Y-113125000D01*
X114400000Y-102250000D02*
X114400000Y-106195000D01*
X114400000Y-106204000D02*
X118010000Y-106204000D01*
X117000000Y-113125000D02*
X113225000Y-113125000D01*
X117925000Y-108475000D02*
X113225000Y-108475000D01*
X118220000Y-114600000D02*
X118220000Y-115300000D01*
X119950000Y-115650000D02*
X119950000Y-117050000D01*
X119950000Y-116350000D02*
X120850000Y-115650000D01*
X120850000Y-115650000D02*
X120850000Y-117050000D01*
X120850000Y-117050000D02*
X119950000Y-116350000D01*
X122775000Y-110675000D02*
X120225000Y-110675000D01*
X122775000Y-115325000D02*
X118225000Y-115325000D01*
X122800000Y-110699999D02*
X122800000Y-115300000D01*
X125300000Y-100296000D02*
X116675000Y-100296000D01*
X125300000Y-104204000D02*
X125300000Y-100296000D01*
X125300000Y-104250000D02*
X120250000Y-104296000D01*
X116675000Y-100296001D02*
G75*
G03*
X114411001Y-102180000I-190000J-2073999D01*
G01*
X118220000Y-114550000D02*
G75*
G03*
X117000000Y-113130000I-1320000J100000D01*
G01*
X120275000Y-104300001D02*
G75*
G03*
X118015001Y-106179999I-190001J-2069997D01*
G01*
X117930001Y-108500000D02*
G75*
G03*
X120300000Y-110669999I2269999J100000D01*
G01*
X132225000Y-106175000D02*
X132225000Y-110825000D01*
X133400000Y-99950000D02*
X133400000Y-103895000D01*
X133400000Y-103904000D02*
X137010000Y-103904000D01*
X136000000Y-110825000D02*
X132225000Y-110825000D01*
X136925000Y-106175000D02*
X132225000Y-106175000D01*
X137220000Y-112300000D02*
X137220000Y-113000000D01*
X138950000Y-113350000D02*
X138950000Y-114750000D01*
X138950000Y-114050000D02*
X139850000Y-113350000D01*
X139850000Y-113350000D02*
X139850000Y-114750000D01*
X139850000Y-114750000D02*
X138950000Y-114050000D01*
X141775000Y-108375000D02*
X139225000Y-108375000D01*
X141775000Y-113025000D02*
X137225000Y-113025000D01*
X141800000Y-108399999D02*
X141800000Y-113000000D01*
X144300000Y-97996000D02*
X135675000Y-97996000D01*
X144300000Y-101904000D02*
X144300000Y-97996000D01*
X144300000Y-101950000D02*
X139250000Y-101996000D01*
X135675000Y-97996001D02*
G75*
G03*
X133411001Y-99880000I-190000J-2073999D01*
G01*
X137220000Y-112250000D02*
G75*
G03*
X136000000Y-110830000I-1320000J100000D01*
G01*
X139275000Y-102000001D02*
G75*
G03*
X137015001Y-103879999I-190001J-2069997D01*
G01*
X136930001Y-106200000D02*
G75*
G03*
X139300000Y-108369999I2269999J100000D01*
G01*
X151325000Y-104775000D02*
X151325000Y-109425000D01*
X152500000Y-98550000D02*
X152500000Y-102495000D01*
X152500000Y-102504000D02*
X156110000Y-102504000D01*
X155100000Y-109425000D02*
X151325000Y-109425000D01*
X156025000Y-104775000D02*
X151325000Y-104775000D01*
X156320000Y-110900000D02*
X156320000Y-111600000D01*
X158050000Y-111950000D02*
X158050000Y-113350000D01*
X158050000Y-112650000D02*
X158950000Y-111950000D01*
X158950000Y-111950000D02*
X158950000Y-113350000D01*
X158950000Y-113350000D02*
X158050000Y-112650000D01*
X160875000Y-106975000D02*
X158325000Y-106975000D01*
X160875000Y-111625000D02*
X156325000Y-111625000D01*
X160900000Y-106999999D02*
X160900000Y-111600000D01*
X163400000Y-96596000D02*
X154775000Y-96596000D01*
X163400000Y-100504000D02*
X163400000Y-96596000D01*
X163400000Y-100550000D02*
X158350000Y-100596000D01*
X154775000Y-96596001D02*
G75*
G03*
X152511001Y-98480000I-190000J-2073999D01*
G01*
X156320000Y-110850000D02*
G75*
G03*
X155100000Y-109430000I-1320000J100000D01*
G01*
X158375000Y-100600001D02*
G75*
G03*
X156115001Y-102479999I-190001J-2069997D01*
G01*
X156030001Y-104800000D02*
G75*
G03*
X158400000Y-106969999I2269999J100000D01*
G01*
X170325000Y-106175000D02*
X170325000Y-110825000D01*
X171500000Y-99950000D02*
X171500000Y-103895000D01*
X171500000Y-103904000D02*
X175110000Y-103904000D01*
X174100000Y-110825000D02*
X170325000Y-110825000D01*
X175025000Y-106175000D02*
X170325000Y-106175000D01*
X175320000Y-112300000D02*
X175320000Y-113000000D01*
X177050000Y-113350000D02*
X177050000Y-114750000D01*
X177050000Y-114050000D02*
X177950000Y-113350000D01*
X177950000Y-113350000D02*
X177950000Y-114750000D01*
X177950000Y-114750000D02*
X177050000Y-114050000D01*
X179875000Y-108375000D02*
X177325000Y-108375000D01*
X179875000Y-113025000D02*
X175325000Y-113025000D01*
X179900000Y-108399999D02*
X179900000Y-113000000D01*
X182400000Y-97996000D02*
X173775000Y-97996000D01*
X182400000Y-101904000D02*
X182400000Y-97996000D01*
X182400000Y-101950000D02*
X177350000Y-101996000D01*
X173775000Y-97996001D02*
G75*
G03*
X171511001Y-99880000I-190000J-2073999D01*
G01*
X175320000Y-112250000D02*
G75*
G03*
X174100000Y-110830000I-1320000J100000D01*
G01*
X177375000Y-102000001D02*
G75*
G03*
X175115001Y-103879999I-190001J-2069997D01*
G01*
X175030001Y-106200000D02*
G75*
G03*
X177400000Y-108369999I2269999J100000D01*
G01*
X189425000Y-110875000D02*
X189425000Y-115525000D01*
X190600000Y-104650000D02*
X190600000Y-108595000D01*
X190600000Y-108604000D02*
X194210000Y-108604000D01*
X193200000Y-115525000D02*
X189425000Y-115525000D01*
X194125000Y-110875000D02*
X189425000Y-110875000D01*
X194420000Y-117000000D02*
X194420000Y-117700000D01*
X196150000Y-118050000D02*
X196150000Y-119450000D01*
X196150000Y-118750000D02*
X197050000Y-118050000D01*
X197050000Y-118050000D02*
X197050000Y-119450000D01*
X197050000Y-119450000D02*
X196150000Y-118750000D01*
X198975000Y-113075000D02*
X196425000Y-113075000D01*
X198975000Y-117725000D02*
X194425000Y-117725000D01*
X199000000Y-113099999D02*
X199000000Y-117700000D01*
X201500000Y-102696000D02*
X192875000Y-102696000D01*
X201500000Y-106604000D02*
X201500000Y-102696000D01*
X201500000Y-106650000D02*
X196450000Y-106696000D01*
X192875000Y-102696001D02*
G75*
G03*
X190611001Y-104580000I-190000J-2073999D01*
G01*
X194420000Y-116950000D02*
G75*
G03*
X193200000Y-115530000I-1320000J100000D01*
G01*
X196475000Y-106700001D02*
G75*
G03*
X194215001Y-108579999I-190001J-2069997D01*
G01*
X194130001Y-110900000D02*
G75*
G03*
X196500000Y-113069999I2269999J100000D01*
G01*
X208475000Y-112375000D02*
X208475000Y-117025000D01*
X208950000Y-118500000D02*
X208950000Y-119900000D01*
X208950000Y-119200000D02*
X209850000Y-118500000D01*
X209650000Y-106150000D02*
X209650000Y-110095000D01*
X209650000Y-110104000D02*
X213260000Y-110104000D01*
X209850000Y-118500000D02*
X209850000Y-119900000D01*
X209850000Y-119900000D02*
X208950000Y-119200000D01*
X212250000Y-117025000D02*
X208475000Y-117025000D01*
X213175000Y-112375000D02*
X208475000Y-112375000D01*
X213470000Y-118500000D02*
X213470000Y-119200000D01*
X218025000Y-114575000D02*
X215475000Y-114575000D01*
X218025000Y-119225000D02*
X213475000Y-119225000D01*
X218050000Y-114599999D02*
X218050000Y-119200000D01*
X220550000Y-104196000D02*
X211925000Y-104196000D01*
X220550000Y-108104000D02*
X220550000Y-104196000D01*
X220550000Y-108150000D02*
X215500000Y-108196000D01*
X211925000Y-104196001D02*
G75*
G03*
X209661001Y-106080000I-190000J-2073999D01*
G01*
X213470000Y-118450000D02*
G75*
G03*
X212250000Y-117030000I-1320000J100000D01*
G01*
X215525000Y-108200001D02*
G75*
G03*
X213265001Y-110079999I-190001J-2069997D01*
G01*
X213180001Y-112400000D02*
G75*
G03*
X215550000Y-114569999I2269999J100000D01*
G01*
X95258082Y-124024842D02*
X97583082Y-128051860D01*
X93163162Y-118046334D02*
X95135662Y-121462804D01*
X95140162Y-121470598D02*
X98266514Y-119665598D01*
X100852328Y-126164360D02*
X97583082Y-128051860D01*
X99328402Y-121674842D02*
X95258082Y-124024842D01*
X102646379Y-126831748D02*
X102996379Y-127437965D01*
X104628625Y-121155098D02*
X102420260Y-122430098D01*
X106953625Y-125182116D02*
X103013209Y-127457116D01*
X104662775Y-121164248D02*
X106962775Y-125147965D01*
X101625839Y-110904120D02*
X94156370Y-115216620D01*
X103579839Y-114288547D02*
X101625839Y-110904120D01*
X103602839Y-114328385D02*
X99252411Y-116893222D01*
X107284761Y-111105660D02*
X107440979Y-109976238D01*
X107440979Y-109976238D02*
X108497196Y-110405660D01*
X108047196Y-109626238D02*
X106834761Y-110326238D01*
X108497196Y-110405660D02*
X107284761Y-111105660D01*
X94156370Y-115216620D02*
G75*
G03*
X93137688Y-117980212I872455J-1891137D01*
G01*
X102621380Y-126788446D02*
G75*
G03*
X100854828Y-126168690I-1193154J-573398D01*
G01*
X99276061Y-116884186D02*
G75*
G03*
X98258844Y-119642312I870456J-1887672D01*
G01*
X99345231Y-121693993D02*
G75*
G03*
X102482712Y-122388268I1915878J1221603D01*
G01*
X104758082Y-140479324D02*
X107083082Y-144506342D01*
X102663162Y-134500816D02*
X104635662Y-137917286D01*
X104640162Y-137925080D02*
X107766514Y-136120080D01*
X110352328Y-142618842D02*
X107083082Y-144506342D01*
X108828402Y-138129324D02*
X104758082Y-140479324D01*
X112146379Y-143286230D02*
X112496379Y-143892447D01*
X114128625Y-137609580D02*
X111920260Y-138884580D01*
X116453625Y-141636598D02*
X112513209Y-143911598D01*
X114162775Y-137618730D02*
X116462775Y-141602447D01*
X111125839Y-127358602D02*
X103656370Y-131671102D01*
X113079839Y-130743029D02*
X111125839Y-127358602D01*
X113102839Y-130782867D02*
X108752411Y-133347704D01*
X116784761Y-127560142D02*
X116940979Y-126430720D01*
X116940979Y-126430720D02*
X117997196Y-126860142D01*
X117547196Y-126080720D02*
X116334761Y-126780720D01*
X117997196Y-126860142D02*
X116784761Y-127560142D01*
X103656370Y-131671102D02*
G75*
G03*
X102637688Y-134434694I872455J-1891137D01*
G01*
X112121380Y-143242928D02*
G75*
G03*
X110354828Y-142623172I-1193154J-573398D01*
G01*
X108776061Y-133338668D02*
G75*
G03*
X107758844Y-136096794I870456J-1887672D01*
G01*
X108845231Y-138148475D02*
G75*
G03*
X111982712Y-138842750I1915878J1221603D01*
G01*
X122725000Y-127375000D02*
X122725000Y-132025000D01*
X123900000Y-121150000D02*
X123900000Y-125095000D01*
X123900000Y-125104000D02*
X127510000Y-125104000D01*
X126500000Y-132025000D02*
X122725000Y-132025000D01*
X127425000Y-127375000D02*
X122725000Y-127375000D01*
X127720000Y-133500000D02*
X127720000Y-134200000D01*
X129550000Y-117300000D02*
X129550000Y-118700000D01*
X129550000Y-118000000D02*
X130450000Y-117300000D01*
X130450000Y-117300000D02*
X130450000Y-118700000D01*
X130450000Y-118700000D02*
X129550000Y-118000000D01*
X132275000Y-129575000D02*
X129725000Y-129575000D01*
X132275000Y-134225000D02*
X127725000Y-134225000D01*
X132300000Y-129599999D02*
X132300000Y-134200000D01*
X134800000Y-119196000D02*
X126175000Y-119196000D01*
X134800000Y-123104000D02*
X134800000Y-119196000D01*
X134800000Y-123150000D02*
X129750000Y-123196000D01*
X126175000Y-119196001D02*
G75*
G03*
X123911001Y-121080000I-190000J-2073999D01*
G01*
X127720000Y-133450000D02*
G75*
G03*
X126500000Y-132030000I-1320000J100000D01*
G01*
X129775000Y-123200000D02*
G75*
G03*
X127515002Y-125079999I-189999J-2070000D01*
G01*
X127430001Y-127400000D02*
G75*
G03*
X129800000Y-129569999I2269999J100000D01*
G01*
X141725000Y-125125000D02*
X141725000Y-129775000D01*
X142900000Y-118900000D02*
X142900000Y-122845000D01*
X142900000Y-122854000D02*
X146510000Y-122854000D01*
X145500000Y-129775000D02*
X141725000Y-129775000D01*
X146425000Y-125125000D02*
X141725000Y-125125000D01*
X146720000Y-131250000D02*
X146720000Y-131950000D01*
X148550000Y-115050000D02*
X148550000Y-116450000D01*
X148550000Y-115750000D02*
X149450000Y-115050000D01*
X149450000Y-115050000D02*
X149450000Y-116450000D01*
X149450000Y-116450000D02*
X148550000Y-115750000D01*
X151275000Y-127325000D02*
X148725000Y-127325000D01*
X151275000Y-131975000D02*
X146725000Y-131975000D01*
X151300000Y-127349999D02*
X151300000Y-131950000D01*
X153800000Y-116946000D02*
X145175000Y-116946000D01*
X153800000Y-120854000D02*
X153800000Y-116946000D01*
X153800000Y-120900000D02*
X148750000Y-120946000D01*
X145175000Y-116946001D02*
G75*
G03*
X142911001Y-118830000I-190000J-2073999D01*
G01*
X146720000Y-131200000D02*
G75*
G03*
X145500000Y-129780000I-1320000J100000D01*
G01*
X148775000Y-120950000D02*
G75*
G03*
X146515002Y-122829999I-189999J-2070000D01*
G01*
X146430001Y-125150000D02*
G75*
G03*
X148800000Y-127319999I2269999J100000D01*
G01*
X160825000Y-125125000D02*
X160825000Y-129775000D01*
X162000000Y-118900000D02*
X162000000Y-122845000D01*
X162000000Y-122854000D02*
X165610000Y-122854000D01*
X164600000Y-129775000D02*
X160825000Y-129775000D01*
X165525000Y-125125000D02*
X160825000Y-125125000D01*
X165820000Y-131250000D02*
X165820000Y-131950000D01*
X167650000Y-115050000D02*
X167650000Y-116450000D01*
X167650000Y-115750000D02*
X168550000Y-115050000D01*
X168550000Y-115050000D02*
X168550000Y-116450000D01*
X168550000Y-116450000D02*
X167650000Y-115750000D01*
X170375000Y-127325000D02*
X167825000Y-127325000D01*
X170375000Y-131975000D02*
X165825000Y-131975000D01*
X170400000Y-127349999D02*
X170400000Y-131950000D01*
X172900000Y-116946000D02*
X164275000Y-116946000D01*
X172900000Y-120854000D02*
X172900000Y-116946000D01*
X172900000Y-120900000D02*
X167850000Y-120946000D01*
X164275000Y-116946001D02*
G75*
G03*
X162011001Y-118830000I-190000J-2073999D01*
G01*
X165820000Y-131200000D02*
G75*
G03*
X164600000Y-129780000I-1320000J100000D01*
G01*
X167875000Y-120950000D02*
G75*
G03*
X165615002Y-122829999I-189999J-2070000D01*
G01*
X165530001Y-125150000D02*
G75*
G03*
X167900000Y-127319999I2269999J100000D01*
G01*
X94160000Y-73330000D02*
X106860000Y-73330000D01*
X94160000Y-75870000D02*
X94160000Y-73330000D01*
X106860000Y-73330000D02*
X106860000Y-75870000D01*
X106860000Y-75870000D02*
X94160000Y-75870000D01*
D11*
X90162000Y-101658000D02*
X90162000Y-89858000D01*
X94262000Y-89858000D02*
X90162000Y-89858000D01*
X94262000Y-101658000D02*
X90162000Y-101658000D01*
X95762000Y-95758000D02*
X96762000Y-95758000D01*
X96262000Y-96258000D02*
X96262000Y-95258000D01*
X98262000Y-101658000D02*
X102362000Y-101658000D01*
X102362000Y-89858000D02*
X98262000Y-89858000D01*
X102362000Y-92258000D02*
X102362000Y-89858000D01*
X102362000Y-97058000D02*
X102362000Y-94458000D01*
X102362000Y-101658000D02*
X102362000Y-99258000D01*
X99262000Y-95758000D02*
G75*
G03*
X99262000Y-95758000I-3000000J0D01*
G01*
D10*
X107020295Y-38369730D02*
X107020295Y-40909730D01*
X107020295Y-38369730D02*
X109560295Y-38369730D01*
X107020295Y-40909730D02*
X109560295Y-40909730D01*
X109560295Y-40909730D02*
X109560295Y-38369730D01*
X107078400Y-95971000D02*
X105678400Y-95971000D01*
X106378400Y-95971000D02*
X107078400Y-96871000D01*
X107078400Y-96871000D02*
X105678400Y-96871000D01*
X105678400Y-96871000D02*
X106378400Y-95971000D01*
D12*
X84836000Y-61186060D02*
X84836000Y-54383940D01*
X87436960Y-61186060D02*
X84836000Y-61186060D01*
X83334860Y-57685940D02*
X83334860Y-56385460D01*
X84836000Y-57685940D02*
X83334860Y-57685940D01*
X83334860Y-56385460D02*
X84836000Y-56385460D01*
X84836000Y-54383940D02*
X87436960Y-54383940D01*
X87436960Y-54383940D02*
X87436960Y-61186060D01*
D13*
X86334600Y-59283600D03*
X86334600Y-56286400D03*
D14*
X179861773Y-121387065D02*
X180456326Y-121064561D01*
X125619545Y-37086762D02*
X115211711Y-37086762D01*
X100262836Y-140931049D02*
X101964989Y-143887377D01*
X225460000Y-109808112D02*
X225460000Y-119289735D01*
X124800603Y-136422266D02*
X125318492Y-135995060D01*
X178319348Y-133972851D02*
X178288901Y-134275347D01*
X224798960Y-120533736D02*
X224544152Y-120671952D01*
X208157255Y-120789735D02*
X213424836Y-120789735D01*
X101964989Y-143887377D02*
X103615641Y-146775920D01*
X112835230Y-145166147D02*
X114510925Y-144196008D01*
X156843047Y-37086762D02*
X146435213Y-37086762D01*
X178319348Y-127943854D02*
X178319348Y-129161894D01*
X147341260Y-135467150D02*
X154710782Y-135467150D01*
X85684295Y-111431313D02*
X86827295Y-115310486D01*
X95209295Y-132349730D02*
X96860295Y-135143730D01*
X225020912Y-120350648D02*
X224798960Y-120533736D01*
X189919538Y-37585374D02*
X178989563Y-37215654D01*
X105173811Y-149290554D02*
X105301953Y-149354467D01*
X91780295Y-126634730D02*
X93431295Y-129501049D01*
X94396044Y-37086762D02*
X83988210Y-37086762D01*
X215525697Y-39885159D02*
X208420758Y-38945561D01*
X178319348Y-125507775D02*
X178319348Y-126725814D01*
X123521981Y-138738736D02*
X123338893Y-138960688D01*
X178319348Y-131597973D02*
X178319348Y-133972851D01*
X178989563Y-37215654D02*
X167250881Y-37086762D01*
X225204001Y-120128696D02*
X225020912Y-120350648D01*
X154710782Y-135467150D02*
X162080304Y-135467150D01*
X124050893Y-137534708D02*
X124373397Y-136940155D01*
X139971738Y-135467150D02*
X147341260Y-135467150D01*
X123338893Y-138960688D02*
X123116940Y-139143777D01*
X167250881Y-37086762D02*
X156843047Y-37086762D01*
X178319348Y-124289735D02*
X178319348Y-125507775D01*
X83776462Y-37108075D02*
X83988210Y-37086762D01*
X146435213Y-37086762D02*
X136027379Y-37086762D01*
X177658308Y-135216853D02*
X177403500Y-135355069D01*
X224278471Y-42156190D02*
X220889319Y-40963847D01*
X96860295Y-135143730D02*
X98587142Y-138064730D01*
X202889673Y-120789735D02*
X208157255Y-120789735D01*
X136027379Y-37086762D02*
X125619545Y-37086762D01*
X213424836Y-120789735D02*
X218692418Y-120789735D01*
X123660197Y-138483927D02*
X123521981Y-138738736D01*
X225460000Y-52918378D02*
X225460000Y-62400000D01*
X123784295Y-138202271D02*
X124050893Y-137534708D01*
X180456326Y-121064561D02*
X181113524Y-120860778D01*
X125913045Y-135672556D02*
X126578295Y-135524730D01*
X124373397Y-136940155D02*
X124800603Y-136422266D01*
X83398295Y-99366700D02*
X84033295Y-103393730D01*
X177121844Y-135442404D02*
X176819348Y-135472851D01*
X88224295Y-119192029D02*
X89875295Y-122979432D01*
X197622092Y-120789735D02*
X202889673Y-120789735D01*
X105056778Y-149190906D02*
X105173811Y-149290554D01*
X220889319Y-40963847D02*
X215525697Y-39885159D01*
X218692418Y-120789735D02*
X223959999Y-120789735D01*
X82937528Y-50750629D02*
X82937528Y-44443695D01*
X178319348Y-126725814D02*
X178319348Y-127943854D01*
X178319348Y-129161894D02*
X178319348Y-130379933D01*
X178916678Y-122332160D02*
X179343884Y-121814271D01*
X116186619Y-143225869D02*
X117862313Y-142255730D01*
X104951320Y-149056172D02*
X105056778Y-149190906D01*
X105916241Y-149239778D02*
X107808147Y-148076564D01*
X225460000Y-81363245D02*
X225460000Y-90844867D01*
X225460000Y-62400000D02*
X225460000Y-71881623D01*
X117862313Y-142255730D02*
X123116940Y-139143777D01*
X178288901Y-134275347D02*
X178201565Y-134557003D01*
X224544152Y-120671952D02*
X224262495Y-120759288D01*
X199807654Y-38170488D02*
X189919538Y-37585374D01*
X178390391Y-123583911D02*
X178594174Y-122926713D01*
X208420758Y-38945561D02*
X199807654Y-38170488D01*
X104857908Y-148887001D02*
X104951320Y-149056172D01*
X82937528Y-44443695D02*
X82937528Y-38136762D01*
X224262495Y-120759288D02*
X223959999Y-120789735D01*
X82937528Y-75978362D02*
X82937528Y-69671429D01*
X82937528Y-63364495D02*
X82937528Y-57057562D01*
X178063349Y-134811812D02*
X177880261Y-135033764D01*
X225460000Y-100326490D02*
X225460000Y-109808112D01*
X132602217Y-135467150D02*
X139971738Y-135467150D01*
X93431295Y-129501049D02*
X95209295Y-132349730D01*
X82938210Y-38136762D02*
X82959523Y-37925015D01*
X225460000Y-43436755D02*
X225460000Y-52918378D01*
X86827295Y-115310486D02*
X88224295Y-119192029D01*
X114510925Y-144196008D02*
X116186619Y-143225869D01*
X225460000Y-43436755D02*
X224278471Y-42156190D01*
X82937528Y-57057562D02*
X82937528Y-50750629D01*
X109483841Y-147106425D02*
X111159536Y-146136286D01*
X177880261Y-135033764D02*
X177658308Y-135216853D01*
X98587142Y-138064730D02*
X100262836Y-140931049D01*
X105748347Y-149325300D02*
X105916241Y-149239778D01*
X225460000Y-71881623D02*
X225460000Y-81363245D01*
X83579303Y-37169210D02*
X83776462Y-37108075D01*
X83400937Y-37265961D02*
X83579303Y-37169210D01*
X225342217Y-119873887D02*
X225204001Y-120128696D01*
X104803877Y-37086762D02*
X94396044Y-37086762D01*
X111159536Y-146136286D02*
X112835230Y-145166147D01*
X181819348Y-120789735D02*
X187086929Y-120789735D01*
X187086929Y-120789735D02*
X192354511Y-120789735D01*
X178201565Y-134557003D02*
X178063349Y-134811812D01*
X192354511Y-120789735D02*
X197622092Y-120789735D01*
X181113524Y-120860778D02*
X181819348Y-120789735D01*
X82937528Y-69671429D02*
X82937528Y-63364495D01*
X179343884Y-121814271D02*
X179861773Y-121387065D01*
X83117409Y-37549489D02*
X83245570Y-37394123D01*
X225459999Y-119289735D02*
X225429552Y-119592231D01*
X105301953Y-149354467D02*
X105440735Y-149381996D01*
X177403500Y-135355069D02*
X177121844Y-135442404D01*
X127276067Y-135495519D02*
X132602217Y-135467150D01*
X125318492Y-135995060D02*
X125913045Y-135672556D01*
X82959523Y-37925015D02*
X83020657Y-37727855D01*
X178319348Y-124289735D02*
X178390391Y-123583911D01*
X84795295Y-107426892D02*
X85684295Y-111431313D01*
X107808147Y-148076564D02*
X109483841Y-147106425D01*
X83245570Y-37394123D02*
X83400937Y-37265961D01*
X123784295Y-138202271D02*
X123660197Y-138483927D01*
X115211711Y-37086762D02*
X104803877Y-37086762D01*
X82937777Y-95341456D02*
X83398295Y-99366700D01*
D15*
X82937528Y-75978362D02*
X82937777Y-95341456D01*
D14*
X83020657Y-37727855D02*
X83117409Y-37549489D01*
X105589689Y-149372490D02*
X105748347Y-149325300D01*
X162080304Y-135467150D02*
X176819348Y-135472851D01*
X84033295Y-103393730D02*
X84795295Y-107426892D01*
X105440735Y-149381996D02*
X105589689Y-149372490D01*
X89875295Y-122979432D02*
X91780295Y-126634730D01*
X225429552Y-119592231D02*
X225342217Y-119873887D01*
X225460000Y-90844867D02*
X225460000Y-100326490D01*
X178594174Y-122926713D02*
X178916678Y-122332160D01*
X103615641Y-146775920D02*
X104857908Y-148887001D01*
X178319348Y-130379933D02*
X178319348Y-131597973D01*
X126578295Y-135524730D02*
X127276067Y-135495519D01*
M02*
