G04 #@! TF.GenerationSoftware,KiCad,Pcbnew,7.0.9*
G04 #@! TF.CreationDate,2023-12-23T03:50:24-05:00*
G04 #@! TF.ProjectId,Lily58_Pro,4c696c79-3538-45f5-9072-6f2e6b696361,rev?*
G04 #@! TF.SameCoordinates,Original*
G04 #@! TF.FileFunction,Legend,Top*
G04 #@! TF.FilePolarity,Positive*
%FSLAX46Y46*%
G04 Gerber Fmt 4.6, Leading zero omitted, Abs format (unit mm)*
G04 Created by KiCad (PCBNEW 7.0.9) date 2023-12-23 03:50:24*
%MOMM*%
%LPD*%
G01*
G04 APERTURE LIST*
%ADD10C,0.150000*%
%ADD11C,0.100000*%
%ADD12C,0.120000*%
%ADD13C,0.381000*%
%ADD14C,1.200000*%
%ADD15R,1.000000X2.100000*%
%ADD16C,3.500000*%
%ADD17C,1.397000*%
%ADD18C,0.899160*%
G04 #@! TA.AperFunction,Profile*
%ADD19C,0.200000*%
G04 #@! TD*
G04 #@! TA.AperFunction,Profile*
%ADD20C,0.150000*%
G04 #@! TD*
G04 APERTURE END LIST*
D10*
X85362295Y-68861904D02*
X84981342Y-69128571D01*
X85362295Y-69319047D02*
X84562295Y-69319047D01*
X84562295Y-69319047D02*
X84562295Y-69014285D01*
X84562295Y-69014285D02*
X84600390Y-68938095D01*
X84600390Y-68938095D02*
X84638485Y-68900000D01*
X84638485Y-68900000D02*
X84714676Y-68861904D01*
X84714676Y-68861904D02*
X84828961Y-68861904D01*
X84828961Y-68861904D02*
X84905152Y-68900000D01*
X84905152Y-68900000D02*
X84943247Y-68938095D01*
X84943247Y-68938095D02*
X84981342Y-69014285D01*
X84981342Y-69014285D02*
X84981342Y-69319047D01*
X84943247Y-68519047D02*
X84943247Y-68252381D01*
X85362295Y-68138095D02*
X85362295Y-68519047D01*
X85362295Y-68519047D02*
X84562295Y-68519047D01*
X84562295Y-68519047D02*
X84562295Y-68138095D01*
X85324200Y-67833333D02*
X85362295Y-67719047D01*
X85362295Y-67719047D02*
X85362295Y-67528571D01*
X85362295Y-67528571D02*
X85324200Y-67452380D01*
X85324200Y-67452380D02*
X85286104Y-67414285D01*
X85286104Y-67414285D02*
X85209914Y-67376190D01*
X85209914Y-67376190D02*
X85133723Y-67376190D01*
X85133723Y-67376190D02*
X85057533Y-67414285D01*
X85057533Y-67414285D02*
X85019438Y-67452380D01*
X85019438Y-67452380D02*
X84981342Y-67528571D01*
X84981342Y-67528571D02*
X84943247Y-67680952D01*
X84943247Y-67680952D02*
X84905152Y-67757142D01*
X84905152Y-67757142D02*
X84867057Y-67795237D01*
X84867057Y-67795237D02*
X84790866Y-67833333D01*
X84790866Y-67833333D02*
X84714676Y-67833333D01*
X84714676Y-67833333D02*
X84638485Y-67795237D01*
X84638485Y-67795237D02*
X84600390Y-67757142D01*
X84600390Y-67757142D02*
X84562295Y-67680952D01*
X84562295Y-67680952D02*
X84562295Y-67490475D01*
X84562295Y-67490475D02*
X84600390Y-67376190D01*
X84943247Y-67033332D02*
X84943247Y-66766666D01*
X85362295Y-66652380D02*
X85362295Y-67033332D01*
X85362295Y-67033332D02*
X84562295Y-67033332D01*
X84562295Y-67033332D02*
X84562295Y-66652380D01*
X84562295Y-66423808D02*
X84562295Y-65966665D01*
X85362295Y-66195237D02*
X84562295Y-66195237D01*
X93070416Y-76800932D02*
X93650988Y-76800932D01*
X93650988Y-76800932D02*
X93767102Y-76839637D01*
X93767102Y-76839637D02*
X93844512Y-76917046D01*
X93844512Y-76917046D02*
X93883216Y-77033161D01*
X93883216Y-77033161D02*
X93883216Y-77110570D01*
X93883216Y-75988132D02*
X93883216Y-76452589D01*
X93883216Y-76220361D02*
X93070416Y-76220361D01*
X93070416Y-76220361D02*
X93186531Y-76297770D01*
X93186531Y-76297770D02*
X93263940Y-76375180D01*
X93263940Y-76375180D02*
X93302645Y-76452589D01*
D11*
X92552466Y-80477115D02*
X92552466Y-79715211D01*
X92552466Y-78487115D02*
X92552466Y-77725211D01*
X92933419Y-78106163D02*
X92171514Y-78106163D01*
D10*
X102600771Y-44320120D02*
X102524581Y-44282025D01*
X102524581Y-44282025D02*
X102410295Y-44282025D01*
X102410295Y-44282025D02*
X102296009Y-44320120D01*
X102296009Y-44320120D02*
X102219819Y-44396310D01*
X102219819Y-44396310D02*
X102181724Y-44472501D01*
X102181724Y-44472501D02*
X102143628Y-44624882D01*
X102143628Y-44624882D02*
X102143628Y-44739168D01*
X102143628Y-44739168D02*
X102181724Y-44891549D01*
X102181724Y-44891549D02*
X102219819Y-44967739D01*
X102219819Y-44967739D02*
X102296009Y-45043930D01*
X102296009Y-45043930D02*
X102410295Y-45082025D01*
X102410295Y-45082025D02*
X102486486Y-45082025D01*
X102486486Y-45082025D02*
X102600771Y-45043930D01*
X102600771Y-45043930D02*
X102638867Y-45005834D01*
X102638867Y-45005834D02*
X102638867Y-44739168D01*
X102638867Y-44739168D02*
X102486486Y-44739168D01*
X102981724Y-45082025D02*
X102981724Y-44282025D01*
X102981724Y-44282025D02*
X103438867Y-45082025D01*
X103438867Y-45082025D02*
X103438867Y-44282025D01*
X103819819Y-45082025D02*
X103819819Y-44282025D01*
X103819819Y-44282025D02*
X104010295Y-44282025D01*
X104010295Y-44282025D02*
X104124581Y-44320120D01*
X104124581Y-44320120D02*
X104200771Y-44396310D01*
X104200771Y-44396310D02*
X104238866Y-44472501D01*
X104238866Y-44472501D02*
X104276962Y-44624882D01*
X104276962Y-44624882D02*
X104276962Y-44739168D01*
X104276962Y-44739168D02*
X104238866Y-44891549D01*
X104238866Y-44891549D02*
X104200771Y-44967739D01*
X104200771Y-44967739D02*
X104124581Y-45043930D01*
X104124581Y-45043930D02*
X104010295Y-45082025D01*
X104010295Y-45082025D02*
X103819819Y-45082025D01*
X97596961Y-60322025D02*
X97139818Y-60322025D01*
X97368390Y-60322025D02*
X97368390Y-59522025D01*
X97368390Y-59522025D02*
X97292199Y-59636310D01*
X97292199Y-59636310D02*
X97216009Y-59712501D01*
X97216009Y-59712501D02*
X97139818Y-59750596D01*
X98358866Y-60322025D02*
X97901723Y-60322025D01*
X98130295Y-60322025D02*
X98130295Y-59522025D01*
X98130295Y-59522025D02*
X98054104Y-59636310D01*
X98054104Y-59636310D02*
X97977914Y-59712501D01*
X97977914Y-59712501D02*
X97901723Y-59750596D01*
X98625533Y-59522025D02*
X99120771Y-59522025D01*
X99120771Y-59522025D02*
X98854105Y-59826787D01*
X98854105Y-59826787D02*
X98968390Y-59826787D01*
X98968390Y-59826787D02*
X99044581Y-59864882D01*
X99044581Y-59864882D02*
X99082676Y-59902977D01*
X99082676Y-59902977D02*
X99120771Y-59979168D01*
X99120771Y-59979168D02*
X99120771Y-60169644D01*
X99120771Y-60169644D02*
X99082676Y-60245834D01*
X99082676Y-60245834D02*
X99044581Y-60283930D01*
X99044581Y-60283930D02*
X98968390Y-60322025D01*
X98968390Y-60322025D02*
X98739819Y-60322025D01*
X98739819Y-60322025D02*
X98663628Y-60283930D01*
X98663628Y-60283930D02*
X98625533Y-60245834D01*
X97330295Y-64602025D02*
X97406485Y-64602025D01*
X97406485Y-64602025D02*
X97482676Y-64640120D01*
X97482676Y-64640120D02*
X97520771Y-64678215D01*
X97520771Y-64678215D02*
X97558866Y-64754406D01*
X97558866Y-64754406D02*
X97596961Y-64906787D01*
X97596961Y-64906787D02*
X97596961Y-65097263D01*
X97596961Y-65097263D02*
X97558866Y-65249644D01*
X97558866Y-65249644D02*
X97520771Y-65325834D01*
X97520771Y-65325834D02*
X97482676Y-65363930D01*
X97482676Y-65363930D02*
X97406485Y-65402025D01*
X97406485Y-65402025D02*
X97330295Y-65402025D01*
X97330295Y-65402025D02*
X97254104Y-65363930D01*
X97254104Y-65363930D02*
X97216009Y-65325834D01*
X97216009Y-65325834D02*
X97177914Y-65249644D01*
X97177914Y-65249644D02*
X97139818Y-65097263D01*
X97139818Y-65097263D02*
X97139818Y-64906787D01*
X97139818Y-64906787D02*
X97177914Y-64754406D01*
X97177914Y-64754406D02*
X97216009Y-64678215D01*
X97216009Y-64678215D02*
X97254104Y-64640120D01*
X97254104Y-64640120D02*
X97330295Y-64602025D01*
X98358866Y-65402025D02*
X97901723Y-65402025D01*
X98130295Y-65402025D02*
X98130295Y-64602025D01*
X98130295Y-64602025D02*
X98054104Y-64716310D01*
X98054104Y-64716310D02*
X97977914Y-64792501D01*
X97977914Y-64792501D02*
X97901723Y-64830596D01*
X98854105Y-64602025D02*
X98930295Y-64602025D01*
X98930295Y-64602025D02*
X99006486Y-64640120D01*
X99006486Y-64640120D02*
X99044581Y-64678215D01*
X99044581Y-64678215D02*
X99082676Y-64754406D01*
X99082676Y-64754406D02*
X99120771Y-64906787D01*
X99120771Y-64906787D02*
X99120771Y-65097263D01*
X99120771Y-65097263D02*
X99082676Y-65249644D01*
X99082676Y-65249644D02*
X99044581Y-65325834D01*
X99044581Y-65325834D02*
X99006486Y-65363930D01*
X99006486Y-65363930D02*
X98930295Y-65402025D01*
X98930295Y-65402025D02*
X98854105Y-65402025D01*
X98854105Y-65402025D02*
X98777914Y-65363930D01*
X98777914Y-65363930D02*
X98739819Y-65325834D01*
X98739819Y-65325834D02*
X98701724Y-65249644D01*
X98701724Y-65249644D02*
X98663628Y-65097263D01*
X98663628Y-65097263D02*
X98663628Y-64906787D01*
X98663628Y-64906787D02*
X98701724Y-64754406D01*
X98701724Y-64754406D02*
X98739819Y-64678215D01*
X98739819Y-64678215D02*
X98777914Y-64640120D01*
X98777914Y-64640120D02*
X98854105Y-64602025D01*
X97520771Y-41780120D02*
X97444581Y-41742025D01*
X97444581Y-41742025D02*
X97330295Y-41742025D01*
X97330295Y-41742025D02*
X97216009Y-41780120D01*
X97216009Y-41780120D02*
X97139819Y-41856310D01*
X97139819Y-41856310D02*
X97101724Y-41932501D01*
X97101724Y-41932501D02*
X97063628Y-42084882D01*
X97063628Y-42084882D02*
X97063628Y-42199168D01*
X97063628Y-42199168D02*
X97101724Y-42351549D01*
X97101724Y-42351549D02*
X97139819Y-42427739D01*
X97139819Y-42427739D02*
X97216009Y-42503930D01*
X97216009Y-42503930D02*
X97330295Y-42542025D01*
X97330295Y-42542025D02*
X97406486Y-42542025D01*
X97406486Y-42542025D02*
X97520771Y-42503930D01*
X97520771Y-42503930D02*
X97558867Y-42465834D01*
X97558867Y-42465834D02*
X97558867Y-42199168D01*
X97558867Y-42199168D02*
X97406486Y-42199168D01*
X97901724Y-42542025D02*
X97901724Y-41742025D01*
X97901724Y-41742025D02*
X98358867Y-42542025D01*
X98358867Y-42542025D02*
X98358867Y-41742025D01*
X98739819Y-42542025D02*
X98739819Y-41742025D01*
X98739819Y-41742025D02*
X98930295Y-41742025D01*
X98930295Y-41742025D02*
X99044581Y-41780120D01*
X99044581Y-41780120D02*
X99120771Y-41856310D01*
X99120771Y-41856310D02*
X99158866Y-41932501D01*
X99158866Y-41932501D02*
X99196962Y-42084882D01*
X99196962Y-42084882D02*
X99196962Y-42199168D01*
X99196962Y-42199168D02*
X99158866Y-42351549D01*
X99158866Y-42351549D02*
X99120771Y-42427739D01*
X99120771Y-42427739D02*
X99044581Y-42503930D01*
X99044581Y-42503930D02*
X98930295Y-42542025D01*
X98930295Y-42542025D02*
X98739819Y-42542025D01*
X102600771Y-46860120D02*
X102524581Y-46822025D01*
X102524581Y-46822025D02*
X102410295Y-46822025D01*
X102410295Y-46822025D02*
X102296009Y-46860120D01*
X102296009Y-46860120D02*
X102219819Y-46936310D01*
X102219819Y-46936310D02*
X102181724Y-47012501D01*
X102181724Y-47012501D02*
X102143628Y-47164882D01*
X102143628Y-47164882D02*
X102143628Y-47279168D01*
X102143628Y-47279168D02*
X102181724Y-47431549D01*
X102181724Y-47431549D02*
X102219819Y-47507739D01*
X102219819Y-47507739D02*
X102296009Y-47583930D01*
X102296009Y-47583930D02*
X102410295Y-47622025D01*
X102410295Y-47622025D02*
X102486486Y-47622025D01*
X102486486Y-47622025D02*
X102600771Y-47583930D01*
X102600771Y-47583930D02*
X102638867Y-47545834D01*
X102638867Y-47545834D02*
X102638867Y-47279168D01*
X102638867Y-47279168D02*
X102486486Y-47279168D01*
X102981724Y-47622025D02*
X102981724Y-46822025D01*
X102981724Y-46822025D02*
X103438867Y-47622025D01*
X103438867Y-47622025D02*
X103438867Y-46822025D01*
X103819819Y-47622025D02*
X103819819Y-46822025D01*
X103819819Y-46822025D02*
X104010295Y-46822025D01*
X104010295Y-46822025D02*
X104124581Y-46860120D01*
X104124581Y-46860120D02*
X104200771Y-46936310D01*
X104200771Y-46936310D02*
X104238866Y-47012501D01*
X104238866Y-47012501D02*
X104276962Y-47164882D01*
X104276962Y-47164882D02*
X104276962Y-47279168D01*
X104276962Y-47279168D02*
X104238866Y-47431549D01*
X104238866Y-47431549D02*
X104200771Y-47507739D01*
X104200771Y-47507739D02*
X104124581Y-47583930D01*
X104124581Y-47583930D02*
X104010295Y-47622025D01*
X104010295Y-47622025D02*
X103819819Y-47622025D01*
X97330295Y-54442025D02*
X97406485Y-54442025D01*
X97406485Y-54442025D02*
X97482676Y-54480120D01*
X97482676Y-54480120D02*
X97520771Y-54518215D01*
X97520771Y-54518215D02*
X97558866Y-54594406D01*
X97558866Y-54594406D02*
X97596961Y-54746787D01*
X97596961Y-54746787D02*
X97596961Y-54937263D01*
X97596961Y-54937263D02*
X97558866Y-55089644D01*
X97558866Y-55089644D02*
X97520771Y-55165834D01*
X97520771Y-55165834D02*
X97482676Y-55203930D01*
X97482676Y-55203930D02*
X97406485Y-55242025D01*
X97406485Y-55242025D02*
X97330295Y-55242025D01*
X97330295Y-55242025D02*
X97254104Y-55203930D01*
X97254104Y-55203930D02*
X97216009Y-55165834D01*
X97216009Y-55165834D02*
X97177914Y-55089644D01*
X97177914Y-55089644D02*
X97139818Y-54937263D01*
X97139818Y-54937263D02*
X97139818Y-54746787D01*
X97139818Y-54746787D02*
X97177914Y-54594406D01*
X97177914Y-54594406D02*
X97216009Y-54518215D01*
X97216009Y-54518215D02*
X97254104Y-54480120D01*
X97254104Y-54480120D02*
X97330295Y-54442025D01*
X98092200Y-54442025D02*
X98168390Y-54442025D01*
X98168390Y-54442025D02*
X98244581Y-54480120D01*
X98244581Y-54480120D02*
X98282676Y-54518215D01*
X98282676Y-54518215D02*
X98320771Y-54594406D01*
X98320771Y-54594406D02*
X98358866Y-54746787D01*
X98358866Y-54746787D02*
X98358866Y-54937263D01*
X98358866Y-54937263D02*
X98320771Y-55089644D01*
X98320771Y-55089644D02*
X98282676Y-55165834D01*
X98282676Y-55165834D02*
X98244581Y-55203930D01*
X98244581Y-55203930D02*
X98168390Y-55242025D01*
X98168390Y-55242025D02*
X98092200Y-55242025D01*
X98092200Y-55242025D02*
X98016009Y-55203930D01*
X98016009Y-55203930D02*
X97977914Y-55165834D01*
X97977914Y-55165834D02*
X97939819Y-55089644D01*
X97939819Y-55089644D02*
X97901723Y-54937263D01*
X97901723Y-54937263D02*
X97901723Y-54746787D01*
X97901723Y-54746787D02*
X97939819Y-54594406D01*
X97939819Y-54594406D02*
X97977914Y-54518215D01*
X97977914Y-54518215D02*
X98016009Y-54480120D01*
X98016009Y-54480120D02*
X98092200Y-54442025D01*
X98663628Y-54518215D02*
X98701724Y-54480120D01*
X98701724Y-54480120D02*
X98777914Y-54442025D01*
X98777914Y-54442025D02*
X98968390Y-54442025D01*
X98968390Y-54442025D02*
X99044581Y-54480120D01*
X99044581Y-54480120D02*
X99082676Y-54518215D01*
X99082676Y-54518215D02*
X99120771Y-54594406D01*
X99120771Y-54594406D02*
X99120771Y-54670596D01*
X99120771Y-54670596D02*
X99082676Y-54784882D01*
X99082676Y-54784882D02*
X98625533Y-55242025D01*
X98625533Y-55242025D02*
X99120771Y-55242025D01*
X97596961Y-57782025D02*
X97139818Y-57782025D01*
X97368390Y-57782025D02*
X97368390Y-56982025D01*
X97368390Y-56982025D02*
X97292199Y-57096310D01*
X97292199Y-57096310D02*
X97216009Y-57172501D01*
X97216009Y-57172501D02*
X97139818Y-57210596D01*
X98358866Y-57782025D02*
X97901723Y-57782025D01*
X98130295Y-57782025D02*
X98130295Y-56982025D01*
X98130295Y-56982025D02*
X98054104Y-57096310D01*
X98054104Y-57096310D02*
X97977914Y-57172501D01*
X97977914Y-57172501D02*
X97901723Y-57210596D01*
X99082676Y-56982025D02*
X98701724Y-56982025D01*
X98701724Y-56982025D02*
X98663628Y-57362977D01*
X98663628Y-57362977D02*
X98701724Y-57324882D01*
X98701724Y-57324882D02*
X98777914Y-57286787D01*
X98777914Y-57286787D02*
X98968390Y-57286787D01*
X98968390Y-57286787D02*
X99044581Y-57324882D01*
X99044581Y-57324882D02*
X99082676Y-57362977D01*
X99082676Y-57362977D02*
X99120771Y-57439168D01*
X99120771Y-57439168D02*
X99120771Y-57629644D01*
X99120771Y-57629644D02*
X99082676Y-57705834D01*
X99082676Y-57705834D02*
X99044581Y-57743930D01*
X99044581Y-57743930D02*
X98968390Y-57782025D01*
X98968390Y-57782025D02*
X98777914Y-57782025D01*
X98777914Y-57782025D02*
X98701724Y-57743930D01*
X98701724Y-57743930D02*
X98663628Y-57705834D01*
X102676961Y-60322025D02*
X102219818Y-60322025D01*
X102448390Y-60322025D02*
X102448390Y-59522025D01*
X102448390Y-59522025D02*
X102372199Y-59636310D01*
X102372199Y-59636310D02*
X102296009Y-59712501D01*
X102296009Y-59712501D02*
X102219818Y-59750596D01*
X103172200Y-59522025D02*
X103248390Y-59522025D01*
X103248390Y-59522025D02*
X103324581Y-59560120D01*
X103324581Y-59560120D02*
X103362676Y-59598215D01*
X103362676Y-59598215D02*
X103400771Y-59674406D01*
X103400771Y-59674406D02*
X103438866Y-59826787D01*
X103438866Y-59826787D02*
X103438866Y-60017263D01*
X103438866Y-60017263D02*
X103400771Y-60169644D01*
X103400771Y-60169644D02*
X103362676Y-60245834D01*
X103362676Y-60245834D02*
X103324581Y-60283930D01*
X103324581Y-60283930D02*
X103248390Y-60322025D01*
X103248390Y-60322025D02*
X103172200Y-60322025D01*
X103172200Y-60322025D02*
X103096009Y-60283930D01*
X103096009Y-60283930D02*
X103057914Y-60245834D01*
X103057914Y-60245834D02*
X103019819Y-60169644D01*
X103019819Y-60169644D02*
X102981723Y-60017263D01*
X102981723Y-60017263D02*
X102981723Y-59826787D01*
X102981723Y-59826787D02*
X103019819Y-59674406D01*
X103019819Y-59674406D02*
X103057914Y-59598215D01*
X103057914Y-59598215D02*
X103096009Y-59560120D01*
X103096009Y-59560120D02*
X103172200Y-59522025D01*
X103934105Y-59522025D02*
X104010295Y-59522025D01*
X104010295Y-59522025D02*
X104086486Y-59560120D01*
X104086486Y-59560120D02*
X104124581Y-59598215D01*
X104124581Y-59598215D02*
X104162676Y-59674406D01*
X104162676Y-59674406D02*
X104200771Y-59826787D01*
X104200771Y-59826787D02*
X104200771Y-60017263D01*
X104200771Y-60017263D02*
X104162676Y-60169644D01*
X104162676Y-60169644D02*
X104124581Y-60245834D01*
X104124581Y-60245834D02*
X104086486Y-60283930D01*
X104086486Y-60283930D02*
X104010295Y-60322025D01*
X104010295Y-60322025D02*
X103934105Y-60322025D01*
X103934105Y-60322025D02*
X103857914Y-60283930D01*
X103857914Y-60283930D02*
X103819819Y-60245834D01*
X103819819Y-60245834D02*
X103781724Y-60169644D01*
X103781724Y-60169644D02*
X103743628Y-60017263D01*
X103743628Y-60017263D02*
X103743628Y-59826787D01*
X103743628Y-59826787D02*
X103781724Y-59674406D01*
X103781724Y-59674406D02*
X103819819Y-59598215D01*
X103819819Y-59598215D02*
X103857914Y-59560120D01*
X103857914Y-59560120D02*
X103934105Y-59522025D01*
X97330295Y-49362025D02*
X97406485Y-49362025D01*
X97406485Y-49362025D02*
X97482676Y-49400120D01*
X97482676Y-49400120D02*
X97520771Y-49438215D01*
X97520771Y-49438215D02*
X97558866Y-49514406D01*
X97558866Y-49514406D02*
X97596961Y-49666787D01*
X97596961Y-49666787D02*
X97596961Y-49857263D01*
X97596961Y-49857263D02*
X97558866Y-50009644D01*
X97558866Y-50009644D02*
X97520771Y-50085834D01*
X97520771Y-50085834D02*
X97482676Y-50123930D01*
X97482676Y-50123930D02*
X97406485Y-50162025D01*
X97406485Y-50162025D02*
X97330295Y-50162025D01*
X97330295Y-50162025D02*
X97254104Y-50123930D01*
X97254104Y-50123930D02*
X97216009Y-50085834D01*
X97216009Y-50085834D02*
X97177914Y-50009644D01*
X97177914Y-50009644D02*
X97139818Y-49857263D01*
X97139818Y-49857263D02*
X97139818Y-49666787D01*
X97139818Y-49666787D02*
X97177914Y-49514406D01*
X97177914Y-49514406D02*
X97216009Y-49438215D01*
X97216009Y-49438215D02*
X97254104Y-49400120D01*
X97254104Y-49400120D02*
X97330295Y-49362025D01*
X97863628Y-49362025D02*
X98358866Y-49362025D01*
X98358866Y-49362025D02*
X98092200Y-49666787D01*
X98092200Y-49666787D02*
X98206485Y-49666787D01*
X98206485Y-49666787D02*
X98282676Y-49704882D01*
X98282676Y-49704882D02*
X98320771Y-49742977D01*
X98320771Y-49742977D02*
X98358866Y-49819168D01*
X98358866Y-49819168D02*
X98358866Y-50009644D01*
X98358866Y-50009644D02*
X98320771Y-50085834D01*
X98320771Y-50085834D02*
X98282676Y-50123930D01*
X98282676Y-50123930D02*
X98206485Y-50162025D01*
X98206485Y-50162025D02*
X97977914Y-50162025D01*
X97977914Y-50162025D02*
X97901723Y-50123930D01*
X97901723Y-50123930D02*
X97863628Y-50085834D01*
X99120771Y-50162025D02*
X98663628Y-50162025D01*
X98892200Y-50162025D02*
X98892200Y-49362025D01*
X98892200Y-49362025D02*
X98816009Y-49476310D01*
X98816009Y-49476310D02*
X98739819Y-49552501D01*
X98739819Y-49552501D02*
X98663628Y-49590596D01*
X102410295Y-54442025D02*
X102486485Y-54442025D01*
X102486485Y-54442025D02*
X102562676Y-54480120D01*
X102562676Y-54480120D02*
X102600771Y-54518215D01*
X102600771Y-54518215D02*
X102638866Y-54594406D01*
X102638866Y-54594406D02*
X102676961Y-54746787D01*
X102676961Y-54746787D02*
X102676961Y-54937263D01*
X102676961Y-54937263D02*
X102638866Y-55089644D01*
X102638866Y-55089644D02*
X102600771Y-55165834D01*
X102600771Y-55165834D02*
X102562676Y-55203930D01*
X102562676Y-55203930D02*
X102486485Y-55242025D01*
X102486485Y-55242025D02*
X102410295Y-55242025D01*
X102410295Y-55242025D02*
X102334104Y-55203930D01*
X102334104Y-55203930D02*
X102296009Y-55165834D01*
X102296009Y-55165834D02*
X102257914Y-55089644D01*
X102257914Y-55089644D02*
X102219818Y-54937263D01*
X102219818Y-54937263D02*
X102219818Y-54746787D01*
X102219818Y-54746787D02*
X102257914Y-54594406D01*
X102257914Y-54594406D02*
X102296009Y-54518215D01*
X102296009Y-54518215D02*
X102334104Y-54480120D01*
X102334104Y-54480120D02*
X102410295Y-54442025D01*
X102981723Y-54518215D02*
X103019819Y-54480120D01*
X103019819Y-54480120D02*
X103096009Y-54442025D01*
X103096009Y-54442025D02*
X103286485Y-54442025D01*
X103286485Y-54442025D02*
X103362676Y-54480120D01*
X103362676Y-54480120D02*
X103400771Y-54518215D01*
X103400771Y-54518215D02*
X103438866Y-54594406D01*
X103438866Y-54594406D02*
X103438866Y-54670596D01*
X103438866Y-54670596D02*
X103400771Y-54784882D01*
X103400771Y-54784882D02*
X102943628Y-55242025D01*
X102943628Y-55242025D02*
X103438866Y-55242025D01*
X103743628Y-54518215D02*
X103781724Y-54480120D01*
X103781724Y-54480120D02*
X103857914Y-54442025D01*
X103857914Y-54442025D02*
X104048390Y-54442025D01*
X104048390Y-54442025D02*
X104124581Y-54480120D01*
X104124581Y-54480120D02*
X104162676Y-54518215D01*
X104162676Y-54518215D02*
X104200771Y-54594406D01*
X104200771Y-54594406D02*
X104200771Y-54670596D01*
X104200771Y-54670596D02*
X104162676Y-54784882D01*
X104162676Y-54784882D02*
X103705533Y-55242025D01*
X103705533Y-55242025D02*
X104200771Y-55242025D01*
X97330295Y-51902025D02*
X97406485Y-51902025D01*
X97406485Y-51902025D02*
X97482676Y-51940120D01*
X97482676Y-51940120D02*
X97520771Y-51978215D01*
X97520771Y-51978215D02*
X97558866Y-52054406D01*
X97558866Y-52054406D02*
X97596961Y-52206787D01*
X97596961Y-52206787D02*
X97596961Y-52397263D01*
X97596961Y-52397263D02*
X97558866Y-52549644D01*
X97558866Y-52549644D02*
X97520771Y-52625834D01*
X97520771Y-52625834D02*
X97482676Y-52663930D01*
X97482676Y-52663930D02*
X97406485Y-52702025D01*
X97406485Y-52702025D02*
X97330295Y-52702025D01*
X97330295Y-52702025D02*
X97254104Y-52663930D01*
X97254104Y-52663930D02*
X97216009Y-52625834D01*
X97216009Y-52625834D02*
X97177914Y-52549644D01*
X97177914Y-52549644D02*
X97139818Y-52397263D01*
X97139818Y-52397263D02*
X97139818Y-52206787D01*
X97139818Y-52206787D02*
X97177914Y-52054406D01*
X97177914Y-52054406D02*
X97216009Y-51978215D01*
X97216009Y-51978215D02*
X97254104Y-51940120D01*
X97254104Y-51940120D02*
X97330295Y-51902025D01*
X97901723Y-51978215D02*
X97939819Y-51940120D01*
X97939819Y-51940120D02*
X98016009Y-51902025D01*
X98016009Y-51902025D02*
X98206485Y-51902025D01*
X98206485Y-51902025D02*
X98282676Y-51940120D01*
X98282676Y-51940120D02*
X98320771Y-51978215D01*
X98320771Y-51978215D02*
X98358866Y-52054406D01*
X98358866Y-52054406D02*
X98358866Y-52130596D01*
X98358866Y-52130596D02*
X98320771Y-52244882D01*
X98320771Y-52244882D02*
X97863628Y-52702025D01*
X97863628Y-52702025D02*
X98358866Y-52702025D01*
X98739819Y-52702025D02*
X98892200Y-52702025D01*
X98892200Y-52702025D02*
X98968390Y-52663930D01*
X98968390Y-52663930D02*
X99006486Y-52625834D01*
X99006486Y-52625834D02*
X99082676Y-52511549D01*
X99082676Y-52511549D02*
X99120771Y-52359168D01*
X99120771Y-52359168D02*
X99120771Y-52054406D01*
X99120771Y-52054406D02*
X99082676Y-51978215D01*
X99082676Y-51978215D02*
X99044581Y-51940120D01*
X99044581Y-51940120D02*
X98968390Y-51902025D01*
X98968390Y-51902025D02*
X98816009Y-51902025D01*
X98816009Y-51902025D02*
X98739819Y-51940120D01*
X98739819Y-51940120D02*
X98701724Y-51978215D01*
X98701724Y-51978215D02*
X98663628Y-52054406D01*
X98663628Y-52054406D02*
X98663628Y-52244882D01*
X98663628Y-52244882D02*
X98701724Y-52321072D01*
X98701724Y-52321072D02*
X98739819Y-52359168D01*
X98739819Y-52359168D02*
X98816009Y-52397263D01*
X98816009Y-52397263D02*
X98968390Y-52397263D01*
X98968390Y-52397263D02*
X99044581Y-52359168D01*
X99044581Y-52359168D02*
X99082676Y-52321072D01*
X99082676Y-52321072D02*
X99120771Y-52244882D01*
X102410295Y-62062025D02*
X102486485Y-62062025D01*
X102486485Y-62062025D02*
X102562676Y-62100120D01*
X102562676Y-62100120D02*
X102600771Y-62138215D01*
X102600771Y-62138215D02*
X102638866Y-62214406D01*
X102638866Y-62214406D02*
X102676961Y-62366787D01*
X102676961Y-62366787D02*
X102676961Y-62557263D01*
X102676961Y-62557263D02*
X102638866Y-62709644D01*
X102638866Y-62709644D02*
X102600771Y-62785834D01*
X102600771Y-62785834D02*
X102562676Y-62823930D01*
X102562676Y-62823930D02*
X102486485Y-62862025D01*
X102486485Y-62862025D02*
X102410295Y-62862025D01*
X102410295Y-62862025D02*
X102334104Y-62823930D01*
X102334104Y-62823930D02*
X102296009Y-62785834D01*
X102296009Y-62785834D02*
X102257914Y-62709644D01*
X102257914Y-62709644D02*
X102219818Y-62557263D01*
X102219818Y-62557263D02*
X102219818Y-62366787D01*
X102219818Y-62366787D02*
X102257914Y-62214406D01*
X102257914Y-62214406D02*
X102296009Y-62138215D01*
X102296009Y-62138215D02*
X102334104Y-62100120D01*
X102334104Y-62100120D02*
X102410295Y-62062025D01*
X103438866Y-62862025D02*
X102981723Y-62862025D01*
X103210295Y-62862025D02*
X103210295Y-62062025D01*
X103210295Y-62062025D02*
X103134104Y-62176310D01*
X103134104Y-62176310D02*
X103057914Y-62252501D01*
X103057914Y-62252501D02*
X102981723Y-62290596D01*
X104200771Y-62862025D02*
X103743628Y-62862025D01*
X103972200Y-62862025D02*
X103972200Y-62062025D01*
X103972200Y-62062025D02*
X103896009Y-62176310D01*
X103896009Y-62176310D02*
X103819819Y-62252501D01*
X103819819Y-62252501D02*
X103743628Y-62290596D01*
X97692200Y-45082025D02*
X97425533Y-44701072D01*
X97235057Y-45082025D02*
X97235057Y-44282025D01*
X97235057Y-44282025D02*
X97539819Y-44282025D01*
X97539819Y-44282025D02*
X97616009Y-44320120D01*
X97616009Y-44320120D02*
X97654104Y-44358215D01*
X97654104Y-44358215D02*
X97692200Y-44434406D01*
X97692200Y-44434406D02*
X97692200Y-44548691D01*
X97692200Y-44548691D02*
X97654104Y-44624882D01*
X97654104Y-44624882D02*
X97616009Y-44662977D01*
X97616009Y-44662977D02*
X97539819Y-44701072D01*
X97539819Y-44701072D02*
X97235057Y-44701072D01*
X97996961Y-45043930D02*
X98111247Y-45082025D01*
X98111247Y-45082025D02*
X98301723Y-45082025D01*
X98301723Y-45082025D02*
X98377914Y-45043930D01*
X98377914Y-45043930D02*
X98416009Y-45005834D01*
X98416009Y-45005834D02*
X98454104Y-44929644D01*
X98454104Y-44929644D02*
X98454104Y-44853453D01*
X98454104Y-44853453D02*
X98416009Y-44777263D01*
X98416009Y-44777263D02*
X98377914Y-44739168D01*
X98377914Y-44739168D02*
X98301723Y-44701072D01*
X98301723Y-44701072D02*
X98149342Y-44662977D01*
X98149342Y-44662977D02*
X98073152Y-44624882D01*
X98073152Y-44624882D02*
X98035057Y-44586787D01*
X98035057Y-44586787D02*
X97996961Y-44510596D01*
X97996961Y-44510596D02*
X97996961Y-44434406D01*
X97996961Y-44434406D02*
X98035057Y-44358215D01*
X98035057Y-44358215D02*
X98073152Y-44320120D01*
X98073152Y-44320120D02*
X98149342Y-44282025D01*
X98149342Y-44282025D02*
X98339819Y-44282025D01*
X98339819Y-44282025D02*
X98454104Y-44320120D01*
X98682676Y-44282025D02*
X99139819Y-44282025D01*
X98911247Y-45082025D02*
X98911247Y-44282025D01*
X102410295Y-41742025D02*
X102486485Y-41742025D01*
X102486485Y-41742025D02*
X102562676Y-41780120D01*
X102562676Y-41780120D02*
X102600771Y-41818215D01*
X102600771Y-41818215D02*
X102638866Y-41894406D01*
X102638866Y-41894406D02*
X102676961Y-42046787D01*
X102676961Y-42046787D02*
X102676961Y-42237263D01*
X102676961Y-42237263D02*
X102638866Y-42389644D01*
X102638866Y-42389644D02*
X102600771Y-42465834D01*
X102600771Y-42465834D02*
X102562676Y-42503930D01*
X102562676Y-42503930D02*
X102486485Y-42542025D01*
X102486485Y-42542025D02*
X102410295Y-42542025D01*
X102410295Y-42542025D02*
X102334104Y-42503930D01*
X102334104Y-42503930D02*
X102296009Y-42465834D01*
X102296009Y-42465834D02*
X102257914Y-42389644D01*
X102257914Y-42389644D02*
X102219818Y-42237263D01*
X102219818Y-42237263D02*
X102219818Y-42046787D01*
X102219818Y-42046787D02*
X102257914Y-41894406D01*
X102257914Y-41894406D02*
X102296009Y-41818215D01*
X102296009Y-41818215D02*
X102334104Y-41780120D01*
X102334104Y-41780120D02*
X102410295Y-41742025D01*
X103172200Y-41742025D02*
X103248390Y-41742025D01*
X103248390Y-41742025D02*
X103324581Y-41780120D01*
X103324581Y-41780120D02*
X103362676Y-41818215D01*
X103362676Y-41818215D02*
X103400771Y-41894406D01*
X103400771Y-41894406D02*
X103438866Y-42046787D01*
X103438866Y-42046787D02*
X103438866Y-42237263D01*
X103438866Y-42237263D02*
X103400771Y-42389644D01*
X103400771Y-42389644D02*
X103362676Y-42465834D01*
X103362676Y-42465834D02*
X103324581Y-42503930D01*
X103324581Y-42503930D02*
X103248390Y-42542025D01*
X103248390Y-42542025D02*
X103172200Y-42542025D01*
X103172200Y-42542025D02*
X103096009Y-42503930D01*
X103096009Y-42503930D02*
X103057914Y-42465834D01*
X103057914Y-42465834D02*
X103019819Y-42389644D01*
X103019819Y-42389644D02*
X102981723Y-42237263D01*
X102981723Y-42237263D02*
X102981723Y-42046787D01*
X102981723Y-42046787D02*
X103019819Y-41894406D01*
X103019819Y-41894406D02*
X103057914Y-41818215D01*
X103057914Y-41818215D02*
X103096009Y-41780120D01*
X103096009Y-41780120D02*
X103172200Y-41742025D01*
X103896009Y-42084882D02*
X103819819Y-42046787D01*
X103819819Y-42046787D02*
X103781724Y-42008691D01*
X103781724Y-42008691D02*
X103743628Y-41932501D01*
X103743628Y-41932501D02*
X103743628Y-41894406D01*
X103743628Y-41894406D02*
X103781724Y-41818215D01*
X103781724Y-41818215D02*
X103819819Y-41780120D01*
X103819819Y-41780120D02*
X103896009Y-41742025D01*
X103896009Y-41742025D02*
X104048390Y-41742025D01*
X104048390Y-41742025D02*
X104124581Y-41780120D01*
X104124581Y-41780120D02*
X104162676Y-41818215D01*
X104162676Y-41818215D02*
X104200771Y-41894406D01*
X104200771Y-41894406D02*
X104200771Y-41932501D01*
X104200771Y-41932501D02*
X104162676Y-42008691D01*
X104162676Y-42008691D02*
X104124581Y-42046787D01*
X104124581Y-42046787D02*
X104048390Y-42084882D01*
X104048390Y-42084882D02*
X103896009Y-42084882D01*
X103896009Y-42084882D02*
X103819819Y-42122977D01*
X103819819Y-42122977D02*
X103781724Y-42161072D01*
X103781724Y-42161072D02*
X103743628Y-42237263D01*
X103743628Y-42237263D02*
X103743628Y-42389644D01*
X103743628Y-42389644D02*
X103781724Y-42465834D01*
X103781724Y-42465834D02*
X103819819Y-42503930D01*
X103819819Y-42503930D02*
X103896009Y-42542025D01*
X103896009Y-42542025D02*
X104048390Y-42542025D01*
X104048390Y-42542025D02*
X104124581Y-42503930D01*
X104124581Y-42503930D02*
X104162676Y-42465834D01*
X104162676Y-42465834D02*
X104200771Y-42389644D01*
X104200771Y-42389644D02*
X104200771Y-42237263D01*
X104200771Y-42237263D02*
X104162676Y-42161072D01*
X104162676Y-42161072D02*
X104124581Y-42122977D01*
X104124581Y-42122977D02*
X104048390Y-42084882D01*
X102676961Y-67942025D02*
X102219818Y-67942025D01*
X102448390Y-67942025D02*
X102448390Y-67142025D01*
X102448390Y-67142025D02*
X102372199Y-67256310D01*
X102372199Y-67256310D02*
X102296009Y-67332501D01*
X102296009Y-67332501D02*
X102219818Y-67370596D01*
X103172200Y-67142025D02*
X103248390Y-67142025D01*
X103248390Y-67142025D02*
X103324581Y-67180120D01*
X103324581Y-67180120D02*
X103362676Y-67218215D01*
X103362676Y-67218215D02*
X103400771Y-67294406D01*
X103400771Y-67294406D02*
X103438866Y-67446787D01*
X103438866Y-67446787D02*
X103438866Y-67637263D01*
X103438866Y-67637263D02*
X103400771Y-67789644D01*
X103400771Y-67789644D02*
X103362676Y-67865834D01*
X103362676Y-67865834D02*
X103324581Y-67903930D01*
X103324581Y-67903930D02*
X103248390Y-67942025D01*
X103248390Y-67942025D02*
X103172200Y-67942025D01*
X103172200Y-67942025D02*
X103096009Y-67903930D01*
X103096009Y-67903930D02*
X103057914Y-67865834D01*
X103057914Y-67865834D02*
X103019819Y-67789644D01*
X103019819Y-67789644D02*
X102981723Y-67637263D01*
X102981723Y-67637263D02*
X102981723Y-67446787D01*
X102981723Y-67446787D02*
X103019819Y-67294406D01*
X103019819Y-67294406D02*
X103057914Y-67218215D01*
X103057914Y-67218215D02*
X103096009Y-67180120D01*
X103096009Y-67180120D02*
X103172200Y-67142025D01*
X104124581Y-67142025D02*
X103972200Y-67142025D01*
X103972200Y-67142025D02*
X103896009Y-67180120D01*
X103896009Y-67180120D02*
X103857914Y-67218215D01*
X103857914Y-67218215D02*
X103781724Y-67332501D01*
X103781724Y-67332501D02*
X103743628Y-67484882D01*
X103743628Y-67484882D02*
X103743628Y-67789644D01*
X103743628Y-67789644D02*
X103781724Y-67865834D01*
X103781724Y-67865834D02*
X103819819Y-67903930D01*
X103819819Y-67903930D02*
X103896009Y-67942025D01*
X103896009Y-67942025D02*
X104048390Y-67942025D01*
X104048390Y-67942025D02*
X104124581Y-67903930D01*
X104124581Y-67903930D02*
X104162676Y-67865834D01*
X104162676Y-67865834D02*
X104200771Y-67789644D01*
X104200771Y-67789644D02*
X104200771Y-67599168D01*
X104200771Y-67599168D02*
X104162676Y-67522977D01*
X104162676Y-67522977D02*
X104124581Y-67484882D01*
X104124581Y-67484882D02*
X104048390Y-67446787D01*
X104048390Y-67446787D02*
X103896009Y-67446787D01*
X103896009Y-67446787D02*
X103819819Y-67484882D01*
X103819819Y-67484882D02*
X103781724Y-67522977D01*
X103781724Y-67522977D02*
X103743628Y-67599168D01*
X102410295Y-56982025D02*
X102486485Y-56982025D01*
X102486485Y-56982025D02*
X102562676Y-57020120D01*
X102562676Y-57020120D02*
X102600771Y-57058215D01*
X102600771Y-57058215D02*
X102638866Y-57134406D01*
X102638866Y-57134406D02*
X102676961Y-57286787D01*
X102676961Y-57286787D02*
X102676961Y-57477263D01*
X102676961Y-57477263D02*
X102638866Y-57629644D01*
X102638866Y-57629644D02*
X102600771Y-57705834D01*
X102600771Y-57705834D02*
X102562676Y-57743930D01*
X102562676Y-57743930D02*
X102486485Y-57782025D01*
X102486485Y-57782025D02*
X102410295Y-57782025D01*
X102410295Y-57782025D02*
X102334104Y-57743930D01*
X102334104Y-57743930D02*
X102296009Y-57705834D01*
X102296009Y-57705834D02*
X102257914Y-57629644D01*
X102257914Y-57629644D02*
X102219818Y-57477263D01*
X102219818Y-57477263D02*
X102219818Y-57286787D01*
X102219818Y-57286787D02*
X102257914Y-57134406D01*
X102257914Y-57134406D02*
X102296009Y-57058215D01*
X102296009Y-57058215D02*
X102334104Y-57020120D01*
X102334104Y-57020120D02*
X102410295Y-56982025D01*
X102981723Y-57058215D02*
X103019819Y-57020120D01*
X103019819Y-57020120D02*
X103096009Y-56982025D01*
X103096009Y-56982025D02*
X103286485Y-56982025D01*
X103286485Y-56982025D02*
X103362676Y-57020120D01*
X103362676Y-57020120D02*
X103400771Y-57058215D01*
X103400771Y-57058215D02*
X103438866Y-57134406D01*
X103438866Y-57134406D02*
X103438866Y-57210596D01*
X103438866Y-57210596D02*
X103400771Y-57324882D01*
X103400771Y-57324882D02*
X102943628Y-57782025D01*
X102943628Y-57782025D02*
X103438866Y-57782025D01*
X104124581Y-57248691D02*
X104124581Y-57782025D01*
X103934105Y-56943930D02*
X103743628Y-57515358D01*
X103743628Y-57515358D02*
X104238867Y-57515358D01*
X97063628Y-46822025D02*
X97330295Y-47622025D01*
X97330295Y-47622025D02*
X97596961Y-46822025D01*
X98320771Y-47545834D02*
X98282675Y-47583930D01*
X98282675Y-47583930D02*
X98168390Y-47622025D01*
X98168390Y-47622025D02*
X98092199Y-47622025D01*
X98092199Y-47622025D02*
X97977913Y-47583930D01*
X97977913Y-47583930D02*
X97901723Y-47507739D01*
X97901723Y-47507739D02*
X97863628Y-47431549D01*
X97863628Y-47431549D02*
X97825532Y-47279168D01*
X97825532Y-47279168D02*
X97825532Y-47164882D01*
X97825532Y-47164882D02*
X97863628Y-47012501D01*
X97863628Y-47012501D02*
X97901723Y-46936310D01*
X97901723Y-46936310D02*
X97977913Y-46860120D01*
X97977913Y-46860120D02*
X98092199Y-46822025D01*
X98092199Y-46822025D02*
X98168390Y-46822025D01*
X98168390Y-46822025D02*
X98282675Y-46860120D01*
X98282675Y-46860120D02*
X98320771Y-46898215D01*
X99120771Y-47545834D02*
X99082675Y-47583930D01*
X99082675Y-47583930D02*
X98968390Y-47622025D01*
X98968390Y-47622025D02*
X98892199Y-47622025D01*
X98892199Y-47622025D02*
X98777913Y-47583930D01*
X98777913Y-47583930D02*
X98701723Y-47507739D01*
X98701723Y-47507739D02*
X98663628Y-47431549D01*
X98663628Y-47431549D02*
X98625532Y-47279168D01*
X98625532Y-47279168D02*
X98625532Y-47164882D01*
X98625532Y-47164882D02*
X98663628Y-47012501D01*
X98663628Y-47012501D02*
X98701723Y-46936310D01*
X98701723Y-46936310D02*
X98777913Y-46860120D01*
X98777913Y-46860120D02*
X98892199Y-46822025D01*
X98892199Y-46822025D02*
X98968390Y-46822025D01*
X98968390Y-46822025D02*
X99082675Y-46860120D01*
X99082675Y-46860120D02*
X99120771Y-46898215D01*
X102402087Y-51902025D02*
X102478277Y-51902025D01*
X102478277Y-51902025D02*
X102554468Y-51940120D01*
X102554468Y-51940120D02*
X102592563Y-51978215D01*
X102592563Y-51978215D02*
X102630658Y-52054406D01*
X102630658Y-52054406D02*
X102668753Y-52206787D01*
X102668753Y-52206787D02*
X102668753Y-52397263D01*
X102668753Y-52397263D02*
X102630658Y-52549644D01*
X102630658Y-52549644D02*
X102592563Y-52625834D01*
X102592563Y-52625834D02*
X102554468Y-52663930D01*
X102554468Y-52663930D02*
X102478277Y-52702025D01*
X102478277Y-52702025D02*
X102402087Y-52702025D01*
X102402087Y-52702025D02*
X102325896Y-52663930D01*
X102325896Y-52663930D02*
X102287801Y-52625834D01*
X102287801Y-52625834D02*
X102249706Y-52549644D01*
X102249706Y-52549644D02*
X102211610Y-52397263D01*
X102211610Y-52397263D02*
X102211610Y-52206787D01*
X102211610Y-52206787D02*
X102249706Y-52054406D01*
X102249706Y-52054406D02*
X102287801Y-51978215D01*
X102287801Y-51978215D02*
X102325896Y-51940120D01*
X102325896Y-51940120D02*
X102402087Y-51902025D01*
X102973515Y-51978215D02*
X103011611Y-51940120D01*
X103011611Y-51940120D02*
X103087801Y-51902025D01*
X103087801Y-51902025D02*
X103278277Y-51902025D01*
X103278277Y-51902025D02*
X103354468Y-51940120D01*
X103354468Y-51940120D02*
X103392563Y-51978215D01*
X103392563Y-51978215D02*
X103430658Y-52054406D01*
X103430658Y-52054406D02*
X103430658Y-52130596D01*
X103430658Y-52130596D02*
X103392563Y-52244882D01*
X103392563Y-52244882D02*
X102935420Y-52702025D01*
X102935420Y-52702025D02*
X103430658Y-52702025D01*
X103925897Y-51902025D02*
X104002087Y-51902025D01*
X104002087Y-51902025D02*
X104078278Y-51940120D01*
X104078278Y-51940120D02*
X104116373Y-51978215D01*
X104116373Y-51978215D02*
X104154468Y-52054406D01*
X104154468Y-52054406D02*
X104192563Y-52206787D01*
X104192563Y-52206787D02*
X104192563Y-52397263D01*
X104192563Y-52397263D02*
X104154468Y-52549644D01*
X104154468Y-52549644D02*
X104116373Y-52625834D01*
X104116373Y-52625834D02*
X104078278Y-52663930D01*
X104078278Y-52663930D02*
X104002087Y-52702025D01*
X104002087Y-52702025D02*
X103925897Y-52702025D01*
X103925897Y-52702025D02*
X103849706Y-52663930D01*
X103849706Y-52663930D02*
X103811611Y-52625834D01*
X103811611Y-52625834D02*
X103773516Y-52549644D01*
X103773516Y-52549644D02*
X103735420Y-52397263D01*
X103735420Y-52397263D02*
X103735420Y-52206787D01*
X103735420Y-52206787D02*
X103773516Y-52054406D01*
X103773516Y-52054406D02*
X103811611Y-51978215D01*
X103811611Y-51978215D02*
X103849706Y-51940120D01*
X103849706Y-51940120D02*
X103925897Y-51902025D01*
X97596961Y-62862025D02*
X97139818Y-62862025D01*
X97368390Y-62862025D02*
X97368390Y-62062025D01*
X97368390Y-62062025D02*
X97292199Y-62176310D01*
X97292199Y-62176310D02*
X97216009Y-62252501D01*
X97216009Y-62252501D02*
X97139818Y-62290596D01*
X98358866Y-62862025D02*
X97901723Y-62862025D01*
X98130295Y-62862025D02*
X98130295Y-62062025D01*
X98130295Y-62062025D02*
X98054104Y-62176310D01*
X98054104Y-62176310D02*
X97977914Y-62252501D01*
X97977914Y-62252501D02*
X97901723Y-62290596D01*
X99120771Y-62862025D02*
X98663628Y-62862025D01*
X98892200Y-62862025D02*
X98892200Y-62062025D01*
X98892200Y-62062025D02*
X98816009Y-62176310D01*
X98816009Y-62176310D02*
X98739819Y-62252501D01*
X98739819Y-62252501D02*
X98663628Y-62290596D01*
X97330295Y-67142025D02*
X97406485Y-67142025D01*
X97406485Y-67142025D02*
X97482676Y-67180120D01*
X97482676Y-67180120D02*
X97520771Y-67218215D01*
X97520771Y-67218215D02*
X97558866Y-67294406D01*
X97558866Y-67294406D02*
X97596961Y-67446787D01*
X97596961Y-67446787D02*
X97596961Y-67637263D01*
X97596961Y-67637263D02*
X97558866Y-67789644D01*
X97558866Y-67789644D02*
X97520771Y-67865834D01*
X97520771Y-67865834D02*
X97482676Y-67903930D01*
X97482676Y-67903930D02*
X97406485Y-67942025D01*
X97406485Y-67942025D02*
X97330295Y-67942025D01*
X97330295Y-67942025D02*
X97254104Y-67903930D01*
X97254104Y-67903930D02*
X97216009Y-67865834D01*
X97216009Y-67865834D02*
X97177914Y-67789644D01*
X97177914Y-67789644D02*
X97139818Y-67637263D01*
X97139818Y-67637263D02*
X97139818Y-67446787D01*
X97139818Y-67446787D02*
X97177914Y-67294406D01*
X97177914Y-67294406D02*
X97216009Y-67218215D01*
X97216009Y-67218215D02*
X97254104Y-67180120D01*
X97254104Y-67180120D02*
X97330295Y-67142025D01*
X98092200Y-67142025D02*
X98168390Y-67142025D01*
X98168390Y-67142025D02*
X98244581Y-67180120D01*
X98244581Y-67180120D02*
X98282676Y-67218215D01*
X98282676Y-67218215D02*
X98320771Y-67294406D01*
X98320771Y-67294406D02*
X98358866Y-67446787D01*
X98358866Y-67446787D02*
X98358866Y-67637263D01*
X98358866Y-67637263D02*
X98320771Y-67789644D01*
X98320771Y-67789644D02*
X98282676Y-67865834D01*
X98282676Y-67865834D02*
X98244581Y-67903930D01*
X98244581Y-67903930D02*
X98168390Y-67942025D01*
X98168390Y-67942025D02*
X98092200Y-67942025D01*
X98092200Y-67942025D02*
X98016009Y-67903930D01*
X98016009Y-67903930D02*
X97977914Y-67865834D01*
X97977914Y-67865834D02*
X97939819Y-67789644D01*
X97939819Y-67789644D02*
X97901723Y-67637263D01*
X97901723Y-67637263D02*
X97901723Y-67446787D01*
X97901723Y-67446787D02*
X97939819Y-67294406D01*
X97939819Y-67294406D02*
X97977914Y-67218215D01*
X97977914Y-67218215D02*
X98016009Y-67180120D01*
X98016009Y-67180120D02*
X98092200Y-67142025D01*
X98739819Y-67942025D02*
X98892200Y-67942025D01*
X98892200Y-67942025D02*
X98968390Y-67903930D01*
X98968390Y-67903930D02*
X99006486Y-67865834D01*
X99006486Y-67865834D02*
X99082676Y-67751549D01*
X99082676Y-67751549D02*
X99120771Y-67599168D01*
X99120771Y-67599168D02*
X99120771Y-67294406D01*
X99120771Y-67294406D02*
X99082676Y-67218215D01*
X99082676Y-67218215D02*
X99044581Y-67180120D01*
X99044581Y-67180120D02*
X98968390Y-67142025D01*
X98968390Y-67142025D02*
X98816009Y-67142025D01*
X98816009Y-67142025D02*
X98739819Y-67180120D01*
X98739819Y-67180120D02*
X98701724Y-67218215D01*
X98701724Y-67218215D02*
X98663628Y-67294406D01*
X98663628Y-67294406D02*
X98663628Y-67484882D01*
X98663628Y-67484882D02*
X98701724Y-67561072D01*
X98701724Y-67561072D02*
X98739819Y-67599168D01*
X98739819Y-67599168D02*
X98816009Y-67637263D01*
X98816009Y-67637263D02*
X98968390Y-67637263D01*
X98968390Y-67637263D02*
X99044581Y-67599168D01*
X99044581Y-67599168D02*
X99082676Y-67561072D01*
X99082676Y-67561072D02*
X99120771Y-67484882D01*
X102676961Y-65402025D02*
X102219818Y-65402025D01*
X102448390Y-65402025D02*
X102448390Y-64602025D01*
X102448390Y-64602025D02*
X102372199Y-64716310D01*
X102372199Y-64716310D02*
X102296009Y-64792501D01*
X102296009Y-64792501D02*
X102219818Y-64830596D01*
X103172200Y-64602025D02*
X103248390Y-64602025D01*
X103248390Y-64602025D02*
X103324581Y-64640120D01*
X103324581Y-64640120D02*
X103362676Y-64678215D01*
X103362676Y-64678215D02*
X103400771Y-64754406D01*
X103400771Y-64754406D02*
X103438866Y-64906787D01*
X103438866Y-64906787D02*
X103438866Y-65097263D01*
X103438866Y-65097263D02*
X103400771Y-65249644D01*
X103400771Y-65249644D02*
X103362676Y-65325834D01*
X103362676Y-65325834D02*
X103324581Y-65363930D01*
X103324581Y-65363930D02*
X103248390Y-65402025D01*
X103248390Y-65402025D02*
X103172200Y-65402025D01*
X103172200Y-65402025D02*
X103096009Y-65363930D01*
X103096009Y-65363930D02*
X103057914Y-65325834D01*
X103057914Y-65325834D02*
X103019819Y-65249644D01*
X103019819Y-65249644D02*
X102981723Y-65097263D01*
X102981723Y-65097263D02*
X102981723Y-64906787D01*
X102981723Y-64906787D02*
X103019819Y-64754406D01*
X103019819Y-64754406D02*
X103057914Y-64678215D01*
X103057914Y-64678215D02*
X103096009Y-64640120D01*
X103096009Y-64640120D02*
X103172200Y-64602025D01*
X104124581Y-64868691D02*
X104124581Y-65402025D01*
X103934105Y-64563930D02*
X103743628Y-65135358D01*
X103743628Y-65135358D02*
X104238867Y-65135358D01*
X102410295Y-49362025D02*
X102486485Y-49362025D01*
X102486485Y-49362025D02*
X102562676Y-49400120D01*
X102562676Y-49400120D02*
X102600771Y-49438215D01*
X102600771Y-49438215D02*
X102638866Y-49514406D01*
X102638866Y-49514406D02*
X102676961Y-49666787D01*
X102676961Y-49666787D02*
X102676961Y-49857263D01*
X102676961Y-49857263D02*
X102638866Y-50009644D01*
X102638866Y-50009644D02*
X102600771Y-50085834D01*
X102600771Y-50085834D02*
X102562676Y-50123930D01*
X102562676Y-50123930D02*
X102486485Y-50162025D01*
X102486485Y-50162025D02*
X102410295Y-50162025D01*
X102410295Y-50162025D02*
X102334104Y-50123930D01*
X102334104Y-50123930D02*
X102296009Y-50085834D01*
X102296009Y-50085834D02*
X102257914Y-50009644D01*
X102257914Y-50009644D02*
X102219818Y-49857263D01*
X102219818Y-49857263D02*
X102219818Y-49666787D01*
X102219818Y-49666787D02*
X102257914Y-49514406D01*
X102257914Y-49514406D02*
X102296009Y-49438215D01*
X102296009Y-49438215D02*
X102334104Y-49400120D01*
X102334104Y-49400120D02*
X102410295Y-49362025D01*
X103438866Y-50162025D02*
X102981723Y-50162025D01*
X103210295Y-50162025D02*
X103210295Y-49362025D01*
X103210295Y-49362025D02*
X103134104Y-49476310D01*
X103134104Y-49476310D02*
X103057914Y-49552501D01*
X103057914Y-49552501D02*
X102981723Y-49590596D01*
X103705533Y-49362025D02*
X104238867Y-49362025D01*
X104238867Y-49362025D02*
X103896009Y-50162025D01*
X102410295Y-39202025D02*
X102486485Y-39202025D01*
X102486485Y-39202025D02*
X102562676Y-39240120D01*
X102562676Y-39240120D02*
X102600771Y-39278215D01*
X102600771Y-39278215D02*
X102638866Y-39354406D01*
X102638866Y-39354406D02*
X102676961Y-39506787D01*
X102676961Y-39506787D02*
X102676961Y-39697263D01*
X102676961Y-39697263D02*
X102638866Y-39849644D01*
X102638866Y-39849644D02*
X102600771Y-39925834D01*
X102600771Y-39925834D02*
X102562676Y-39963930D01*
X102562676Y-39963930D02*
X102486485Y-40002025D01*
X102486485Y-40002025D02*
X102410295Y-40002025D01*
X102410295Y-40002025D02*
X102334104Y-39963930D01*
X102334104Y-39963930D02*
X102296009Y-39925834D01*
X102296009Y-39925834D02*
X102257914Y-39849644D01*
X102257914Y-39849644D02*
X102219818Y-39697263D01*
X102219818Y-39697263D02*
X102219818Y-39506787D01*
X102219818Y-39506787D02*
X102257914Y-39354406D01*
X102257914Y-39354406D02*
X102296009Y-39278215D01*
X102296009Y-39278215D02*
X102334104Y-39240120D01*
X102334104Y-39240120D02*
X102410295Y-39202025D01*
X103172200Y-39202025D02*
X103248390Y-39202025D01*
X103248390Y-39202025D02*
X103324581Y-39240120D01*
X103324581Y-39240120D02*
X103362676Y-39278215D01*
X103362676Y-39278215D02*
X103400771Y-39354406D01*
X103400771Y-39354406D02*
X103438866Y-39506787D01*
X103438866Y-39506787D02*
X103438866Y-39697263D01*
X103438866Y-39697263D02*
X103400771Y-39849644D01*
X103400771Y-39849644D02*
X103362676Y-39925834D01*
X103362676Y-39925834D02*
X103324581Y-39963930D01*
X103324581Y-39963930D02*
X103248390Y-40002025D01*
X103248390Y-40002025D02*
X103172200Y-40002025D01*
X103172200Y-40002025D02*
X103096009Y-39963930D01*
X103096009Y-39963930D02*
X103057914Y-39925834D01*
X103057914Y-39925834D02*
X103019819Y-39849644D01*
X103019819Y-39849644D02*
X102981723Y-39697263D01*
X102981723Y-39697263D02*
X102981723Y-39506787D01*
X102981723Y-39506787D02*
X103019819Y-39354406D01*
X103019819Y-39354406D02*
X103057914Y-39278215D01*
X103057914Y-39278215D02*
X103096009Y-39240120D01*
X103096009Y-39240120D02*
X103172200Y-39202025D01*
X104124581Y-39202025D02*
X103972200Y-39202025D01*
X103972200Y-39202025D02*
X103896009Y-39240120D01*
X103896009Y-39240120D02*
X103857914Y-39278215D01*
X103857914Y-39278215D02*
X103781724Y-39392501D01*
X103781724Y-39392501D02*
X103743628Y-39544882D01*
X103743628Y-39544882D02*
X103743628Y-39849644D01*
X103743628Y-39849644D02*
X103781724Y-39925834D01*
X103781724Y-39925834D02*
X103819819Y-39963930D01*
X103819819Y-39963930D02*
X103896009Y-40002025D01*
X103896009Y-40002025D02*
X104048390Y-40002025D01*
X104048390Y-40002025D02*
X104124581Y-39963930D01*
X104124581Y-39963930D02*
X104162676Y-39925834D01*
X104162676Y-39925834D02*
X104200771Y-39849644D01*
X104200771Y-39849644D02*
X104200771Y-39659168D01*
X104200771Y-39659168D02*
X104162676Y-39582977D01*
X104162676Y-39582977D02*
X104124581Y-39544882D01*
X104124581Y-39544882D02*
X104048390Y-39506787D01*
X104048390Y-39506787D02*
X103896009Y-39506787D01*
X103896009Y-39506787D02*
X103819819Y-39544882D01*
X103819819Y-39544882D02*
X103781724Y-39582977D01*
X103781724Y-39582977D02*
X103743628Y-39659168D01*
X97577914Y-40002025D02*
X97311247Y-39621072D01*
X97120771Y-40002025D02*
X97120771Y-39202025D01*
X97120771Y-39202025D02*
X97425533Y-39202025D01*
X97425533Y-39202025D02*
X97501723Y-39240120D01*
X97501723Y-39240120D02*
X97539818Y-39278215D01*
X97539818Y-39278215D02*
X97577914Y-39354406D01*
X97577914Y-39354406D02*
X97577914Y-39468691D01*
X97577914Y-39468691D02*
X97539818Y-39544882D01*
X97539818Y-39544882D02*
X97501723Y-39582977D01*
X97501723Y-39582977D02*
X97425533Y-39621072D01*
X97425533Y-39621072D02*
X97120771Y-39621072D01*
X97882675Y-39773453D02*
X98263628Y-39773453D01*
X97806485Y-40002025D02*
X98073152Y-39202025D01*
X98073152Y-39202025D02*
X98339818Y-40002025D01*
X98530294Y-39202025D02*
X98720770Y-40002025D01*
X98720770Y-40002025D02*
X98873151Y-39430596D01*
X98873151Y-39430596D02*
X99025532Y-40002025D01*
X99025532Y-40002025D02*
X99216009Y-39202025D01*
X84900000Y-39300000D02*
X85400000Y-39300000D01*
X84900000Y-51300000D02*
X84900000Y-39300000D01*
X85400000Y-37400000D02*
X90400000Y-37400000D01*
X85400000Y-39300000D02*
X85400000Y-37400000D01*
X90400000Y-39300000D02*
X90400000Y-37400000D01*
X90900000Y-39300000D02*
X90400000Y-39300000D01*
X90900000Y-39300000D02*
X90900000Y-51300000D01*
X90900000Y-51300000D02*
X84900000Y-51300000D01*
X83200000Y-70700000D02*
X83900000Y-70700000D01*
X86700000Y-70700000D02*
X86100000Y-70700000D01*
X86700000Y-70700000D02*
X86700000Y-64700000D01*
X83200000Y-64700000D02*
X83200000Y-70700000D01*
X83200000Y-64700000D02*
X83900000Y-64700000D01*
X86700000Y-64700000D02*
X86100000Y-64700000D01*
X115700000Y-43196000D02*
X124325000Y-43196000D01*
X115700000Y-47104000D02*
X115700000Y-43196000D01*
X115700000Y-47150000D02*
X120750000Y-47196000D01*
X118200001Y-53600000D02*
X118200001Y-58200000D01*
X118225000Y-53575000D02*
X120775000Y-53575000D01*
X118225000Y-58225000D02*
X122775000Y-58225000D01*
X119950000Y-58550000D02*
X119950000Y-59950000D01*
X119950000Y-59250000D02*
X120850000Y-58550000D01*
X120850000Y-58550000D02*
X120850000Y-59950000D01*
X120850000Y-59950000D02*
X119950000Y-59250000D01*
X122780000Y-57500000D02*
X122780000Y-58200000D01*
X123075000Y-51375000D02*
X127775000Y-51375000D01*
X124000000Y-56025000D02*
X127775000Y-56025000D01*
X126600000Y-45150000D02*
X126600000Y-49095000D01*
X126600000Y-49104000D02*
X122990000Y-49104000D01*
X127775000Y-51400000D02*
X127775000Y-56025000D01*
X122984999Y-49079999D02*
G75*
G03*
X120725000Y-47200001I-2069999J-190001D01*
G01*
X124000000Y-56029999D02*
G75*
G03*
X122779999Y-57449999I100000J-1320001D01*
G01*
X120700000Y-53569999D02*
G75*
G03*
X123069999Y-51400000I100000J2269999D01*
G01*
X126588999Y-45080000D02*
G75*
G03*
X124325000Y-43196001I-2073999J-190000D01*
G01*
X134700000Y-40796000D02*
X143325000Y-40796000D01*
X134700000Y-44704000D02*
X134700000Y-40796000D01*
X134700000Y-44750000D02*
X139750000Y-44796000D01*
X137200001Y-51200000D02*
X137200001Y-55800000D01*
X137225000Y-51175000D02*
X139775000Y-51175000D01*
X137225000Y-55825000D02*
X141775000Y-55825000D01*
X138950000Y-56150000D02*
X138950000Y-57550000D01*
X138950000Y-56850000D02*
X139850000Y-56150000D01*
X139850000Y-56150000D02*
X139850000Y-57550000D01*
X139850000Y-57550000D02*
X138950000Y-56850000D01*
X141780000Y-55100000D02*
X141780000Y-55800000D01*
X142075000Y-48975000D02*
X146775000Y-48975000D01*
X143000000Y-53625000D02*
X146775000Y-53625000D01*
X145600000Y-42750000D02*
X145600000Y-46695000D01*
X145600000Y-46704000D02*
X141990000Y-46704000D01*
X146775000Y-49000000D02*
X146775000Y-53625000D01*
X141984999Y-46679999D02*
G75*
G03*
X139725000Y-44800001I-2069999J-190001D01*
G01*
X143000000Y-53629999D02*
G75*
G03*
X141779999Y-55049999I100000J-1320001D01*
G01*
X139700000Y-51169999D02*
G75*
G03*
X142069999Y-49000000I100000J2269999D01*
G01*
X145588999Y-42680000D02*
G75*
G03*
X143325000Y-40796001I-2073999J-190000D01*
G01*
X153800000Y-39406000D02*
X162425000Y-39406000D01*
X153800000Y-43314000D02*
X153800000Y-39406000D01*
X153800000Y-43360000D02*
X158850000Y-43406000D01*
X156300001Y-49810000D02*
X156300001Y-54410000D01*
X156325000Y-49785000D02*
X158875000Y-49785000D01*
X156325000Y-54435000D02*
X160875000Y-54435000D01*
X158050000Y-54760000D02*
X158050000Y-56160000D01*
X158050000Y-55460000D02*
X158950000Y-54760000D01*
X158950000Y-54760000D02*
X158950000Y-56160000D01*
X158950000Y-56160000D02*
X158050000Y-55460000D01*
X160880000Y-53710000D02*
X160880000Y-54410000D01*
X161175000Y-47585000D02*
X165875000Y-47585000D01*
X162100000Y-52235000D02*
X165875000Y-52235000D01*
X164700000Y-41360000D02*
X164700000Y-45305000D01*
X164700000Y-45314000D02*
X161090000Y-45314000D01*
X165875000Y-47610000D02*
X165875000Y-52235000D01*
X161084999Y-45289999D02*
G75*
G03*
X158825000Y-43410001I-2069999J-190001D01*
G01*
X162100000Y-52239999D02*
G75*
G03*
X160879999Y-53659999I100000J-1320001D01*
G01*
X158800000Y-49779999D02*
G75*
G03*
X161169999Y-47610000I100000J2269999D01*
G01*
X164688999Y-41290000D02*
G75*
G03*
X162425000Y-39406001I-2073999J-190000D01*
G01*
X172800000Y-40796000D02*
X181425000Y-40796000D01*
X172800000Y-44704000D02*
X172800000Y-40796000D01*
X172800000Y-44750000D02*
X177850000Y-44796000D01*
X175300001Y-51200000D02*
X175300001Y-55800000D01*
X175325000Y-51175000D02*
X177875000Y-51175000D01*
X175325000Y-55825000D02*
X179875000Y-55825000D01*
X177050000Y-56150000D02*
X177050000Y-57550000D01*
X177050000Y-56850000D02*
X177950000Y-56150000D01*
X177950000Y-56150000D02*
X177950000Y-57550000D01*
X177950000Y-57550000D02*
X177050000Y-56850000D01*
X179880000Y-55100000D02*
X179880000Y-55800000D01*
X180175000Y-48975000D02*
X184875000Y-48975000D01*
X181100000Y-53625000D02*
X184875000Y-53625000D01*
X183700000Y-42750000D02*
X183700000Y-46695000D01*
X183700000Y-46704000D02*
X180090000Y-46704000D01*
X184875000Y-49000000D02*
X184875000Y-53625000D01*
X180084999Y-46679999D02*
G75*
G03*
X177825000Y-44800001I-2069999J-190001D01*
G01*
X181100000Y-53629999D02*
G75*
G03*
X179879999Y-55049999I100000J-1320001D01*
G01*
X177800000Y-51169999D02*
G75*
G03*
X180169999Y-49000000I100000J2269999D01*
G01*
X183688999Y-42680000D02*
G75*
G03*
X181425000Y-40796001I-2073999J-190000D01*
G01*
X191900000Y-45596000D02*
X200525000Y-45596000D01*
X191900000Y-49504000D02*
X191900000Y-45596000D01*
X191900000Y-49550000D02*
X196950000Y-49596000D01*
X194400001Y-56000000D02*
X194400001Y-60600000D01*
X194425000Y-55975000D02*
X196975000Y-55975000D01*
X194425000Y-60625000D02*
X198975000Y-60625000D01*
X196150000Y-60950000D02*
X196150000Y-62350000D01*
X196150000Y-61650000D02*
X197050000Y-60950000D01*
X197050000Y-60950000D02*
X197050000Y-62350000D01*
X197050000Y-62350000D02*
X196150000Y-61650000D01*
X198980000Y-59900000D02*
X198980000Y-60600000D01*
X199275000Y-53775000D02*
X203975000Y-53775000D01*
X200200000Y-58425000D02*
X203975000Y-58425000D01*
X202800000Y-47550000D02*
X202800000Y-51495000D01*
X202800000Y-51504000D02*
X199190000Y-51504000D01*
X203975000Y-53800000D02*
X203975000Y-58425000D01*
X199184999Y-51479999D02*
G75*
G03*
X196925000Y-49600001I-2069999J-190001D01*
G01*
X200200000Y-58429999D02*
G75*
G03*
X198979999Y-59849999I100000J-1320001D01*
G01*
X196900000Y-55969999D02*
G75*
G03*
X199269999Y-53800000I100000J2269999D01*
G01*
X202788999Y-47480000D02*
G75*
G03*
X200525000Y-45596001I-2073999J-190000D01*
G01*
X210900000Y-47096000D02*
X219525000Y-47096000D01*
X210900000Y-51004000D02*
X210900000Y-47096000D01*
X210900000Y-51050000D02*
X215950000Y-51096000D01*
X213400001Y-57500000D02*
X213400001Y-62100000D01*
X213425000Y-57475000D02*
X215975000Y-57475000D01*
X213425000Y-62125000D02*
X217975000Y-62125000D01*
X215150000Y-62450000D02*
X215150000Y-63850000D01*
X215150000Y-63150000D02*
X216050000Y-62450000D01*
X216050000Y-62450000D02*
X216050000Y-63850000D01*
X216050000Y-63850000D02*
X215150000Y-63150000D01*
X217980000Y-61400000D02*
X217980000Y-62100000D01*
X218275000Y-55275000D02*
X222975000Y-55275000D01*
X219200000Y-59925000D02*
X222975000Y-59925000D01*
X221800000Y-49050000D02*
X221800000Y-52995000D01*
X221800000Y-53004000D02*
X218190000Y-53004000D01*
X222975000Y-55300000D02*
X222975000Y-59925000D01*
X218184999Y-52979999D02*
G75*
G03*
X215925000Y-51100001I-2069999J-190001D01*
G01*
X219200000Y-59929999D02*
G75*
G03*
X217979999Y-61349999I100000J-1320001D01*
G01*
X215900000Y-57469999D02*
G75*
G03*
X218269999Y-55300000I100000J2269999D01*
G01*
X221788999Y-48980000D02*
G75*
G03*
X219525000Y-47096001I-2073999J-190000D01*
G01*
X115700000Y-62296000D02*
X124325000Y-62296000D01*
X115700000Y-66204000D02*
X115700000Y-62296000D01*
X115700000Y-66250000D02*
X120750000Y-66296000D01*
X118200001Y-72700000D02*
X118200001Y-77300000D01*
X118225000Y-72675000D02*
X120775000Y-72675000D01*
X118225000Y-77325000D02*
X122775000Y-77325000D01*
X119950000Y-77650000D02*
X119950000Y-79050000D01*
X119950000Y-78350000D02*
X120850000Y-77650000D01*
X120850000Y-77650000D02*
X120850000Y-79050000D01*
X120850000Y-79050000D02*
X119950000Y-78350000D01*
X122780000Y-76600000D02*
X122780000Y-77300000D01*
X123075000Y-70475000D02*
X127775000Y-70475000D01*
X124000000Y-75125000D02*
X127775000Y-75125000D01*
X126600000Y-64250000D02*
X126600000Y-68195000D01*
X126600000Y-68204000D02*
X122990000Y-68204000D01*
X127775000Y-70500000D02*
X127775000Y-75125000D01*
X122984999Y-68179999D02*
G75*
G03*
X120725000Y-66300001I-2069999J-190001D01*
G01*
X124000000Y-75129999D02*
G75*
G03*
X122779999Y-76549999I100000J-1320001D01*
G01*
X120700000Y-72669999D02*
G75*
G03*
X123069999Y-70500000I100000J2269999D01*
G01*
X126588999Y-64180000D02*
G75*
G03*
X124325000Y-62296001I-2073999J-190000D01*
G01*
X134700000Y-59896000D02*
X143325000Y-59896000D01*
X134700000Y-63804000D02*
X134700000Y-59896000D01*
X134700000Y-63850000D02*
X139750000Y-63896000D01*
X137200001Y-70300000D02*
X137200001Y-74900000D01*
X137225000Y-70275000D02*
X139775000Y-70275000D01*
X137225000Y-74925000D02*
X141775000Y-74925000D01*
X138950000Y-75250000D02*
X138950000Y-76650000D01*
X138950000Y-75950000D02*
X139850000Y-75250000D01*
X139850000Y-75250000D02*
X139850000Y-76650000D01*
X139850000Y-76650000D02*
X138950000Y-75950000D01*
X141780000Y-74200000D02*
X141780000Y-74900000D01*
X142075000Y-68075000D02*
X146775000Y-68075000D01*
X143000000Y-72725000D02*
X146775000Y-72725000D01*
X145600000Y-61850000D02*
X145600000Y-65795000D01*
X145600000Y-65804000D02*
X141990000Y-65804000D01*
X146775000Y-68100000D02*
X146775000Y-72725000D01*
X141984999Y-65779999D02*
G75*
G03*
X139725000Y-63900001I-2069999J-190001D01*
G01*
X143000000Y-72729999D02*
G75*
G03*
X141779999Y-74149999I100000J-1320001D01*
G01*
X139700000Y-70269999D02*
G75*
G03*
X142069999Y-68100000I100000J2269999D01*
G01*
X145588999Y-61780000D02*
G75*
G03*
X143325000Y-59896001I-2073999J-190000D01*
G01*
X153800000Y-58496000D02*
X162425000Y-58496000D01*
X153800000Y-62404000D02*
X153800000Y-58496000D01*
X153800000Y-62450000D02*
X158850000Y-62496000D01*
X156300001Y-68900000D02*
X156300001Y-73500000D01*
X156325000Y-68875000D02*
X158875000Y-68875000D01*
X156325000Y-73525000D02*
X160875000Y-73525000D01*
X158050000Y-73850000D02*
X158050000Y-75250000D01*
X158050000Y-74550000D02*
X158950000Y-73850000D01*
X158950000Y-73850000D02*
X158950000Y-75250000D01*
X158950000Y-75250000D02*
X158050000Y-74550000D01*
X160880000Y-72800000D02*
X160880000Y-73500000D01*
X161175000Y-66675000D02*
X165875000Y-66675000D01*
X162100000Y-71325000D02*
X165875000Y-71325000D01*
X164700000Y-60450000D02*
X164700000Y-64395000D01*
X164700000Y-64404000D02*
X161090000Y-64404000D01*
X165875000Y-66700000D02*
X165875000Y-71325000D01*
X161084999Y-64379999D02*
G75*
G03*
X158825000Y-62500001I-2069999J-190001D01*
G01*
X162100000Y-71329999D02*
G75*
G03*
X160879999Y-72749999I100000J-1320001D01*
G01*
X158800000Y-68869999D02*
G75*
G03*
X161169999Y-66700000I100000J2269999D01*
G01*
X164688999Y-60380000D02*
G75*
G03*
X162425000Y-58496001I-2073999J-190000D01*
G01*
X172800000Y-59796000D02*
X181425000Y-59796000D01*
X172800000Y-63704000D02*
X172800000Y-59796000D01*
X172800000Y-63750000D02*
X177850000Y-63796000D01*
X175300001Y-70200000D02*
X175300001Y-74800000D01*
X175325000Y-70175000D02*
X177875000Y-70175000D01*
X175325000Y-74825000D02*
X179875000Y-74825000D01*
X177050000Y-75150000D02*
X177050000Y-76550000D01*
X177050000Y-75850000D02*
X177950000Y-75150000D01*
X177950000Y-75150000D02*
X177950000Y-76550000D01*
X177950000Y-76550000D02*
X177050000Y-75850000D01*
X179880000Y-74100000D02*
X179880000Y-74800000D01*
X180175000Y-67975000D02*
X184875000Y-67975000D01*
X181100000Y-72625000D02*
X184875000Y-72625000D01*
X183700000Y-61750000D02*
X183700000Y-65695000D01*
X183700000Y-65704000D02*
X180090000Y-65704000D01*
X184875000Y-68000000D02*
X184875000Y-72625000D01*
X180084999Y-65679999D02*
G75*
G03*
X177825000Y-63800001I-2069999J-190001D01*
G01*
X181100000Y-72629999D02*
G75*
G03*
X179879999Y-74049999I100000J-1320001D01*
G01*
X177800000Y-70169999D02*
G75*
G03*
X180169999Y-68000000I100000J2269999D01*
G01*
X183688999Y-61680000D02*
G75*
G03*
X181425000Y-59796001I-2073999J-190000D01*
G01*
X191900000Y-64496000D02*
X200525000Y-64496000D01*
X191900000Y-68404000D02*
X191900000Y-64496000D01*
X191900000Y-68450000D02*
X196950000Y-68496000D01*
X194400001Y-74900000D02*
X194400001Y-79500000D01*
X194425000Y-74875000D02*
X196975000Y-74875000D01*
X194425000Y-79525000D02*
X198975000Y-79525000D01*
X196150000Y-79850000D02*
X196150000Y-81250000D01*
X196150000Y-80550000D02*
X197050000Y-79850000D01*
X197050000Y-79850000D02*
X197050000Y-81250000D01*
X197050000Y-81250000D02*
X196150000Y-80550000D01*
X198980000Y-78800000D02*
X198980000Y-79500000D01*
X199275000Y-72675000D02*
X203975000Y-72675000D01*
X200200000Y-77325000D02*
X203975000Y-77325000D01*
X202800000Y-66450000D02*
X202800000Y-70395000D01*
X202800000Y-70404000D02*
X199190000Y-70404000D01*
X203975000Y-72700000D02*
X203975000Y-77325000D01*
X199184999Y-70379999D02*
G75*
G03*
X196925000Y-68500001I-2069999J-190001D01*
G01*
X200200000Y-77329999D02*
G75*
G03*
X198979999Y-78749999I100000J-1320001D01*
G01*
X196900000Y-74869999D02*
G75*
G03*
X199269999Y-72700000I100000J2269999D01*
G01*
X202788999Y-66380000D02*
G75*
G03*
X200525000Y-64496001I-2073999J-190000D01*
G01*
X210900000Y-65996000D02*
X219525000Y-65996000D01*
X210900000Y-69904000D02*
X210900000Y-65996000D01*
X210900000Y-69950000D02*
X215950000Y-69996000D01*
X213400001Y-76400000D02*
X213400001Y-81000000D01*
X213425000Y-76375000D02*
X215975000Y-76375000D01*
X213425000Y-81025000D02*
X217975000Y-81025000D01*
X215150000Y-81350000D02*
X215150000Y-82750000D01*
X215150000Y-82050000D02*
X216050000Y-81350000D01*
X216050000Y-81350000D02*
X216050000Y-82750000D01*
X216050000Y-82750000D02*
X215150000Y-82050000D01*
X217980000Y-80300000D02*
X217980000Y-81000000D01*
X218275000Y-74175000D02*
X222975000Y-74175000D01*
X219200000Y-78825000D02*
X222975000Y-78825000D01*
X221800000Y-67950000D02*
X221800000Y-71895000D01*
X221800000Y-71904000D02*
X218190000Y-71904000D01*
X222975000Y-74200000D02*
X222975000Y-78825000D01*
X218184999Y-71879999D02*
G75*
G03*
X215925000Y-70000001I-2069999J-190001D01*
G01*
X219200000Y-78829999D02*
G75*
G03*
X217979999Y-80249999I100000J-1320001D01*
G01*
X215900000Y-76369999D02*
G75*
G03*
X218269999Y-74200000I100000J2269999D01*
G01*
X221788999Y-67880000D02*
G75*
G03*
X219525000Y-65996001I-2073999J-190000D01*
G01*
X115700000Y-81296000D02*
X124325000Y-81296000D01*
X115700000Y-85204000D02*
X115700000Y-81296000D01*
X115700000Y-85250000D02*
X120750000Y-85296000D01*
X118200001Y-91700000D02*
X118200001Y-96300000D01*
X118225000Y-91675000D02*
X120775000Y-91675000D01*
X118225000Y-96325000D02*
X122775000Y-96325000D01*
X119950000Y-96650000D02*
X119950000Y-98050000D01*
X119950000Y-97350000D02*
X120850000Y-96650000D01*
X120850000Y-96650000D02*
X120850000Y-98050000D01*
X120850000Y-98050000D02*
X119950000Y-97350000D01*
X122780000Y-95600000D02*
X122780000Y-96300000D01*
X123075000Y-89475000D02*
X127775000Y-89475000D01*
X124000000Y-94125000D02*
X127775000Y-94125000D01*
X126600000Y-83250000D02*
X126600000Y-87195000D01*
X126600000Y-87204000D02*
X122990000Y-87204000D01*
X127775000Y-89500000D02*
X127775000Y-94125000D01*
X122984999Y-87179999D02*
G75*
G03*
X120725000Y-85300001I-2069999J-190001D01*
G01*
X124000000Y-94129999D02*
G75*
G03*
X122779999Y-95549999I100000J-1320001D01*
G01*
X120700000Y-91669999D02*
G75*
G03*
X123069999Y-89500000I100000J2269999D01*
G01*
X126588999Y-83180000D02*
G75*
G03*
X124325000Y-81296001I-2073999J-190000D01*
G01*
X134700000Y-78896000D02*
X143325000Y-78896000D01*
X134700000Y-82804000D02*
X134700000Y-78896000D01*
X134700000Y-82850000D02*
X139750000Y-82896000D01*
X137200001Y-89300000D02*
X137200001Y-93900000D01*
X137225000Y-89275000D02*
X139775000Y-89275000D01*
X137225000Y-93925000D02*
X141775000Y-93925000D01*
X138950000Y-94250000D02*
X138950000Y-95650000D01*
X138950000Y-94950000D02*
X139850000Y-94250000D01*
X139850000Y-94250000D02*
X139850000Y-95650000D01*
X139850000Y-95650000D02*
X138950000Y-94950000D01*
X141780000Y-93200000D02*
X141780000Y-93900000D01*
X142075000Y-87075000D02*
X146775000Y-87075000D01*
X143000000Y-91725000D02*
X146775000Y-91725000D01*
X145600000Y-80850000D02*
X145600000Y-84795000D01*
X145600000Y-84804000D02*
X141990000Y-84804000D01*
X146775000Y-87100000D02*
X146775000Y-91725000D01*
X141984999Y-84779999D02*
G75*
G03*
X139725000Y-82900001I-2069999J-190001D01*
G01*
X143000000Y-91729999D02*
G75*
G03*
X141779999Y-93149999I100000J-1320001D01*
G01*
X139700000Y-89269999D02*
G75*
G03*
X142069999Y-87100000I100000J2269999D01*
G01*
X145588999Y-80780000D02*
G75*
G03*
X143325000Y-78896001I-2073999J-190000D01*
G01*
X153800000Y-77596000D02*
X162425000Y-77596000D01*
X153800000Y-81504000D02*
X153800000Y-77596000D01*
X153800000Y-81550000D02*
X158850000Y-81596000D01*
X156300001Y-88000000D02*
X156300001Y-92600000D01*
X156325000Y-87975000D02*
X158875000Y-87975000D01*
X156325000Y-92625000D02*
X160875000Y-92625000D01*
X158050000Y-92950000D02*
X158050000Y-94350000D01*
X158050000Y-93650000D02*
X158950000Y-92950000D01*
X158950000Y-92950000D02*
X158950000Y-94350000D01*
X158950000Y-94350000D02*
X158050000Y-93650000D01*
X160880000Y-91900000D02*
X160880000Y-92600000D01*
X161175000Y-85775000D02*
X165875000Y-85775000D01*
X162100000Y-90425000D02*
X165875000Y-90425000D01*
X164700000Y-79550000D02*
X164700000Y-83495000D01*
X164700000Y-83504000D02*
X161090000Y-83504000D01*
X165875000Y-85800000D02*
X165875000Y-90425000D01*
X161084999Y-83479999D02*
G75*
G03*
X158825000Y-81600001I-2069999J-190001D01*
G01*
X162100000Y-90429999D02*
G75*
G03*
X160879999Y-91849999I100000J-1320001D01*
G01*
X158800000Y-87969999D02*
G75*
G03*
X161169999Y-85800000I100000J2269999D01*
G01*
X164688999Y-79480000D02*
G75*
G03*
X162425000Y-77596001I-2073999J-190000D01*
G01*
X172800000Y-78896000D02*
X181425000Y-78896000D01*
X172800000Y-82804000D02*
X172800000Y-78896000D01*
X172800000Y-82850000D02*
X177850000Y-82896000D01*
X175300001Y-89300000D02*
X175300001Y-93900000D01*
X175325000Y-89275000D02*
X177875000Y-89275000D01*
X175325000Y-93925000D02*
X179875000Y-93925000D01*
X177050000Y-94250000D02*
X177050000Y-95650000D01*
X177050000Y-94950000D02*
X177950000Y-94250000D01*
X177950000Y-94250000D02*
X177950000Y-95650000D01*
X177950000Y-95650000D02*
X177050000Y-94950000D01*
X179880000Y-93200000D02*
X179880000Y-93900000D01*
X180175000Y-87075000D02*
X184875000Y-87075000D01*
X181100000Y-91725000D02*
X184875000Y-91725000D01*
X183700000Y-80850000D02*
X183700000Y-84795000D01*
X183700000Y-84804000D02*
X180090000Y-84804000D01*
X184875000Y-87100000D02*
X184875000Y-91725000D01*
X180084999Y-84779999D02*
G75*
G03*
X177825000Y-82900001I-2069999J-190001D01*
G01*
X181100000Y-91729999D02*
G75*
G03*
X179879999Y-93149999I100000J-1320001D01*
G01*
X177800000Y-89269999D02*
G75*
G03*
X180169999Y-87100000I100000J2269999D01*
G01*
X183688999Y-80780000D02*
G75*
G03*
X181425000Y-78896001I-2073999J-190000D01*
G01*
X191900000Y-83696000D02*
X200525000Y-83696000D01*
X191900000Y-87604000D02*
X191900000Y-83696000D01*
X191900000Y-87650000D02*
X196950000Y-87696000D01*
X194400001Y-94100000D02*
X194400001Y-98700000D01*
X194425000Y-94075000D02*
X196975000Y-94075000D01*
X194425000Y-98725000D02*
X198975000Y-98725000D01*
X196150000Y-99050000D02*
X196150000Y-100450000D01*
X196150000Y-99750000D02*
X197050000Y-99050000D01*
X197050000Y-99050000D02*
X197050000Y-100450000D01*
X197050000Y-100450000D02*
X196150000Y-99750000D01*
X198980000Y-98000000D02*
X198980000Y-98700000D01*
X199275000Y-91875000D02*
X203975000Y-91875000D01*
X200200000Y-96525000D02*
X203975000Y-96525000D01*
X202800000Y-85650000D02*
X202800000Y-89595000D01*
X202800000Y-89604000D02*
X199190000Y-89604000D01*
X203975000Y-91900000D02*
X203975000Y-96525000D01*
X199184999Y-89579999D02*
G75*
G03*
X196925000Y-87700001I-2069999J-190001D01*
G01*
X200200000Y-96529999D02*
G75*
G03*
X198979999Y-97949999I100000J-1320001D01*
G01*
X196900000Y-94069999D02*
G75*
G03*
X199269999Y-91900000I100000J2269999D01*
G01*
X202788999Y-85580000D02*
G75*
G03*
X200525000Y-83696001I-2073999J-190000D01*
G01*
X210900000Y-85196000D02*
X219525000Y-85196000D01*
X210900000Y-89104000D02*
X210900000Y-85196000D01*
X210900000Y-89150000D02*
X215950000Y-89196000D01*
X213400001Y-95600000D02*
X213400001Y-100200000D01*
X213425000Y-95575000D02*
X215975000Y-95575000D01*
X213425000Y-100225000D02*
X217975000Y-100225000D01*
X215150000Y-100550000D02*
X215150000Y-101950000D01*
X215150000Y-101250000D02*
X216050000Y-100550000D01*
X216050000Y-100550000D02*
X216050000Y-101950000D01*
X216050000Y-101950000D02*
X215150000Y-101250000D01*
X217980000Y-99500000D02*
X217980000Y-100200000D01*
X218275000Y-93375000D02*
X222975000Y-93375000D01*
X219200000Y-98025000D02*
X222975000Y-98025000D01*
X221800000Y-87150000D02*
X221800000Y-91095000D01*
X221800000Y-91104000D02*
X218190000Y-91104000D01*
X222975000Y-93400000D02*
X222975000Y-98025000D01*
X218184999Y-91079999D02*
G75*
G03*
X215925000Y-89200001I-2069999J-190001D01*
G01*
X219200000Y-98029999D02*
G75*
G03*
X217979999Y-99449999I100000J-1320001D01*
G01*
X215900000Y-95569999D02*
G75*
G03*
X218269999Y-93400000I100000J2269999D01*
G01*
X221788999Y-87080000D02*
G75*
G03*
X219525000Y-85196001I-2073999J-190000D01*
G01*
X115700000Y-100296000D02*
X124325000Y-100296000D01*
X115700000Y-104204000D02*
X115700000Y-100296000D01*
X115700000Y-104250000D02*
X120750000Y-104296000D01*
X118200001Y-110700000D02*
X118200001Y-115300000D01*
X118225000Y-110675000D02*
X120775000Y-110675000D01*
X118225000Y-115325000D02*
X122775000Y-115325000D01*
X119950000Y-115650000D02*
X119950000Y-117050000D01*
X119950000Y-116350000D02*
X120850000Y-115650000D01*
X120850000Y-115650000D02*
X120850000Y-117050000D01*
X120850000Y-117050000D02*
X119950000Y-116350000D01*
X122780000Y-114600000D02*
X122780000Y-115300000D01*
X123075000Y-108475000D02*
X127775000Y-108475000D01*
X124000000Y-113125000D02*
X127775000Y-113125000D01*
X126600000Y-102250000D02*
X126600000Y-106195000D01*
X126600000Y-106204000D02*
X122990000Y-106204000D01*
X127775000Y-108500000D02*
X127775000Y-113125000D01*
X122984999Y-106179999D02*
G75*
G03*
X120725000Y-104300001I-2069999J-190001D01*
G01*
X124000000Y-113129999D02*
G75*
G03*
X122779999Y-114549999I100000J-1320001D01*
G01*
X120700000Y-110669999D02*
G75*
G03*
X123069999Y-108500000I100000J2269999D01*
G01*
X126588999Y-102180000D02*
G75*
G03*
X124325000Y-100296001I-2073999J-190000D01*
G01*
X134700000Y-97996000D02*
X143325000Y-97996000D01*
X134700000Y-101904000D02*
X134700000Y-97996000D01*
X134700000Y-101950000D02*
X139750000Y-101996000D01*
X137200001Y-108400000D02*
X137200001Y-113000000D01*
X137225000Y-108375000D02*
X139775000Y-108375000D01*
X137225000Y-113025000D02*
X141775000Y-113025000D01*
X138950000Y-113350000D02*
X138950000Y-114750000D01*
X138950000Y-114050000D02*
X139850000Y-113350000D01*
X139850000Y-113350000D02*
X139850000Y-114750000D01*
X139850000Y-114750000D02*
X138950000Y-114050000D01*
X141780000Y-112300000D02*
X141780000Y-113000000D01*
X142075000Y-106175000D02*
X146775000Y-106175000D01*
X143000000Y-110825000D02*
X146775000Y-110825000D01*
X145600000Y-99950000D02*
X145600000Y-103895000D01*
X145600000Y-103904000D02*
X141990000Y-103904000D01*
X146775000Y-106200000D02*
X146775000Y-110825000D01*
X141984999Y-103879999D02*
G75*
G03*
X139725000Y-102000001I-2069999J-190001D01*
G01*
X143000000Y-110829999D02*
G75*
G03*
X141779999Y-112249999I100000J-1320001D01*
G01*
X139700000Y-108369999D02*
G75*
G03*
X142069999Y-106200000I100000J2269999D01*
G01*
X145588999Y-99880000D02*
G75*
G03*
X143325000Y-97996001I-2073999J-190000D01*
G01*
X153800000Y-96596000D02*
X162425000Y-96596000D01*
X153800000Y-100504000D02*
X153800000Y-96596000D01*
X153800000Y-100550000D02*
X158850000Y-100596000D01*
X156300001Y-107000000D02*
X156300001Y-111600000D01*
X156325000Y-106975000D02*
X158875000Y-106975000D01*
X156325000Y-111625000D02*
X160875000Y-111625000D01*
X158050000Y-111950000D02*
X158050000Y-113350000D01*
X158050000Y-112650000D02*
X158950000Y-111950000D01*
X158950000Y-111950000D02*
X158950000Y-113350000D01*
X158950000Y-113350000D02*
X158050000Y-112650000D01*
X160880000Y-110900000D02*
X160880000Y-111600000D01*
X161175000Y-104775000D02*
X165875000Y-104775000D01*
X162100000Y-109425000D02*
X165875000Y-109425000D01*
X164700000Y-98550000D02*
X164700000Y-102495000D01*
X164700000Y-102504000D02*
X161090000Y-102504000D01*
X165875000Y-104800000D02*
X165875000Y-109425000D01*
X161084999Y-102479999D02*
G75*
G03*
X158825000Y-100600001I-2069999J-190001D01*
G01*
X162100000Y-109429999D02*
G75*
G03*
X160879999Y-110849999I100000J-1320001D01*
G01*
X158800000Y-106969999D02*
G75*
G03*
X161169999Y-104800000I100000J2269999D01*
G01*
X164688999Y-98480000D02*
G75*
G03*
X162425000Y-96596001I-2073999J-190000D01*
G01*
X172800000Y-97996000D02*
X181425000Y-97996000D01*
X172800000Y-101904000D02*
X172800000Y-97996000D01*
X172800000Y-101950000D02*
X177850000Y-101996000D01*
X175300001Y-108400000D02*
X175300001Y-113000000D01*
X175325000Y-108375000D02*
X177875000Y-108375000D01*
X175325000Y-113025000D02*
X179875000Y-113025000D01*
X177050000Y-113350000D02*
X177050000Y-114750000D01*
X177050000Y-114050000D02*
X177950000Y-113350000D01*
X177950000Y-113350000D02*
X177950000Y-114750000D01*
X177950000Y-114750000D02*
X177050000Y-114050000D01*
X179880000Y-112300000D02*
X179880000Y-113000000D01*
X180175000Y-106175000D02*
X184875000Y-106175000D01*
X181100000Y-110825000D02*
X184875000Y-110825000D01*
X183700000Y-99950000D02*
X183700000Y-103895000D01*
X183700000Y-103904000D02*
X180090000Y-103904000D01*
X184875000Y-106200000D02*
X184875000Y-110825000D01*
X180084999Y-103879999D02*
G75*
G03*
X177825000Y-102000001I-2069999J-190001D01*
G01*
X181100000Y-110829999D02*
G75*
G03*
X179879999Y-112249999I100000J-1320001D01*
G01*
X177800000Y-108369999D02*
G75*
G03*
X180169999Y-106200000I100000J2269999D01*
G01*
X183688999Y-99880000D02*
G75*
G03*
X181425000Y-97996001I-2073999J-190000D01*
G01*
X191900000Y-102696000D02*
X200525000Y-102696000D01*
X191900000Y-106604000D02*
X191900000Y-102696000D01*
X191900000Y-106650000D02*
X196950000Y-106696000D01*
X194400001Y-113100000D02*
X194400001Y-117700000D01*
X194425000Y-113075000D02*
X196975000Y-113075000D01*
X194425000Y-117725000D02*
X198975000Y-117725000D01*
X196150000Y-118050000D02*
X196150000Y-119450000D01*
X196150000Y-118750000D02*
X197050000Y-118050000D01*
X197050000Y-118050000D02*
X197050000Y-119450000D01*
X197050000Y-119450000D02*
X196150000Y-118750000D01*
X198980000Y-117000000D02*
X198980000Y-117700000D01*
X199275000Y-110875000D02*
X203975000Y-110875000D01*
X200200000Y-115525000D02*
X203975000Y-115525000D01*
X202800000Y-104650000D02*
X202800000Y-108595000D01*
X202800000Y-108604000D02*
X199190000Y-108604000D01*
X203975000Y-110900000D02*
X203975000Y-115525000D01*
X199184999Y-108579999D02*
G75*
G03*
X196925000Y-106700001I-2069999J-190001D01*
G01*
X200200000Y-115529999D02*
G75*
G03*
X198979999Y-116949999I100000J-1320001D01*
G01*
X196900000Y-113069999D02*
G75*
G03*
X199269999Y-110900000I100000J2269999D01*
G01*
X202788999Y-104580000D02*
G75*
G03*
X200525000Y-102696001I-2073999J-190000D01*
G01*
X208950000Y-118500000D02*
X208950000Y-119900000D01*
X208950000Y-119200000D02*
X209850000Y-118500000D01*
X209850000Y-118500000D02*
X209850000Y-119900000D01*
X209850000Y-119900000D02*
X208950000Y-119200000D01*
X210950000Y-104196000D02*
X219575000Y-104196000D01*
X210950000Y-108104000D02*
X210950000Y-104196000D01*
X210950000Y-108150000D02*
X216000000Y-108196000D01*
X213450001Y-114600000D02*
X213450001Y-119200000D01*
X213475000Y-114575000D02*
X216025000Y-114575000D01*
X213475000Y-119225000D02*
X218025000Y-119225000D01*
X218030000Y-118500000D02*
X218030000Y-119200000D01*
X218325000Y-112375000D02*
X223025000Y-112375000D01*
X219250000Y-117025000D02*
X223025000Y-117025000D01*
X221850000Y-106150000D02*
X221850000Y-110095000D01*
X221850000Y-110104000D02*
X218240000Y-110104000D01*
X223025000Y-112400000D02*
X223025000Y-117025000D01*
X218234999Y-110079999D02*
G75*
G03*
X215975000Y-108200001I-2069999J-190001D01*
G01*
X219250000Y-117029999D02*
G75*
G03*
X218029999Y-118449999I100000J-1320001D01*
G01*
X215950000Y-114569999D02*
G75*
G03*
X218319999Y-112400000I100000J2269999D01*
G01*
X221838999Y-106080000D02*
G75*
G03*
X219575000Y-104196001I-2073999J-190000D01*
G01*
X93311995Y-115704120D02*
X100781464Y-111391620D01*
X95265995Y-119088547D02*
X93311995Y-115704120D01*
X95288995Y-119128385D02*
X99685423Y-116643222D01*
X100679059Y-123464248D02*
X102979059Y-127447965D01*
X100688209Y-123430098D02*
X102896574Y-122155098D01*
X103013209Y-127457116D02*
X106953625Y-125182116D01*
X106595455Y-124551748D02*
X106945455Y-125157965D01*
X103788432Y-119099842D02*
X107858752Y-116749842D01*
X106914506Y-122664360D02*
X110183752Y-120776860D01*
X103728672Y-111946334D02*
X105701172Y-115362804D01*
X105705672Y-115370598D02*
X102579320Y-117175598D01*
X107871252Y-116771493D02*
X110183752Y-120776860D01*
X107284761Y-111105660D02*
X107440979Y-109976238D01*
X107440979Y-109976238D02*
X108497196Y-110405660D01*
X108047196Y-109626238D02*
X106834761Y-110326238D01*
X108497196Y-110405660D02*
X107284761Y-111105660D01*
X102562989Y-117157312D02*
G75*
G03*
X99665773Y-116659186I-1697671J-1199546D01*
G01*
X106917006Y-122668690D02*
G75*
G03*
X106570454Y-124508446I746602J-1093154D01*
G01*
X102829121Y-122188267D02*
G75*
G03*
X103796601Y-119123993I-1048396J2015877D01*
G01*
X103684146Y-111891212D02*
G75*
G03*
X100781464Y-111391620I-1701137J-1201545D01*
G01*
X102811995Y-132158602D02*
X110281464Y-127846102D01*
X104765995Y-135543029D02*
X102811995Y-132158602D01*
X104788995Y-135582867D02*
X109185423Y-133097704D01*
X110179059Y-139918730D02*
X112479059Y-143902447D01*
X110188209Y-139884580D02*
X112396574Y-138609580D01*
X112513209Y-143911598D02*
X116453625Y-141636598D01*
X116095455Y-141006230D02*
X116445455Y-141612447D01*
X113288432Y-135554324D02*
X117358752Y-133204324D01*
X116414506Y-139118842D02*
X119683752Y-137231342D01*
X113228672Y-128400816D02*
X115201172Y-131817286D01*
X115205672Y-131825080D02*
X112079320Y-133630080D01*
X117371252Y-133225975D02*
X119683752Y-137231342D01*
X116784761Y-127560142D02*
X116940979Y-126430720D01*
X116940979Y-126430720D02*
X117997196Y-126860142D01*
X117547196Y-126080720D02*
X116334761Y-126780720D01*
X117997196Y-126860142D02*
X116784761Y-127560142D01*
X112062989Y-133611794D02*
G75*
G03*
X109165773Y-133113668I-1697671J-1199546D01*
G01*
X116417006Y-139123172D02*
G75*
G03*
X116070454Y-140962928I746602J-1093154D01*
G01*
X112329121Y-138642749D02*
G75*
G03*
X113296601Y-135578475I-1048396J2015877D01*
G01*
X113184146Y-128345694D02*
G75*
G03*
X110281464Y-127846102I-1701137J-1201545D01*
G01*
X125200000Y-119196000D02*
X133825000Y-119196000D01*
X125200000Y-123104000D02*
X125200000Y-119196000D01*
X125200000Y-123150000D02*
X130250000Y-123196000D01*
X127700001Y-129600000D02*
X127700001Y-134200000D01*
X127725000Y-129575000D02*
X130275000Y-129575000D01*
X127725000Y-134225000D02*
X132275000Y-134225000D01*
X129550000Y-117300000D02*
X129550000Y-118700000D01*
X129550000Y-118000000D02*
X130450000Y-117300000D01*
X130450000Y-117300000D02*
X130450000Y-118700000D01*
X130450000Y-118700000D02*
X129550000Y-118000000D01*
X132280000Y-133500000D02*
X132280000Y-134200000D01*
X132575000Y-127375000D02*
X137275000Y-127375000D01*
X133500000Y-132025000D02*
X137275000Y-132025000D01*
X136100000Y-121150000D02*
X136100000Y-125095000D01*
X136100000Y-125104000D02*
X132490000Y-125104000D01*
X137275000Y-127400000D02*
X137275000Y-132025000D01*
X132484999Y-125079999D02*
G75*
G03*
X130225000Y-123200001I-2069999J-190001D01*
G01*
X133500000Y-132029999D02*
G75*
G03*
X132279999Y-133449999I100000J-1320001D01*
G01*
X130200000Y-129569999D02*
G75*
G03*
X132569999Y-127400000I100000J2269999D01*
G01*
X136088999Y-121080000D02*
G75*
G03*
X133825000Y-119196001I-2073999J-190000D01*
G01*
X144200000Y-116946000D02*
X152825000Y-116946000D01*
X144200000Y-120854000D02*
X144200000Y-116946000D01*
X144200000Y-120900000D02*
X149250000Y-120946000D01*
X146700001Y-127350000D02*
X146700001Y-131950000D01*
X146725000Y-127325000D02*
X149275000Y-127325000D01*
X146725000Y-131975000D02*
X151275000Y-131975000D01*
X148550000Y-115050000D02*
X148550000Y-116450000D01*
X148550000Y-115750000D02*
X149450000Y-115050000D01*
X149450000Y-115050000D02*
X149450000Y-116450000D01*
X149450000Y-116450000D02*
X148550000Y-115750000D01*
X151280000Y-131250000D02*
X151280000Y-131950000D01*
X151575000Y-125125000D02*
X156275000Y-125125000D01*
X152500000Y-129775000D02*
X156275000Y-129775000D01*
X155100000Y-118900000D02*
X155100000Y-122845000D01*
X155100000Y-122854000D02*
X151490000Y-122854000D01*
X156275000Y-125150000D02*
X156275000Y-129775000D01*
X151484999Y-122829999D02*
G75*
G03*
X149225000Y-120950001I-2069999J-190001D01*
G01*
X152500000Y-129779999D02*
G75*
G03*
X151279999Y-131199999I100000J-1320001D01*
G01*
X149200000Y-127319999D02*
G75*
G03*
X151569999Y-125150000I100000J2269999D01*
G01*
X155088999Y-118830000D02*
G75*
G03*
X152825000Y-116946001I-2073999J-190000D01*
G01*
X163300000Y-116946000D02*
X171925000Y-116946000D01*
X163300000Y-120854000D02*
X163300000Y-116946000D01*
X163300000Y-120900000D02*
X168350000Y-120946000D01*
X165800001Y-127350000D02*
X165800001Y-131950000D01*
X165825000Y-127325000D02*
X168375000Y-127325000D01*
X165825000Y-131975000D02*
X170375000Y-131975000D01*
X167650000Y-115050000D02*
X167650000Y-116450000D01*
X167650000Y-115750000D02*
X168550000Y-115050000D01*
X168550000Y-115050000D02*
X168550000Y-116450000D01*
X168550000Y-116450000D02*
X167650000Y-115750000D01*
X170380000Y-131250000D02*
X170380000Y-131950000D01*
X170675000Y-125125000D02*
X175375000Y-125125000D01*
X171600000Y-129775000D02*
X175375000Y-129775000D01*
X174200000Y-118900000D02*
X174200000Y-122845000D01*
X174200000Y-122854000D02*
X170590000Y-122854000D01*
X175375000Y-125150000D02*
X175375000Y-129775000D01*
X170584999Y-122829999D02*
G75*
G03*
X168325000Y-120950001I-2069999J-190001D01*
G01*
X171600000Y-129779999D02*
G75*
G03*
X170379999Y-131199999I100000J-1320001D01*
G01*
X168300000Y-127319999D02*
G75*
G03*
X170669999Y-125150000I100000J2269999D01*
G01*
X174188999Y-118830000D02*
G75*
G03*
X171925000Y-116946001I-2073999J-190000D01*
G01*
X94160000Y-75870000D02*
X94160000Y-73330000D01*
X94160000Y-75870000D02*
X106860000Y-75870000D01*
X96700000Y-73330000D02*
X106860000Y-73330000D01*
X106860000Y-73330000D02*
X106860000Y-75870000D01*
D12*
X90162000Y-89858000D02*
X90162000Y-101658000D01*
X94262000Y-89858000D02*
X90162000Y-89858000D01*
X94262000Y-101658000D02*
X90162000Y-101658000D01*
X95762000Y-95758000D02*
X96762000Y-95758000D01*
X96262000Y-95258000D02*
X96262000Y-96258000D01*
X98262000Y-89858000D02*
X102362000Y-89858000D01*
X102362000Y-89858000D02*
X102362000Y-92258000D01*
X102362000Y-94458000D02*
X102362000Y-97058000D01*
X102362000Y-99258000D02*
X102362000Y-101658000D01*
X102362000Y-101658000D02*
X98262000Y-101658000D01*
X99262000Y-95758000D02*
G75*
G03*
X99262000Y-95758000I-3000000J0D01*
G01*
D13*
X87436960Y-54383940D02*
X84836000Y-54383940D01*
X84836000Y-54383940D02*
X84836000Y-61186060D01*
X84836000Y-57884060D02*
X83334860Y-57884060D01*
X83334860Y-57884060D02*
X83334860Y-59184540D01*
X83334860Y-59184540D02*
X84836000Y-59184540D01*
X87436960Y-61186060D02*
X87436960Y-54383940D01*
X84836000Y-61186060D02*
X87436960Y-61186060D01*
D12*
X84101000Y-82181000D02*
X91921000Y-82181000D01*
X85701000Y-82181000D02*
X85701000Y-81261000D01*
X91921000Y-82181000D02*
X91921000Y-76061000D01*
X88061000Y-81421000D02*
X89661000Y-81421000D01*
X89661000Y-81421000D02*
X89661000Y-80421000D01*
X84101000Y-81261000D02*
X84101000Y-82181000D01*
X85701000Y-81261000D02*
X84101000Y-81261000D01*
X85701000Y-80981000D02*
X85701000Y-81261000D01*
X85701000Y-80981000D02*
X84486000Y-80981000D01*
X89661000Y-80921000D02*
X91921000Y-80921000D01*
X88061000Y-80421000D02*
X88061000Y-81421000D01*
X89661000Y-80421000D02*
X88061000Y-80421000D01*
X89661000Y-80421000D02*
X91921000Y-80421000D01*
X87561000Y-79621000D02*
X87561000Y-78621000D01*
X91921000Y-79621000D02*
X87561000Y-79621000D01*
X87561000Y-78621000D02*
X91921000Y-78621000D01*
X88061000Y-77821000D02*
X88061000Y-76821000D01*
X89661000Y-77821000D02*
X88061000Y-77821000D01*
X84101000Y-76981000D02*
X85701000Y-76981000D01*
X85701000Y-76981000D02*
X85701000Y-77261000D01*
X88061000Y-76821000D02*
X89661000Y-76821000D01*
X89661000Y-76821000D02*
X89661000Y-77821000D01*
X84101000Y-76061000D02*
X84101000Y-76981000D01*
X85701000Y-76061000D02*
X85701000Y-76981000D01*
X91921000Y-76061000D02*
X84101000Y-76061000D01*
D10*
X91780295Y-40909730D02*
X91780295Y-38369730D01*
X94320295Y-38369730D02*
X91780295Y-38369730D01*
X94320295Y-38369730D02*
X94320295Y-40909730D01*
X94320295Y-40909730D02*
X91780295Y-40909730D01*
X107078400Y-95971000D02*
X105678400Y-95971000D01*
X106378400Y-95971000D02*
X107078400Y-96871000D01*
X107078400Y-96871000D02*
X105678400Y-96871000D01*
X105678400Y-96871000D02*
X106378400Y-95971000D01*
D14*
X86150000Y-40800000D03*
X86150000Y-47800000D03*
X87900000Y-40800000D03*
X87900000Y-47800000D03*
D15*
X84050000Y-49600000D03*
X90000000Y-49600000D03*
X84050000Y-45600000D03*
X90000000Y-45600000D03*
X84050000Y-42600000D03*
X90000000Y-42600000D03*
X85800000Y-51100000D03*
X88250000Y-51100000D03*
D16*
X129600000Y-59600000D03*
X205800000Y-61800000D03*
X129600000Y-97600000D03*
X205800000Y-100000000D03*
X94643000Y-108204000D03*
D17*
X95430000Y-74600000D03*
X97970000Y-74600000D03*
X100510000Y-74600000D03*
X103050000Y-74600000D03*
X105590000Y-74600000D03*
D18*
X86334600Y-56286400D03*
X86334600Y-59283600D03*
D19*
X179861773Y-121387065D02*
X180456326Y-121064561D01*
X125619545Y-37086762D02*
X115211711Y-37086762D01*
X100262836Y-140931049D02*
X101964989Y-143887377D01*
X225460000Y-109808112D02*
X225460000Y-119289735D01*
X124800603Y-136422266D02*
X125318492Y-135995060D01*
X178319348Y-133972851D02*
X178288901Y-134275347D01*
X224798960Y-120533736D02*
X224544152Y-120671952D01*
X208157255Y-120789735D02*
X213424836Y-120789735D01*
X101964989Y-143887377D02*
X103615641Y-146775920D01*
X112835230Y-145166147D02*
X114510925Y-144196008D01*
X156843047Y-37086762D02*
X146435213Y-37086762D01*
X178319348Y-127943854D02*
X178319348Y-129161894D01*
X147341260Y-135467150D02*
X154710782Y-135467150D01*
X85684295Y-111431313D02*
X86827295Y-115310486D01*
X95209295Y-132349730D02*
X96860295Y-135143730D01*
X225020912Y-120350648D02*
X224798960Y-120533736D01*
X189919538Y-37585374D02*
X178989563Y-37215654D01*
X105173811Y-149290554D02*
X105301953Y-149354467D01*
X91780295Y-126634730D02*
X93431295Y-129501049D01*
X94396044Y-37086762D02*
X83988210Y-37086762D01*
X215525697Y-39885159D02*
X208420758Y-38945561D01*
X178319348Y-125507775D02*
X178319348Y-126725814D01*
X123521981Y-138738736D02*
X123338893Y-138960688D01*
X178319348Y-131597973D02*
X178319348Y-133972851D01*
X178989563Y-37215654D02*
X167250881Y-37086762D01*
X225204001Y-120128696D02*
X225020912Y-120350648D01*
X154710782Y-135467150D02*
X162080304Y-135467150D01*
X124050893Y-137534708D02*
X124373397Y-136940155D01*
X139971738Y-135467150D02*
X147341260Y-135467150D01*
X123338893Y-138960688D02*
X123116940Y-139143777D01*
X167250881Y-37086762D02*
X156843047Y-37086762D01*
X178319348Y-124289735D02*
X178319348Y-125507775D01*
X83776462Y-37108075D02*
X83988210Y-37086762D01*
X146435213Y-37086762D02*
X136027379Y-37086762D01*
X177658308Y-135216853D02*
X177403500Y-135355069D01*
X224278471Y-42156190D02*
X220889319Y-40963847D01*
X96860295Y-135143730D02*
X98587142Y-138064730D01*
X202889673Y-120789735D02*
X208157255Y-120789735D01*
X136027379Y-37086762D02*
X125619545Y-37086762D01*
X213424836Y-120789735D02*
X218692418Y-120789735D01*
X123660197Y-138483927D02*
X123521981Y-138738736D01*
X225460000Y-52918378D02*
X225460000Y-62400000D01*
X123784295Y-138202271D02*
X124050893Y-137534708D01*
X180456326Y-121064561D02*
X181113524Y-120860778D01*
X125913045Y-135672556D02*
X126578295Y-135524730D01*
X124373397Y-136940155D02*
X124800603Y-136422266D01*
X83398295Y-99366700D02*
X84033295Y-103393730D01*
X177121844Y-135442404D02*
X176819348Y-135472851D01*
X88224295Y-119192029D02*
X89875295Y-122979432D01*
X197622092Y-120789735D02*
X202889673Y-120789735D01*
X105056778Y-149190906D02*
X105173811Y-149290554D01*
X220889319Y-40963847D02*
X215525697Y-39885159D01*
X218692418Y-120789735D02*
X223959999Y-120789735D01*
X82937528Y-50750629D02*
X82937528Y-44443695D01*
X178319348Y-126725814D02*
X178319348Y-127943854D01*
X178319348Y-129161894D02*
X178319348Y-130379933D01*
X178916678Y-122332160D02*
X179343884Y-121814271D01*
X116186619Y-143225869D02*
X117862313Y-142255730D01*
X104951320Y-149056172D02*
X105056778Y-149190906D01*
X105916241Y-149239778D02*
X107808147Y-148076564D01*
X225460000Y-81363245D02*
X225460000Y-90844867D01*
X225460000Y-62400000D02*
X225460000Y-71881623D01*
X117862313Y-142255730D02*
X123116940Y-139143777D01*
X178288901Y-134275347D02*
X178201565Y-134557003D01*
X224544152Y-120671952D02*
X224262495Y-120759288D01*
X199807654Y-38170488D02*
X189919538Y-37585374D01*
X178390391Y-123583911D02*
X178594174Y-122926713D01*
X208420758Y-38945561D02*
X199807654Y-38170488D01*
X104857908Y-148887001D02*
X104951320Y-149056172D01*
X82937528Y-44443695D02*
X82937528Y-38136762D01*
X224262495Y-120759288D02*
X223959999Y-120789735D01*
X82937528Y-75978362D02*
X82937528Y-69671429D01*
X82937528Y-63364495D02*
X82937528Y-57057562D01*
X178063349Y-134811812D02*
X177880261Y-135033764D01*
X225460000Y-100326490D02*
X225460000Y-109808112D01*
X132602217Y-135467150D02*
X139971738Y-135467150D01*
X93431295Y-129501049D02*
X95209295Y-132349730D01*
X82938210Y-38136762D02*
X82959523Y-37925015D01*
X225460000Y-43436755D02*
X225460000Y-52918378D01*
X86827295Y-115310486D02*
X88224295Y-119192029D01*
X114510925Y-144196008D02*
X116186619Y-143225869D01*
X225460000Y-43436755D02*
X224278471Y-42156190D01*
X82937528Y-57057562D02*
X82937528Y-50750629D01*
X109483841Y-147106425D02*
X111159536Y-146136286D01*
X177880261Y-135033764D02*
X177658308Y-135216853D01*
X98587142Y-138064730D02*
X100262836Y-140931049D01*
X105748347Y-149325300D02*
X105916241Y-149239778D01*
X225460000Y-71881623D02*
X225460000Y-81363245D01*
X83579303Y-37169210D02*
X83776462Y-37108075D01*
X83400937Y-37265961D02*
X83579303Y-37169210D01*
X225342217Y-119873887D02*
X225204001Y-120128696D01*
X104803877Y-37086762D02*
X94396044Y-37086762D01*
X111159536Y-146136286D02*
X112835230Y-145166147D01*
X181819348Y-120789735D02*
X187086929Y-120789735D01*
X187086929Y-120789735D02*
X192354511Y-120789735D01*
X178201565Y-134557003D02*
X178063349Y-134811812D01*
X192354511Y-120789735D02*
X197622092Y-120789735D01*
X181113524Y-120860778D02*
X181819348Y-120789735D01*
X82937528Y-69671429D02*
X82937528Y-63364495D01*
X179343884Y-121814271D02*
X179861773Y-121387065D01*
X83117409Y-37549489D02*
X83245570Y-37394123D01*
X225459999Y-119289735D02*
X225429552Y-119592231D01*
X105301953Y-149354467D02*
X105440735Y-149381996D01*
X177403500Y-135355069D02*
X177121844Y-135442404D01*
X127276067Y-135495519D02*
X132602217Y-135467150D01*
X125318492Y-135995060D02*
X125913045Y-135672556D01*
X82959523Y-37925015D02*
X83020657Y-37727855D01*
X178319348Y-124289735D02*
X178390391Y-123583911D01*
X84795295Y-107426892D02*
X85684295Y-111431313D01*
X107808147Y-148076564D02*
X109483841Y-147106425D01*
X83245570Y-37394123D02*
X83400937Y-37265961D01*
X123784295Y-138202271D02*
X123660197Y-138483927D01*
X115211711Y-37086762D02*
X104803877Y-37086762D01*
X82937777Y-95341456D02*
X83398295Y-99366700D01*
D20*
X82937528Y-75978362D02*
X82937777Y-95341456D01*
D19*
X83020657Y-37727855D02*
X83117409Y-37549489D01*
X105589689Y-149372490D02*
X105748347Y-149325300D01*
X162080304Y-135467150D02*
X176819348Y-135472851D01*
X84033295Y-103393730D02*
X84795295Y-107426892D01*
X105440735Y-149381996D02*
X105589689Y-149372490D01*
X89875295Y-122979432D02*
X91780295Y-126634730D01*
X225429552Y-119592231D02*
X225342217Y-119873887D01*
X225460000Y-90844867D02*
X225460000Y-100326490D01*
X178594174Y-122926713D02*
X178916678Y-122332160D01*
X103615641Y-146775920D02*
X104857908Y-148887001D01*
X178319348Y-130379933D02*
X178319348Y-131597973D01*
X126578295Y-135524730D02*
X127276067Y-135495519D01*
M02*
