G04 #@! TF.GenerationSoftware,KiCad,Pcbnew,7.0.9*
G04 #@! TF.CreationDate,2023-12-22T01:46:26-05:00*
G04 #@! TF.ProjectId,Lily58_Pro,4c696c79-3538-45f5-9072-6f2e6b696361,rev?*
G04 #@! TF.SameCoordinates,Original*
G04 #@! TF.FileFunction,Legend,Top*
G04 #@! TF.FilePolarity,Positive*
%FSLAX46Y46*%
G04 Gerber Fmt 4.6, Leading zero omitted, Abs format (unit mm)*
G04 Created by KiCad (PCBNEW 7.0.9) date 2023-12-22 01:46:26*
%MOMM*%
%LPD*%
G01*
G04 APERTURE LIST*
%ADD10C,0.600000*%
%ADD11C,0.500000*%
%ADD12C,0.100000*%
%ADD13C,0.150000*%
%ADD14C,0.010000*%
%ADD15C,0.381000*%
%ADD16C,0.120000*%
%ADD17C,1.200000*%
%ADD18R,1.200000X2.100000*%
%ADD19C,1.524000*%
%ADD20C,1.397000*%
%ADD21C,0.899160*%
G04 #@! TA.AperFunction,Profile*
%ADD22C,0.200000*%
G04 #@! TD*
G04 #@! TA.AperFunction,Profile*
%ADD23C,0.150000*%
G04 #@! TD*
G04 APERTURE END LIST*
D10*
G36*
X102337071Y-59570895D02*
G01*
X102337071Y-60860498D01*
X101836861Y-60860498D01*
X101836861Y-60436248D01*
X99273288Y-60436248D01*
X99273288Y-60860498D01*
X98773079Y-60860498D01*
X98773079Y-59570895D01*
X99273288Y-59570895D01*
X99273288Y-60009800D01*
X101836861Y-60009800D01*
X101836861Y-59570895D01*
X102337071Y-59570895D01*
G37*
G36*
X100312786Y-57016604D02*
G01*
X100295258Y-57045309D01*
X100279309Y-57074272D01*
X100264941Y-57103492D01*
X100252152Y-57132970D01*
X100240944Y-57162706D01*
X100237559Y-57172675D01*
X100228595Y-57203201D01*
X100221485Y-57235426D01*
X100216230Y-57269352D01*
X100213267Y-57298922D01*
X100211593Y-57329673D01*
X100211181Y-57355124D01*
X100212112Y-57390387D01*
X100214905Y-57425100D01*
X100219561Y-57459263D01*
X100226080Y-57492877D01*
X100234460Y-57525942D01*
X100244703Y-57558456D01*
X100256808Y-57590422D01*
X100270776Y-57621838D01*
X100286377Y-57652452D01*
X100303871Y-57682013D01*
X100323258Y-57710521D01*
X100344537Y-57737975D01*
X100367710Y-57764376D01*
X100392775Y-57789724D01*
X100419734Y-57814018D01*
X100448585Y-57837260D01*
X100479069Y-57859345D01*
X100511416Y-57880170D01*
X100545626Y-57899736D01*
X100581697Y-57918043D01*
X100619631Y-57935090D01*
X100659427Y-57950878D01*
X100701086Y-57965407D01*
X100744607Y-57978676D01*
X100790082Y-57990354D01*
X100837603Y-58000475D01*
X100887169Y-58009039D01*
X100925686Y-58014440D01*
X100965353Y-58018965D01*
X101006171Y-58022614D01*
X101048140Y-58025388D01*
X101091259Y-58027285D01*
X101135529Y-58028307D01*
X101165682Y-58028502D01*
X101836861Y-58028502D01*
X101836861Y-57598390D01*
X102337071Y-57598390D01*
X102337071Y-58890191D01*
X101836861Y-58890191D01*
X101836861Y-58455683D01*
X100211181Y-58455683D01*
X100211181Y-58890191D01*
X99773498Y-58890191D01*
X99773498Y-58028502D01*
X100415368Y-58028502D01*
X100368134Y-58015012D01*
X100322662Y-58000738D01*
X100278954Y-57985680D01*
X100237009Y-57969838D01*
X100196828Y-57953211D01*
X100158409Y-57935800D01*
X100121754Y-57917605D01*
X100086861Y-57898626D01*
X100053732Y-57878862D01*
X100022366Y-57858314D01*
X99992763Y-57836982D01*
X99964923Y-57814866D01*
X99938846Y-57791965D01*
X99914533Y-57768280D01*
X99891982Y-57743811D01*
X99871195Y-57718558D01*
X99851793Y-57692612D01*
X99833642Y-57666065D01*
X99816744Y-57638916D01*
X99801097Y-57611167D01*
X99786702Y-57582817D01*
X99773559Y-57553865D01*
X99761667Y-57524313D01*
X99751027Y-57494160D01*
X99741639Y-57463405D01*
X99733503Y-57432049D01*
X99726618Y-57400093D01*
X99720985Y-57367535D01*
X99716604Y-57334376D01*
X99713475Y-57300616D01*
X99711597Y-57266255D01*
X99710971Y-57231293D01*
X99711761Y-57197762D01*
X99714131Y-57163665D01*
X99718081Y-57129000D01*
X99722580Y-57099680D01*
X99728175Y-57069967D01*
X99733442Y-57045913D01*
X99740993Y-57015777D01*
X99750214Y-56985821D01*
X99761105Y-56956043D01*
X99773665Y-56926444D01*
X99787896Y-56897024D01*
X99803795Y-56867783D01*
X99810622Y-56856136D01*
X100312786Y-57016604D01*
G37*
G36*
X99464775Y-55378223D02*
G01*
X99464775Y-55897727D01*
X98773079Y-55897727D01*
X98773079Y-55378223D01*
X99464775Y-55378223D01*
G37*
G36*
X102337071Y-54986946D02*
G01*
X102337071Y-56276548D01*
X101836861Y-56276548D01*
X101836861Y-55852298D01*
X100273707Y-55852298D01*
X100273707Y-56276548D01*
X99773498Y-56276548D01*
X99773498Y-55425850D01*
X101836861Y-55425850D01*
X101836861Y-54986946D01*
X102337071Y-54986946D01*
G37*
G36*
X101564286Y-52437050D02*
G01*
X101610548Y-52437797D01*
X101655179Y-52440039D01*
X101698178Y-52443774D01*
X101739546Y-52449003D01*
X101779282Y-52455726D01*
X101817387Y-52463944D01*
X101865655Y-52477224D01*
X101911023Y-52493161D01*
X101953491Y-52511754D01*
X101973637Y-52522047D01*
X102012029Y-52543868D01*
X102048559Y-52567201D01*
X102083226Y-52592045D01*
X102116031Y-52618401D01*
X102146973Y-52646267D01*
X102176053Y-52675645D01*
X102203271Y-52706534D01*
X102228627Y-52738935D01*
X102251876Y-52772583D01*
X102273262Y-52807216D01*
X102292786Y-52842833D01*
X102310448Y-52879435D01*
X102322472Y-52907533D01*
X102333449Y-52936184D01*
X102343378Y-52965390D01*
X102352259Y-52995149D01*
X102360093Y-53025462D01*
X102362472Y-53035690D01*
X102369106Y-53066393D01*
X102375088Y-53096955D01*
X102380418Y-53127376D01*
X102385095Y-53157655D01*
X102389119Y-53187792D01*
X102392491Y-53217787D01*
X102395210Y-53247641D01*
X102397276Y-53277353D01*
X102398690Y-53306923D01*
X102399452Y-53336352D01*
X102399597Y-53355892D01*
X102399211Y-53388670D01*
X102398055Y-53421425D01*
X102396128Y-53454158D01*
X102393430Y-53486867D01*
X102389961Y-53519554D01*
X102385721Y-53552217D01*
X102380710Y-53584858D01*
X102374928Y-53617476D01*
X102368376Y-53650071D01*
X102361052Y-53682643D01*
X102352958Y-53715192D01*
X102344092Y-53747719D01*
X102334456Y-53780222D01*
X102324049Y-53812702D01*
X102312871Y-53845160D01*
X102300923Y-53877595D01*
X102288230Y-53909746D01*
X102275063Y-53941354D01*
X102261424Y-53972417D01*
X102247311Y-54002937D01*
X102232725Y-54032913D01*
X102217666Y-54062345D01*
X102202134Y-54091234D01*
X102186128Y-54119578D01*
X102169650Y-54147379D01*
X102152698Y-54174636D01*
X102135272Y-54201349D01*
X102117374Y-54227518D01*
X102089639Y-54265753D01*
X102060839Y-54302763D01*
X102041048Y-54326757D01*
X101577964Y-54149437D01*
X101599545Y-54121284D01*
X101620325Y-54093429D01*
X101640303Y-54065872D01*
X101659480Y-54038612D01*
X101677855Y-54011650D01*
X101695429Y-53984985D01*
X101720288Y-53945547D01*
X101743343Y-53906778D01*
X101764595Y-53868679D01*
X101784044Y-53831250D01*
X101801689Y-53794490D01*
X101817532Y-53758400D01*
X101827091Y-53734713D01*
X101840012Y-53699260D01*
X101851661Y-53663795D01*
X101862039Y-53628317D01*
X101871147Y-53592827D01*
X101878983Y-53557323D01*
X101885549Y-53521806D01*
X101890845Y-53486277D01*
X101894869Y-53450734D01*
X101897622Y-53415179D01*
X101899105Y-53379611D01*
X101899387Y-53355892D01*
X101899101Y-53324290D01*
X101898242Y-53293782D01*
X101896811Y-53264367D01*
X101893591Y-53222294D01*
X101889083Y-53182682D01*
X101883287Y-53145529D01*
X101876203Y-53110837D01*
X101867831Y-53078605D01*
X101858171Y-53048833D01*
X101843288Y-53012964D01*
X101826114Y-52981468D01*
X101806896Y-52953819D01*
X101780339Y-52924441D01*
X101750968Y-52900825D01*
X101718782Y-52882968D01*
X101676444Y-52869143D01*
X101630053Y-52863614D01*
X101621927Y-52863498D01*
X101580924Y-52867395D01*
X101542250Y-52880532D01*
X101517392Y-52896471D01*
X101491899Y-52921301D01*
X101472603Y-52947244D01*
X101456522Y-52974377D01*
X101441188Y-53005648D01*
X101428033Y-53035950D01*
X101414947Y-53069704D01*
X101404094Y-53100470D01*
X101393289Y-53133632D01*
X101382532Y-53169191D01*
X101373961Y-53199365D01*
X101371823Y-53207148D01*
X101362984Y-53239239D01*
X101354054Y-53273231D01*
X101345032Y-53309123D01*
X101335919Y-53346916D01*
X101329024Y-53376508D01*
X101322077Y-53407169D01*
X101315079Y-53438898D01*
X101308030Y-53471697D01*
X101300928Y-53505565D01*
X101298550Y-53517092D01*
X101290001Y-53553866D01*
X101280964Y-53590182D01*
X101271439Y-53626040D01*
X101261425Y-53661440D01*
X101250923Y-53696382D01*
X101239932Y-53730866D01*
X101228452Y-53764892D01*
X101216484Y-53798460D01*
X101203662Y-53831124D01*
X101189618Y-53862803D01*
X101174352Y-53893497D01*
X101157866Y-53923207D01*
X101140158Y-53951932D01*
X101121230Y-53979673D01*
X101101080Y-54006429D01*
X101079708Y-54032200D01*
X101056749Y-54056850D01*
X101032325Y-54080240D01*
X101006435Y-54102371D01*
X100972012Y-54128263D01*
X100935300Y-54152188D01*
X100896297Y-54174144D01*
X100863447Y-54190293D01*
X100855005Y-54194133D01*
X100819971Y-54208387D01*
X100782770Y-54220741D01*
X100743401Y-54231193D01*
X100701865Y-54239746D01*
X100658160Y-54246398D01*
X100612289Y-54251149D01*
X100564249Y-54254000D01*
X100514042Y-54254950D01*
X100463102Y-54253713D01*
X100413841Y-54250004D01*
X100366260Y-54243822D01*
X100320357Y-54235166D01*
X100276134Y-54224038D01*
X100233590Y-54210437D01*
X100192725Y-54194362D01*
X100153539Y-54175815D01*
X100115804Y-54155081D01*
X100079778Y-54132813D01*
X100045462Y-54109011D01*
X100012856Y-54083675D01*
X99981959Y-54056804D01*
X99952772Y-54028399D01*
X99925295Y-53998461D01*
X99899527Y-53966988D01*
X99875484Y-53934255D01*
X99853182Y-53900538D01*
X99832620Y-53865837D01*
X99813798Y-53830150D01*
X99796716Y-53793480D01*
X99785047Y-53765330D01*
X99774356Y-53736627D01*
X99764645Y-53707371D01*
X99755912Y-53677560D01*
X99747881Y-53647466D01*
X99740639Y-53617359D01*
X99734188Y-53587239D01*
X99728526Y-53557106D01*
X99723655Y-53526960D01*
X99719573Y-53496802D01*
X99716282Y-53466631D01*
X99713780Y-53436446D01*
X99712069Y-53406249D01*
X99711147Y-53376039D01*
X99710971Y-53355892D01*
X99711650Y-53313555D01*
X99713685Y-53271451D01*
X99717077Y-53229578D01*
X99721825Y-53187937D01*
X99727930Y-53146528D01*
X99735392Y-53105350D01*
X99744210Y-53064405D01*
X99754386Y-53023691D01*
X99765917Y-52983209D01*
X99778806Y-52942959D01*
X99788152Y-52916255D01*
X99803024Y-52876733D01*
X99819064Y-52838125D01*
X99836272Y-52800431D01*
X99854647Y-52763653D01*
X99874191Y-52727788D01*
X99894902Y-52692838D01*
X99916780Y-52658803D01*
X99939827Y-52625682D01*
X99964041Y-52593476D01*
X99989424Y-52562184D01*
X100006994Y-52541831D01*
X100441746Y-52711091D01*
X100417231Y-52741101D01*
X100394245Y-52770957D01*
X100372787Y-52800658D01*
X100352857Y-52830205D01*
X100334456Y-52859597D01*
X100317583Y-52888835D01*
X100302238Y-52917918D01*
X100288423Y-52946846D01*
X100276135Y-52975620D01*
X100265376Y-53004239D01*
X100259052Y-53023233D01*
X100250497Y-53051930D01*
X100242783Y-53081142D01*
X100235911Y-53110869D01*
X100229881Y-53141111D01*
X100224691Y-53171868D01*
X100220344Y-53203141D01*
X100216837Y-53234929D01*
X100214173Y-53267232D01*
X100212349Y-53300050D01*
X100211368Y-53333383D01*
X100211181Y-53355892D01*
X100211742Y-53389547D01*
X100213116Y-53418896D01*
X100215314Y-53448709D01*
X100218336Y-53478985D01*
X100222183Y-53509726D01*
X100222904Y-53514894D01*
X100227690Y-53545256D01*
X100233987Y-53574795D01*
X100243243Y-53608214D01*
X100254557Y-53640511D01*
X100265891Y-53667302D01*
X100280644Y-53696919D01*
X100297547Y-53724223D01*
X100319499Y-53752593D01*
X100344259Y-53777941D01*
X100350888Y-53783805D01*
X100379281Y-53804001D01*
X100414873Y-53819824D01*
X100454328Y-53828344D01*
X100482779Y-53829967D01*
X100525501Y-53823516D01*
X100559367Y-53807716D01*
X100590691Y-53782437D01*
X100614853Y-53754130D01*
X100632912Y-53726744D01*
X100649841Y-53695145D01*
X100665961Y-53658452D01*
X100678051Y-53627009D01*
X100690141Y-53592205D01*
X100702231Y-53554040D01*
X100714321Y-53512513D01*
X100722381Y-53482960D01*
X100730441Y-53451914D01*
X100738501Y-53419373D01*
X100746561Y-53385338D01*
X100754621Y-53349810D01*
X100762681Y-53312787D01*
X100770741Y-53274270D01*
X100778801Y-53234259D01*
X100785184Y-53201288D01*
X100791876Y-53168872D01*
X100798877Y-53137009D01*
X100806187Y-53105699D01*
X100813806Y-53074944D01*
X100821734Y-53044743D01*
X100829972Y-53015095D01*
X100838519Y-52986001D01*
X100850395Y-52948071D01*
X100862821Y-52911126D01*
X100876101Y-52875142D01*
X100890542Y-52840463D01*
X100906143Y-52807090D01*
X100922904Y-52775021D01*
X100940826Y-52744258D01*
X100959907Y-52714800D01*
X100980149Y-52686647D01*
X101001551Y-52659800D01*
X101024067Y-52634154D01*
X101048140Y-52609974D01*
X101073770Y-52587260D01*
X101100957Y-52566011D01*
X101137131Y-52541510D01*
X101175738Y-52519299D01*
X101216777Y-52499378D01*
X101225277Y-52495669D01*
X101260494Y-52481930D01*
X101297756Y-52470023D01*
X101337064Y-52459948D01*
X101378417Y-52451705D01*
X101421816Y-52445294D01*
X101467261Y-52440714D01*
X101514751Y-52437966D01*
X101564286Y-52437050D01*
G37*
G36*
X101120741Y-50073268D02*
G01*
X101170283Y-50073976D01*
X101219259Y-50076102D01*
X101267668Y-50079644D01*
X101315510Y-50084602D01*
X101362785Y-50090978D01*
X101409493Y-50098770D01*
X101455635Y-50107980D01*
X101501210Y-50118606D01*
X101546219Y-50130648D01*
X101590661Y-50144108D01*
X101619974Y-50153868D01*
X101663230Y-50169346D01*
X101705439Y-50185828D01*
X101746601Y-50203315D01*
X101786715Y-50221806D01*
X101825781Y-50241302D01*
X101863800Y-50261803D01*
X101900772Y-50283308D01*
X101936695Y-50305818D01*
X101971572Y-50329332D01*
X102005400Y-50353852D01*
X102027371Y-50370756D01*
X102059150Y-50396821D01*
X102089641Y-50423633D01*
X102118844Y-50451191D01*
X102146760Y-50479497D01*
X102173387Y-50508550D01*
X102198726Y-50538350D01*
X102222777Y-50568897D01*
X102245540Y-50600191D01*
X102267016Y-50632233D01*
X102287203Y-50665021D01*
X102299946Y-50687295D01*
X102317754Y-50720984D01*
X102333811Y-50755009D01*
X102348117Y-50789369D01*
X102360670Y-50824063D01*
X102371472Y-50859092D01*
X102380523Y-50894456D01*
X102387821Y-50930155D01*
X102393368Y-50966189D01*
X102397164Y-51002558D01*
X102399207Y-51039262D01*
X102399597Y-51063917D01*
X102398944Y-51100067D01*
X102396986Y-51135702D01*
X102393723Y-51170821D01*
X102389155Y-51205425D01*
X102383282Y-51239514D01*
X102376104Y-51273088D01*
X102367620Y-51306147D01*
X102357831Y-51338690D01*
X102346737Y-51370719D01*
X102334338Y-51402232D01*
X102325347Y-51422954D01*
X102310684Y-51453512D01*
X102294904Y-51483361D01*
X102278009Y-51512502D01*
X102259997Y-51540935D01*
X102240868Y-51568659D01*
X102220624Y-51595675D01*
X102199263Y-51621982D01*
X102176786Y-51647581D01*
X102153193Y-51672472D01*
X102128483Y-51696654D01*
X102111390Y-51712382D01*
X102084594Y-51735313D01*
X102056596Y-51757393D01*
X102027395Y-51778624D01*
X101996993Y-51799004D01*
X101965388Y-51818534D01*
X101932581Y-51837215D01*
X101898573Y-51855045D01*
X101863361Y-51872025D01*
X101826948Y-51888155D01*
X101789333Y-51903435D01*
X101763588Y-51913149D01*
X101724038Y-51926916D01*
X101683423Y-51939639D01*
X101641744Y-51951319D01*
X101598999Y-51961956D01*
X101555190Y-51971549D01*
X101510316Y-51980100D01*
X101464377Y-51987607D01*
X101417374Y-51994070D01*
X101369306Y-51999490D01*
X101320173Y-52003868D01*
X101286826Y-52006206D01*
X101206715Y-51600274D01*
X101263919Y-51595455D01*
X101319028Y-51588691D01*
X101372042Y-51579982D01*
X101422961Y-51569328D01*
X101471785Y-51556729D01*
X101518513Y-51542186D01*
X101563147Y-51525697D01*
X101605685Y-51507264D01*
X101646128Y-51486885D01*
X101684477Y-51464562D01*
X101708878Y-51448600D01*
X101742924Y-51422932D01*
X101773621Y-51395113D01*
X101800970Y-51365144D01*
X101824970Y-51333023D01*
X101845620Y-51298752D01*
X101862923Y-51262329D01*
X101876876Y-51223756D01*
X101887480Y-51183031D01*
X101894736Y-51140156D01*
X101897713Y-51110377D01*
X101899201Y-51079643D01*
X101899387Y-51063917D01*
X101898441Y-51031929D01*
X101895602Y-51000811D01*
X101890869Y-50970563D01*
X101884244Y-50941185D01*
X101873301Y-50905686D01*
X101859400Y-50871547D01*
X101842542Y-50838768D01*
X101838815Y-50832375D01*
X101818531Y-50801298D01*
X101796149Y-50771724D01*
X101771667Y-50743653D01*
X101745087Y-50717085D01*
X101716407Y-50692019D01*
X101685629Y-50668455D01*
X101672730Y-50659451D01*
X101638875Y-50638045D01*
X101603254Y-50618249D01*
X101565869Y-50600063D01*
X101526719Y-50583488D01*
X101485803Y-50568522D01*
X101443123Y-50555166D01*
X101425556Y-50550274D01*
X101380786Y-50539298D01*
X101335015Y-50530182D01*
X101288241Y-50522926D01*
X101240466Y-50517531D01*
X101201524Y-50514554D01*
X101161942Y-50512768D01*
X101121718Y-50512172D01*
X101075953Y-50512716D01*
X101031470Y-50514348D01*
X100988270Y-50517067D01*
X100946352Y-50520874D01*
X100905716Y-50525768D01*
X100866362Y-50531750D01*
X100828291Y-50538820D01*
X100773588Y-50551464D01*
X100721770Y-50566555D01*
X100672838Y-50584093D01*
X100626790Y-50604078D01*
X100583628Y-50626511D01*
X100543351Y-50651391D01*
X100506337Y-50678280D01*
X100472963Y-50706741D01*
X100443231Y-50736772D01*
X100417139Y-50768376D01*
X100394687Y-50801550D01*
X100375877Y-50836296D01*
X100360707Y-50872613D01*
X100349178Y-50910502D01*
X100341290Y-50949962D01*
X100337042Y-50990993D01*
X100336233Y-51019221D01*
X100337531Y-51055353D01*
X100341423Y-51090845D01*
X100347911Y-51125695D01*
X100356994Y-51159905D01*
X100368672Y-51193473D01*
X100382945Y-51226400D01*
X100399813Y-51258685D01*
X100419276Y-51290330D01*
X100441380Y-51320647D01*
X100466659Y-51349315D01*
X100495113Y-51376334D01*
X100526743Y-51401705D01*
X100561547Y-51425427D01*
X100599527Y-51447500D01*
X100640682Y-51467925D01*
X100685012Y-51486701D01*
X100685012Y-51913149D01*
X98773079Y-51913149D01*
X98773079Y-50229339D01*
X99273288Y-50229339D01*
X99273288Y-51486701D01*
X100161355Y-51486701D01*
X100121960Y-51462304D01*
X100085106Y-51436555D01*
X100050793Y-51409456D01*
X100019023Y-51381005D01*
X99989794Y-51351204D01*
X99963106Y-51320051D01*
X99938961Y-51287548D01*
X99917357Y-51253694D01*
X99898294Y-51218488D01*
X99881773Y-51181932D01*
X99867794Y-51144025D01*
X99856357Y-51104767D01*
X99847461Y-51064157D01*
X99841107Y-51022197D01*
X99837295Y-50978886D01*
X99836024Y-50934224D01*
X99836822Y-50901949D01*
X99839218Y-50869970D01*
X99843211Y-50838287D01*
X99848801Y-50806901D01*
X99855988Y-50775811D01*
X99864772Y-50745017D01*
X99875153Y-50714519D01*
X99887132Y-50684318D01*
X99900707Y-50654413D01*
X99915880Y-50624804D01*
X99926882Y-50605229D01*
X99944396Y-50576176D01*
X99963232Y-50547819D01*
X99983391Y-50520157D01*
X100004872Y-50493190D01*
X100027675Y-50466919D01*
X100051801Y-50441344D01*
X100077249Y-50416464D01*
X100104019Y-50392280D01*
X100132112Y-50368791D01*
X100161527Y-50345998D01*
X100181872Y-50331189D01*
X100213473Y-50309494D01*
X100246363Y-50288650D01*
X100280541Y-50268656D01*
X100316007Y-50249512D01*
X100352761Y-50231218D01*
X100390802Y-50213775D01*
X100430132Y-50197181D01*
X100470750Y-50181437D01*
X100512656Y-50166544D01*
X100555849Y-50152500D01*
X100585361Y-50143610D01*
X100630572Y-50131039D01*
X100676814Y-50119705D01*
X100724087Y-50109607D01*
X100772390Y-50100745D01*
X100821723Y-50093120D01*
X100872087Y-50086732D01*
X100923481Y-50081580D01*
X100975905Y-50077664D01*
X101029360Y-50074985D01*
X101083845Y-50073543D01*
X101120741Y-50073268D01*
G37*
G36*
X101386724Y-47785627D02*
G01*
X101437291Y-47787636D01*
X101486398Y-47790985D01*
X101534046Y-47795673D01*
X101580233Y-47801701D01*
X101624961Y-47809068D01*
X101668230Y-47817775D01*
X101710038Y-47827821D01*
X101750387Y-47839207D01*
X101789276Y-47851933D01*
X101814391Y-47861161D01*
X101850810Y-47875951D01*
X101886061Y-47891746D01*
X101920144Y-47908546D01*
X101953060Y-47926351D01*
X101984807Y-47945160D01*
X102015387Y-47964973D01*
X102044800Y-47985792D01*
X102073044Y-48007615D01*
X102100121Y-48030442D01*
X102126029Y-48054275D01*
X102142653Y-48070721D01*
X102166607Y-48096000D01*
X102189376Y-48122104D01*
X102210960Y-48149031D01*
X102231359Y-48176783D01*
X102250573Y-48205360D01*
X102268602Y-48234761D01*
X102285447Y-48264986D01*
X102301106Y-48296035D01*
X102315580Y-48327909D01*
X102328869Y-48360607D01*
X102337071Y-48382863D01*
X102348245Y-48416592D01*
X102358320Y-48450732D01*
X102367296Y-48485285D01*
X102375172Y-48520250D01*
X102381950Y-48555627D01*
X102387629Y-48591416D01*
X102392208Y-48627618D01*
X102395689Y-48664231D01*
X102398070Y-48701257D01*
X102399352Y-48738695D01*
X102399597Y-48763882D01*
X102399047Y-48802237D01*
X102397398Y-48840089D01*
X102394651Y-48877439D01*
X102390804Y-48914286D01*
X102385858Y-48950631D01*
X102379813Y-48986474D01*
X102372669Y-49021815D01*
X102364426Y-49056653D01*
X102355083Y-49090989D01*
X102344642Y-49124823D01*
X102337071Y-49147099D01*
X102324571Y-49179967D01*
X102310887Y-49212074D01*
X102296018Y-49243422D01*
X102279963Y-49274010D01*
X102262724Y-49303838D01*
X102244300Y-49332906D01*
X102224691Y-49361214D01*
X102203897Y-49388762D01*
X102181918Y-49415550D01*
X102158754Y-49441579D01*
X102142653Y-49458509D01*
X102117523Y-49483135D01*
X102091225Y-49506732D01*
X102063759Y-49529297D01*
X102035125Y-49550833D01*
X102005324Y-49571338D01*
X101974355Y-49590812D01*
X101942218Y-49609256D01*
X101908913Y-49626670D01*
X101874440Y-49643053D01*
X101838800Y-49658406D01*
X101814391Y-49668069D01*
X101776475Y-49681426D01*
X101737099Y-49693469D01*
X101696264Y-49704198D01*
X101653969Y-49713613D01*
X101610214Y-49721714D01*
X101565000Y-49728502D01*
X101518326Y-49733976D01*
X101470192Y-49738136D01*
X101420598Y-49740983D01*
X101369544Y-49742516D01*
X101334698Y-49742808D01*
X101289465Y-49741824D01*
X101244137Y-49738872D01*
X101198714Y-49733953D01*
X101153195Y-49727065D01*
X101107581Y-49718210D01*
X101061871Y-49707388D01*
X101043560Y-49702507D01*
X101007000Y-49691894D01*
X100971081Y-49680205D01*
X100935803Y-49667440D01*
X100901167Y-49653598D01*
X100867171Y-49638680D01*
X100833817Y-49622686D01*
X100801104Y-49605616D01*
X100769031Y-49587469D01*
X100737967Y-49568098D01*
X100708276Y-49547719D01*
X100679959Y-49526332D01*
X100653016Y-49503938D01*
X100627447Y-49480536D01*
X100603252Y-49456127D01*
X100580430Y-49430711D01*
X100558983Y-49404287D01*
X100538955Y-49376844D01*
X100520881Y-49348737D01*
X100504761Y-49319966D01*
X100490595Y-49290531D01*
X100478382Y-49260432D01*
X100468124Y-49229669D01*
X100459820Y-49198241D01*
X100453470Y-49166150D01*
X100446753Y-49201033D01*
X100436983Y-49234700D01*
X100424161Y-49267151D01*
X100408285Y-49298385D01*
X100389356Y-49328402D01*
X100367374Y-49357203D01*
X100357726Y-49368383D01*
X100332257Y-49395199D01*
X100305310Y-49420690D01*
X100276883Y-49444858D01*
X100246978Y-49467702D01*
X100215593Y-49489223D01*
X100182730Y-49509419D01*
X100169171Y-49517127D01*
X100134572Y-49535488D01*
X100099161Y-49552561D01*
X100062940Y-49568347D01*
X100025907Y-49582844D01*
X99988064Y-49596053D01*
X99949410Y-49607974D01*
X99933721Y-49612382D01*
X99894551Y-49622092D01*
X99855811Y-49630156D01*
X99817500Y-49636575D01*
X99772094Y-49642105D01*
X99727306Y-49645264D01*
X99690455Y-49646087D01*
X99645707Y-49645463D01*
X99601955Y-49643589D01*
X99559199Y-49640465D01*
X99517439Y-49636092D01*
X99476676Y-49630470D01*
X99436908Y-49623599D01*
X99398136Y-49615478D01*
X99360361Y-49606108D01*
X99323581Y-49595488D01*
X99287798Y-49583619D01*
X99264495Y-49575013D01*
X99219295Y-49556443D01*
X99176019Y-49536270D01*
X99134665Y-49514494D01*
X99095235Y-49491115D01*
X99057729Y-49466134D01*
X99022146Y-49439549D01*
X98988486Y-49411362D01*
X98956749Y-49381572D01*
X98926937Y-49350214D01*
X98899047Y-49317688D01*
X98873081Y-49283994D01*
X98854869Y-49257957D01*
X98837738Y-49231263D01*
X98821690Y-49203912D01*
X98806723Y-49175905D01*
X98792839Y-49147240D01*
X98780036Y-49117919D01*
X98772102Y-49098006D01*
X98761102Y-49067678D01*
X98751185Y-49037144D01*
X98742349Y-49006404D01*
X98734595Y-48975458D01*
X98727924Y-48944305D01*
X98722334Y-48912947D01*
X98717826Y-48881382D01*
X98714400Y-48849611D01*
X98712055Y-48817635D01*
X98710793Y-48785452D01*
X98710561Y-48764615D01*
X99210762Y-48764615D01*
X99211973Y-48804294D01*
X99215605Y-48842273D01*
X99221659Y-48878551D01*
X99230134Y-48913130D01*
X99241030Y-48946008D01*
X99254348Y-48977186D01*
X99270087Y-49006664D01*
X99288248Y-49034442D01*
X99308830Y-49060520D01*
X99331834Y-49084897D01*
X99348515Y-49100205D01*
X99384297Y-49128197D01*
X99423253Y-49152457D01*
X99465385Y-49172985D01*
X99510692Y-49189781D01*
X99559174Y-49202844D01*
X99597620Y-49210192D01*
X99637851Y-49215440D01*
X99679869Y-49218590D01*
X99723672Y-49219639D01*
X99765329Y-49218660D01*
X99805303Y-49215724D01*
X99855983Y-49208763D01*
X99903671Y-49198322D01*
X99948368Y-49184400D01*
X99990072Y-49166997D01*
X100028785Y-49146115D01*
X100064505Y-49121751D01*
X100081244Y-49108265D01*
X100111698Y-49078532D01*
X100138091Y-49045021D01*
X100155221Y-49017408D01*
X100170068Y-48987671D01*
X100182630Y-48955808D01*
X100192908Y-48921820D01*
X100200903Y-48885706D01*
X100206613Y-48847468D01*
X100210039Y-48807104D01*
X100211181Y-48764615D01*
X100211161Y-48763882D01*
X100711390Y-48763882D01*
X100712177Y-48799052D01*
X100714539Y-48833577D01*
X100718474Y-48867459D01*
X100723984Y-48900696D01*
X100731068Y-48933290D01*
X100739726Y-48965239D01*
X100743630Y-48977839D01*
X100754354Y-49008390D01*
X100766986Y-49037760D01*
X100781526Y-49065949D01*
X100797974Y-49092957D01*
X100820231Y-49123809D01*
X100845235Y-49152961D01*
X100873125Y-49179932D01*
X100904037Y-49204790D01*
X100937971Y-49227536D01*
X100974928Y-49248170D01*
X101008034Y-49263751D01*
X101028906Y-49272396D01*
X101065537Y-49285061D01*
X101104602Y-49295580D01*
X101146099Y-49303952D01*
X101190030Y-49310177D01*
X101236393Y-49314256D01*
X101285189Y-49316188D01*
X101305389Y-49316359D01*
X101352062Y-49315286D01*
X101396827Y-49312066D01*
X101439684Y-49306700D01*
X101480633Y-49299186D01*
X101519674Y-49289526D01*
X101556806Y-49277720D01*
X101571125Y-49272396D01*
X101605328Y-49257695D01*
X101643980Y-49238117D01*
X101680021Y-49216427D01*
X101713452Y-49192625D01*
X101744272Y-49166710D01*
X101758703Y-49152961D01*
X101780905Y-49128786D01*
X101801102Y-49103430D01*
X101819297Y-49076894D01*
X101835487Y-49049177D01*
X101849674Y-49020279D01*
X101861858Y-48990201D01*
X101866170Y-48977839D01*
X101875740Y-48946147D01*
X101883687Y-48913811D01*
X101890013Y-48880831D01*
X101894716Y-48847207D01*
X101897798Y-48812939D01*
X101899258Y-48778027D01*
X101899387Y-48763882D01*
X101898576Y-48728748D01*
X101896143Y-48694330D01*
X101892089Y-48660628D01*
X101886412Y-48627640D01*
X101879113Y-48595369D01*
X101870193Y-48563813D01*
X101866170Y-48551391D01*
X101854788Y-48521033D01*
X101841403Y-48491785D01*
X101826013Y-48463646D01*
X101808621Y-48436616D01*
X101789224Y-48410695D01*
X101767824Y-48385883D01*
X101758703Y-48376269D01*
X101734289Y-48353242D01*
X101702598Y-48327688D01*
X101668297Y-48304401D01*
X101631386Y-48283381D01*
X101591865Y-48264628D01*
X101571125Y-48256101D01*
X101534756Y-48243225D01*
X101496478Y-48232531D01*
X101456293Y-48224019D01*
X101414199Y-48217690D01*
X101370197Y-48213544D01*
X101324287Y-48211579D01*
X101305389Y-48211405D01*
X101265379Y-48212103D01*
X101217556Y-48214940D01*
X101172166Y-48219960D01*
X101129209Y-48227162D01*
X101088684Y-48236547D01*
X101050593Y-48248114D01*
X101028906Y-48256101D01*
X100994540Y-48270627D01*
X100956072Y-48290136D01*
X100920626Y-48311912D01*
X100888203Y-48335954D01*
X100858802Y-48362264D01*
X100845235Y-48376269D01*
X100820231Y-48405644D01*
X100797974Y-48436616D01*
X100781526Y-48463646D01*
X100766986Y-48491785D01*
X100754354Y-48521033D01*
X100743630Y-48551391D01*
X100734342Y-48582661D01*
X100726629Y-48614646D01*
X100720489Y-48647347D01*
X100715924Y-48680763D01*
X100712933Y-48714895D01*
X100711516Y-48749743D01*
X100711390Y-48763882D01*
X100211161Y-48763882D01*
X100210039Y-48721995D01*
X100206613Y-48681513D01*
X100200903Y-48643169D01*
X100192908Y-48606964D01*
X100182630Y-48572896D01*
X100170068Y-48540967D01*
X100155221Y-48511175D01*
X100138091Y-48483522D01*
X100118677Y-48458007D01*
X100089238Y-48427312D01*
X100081244Y-48420232D01*
X100047019Y-48394129D01*
X100009803Y-48371506D01*
X99969594Y-48352364D01*
X99926394Y-48336701D01*
X99880201Y-48324520D01*
X99831017Y-48315819D01*
X99792165Y-48311577D01*
X99751630Y-48309293D01*
X99723672Y-48308858D01*
X99679869Y-48309920D01*
X99637851Y-48313108D01*
X99597620Y-48318421D01*
X99559174Y-48325859D01*
X99510692Y-48339083D01*
X99465385Y-48356084D01*
X99423253Y-48376864D01*
X99384297Y-48401422D01*
X99348515Y-48429758D01*
X99323897Y-48453120D01*
X99301701Y-48478144D01*
X99281925Y-48504829D01*
X99264572Y-48533176D01*
X99249640Y-48563184D01*
X99237129Y-48594854D01*
X99227040Y-48628185D01*
X99219372Y-48663178D01*
X99214125Y-48699832D01*
X99211300Y-48738148D01*
X99210762Y-48764615D01*
X98710561Y-48764615D01*
X98710553Y-48763882D01*
X98711094Y-48731568D01*
X98712717Y-48699474D01*
X98715421Y-48667598D01*
X98719208Y-48635941D01*
X98724077Y-48604503D01*
X98730027Y-48573284D01*
X98737060Y-48542284D01*
X98745174Y-48511503D01*
X98754370Y-48480941D01*
X98764649Y-48450598D01*
X98772102Y-48430491D01*
X98784183Y-48400613D01*
X98797347Y-48371432D01*
X98811592Y-48342945D01*
X98826919Y-48315155D01*
X98843328Y-48288059D01*
X98860819Y-48261660D01*
X98885824Y-48227542D01*
X98912751Y-48194661D01*
X98941603Y-48163016D01*
X98956749Y-48147657D01*
X98988486Y-48118028D01*
X99022146Y-48089955D01*
X99057729Y-48063439D01*
X99095235Y-48038481D01*
X99134665Y-48015079D01*
X99176019Y-47993235D01*
X99219295Y-47972948D01*
X99264495Y-47954217D01*
X99299615Y-47941253D01*
X99335730Y-47929565D01*
X99372842Y-47919151D01*
X99410950Y-47910013D01*
X99450053Y-47902150D01*
X99490153Y-47895562D01*
X99531249Y-47890249D01*
X99573341Y-47886211D01*
X99616428Y-47883448D01*
X99660512Y-47881960D01*
X99690455Y-47881677D01*
X99734728Y-47882888D01*
X99779619Y-47886520D01*
X99825128Y-47892573D01*
X99863525Y-47899468D01*
X99902351Y-47908044D01*
X99933721Y-47916115D01*
X99972700Y-47927310D01*
X100010867Y-47939829D01*
X100048224Y-47953671D01*
X100084770Y-47968837D01*
X100120505Y-47985327D01*
X100155429Y-48003141D01*
X100169171Y-48010637D01*
X100202626Y-48030376D01*
X100234601Y-48051581D01*
X100265098Y-48074254D01*
X100294116Y-48098393D01*
X100321656Y-48123999D01*
X100347716Y-48151072D01*
X100357726Y-48162312D01*
X100380930Y-48191102D01*
X100401080Y-48221145D01*
X100418177Y-48252440D01*
X100432221Y-48284987D01*
X100443211Y-48318786D01*
X100451149Y-48353838D01*
X100453470Y-48368209D01*
X100459820Y-48335625D01*
X100468124Y-48303820D01*
X100478382Y-48272794D01*
X100490595Y-48242546D01*
X100504761Y-48213076D01*
X100520881Y-48184385D01*
X100538955Y-48156473D01*
X100558983Y-48129339D01*
X100580430Y-48102904D01*
X100603252Y-48077453D01*
X100627447Y-48052987D01*
X100653016Y-48029505D01*
X100679959Y-48007008D01*
X100708276Y-47985495D01*
X100737967Y-47964968D01*
X100769031Y-47945424D01*
X100801104Y-47926912D01*
X100833817Y-47909475D01*
X100867171Y-47893114D01*
X100901167Y-47877830D01*
X100935803Y-47863622D01*
X100971081Y-47850490D01*
X101007000Y-47838435D01*
X101043560Y-47827455D01*
X101089308Y-47815212D01*
X101134961Y-47805044D01*
X101180518Y-47796951D01*
X101225979Y-47790933D01*
X101271345Y-47786990D01*
X101316616Y-47785123D01*
X101334698Y-47784957D01*
X101386724Y-47785627D01*
G37*
D11*
G36*
X100245211Y-45094303D02*
G01*
X100293081Y-45096700D01*
X100339343Y-45100696D01*
X100383997Y-45106289D01*
X100427042Y-45113480D01*
X100468478Y-45122270D01*
X100508306Y-45132657D01*
X100546525Y-45144643D01*
X100583136Y-45158226D01*
X100618138Y-45173408D01*
X100651531Y-45190188D01*
X100683316Y-45208566D01*
X100713493Y-45228541D01*
X100742061Y-45250115D01*
X100769020Y-45273287D01*
X100794371Y-45298058D01*
X100818061Y-45324183D01*
X100840223Y-45351572D01*
X100860857Y-45380225D01*
X100879962Y-45410142D01*
X100897539Y-45441324D01*
X100913588Y-45473769D01*
X100928108Y-45507479D01*
X100941099Y-45542453D01*
X100952563Y-45578691D01*
X100962497Y-45616193D01*
X100970904Y-45654960D01*
X100977782Y-45694990D01*
X100983131Y-45736285D01*
X100986952Y-45778844D01*
X100989245Y-45822667D01*
X100990009Y-45867754D01*
X100990009Y-46254268D01*
X102068586Y-46254268D01*
X102068586Y-46609642D01*
X99395592Y-46609642D01*
X99395592Y-46254268D01*
X99770749Y-46254268D01*
X100614852Y-46254268D01*
X100614852Y-45867754D01*
X100613931Y-45832066D01*
X100611168Y-45797816D01*
X100606564Y-45765004D01*
X100600117Y-45733630D01*
X100591829Y-45703695D01*
X100581699Y-45675198D01*
X100569727Y-45648139D01*
X100555913Y-45622519D01*
X100540258Y-45598337D01*
X100522760Y-45575593D01*
X100510072Y-45561229D01*
X100489453Y-45541151D01*
X100466890Y-45523047D01*
X100442381Y-45506919D01*
X100415928Y-45492765D01*
X100387529Y-45480586D01*
X100357186Y-45470382D01*
X100324898Y-45462154D01*
X100290665Y-45455900D01*
X100254488Y-45451621D01*
X100216365Y-45449316D01*
X100189870Y-45448878D01*
X100151498Y-45449865D01*
X100114968Y-45452827D01*
X100080280Y-45457765D01*
X100047434Y-45464677D01*
X100016430Y-45473564D01*
X99987267Y-45484426D01*
X99959947Y-45497263D01*
X99934468Y-45512075D01*
X99910831Y-45528862D01*
X99889036Y-45547624D01*
X99875529Y-45561229D01*
X99856804Y-45583014D01*
X99839920Y-45606238D01*
X99824878Y-45630899D01*
X99811679Y-45656999D01*
X99800321Y-45684537D01*
X99790804Y-45713514D01*
X99783130Y-45743928D01*
X99777298Y-45775781D01*
X99773307Y-45809073D01*
X99771158Y-45843802D01*
X99770749Y-45867754D01*
X99770749Y-46254268D01*
X99395592Y-46254268D01*
X99395592Y-45871418D01*
X99396382Y-45825887D01*
X99398752Y-45781649D01*
X99402702Y-45738704D01*
X99408231Y-45697051D01*
X99415341Y-45656692D01*
X99424031Y-45617625D01*
X99434300Y-45579850D01*
X99446150Y-45543369D01*
X99459580Y-45508180D01*
X99474589Y-45474285D01*
X99491179Y-45441681D01*
X99509348Y-45410371D01*
X99529097Y-45380354D01*
X99550426Y-45351629D01*
X99573336Y-45324197D01*
X99597825Y-45298058D01*
X99623860Y-45273287D01*
X99651406Y-45250115D01*
X99680463Y-45228541D01*
X99711031Y-45208566D01*
X99743111Y-45190188D01*
X99776702Y-45173408D01*
X99811804Y-45158226D01*
X99848418Y-45144643D01*
X99886543Y-45132657D01*
X99926179Y-45122270D01*
X99967326Y-45113480D01*
X100009985Y-45106289D01*
X100054154Y-45100696D01*
X100099836Y-45096700D01*
X100147028Y-45094303D01*
X100195731Y-45093504D01*
X100245211Y-45094303D01*
G37*
G36*
X100550372Y-43222604D02*
G01*
X100537226Y-43246525D01*
X100525265Y-43270661D01*
X100514488Y-43295011D01*
X100504897Y-43319576D01*
X100496491Y-43344356D01*
X100493952Y-43352663D01*
X100487229Y-43378101D01*
X100481896Y-43404956D01*
X100477955Y-43433228D01*
X100475733Y-43457870D01*
X100474477Y-43483495D01*
X100474168Y-43504705D01*
X100474867Y-43534090D01*
X100476962Y-43563018D01*
X100480454Y-43591487D01*
X100485342Y-43619499D01*
X100491628Y-43647052D01*
X100499310Y-43674148D01*
X100508389Y-43700786D01*
X100518865Y-43726966D01*
X100530565Y-43752477D01*
X100543686Y-43777112D01*
X100558226Y-43800868D01*
X100574186Y-43823747D01*
X100591565Y-43845748D01*
X100610364Y-43866871D01*
X100630583Y-43887116D01*
X100652221Y-43906484D01*
X100675085Y-43924888D01*
X100699345Y-43942243D01*
X100725002Y-43958548D01*
X100752055Y-43973803D01*
X100780506Y-43988010D01*
X100810353Y-44001166D01*
X100841597Y-44013273D01*
X100874238Y-44024331D01*
X100908344Y-44034063D01*
X100943985Y-44042497D01*
X100981159Y-44049633D01*
X101010047Y-44054134D01*
X101039797Y-44057905D01*
X101070411Y-44060946D01*
X101101888Y-44063257D01*
X101134227Y-44064839D01*
X101167430Y-44065690D01*
X101190044Y-44065852D01*
X101693428Y-44065852D01*
X101693428Y-43707426D01*
X102068586Y-43707426D01*
X102068586Y-44783926D01*
X101693428Y-44783926D01*
X101693428Y-44421836D01*
X100474168Y-44421836D01*
X100474168Y-44783926D01*
X100145906Y-44783926D01*
X100145906Y-44065852D01*
X100627308Y-44065852D01*
X100591883Y-44054611D01*
X100557779Y-44042716D01*
X100524998Y-44030168D01*
X100493540Y-44016966D01*
X100463403Y-44003110D01*
X100434589Y-43988601D01*
X100407098Y-43973439D01*
X100380928Y-43957622D01*
X100356082Y-43941153D01*
X100332557Y-43924029D01*
X100310355Y-43906253D01*
X100289475Y-43887822D01*
X100269917Y-43868738D01*
X100251682Y-43849001D01*
X100234769Y-43828610D01*
X100219179Y-43807566D01*
X100204627Y-43785944D01*
X100191014Y-43763821D01*
X100178340Y-43741198D01*
X100166605Y-43718074D01*
X100155809Y-43694448D01*
X100145952Y-43670322D01*
X100137033Y-43645695D01*
X100129053Y-43620567D01*
X100122012Y-43594938D01*
X100115910Y-43568809D01*
X100110746Y-43542178D01*
X100106522Y-43515047D01*
X100103236Y-43487414D01*
X100100889Y-43459281D01*
X100099481Y-43430647D01*
X100099011Y-43401512D01*
X100099604Y-43373569D01*
X100101381Y-43345155D01*
X100104343Y-43316268D01*
X100107717Y-43291835D01*
X100111914Y-43267073D01*
X100115864Y-43247028D01*
X100121528Y-43221915D01*
X100128443Y-43196951D01*
X100136611Y-43172137D01*
X100146032Y-43147471D01*
X100156704Y-43122954D01*
X100168629Y-43098586D01*
X100173749Y-43088881D01*
X100550372Y-43222604D01*
G37*
G36*
X101149795Y-41232545D02*
G01*
X101190891Y-41234107D01*
X101231266Y-41236710D01*
X101270919Y-41240354D01*
X101309851Y-41245039D01*
X101348061Y-41250765D01*
X101385551Y-41257533D01*
X101422319Y-41265341D01*
X101458366Y-41274191D01*
X101493691Y-41284081D01*
X101516841Y-41291254D01*
X101550881Y-41302815D01*
X101584032Y-41315289D01*
X101616294Y-41328675D01*
X101647667Y-41342974D01*
X101678152Y-41358185D01*
X101707748Y-41374308D01*
X101736456Y-41391344D01*
X101764274Y-41409292D01*
X101791204Y-41428152D01*
X101817245Y-41447925D01*
X101834112Y-41461613D01*
X101858471Y-41482722D01*
X101881811Y-41504604D01*
X101904134Y-41527258D01*
X101925440Y-41550685D01*
X101945728Y-41574885D01*
X101964999Y-41599858D01*
X101983252Y-41625604D01*
X102000488Y-41652123D01*
X102016706Y-41679414D01*
X102031906Y-41707478D01*
X102041475Y-41726617D01*
X102054700Y-41755899D01*
X102066625Y-41785814D01*
X102077249Y-41816363D01*
X102086572Y-41847545D01*
X102094594Y-41879361D01*
X102101315Y-41911809D01*
X102106735Y-41944891D01*
X102110855Y-41978607D01*
X102113673Y-42012955D01*
X102115191Y-42047937D01*
X102115480Y-42071610D01*
X102114830Y-42106468D01*
X102112878Y-42140747D01*
X102109626Y-42174446D01*
X102105073Y-42207565D01*
X102099219Y-42240105D01*
X102092064Y-42272065D01*
X102083609Y-42303446D01*
X102073852Y-42334247D01*
X102062795Y-42364468D01*
X102050436Y-42394110D01*
X102041475Y-42413550D01*
X102026952Y-42442134D01*
X102011413Y-42469957D01*
X101994855Y-42497017D01*
X101977281Y-42523316D01*
X101958688Y-42548852D01*
X101939079Y-42573626D01*
X101918451Y-42597639D01*
X101896806Y-42620889D01*
X101874144Y-42643377D01*
X101850464Y-42665103D01*
X101834112Y-42679164D01*
X101808664Y-42699435D01*
X101782326Y-42718805D01*
X101755100Y-42737274D01*
X101726985Y-42754841D01*
X101697982Y-42771506D01*
X101668089Y-42787270D01*
X101637308Y-42802132D01*
X101605638Y-42816092D01*
X101573080Y-42829151D01*
X101539633Y-42841309D01*
X101516841Y-42848912D01*
X101481996Y-42859497D01*
X101446430Y-42869041D01*
X101410143Y-42877544D01*
X101373135Y-42885005D01*
X101335405Y-42891425D01*
X101296954Y-42896805D01*
X101257781Y-42901143D01*
X101217888Y-42904440D01*
X101177273Y-42906695D01*
X101135937Y-42907910D01*
X101107978Y-42908141D01*
X101067314Y-42907621D01*
X101027204Y-42906059D01*
X100987647Y-42903456D01*
X100948644Y-42899812D01*
X100910195Y-42895127D01*
X100872300Y-42889401D01*
X100834959Y-42882634D01*
X100798172Y-42874825D01*
X100761938Y-42865975D01*
X100726258Y-42856085D01*
X100702779Y-42848912D01*
X100668203Y-42837356D01*
X100634541Y-42824898D01*
X100601794Y-42811539D01*
X100569961Y-42797278D01*
X100539043Y-42782115D01*
X100509039Y-42766051D01*
X100479949Y-42749085D01*
X100451774Y-42731218D01*
X100424514Y-42712449D01*
X100398168Y-42692778D01*
X100381112Y-42679164D01*
X100356243Y-42657946D01*
X100332468Y-42635966D01*
X100309789Y-42613223D01*
X100288204Y-42589719D01*
X100267714Y-42565453D01*
X100248319Y-42540425D01*
X100230019Y-42514634D01*
X100212813Y-42488082D01*
X100196702Y-42460767D01*
X100181686Y-42432691D01*
X100172284Y-42413550D01*
X100159189Y-42384294D01*
X100147383Y-42354459D01*
X100136864Y-42324044D01*
X100127633Y-42293050D01*
X100119691Y-42261476D01*
X100113036Y-42229323D01*
X100107669Y-42196590D01*
X100103591Y-42163277D01*
X100100800Y-42129385D01*
X100099297Y-42094913D01*
X100099018Y-42072220D01*
X100474168Y-42072220D01*
X100474935Y-42100098D01*
X100477236Y-42127251D01*
X100481072Y-42153679D01*
X100486441Y-42179382D01*
X100493345Y-42204359D01*
X100501783Y-42228612D01*
X100511755Y-42252139D01*
X100523261Y-42274942D01*
X100539461Y-42302130D01*
X100557379Y-42327976D01*
X100577014Y-42352481D01*
X100598366Y-42375644D01*
X100621435Y-42397466D01*
X100646222Y-42417945D01*
X100656618Y-42425762D01*
X100683580Y-42444348D01*
X100712259Y-42461563D01*
X100742656Y-42477407D01*
X100774770Y-42491879D01*
X100801698Y-42502469D01*
X100829725Y-42512182D01*
X100858851Y-42521016D01*
X100888732Y-42528888D01*
X100919026Y-42535709D01*
X100949732Y-42541481D01*
X100980850Y-42546204D01*
X101012380Y-42549877D01*
X101044323Y-42552501D01*
X101076677Y-42554075D01*
X101109444Y-42554600D01*
X101143676Y-42554075D01*
X101177130Y-42552501D01*
X101209805Y-42549877D01*
X101241701Y-42546204D01*
X101272819Y-42541481D01*
X101303159Y-42535709D01*
X101332720Y-42528888D01*
X101361502Y-42521016D01*
X101389289Y-42512182D01*
X101416228Y-42502469D01*
X101448711Y-42489094D01*
X101479870Y-42474348D01*
X101509705Y-42458230D01*
X101538216Y-42440741D01*
X101560072Y-42425762D01*
X101585932Y-42405819D01*
X101609932Y-42384534D01*
X101632071Y-42361907D01*
X101652350Y-42337939D01*
X101670768Y-42312629D01*
X101687326Y-42285978D01*
X101693428Y-42274942D01*
X101704419Y-42252139D01*
X101713945Y-42228612D01*
X101722005Y-42204359D01*
X101728599Y-42179382D01*
X101733729Y-42153679D01*
X101737392Y-42127251D01*
X101739590Y-42100098D01*
X101740323Y-42072220D01*
X101739590Y-42044628D01*
X101737392Y-42017724D01*
X101733729Y-41991506D01*
X101728599Y-41965975D01*
X101722005Y-41941131D01*
X101713945Y-41916973D01*
X101704419Y-41893503D01*
X101693428Y-41870720D01*
X101680926Y-41848547D01*
X101663624Y-41822012D01*
X101644462Y-41796789D01*
X101623439Y-41772877D01*
X101600555Y-41750278D01*
X101575811Y-41728990D01*
X101560072Y-41716847D01*
X101532620Y-41697733D01*
X101503844Y-41680079D01*
X101473744Y-41663887D01*
X101442320Y-41649155D01*
X101409573Y-41635885D01*
X101382422Y-41626320D01*
X101361502Y-41619760D01*
X101332720Y-41611889D01*
X101303159Y-41605068D01*
X101272819Y-41599295D01*
X101241701Y-41594573D01*
X101209805Y-41590900D01*
X101177130Y-41588276D01*
X101143676Y-41586702D01*
X101109444Y-41586177D01*
X101076677Y-41586702D01*
X101044323Y-41588276D01*
X101012380Y-41590900D01*
X100980850Y-41594573D01*
X100949732Y-41599295D01*
X100919026Y-41605068D01*
X100888732Y-41611889D01*
X100858851Y-41619760D01*
X100829725Y-41628624D01*
X100801698Y-41638422D01*
X100774770Y-41649155D01*
X100748941Y-41660824D01*
X100718201Y-41676724D01*
X100689178Y-41694085D01*
X100661873Y-41712907D01*
X100656618Y-41716847D01*
X100631144Y-41737348D01*
X100607387Y-41759160D01*
X100585348Y-41782284D01*
X100565027Y-41806721D01*
X100546422Y-41832469D01*
X100529535Y-41859529D01*
X100523261Y-41870720D01*
X100511755Y-41893503D01*
X100501783Y-41916973D01*
X100493345Y-41941131D01*
X100486441Y-41965975D01*
X100481072Y-41991506D01*
X100477236Y-42017724D01*
X100474935Y-42044628D01*
X100474168Y-42072220D01*
X100099018Y-42072220D01*
X100099011Y-42071610D01*
X100099655Y-42036206D01*
X100101587Y-42001435D01*
X100104807Y-41967298D01*
X100109315Y-41933794D01*
X100115111Y-41900923D01*
X100122195Y-41868685D01*
X100130567Y-41837081D01*
X100140227Y-41806110D01*
X100151175Y-41775772D01*
X100163411Y-41746068D01*
X100172284Y-41726617D01*
X100186570Y-41698037D01*
X100201951Y-41670231D01*
X100218427Y-41643197D01*
X100235997Y-41616936D01*
X100254662Y-41591448D01*
X100274422Y-41566733D01*
X100295277Y-41542790D01*
X100317227Y-41519621D01*
X100340271Y-41497224D01*
X100364411Y-41475600D01*
X100381112Y-41461613D01*
X100406848Y-41441232D01*
X100433499Y-41421764D01*
X100461064Y-41403208D01*
X100489544Y-41385564D01*
X100518938Y-41368832D01*
X100549247Y-41353013D01*
X100580470Y-41338106D01*
X100612608Y-41324112D01*
X100645660Y-41311030D01*
X100679627Y-41298860D01*
X100702779Y-41291254D01*
X100738090Y-41280669D01*
X100773954Y-41271125D01*
X100810373Y-41262623D01*
X100847345Y-41255161D01*
X100884870Y-41248741D01*
X100922950Y-41243362D01*
X100961584Y-41239024D01*
X101000771Y-41235727D01*
X101040512Y-41233471D01*
X101080807Y-41232256D01*
X101107978Y-41232025D01*
X101149795Y-41232545D01*
G37*
D12*
X92552466Y-78487115D02*
X92552466Y-77725211D01*
X92933419Y-78106163D02*
X92171514Y-78106163D01*
X92552466Y-80477115D02*
X92552466Y-79715211D01*
D13*
X84900000Y-39300000D02*
X85400000Y-39300000D01*
X84900000Y-51300000D02*
X84900000Y-39300000D01*
X85400000Y-37400000D02*
X90400000Y-37400000D01*
X85400000Y-39300000D02*
X85400000Y-37400000D01*
X90400000Y-39300000D02*
X90400000Y-37400000D01*
X90900000Y-39300000D02*
X90400000Y-39300000D01*
X90900000Y-39300000D02*
X90900000Y-51300000D01*
X90900000Y-51300000D02*
X84900000Y-51300000D01*
X92208815Y-38615745D02*
X92208815Y-71635745D01*
X92208815Y-41155745D02*
X92208815Y-71635745D01*
X92208815Y-71635745D02*
X94748815Y-71635745D01*
X94748815Y-41155745D02*
X92208815Y-41155745D01*
X94748815Y-71635745D02*
X94748815Y-41155745D01*
X107448815Y-41155745D02*
X107448815Y-71635745D01*
X107448815Y-71635745D02*
X109988815Y-71635745D01*
X109988815Y-38615745D02*
X92208815Y-38615745D01*
X109988815Y-41155745D02*
X107448815Y-41155745D01*
X109988815Y-71635745D02*
X109988815Y-38615745D01*
X109988815Y-71635745D02*
X109988815Y-41155745D01*
D14*
X99861273Y-62206128D02*
X99907253Y-62240864D01*
X99956461Y-62286844D01*
X99998905Y-62334323D01*
X100024589Y-62373554D01*
X100028026Y-62386952D01*
X100014313Y-62415746D01*
X99979480Y-62459850D01*
X99940779Y-62500115D01*
X99891222Y-62544112D01*
X99850186Y-62574217D01*
X99829917Y-62583153D01*
X99799847Y-62569106D01*
X99756290Y-62533650D01*
X99708968Y-62486810D01*
X99667606Y-62438616D01*
X99641928Y-62399092D01*
X99638000Y-62385248D01*
X99652093Y-62351131D01*
X99687572Y-62304599D01*
X99734237Y-62255978D01*
X99781889Y-62215592D01*
X99820328Y-62193768D01*
X99828516Y-62192384D01*
X99861273Y-62206128D01*
G36*
X99861273Y-62206128D02*
G01*
X99907253Y-62240864D01*
X99956461Y-62286844D01*
X99998905Y-62334323D01*
X100024589Y-62373554D01*
X100028026Y-62386952D01*
X100014313Y-62415746D01*
X99979480Y-62459850D01*
X99940779Y-62500115D01*
X99891222Y-62544112D01*
X99850186Y-62574217D01*
X99829917Y-62583153D01*
X99799847Y-62569106D01*
X99756290Y-62533650D01*
X99708968Y-62486810D01*
X99667606Y-62438616D01*
X99641928Y-62399092D01*
X99638000Y-62385248D01*
X99652093Y-62351131D01*
X99687572Y-62304599D01*
X99734237Y-62255978D01*
X99781889Y-62215592D01*
X99820328Y-62193768D01*
X99828516Y-62192384D01*
X99861273Y-62206128D01*
G37*
X98895764Y-62808068D02*
X98954939Y-62871505D01*
X98995350Y-62924885D01*
X99011668Y-62961069D01*
X99011768Y-62963542D01*
X98997338Y-62996257D01*
X98960046Y-63044365D01*
X98907229Y-63098459D01*
X98904707Y-63100789D01*
X98850200Y-63149343D01*
X98805304Y-63186465D01*
X98778929Y-63204824D01*
X98777586Y-63205368D01*
X98755808Y-63195507D01*
X98715855Y-63164411D01*
X98665773Y-63119816D01*
X98613610Y-63069460D01*
X98567410Y-63021079D01*
X98535223Y-62982410D01*
X98524881Y-62962395D01*
X98539806Y-62934780D01*
X98581446Y-62885559D01*
X98646611Y-62818278D01*
X98707163Y-62759833D01*
X98778758Y-62692283D01*
X98895764Y-62808068D01*
G36*
X98895764Y-62808068D02*
G01*
X98954939Y-62871505D01*
X98995350Y-62924885D01*
X99011668Y-62961069D01*
X99011768Y-62963542D01*
X98997338Y-62996257D01*
X98960046Y-63044365D01*
X98907229Y-63098459D01*
X98904707Y-63100789D01*
X98850200Y-63149343D01*
X98805304Y-63186465D01*
X98778929Y-63204824D01*
X98777586Y-63205368D01*
X98755808Y-63195507D01*
X98715855Y-63164411D01*
X98665773Y-63119816D01*
X98613610Y-63069460D01*
X98567410Y-63021079D01*
X98535223Y-62982410D01*
X98524881Y-62962395D01*
X98539806Y-62934780D01*
X98581446Y-62885559D01*
X98646611Y-62818278D01*
X98707163Y-62759833D01*
X98778758Y-62692283D01*
X98895764Y-62808068D01*
G37*
X98792385Y-63241009D02*
X98831598Y-63274256D01*
X98878455Y-63318642D01*
X98923829Y-63365146D01*
X98958592Y-63404749D01*
X98973616Y-63428428D01*
X98973693Y-63429281D01*
X98960902Y-63449315D01*
X98927251Y-63488468D01*
X98879818Y-63538540D01*
X98876184Y-63542223D01*
X98816411Y-63597138D01*
X98773382Y-63624923D01*
X98754069Y-63626345D01*
X98719442Y-63600381D01*
X98674205Y-63559454D01*
X98627444Y-63512799D01*
X98588248Y-63469646D01*
X98565705Y-63439228D01*
X98563385Y-63432630D01*
X98576767Y-63408546D01*
X98610791Y-63368315D01*
X98656274Y-63321037D01*
X98704034Y-63275813D01*
X98744886Y-63241744D01*
X98769648Y-63227930D01*
X98769945Y-63227922D01*
X98792385Y-63241009D01*
G36*
X98792385Y-63241009D02*
G01*
X98831598Y-63274256D01*
X98878455Y-63318642D01*
X98923829Y-63365146D01*
X98958592Y-63404749D01*
X98973616Y-63428428D01*
X98973693Y-63429281D01*
X98960902Y-63449315D01*
X98927251Y-63488468D01*
X98879818Y-63538540D01*
X98876184Y-63542223D01*
X98816411Y-63597138D01*
X98773382Y-63624923D01*
X98754069Y-63626345D01*
X98719442Y-63600381D01*
X98674205Y-63559454D01*
X98627444Y-63512799D01*
X98588248Y-63469646D01*
X98565705Y-63439228D01*
X98563385Y-63432630D01*
X98576767Y-63408546D01*
X98610791Y-63368315D01*
X98656274Y-63321037D01*
X98704034Y-63275813D01*
X98744886Y-63241744D01*
X98769648Y-63227930D01*
X98769945Y-63227922D01*
X98792385Y-63241009D01*
G37*
X99843712Y-62616258D02*
X99884931Y-62651422D01*
X99935107Y-62699885D01*
X99986227Y-62753347D01*
X100030279Y-62803508D01*
X100059251Y-62842069D01*
X100066265Y-62858348D01*
X100052218Y-62885500D01*
X100017131Y-62929030D01*
X99973457Y-62974648D01*
X99906025Y-63040130D01*
X99859094Y-63080530D01*
X99823945Y-63096711D01*
X99791862Y-63089538D01*
X99754126Y-63059877D01*
X99702019Y-63008591D01*
X99695582Y-63002207D01*
X99642060Y-62946113D01*
X99601563Y-62897712D01*
X99580780Y-62865213D01*
X99579385Y-62859558D01*
X99592244Y-62834451D01*
X99625549Y-62791449D01*
X99671395Y-62739010D01*
X99721874Y-62685595D01*
X99769081Y-62639662D01*
X99805108Y-62609670D01*
X99819462Y-62602692D01*
X99843712Y-62616258D01*
G36*
X99843712Y-62616258D02*
G01*
X99884931Y-62651422D01*
X99935107Y-62699885D01*
X99986227Y-62753347D01*
X100030279Y-62803508D01*
X100059251Y-62842069D01*
X100066265Y-62858348D01*
X100052218Y-62885500D01*
X100017131Y-62929030D01*
X99973457Y-62974648D01*
X99906025Y-63040130D01*
X99859094Y-63080530D01*
X99823945Y-63096711D01*
X99791862Y-63089538D01*
X99754126Y-63059877D01*
X99702019Y-63008591D01*
X99695582Y-63002207D01*
X99642060Y-62946113D01*
X99601563Y-62897712D01*
X99580780Y-62865213D01*
X99579385Y-62859558D01*
X99592244Y-62834451D01*
X99625549Y-62791449D01*
X99671395Y-62739010D01*
X99721874Y-62685595D01*
X99769081Y-62639662D01*
X99805108Y-62609670D01*
X99819462Y-62602692D01*
X99843712Y-62616258D01*
G37*
X99274214Y-63201951D02*
X99317133Y-63235884D01*
X99368935Y-63282572D01*
X99421281Y-63333941D01*
X99465834Y-63381916D01*
X99494253Y-63418424D01*
X99500117Y-63432465D01*
X99486401Y-63454558D01*
X99450903Y-63495595D01*
X99400424Y-63547878D01*
X99383010Y-63564961D01*
X99327235Y-63616830D01*
X99280857Y-63656023D01*
X99251739Y-63676023D01*
X99247464Y-63677307D01*
X99218189Y-63663327D01*
X99173602Y-63627309D01*
X99122286Y-63578132D01*
X99072824Y-63524679D01*
X99033800Y-63475830D01*
X99013796Y-63440466D01*
X99012770Y-63434469D01*
X99026382Y-63401933D01*
X99061467Y-63354092D01*
X99109402Y-63299934D01*
X99161560Y-63248444D01*
X99209316Y-63208610D01*
X99244045Y-63189417D01*
X99248516Y-63188845D01*
X99274214Y-63201951D01*
G36*
X99274214Y-63201951D02*
G01*
X99317133Y-63235884D01*
X99368935Y-63282572D01*
X99421281Y-63333941D01*
X99465834Y-63381916D01*
X99494253Y-63418424D01*
X99500117Y-63432465D01*
X99486401Y-63454558D01*
X99450903Y-63495595D01*
X99400424Y-63547878D01*
X99383010Y-63564961D01*
X99327235Y-63616830D01*
X99280857Y-63656023D01*
X99251739Y-63676023D01*
X99247464Y-63677307D01*
X99218189Y-63663327D01*
X99173602Y-63627309D01*
X99122286Y-63578132D01*
X99072824Y-63524679D01*
X99033800Y-63475830D01*
X99013796Y-63440466D01*
X99012770Y-63434469D01*
X99026382Y-63401933D01*
X99061467Y-63354092D01*
X99109402Y-63299934D01*
X99161560Y-63248444D01*
X99209316Y-63208610D01*
X99244045Y-63189417D01*
X99248516Y-63188845D01*
X99274214Y-63201951D01*
G37*
X99376923Y-62147263D02*
X99416278Y-62181887D01*
X99465321Y-62229515D01*
X99516048Y-62281927D01*
X99560456Y-62330903D01*
X99590543Y-62368225D01*
X99598924Y-62384110D01*
X99586064Y-62404681D01*
X99551744Y-62445286D01*
X99502347Y-62498544D01*
X99480268Y-62521259D01*
X99425433Y-62575563D01*
X99380827Y-62617159D01*
X99353476Y-62639600D01*
X99348950Y-62641769D01*
X99325749Y-62628062D01*
X99285744Y-62592587D01*
X99236885Y-62543810D01*
X99187122Y-62490200D01*
X99144406Y-62440224D01*
X99116688Y-62402349D01*
X99110462Y-62387769D01*
X99123655Y-62361476D01*
X99157818Y-62317910D01*
X99204824Y-62265501D01*
X99256547Y-62212677D01*
X99304860Y-62167867D01*
X99341638Y-62139498D01*
X99355259Y-62133862D01*
X99376923Y-62147263D01*
G36*
X99376923Y-62147263D02*
G01*
X99416278Y-62181887D01*
X99465321Y-62229515D01*
X99516048Y-62281927D01*
X99560456Y-62330903D01*
X99590543Y-62368225D01*
X99598924Y-62384110D01*
X99586064Y-62404681D01*
X99551744Y-62445286D01*
X99502347Y-62498544D01*
X99480268Y-62521259D01*
X99425433Y-62575563D01*
X99380827Y-62617159D01*
X99353476Y-62639600D01*
X99348950Y-62641769D01*
X99325749Y-62628062D01*
X99285744Y-62592587D01*
X99236885Y-62543810D01*
X99187122Y-62490200D01*
X99144406Y-62440224D01*
X99116688Y-62402349D01*
X99110462Y-62387769D01*
X99123655Y-62361476D01*
X99157818Y-62317910D01*
X99204824Y-62265501D01*
X99256547Y-62212677D01*
X99304860Y-62167867D01*
X99341638Y-62139498D01*
X99355259Y-62133862D01*
X99376923Y-62147263D01*
G37*
X99855704Y-63163632D02*
X99904952Y-63199850D01*
X99962102Y-63250366D01*
X100018960Y-63307124D01*
X100067333Y-63362068D01*
X100099026Y-63407140D01*
X100106924Y-63429382D01*
X100093969Y-63458119D01*
X100059343Y-63505728D01*
X100009401Y-63563849D01*
X99984808Y-63589982D01*
X99921537Y-63650874D01*
X99867342Y-63694519D01*
X99829372Y-63715335D01*
X99823092Y-63716318D01*
X99794503Y-63703159D01*
X99747962Y-63668572D01*
X99691333Y-63619981D01*
X99632478Y-63564807D01*
X99579262Y-63510473D01*
X99539548Y-63464400D01*
X99521199Y-63434011D01*
X99520770Y-63430958D01*
X99534848Y-63403568D01*
X99571774Y-63359561D01*
X99623587Y-63306356D01*
X99682323Y-63251373D01*
X99740021Y-63202029D01*
X99788717Y-63165745D01*
X99820451Y-63149939D01*
X99822552Y-63149769D01*
X99855704Y-63163632D01*
G36*
X99855704Y-63163632D02*
G01*
X99904952Y-63199850D01*
X99962102Y-63250366D01*
X100018960Y-63307124D01*
X100067333Y-63362068D01*
X100099026Y-63407140D01*
X100106924Y-63429382D01*
X100093969Y-63458119D01*
X100059343Y-63505728D01*
X100009401Y-63563849D01*
X99984808Y-63589982D01*
X99921537Y-63650874D01*
X99867342Y-63694519D01*
X99829372Y-63715335D01*
X99823092Y-63716318D01*
X99794503Y-63703159D01*
X99747962Y-63668572D01*
X99691333Y-63619981D01*
X99632478Y-63564807D01*
X99579262Y-63510473D01*
X99539548Y-63464400D01*
X99521199Y-63434011D01*
X99520770Y-63430958D01*
X99534848Y-63403568D01*
X99571774Y-63359561D01*
X99623587Y-63306356D01*
X99682323Y-63251373D01*
X99740021Y-63202029D01*
X99788717Y-63165745D01*
X99820451Y-63149939D01*
X99822552Y-63149769D01*
X99855704Y-63163632D01*
G37*
X98803082Y-62108017D02*
X98847726Y-62142969D01*
X98902676Y-62192014D01*
X98960194Y-62247616D01*
X99012543Y-62302241D01*
X99051985Y-62348354D01*
X99070783Y-62378420D01*
X99071385Y-62381878D01*
X99058397Y-62404540D01*
X99023428Y-62447443D01*
X98972469Y-62503540D01*
X98934755Y-62542580D01*
X98874758Y-62601221D01*
X98823486Y-62647523D01*
X98787865Y-62675432D01*
X98776548Y-62680845D01*
X98750303Y-62667261D01*
X98706294Y-62631619D01*
X98652125Y-62581585D01*
X98595397Y-62524826D01*
X98543713Y-62469009D01*
X98504677Y-62421799D01*
X98485892Y-62390863D01*
X98485231Y-62387096D01*
X98498942Y-62357725D01*
X98534882Y-62311194D01*
X98585267Y-62255320D01*
X98642310Y-62197921D01*
X98698226Y-62146811D01*
X98745230Y-62109809D01*
X98775534Y-62094730D01*
X98776480Y-62094692D01*
X98803082Y-62108017D01*
G36*
X98803082Y-62108017D02*
G01*
X98847726Y-62142969D01*
X98902676Y-62192014D01*
X98960194Y-62247616D01*
X99012543Y-62302241D01*
X99051985Y-62348354D01*
X99070783Y-62378420D01*
X99071385Y-62381878D01*
X99058397Y-62404540D01*
X99023428Y-62447443D01*
X98972469Y-62503540D01*
X98934755Y-62542580D01*
X98874758Y-62601221D01*
X98823486Y-62647523D01*
X98787865Y-62675432D01*
X98776548Y-62680845D01*
X98750303Y-62667261D01*
X98706294Y-62631619D01*
X98652125Y-62581585D01*
X98595397Y-62524826D01*
X98543713Y-62469009D01*
X98504677Y-62421799D01*
X98485892Y-62390863D01*
X98485231Y-62387096D01*
X98498942Y-62357725D01*
X98534882Y-62311194D01*
X98585267Y-62255320D01*
X98642310Y-62197921D01*
X98698226Y-62146811D01*
X98745230Y-62109809D01*
X98775534Y-62094730D01*
X98776480Y-62094692D01*
X98803082Y-62108017D01*
G37*
X101558673Y-60990786D02*
X101676690Y-61110214D01*
X101804411Y-61252944D01*
X101932840Y-61407967D01*
X102052979Y-61564272D01*
X102155832Y-61710852D01*
X102187770Y-61760523D01*
X102209856Y-61795733D01*
X102242519Y-61847597D01*
X102256654Y-61869999D01*
X102312950Y-61967513D01*
X102375826Y-62089980D01*
X102439661Y-62225234D01*
X102498834Y-62361105D01*
X102547723Y-62485424D01*
X102568065Y-62544076D01*
X102647752Y-62833016D01*
X102693671Y-63108832D01*
X102705816Y-63378073D01*
X102684180Y-63647293D01*
X102628755Y-63923043D01*
X102566466Y-64133704D01*
X102529204Y-64235566D01*
X102480555Y-64353679D01*
X102425109Y-64478203D01*
X102367453Y-64599302D01*
X102312178Y-64707137D01*
X102263872Y-64791871D01*
X102248077Y-64816290D01*
X102217893Y-64862754D01*
X102199824Y-64894787D01*
X102197539Y-64901393D01*
X102188018Y-64920041D01*
X102157991Y-64961172D01*
X102105261Y-65027729D01*
X102080014Y-65058829D01*
X102067843Y-65075414D01*
X102064363Y-65092064D01*
X102072584Y-65116186D01*
X102095519Y-65155189D01*
X102136179Y-65216479D01*
X102156078Y-65245933D01*
X102331013Y-65532173D01*
X102473772Y-65824537D01*
X102583171Y-66119475D01*
X102658024Y-66413433D01*
X102697146Y-66702860D01*
X102702878Y-66884684D01*
X102701173Y-66982433D01*
X102698502Y-67069783D01*
X102695234Y-67137140D01*
X102691773Y-67174692D01*
X102654157Y-67353638D01*
X102602328Y-67545294D01*
X102540813Y-67735177D01*
X102474134Y-67908806D01*
X102435381Y-67995307D01*
X102376177Y-68112379D01*
X102307033Y-68238546D01*
X102232948Y-68365578D01*
X102158921Y-68485240D01*
X102089950Y-68589301D01*
X102031035Y-68669528D01*
X102012265Y-68692120D01*
X101987203Y-68722712D01*
X101953044Y-68766474D01*
X101950142Y-68770273D01*
X101875807Y-68864687D01*
X101797072Y-68959364D01*
X101718500Y-69049375D01*
X101644653Y-69129792D01*
X101580091Y-69195683D01*
X101529378Y-69242120D01*
X101497074Y-69264173D01*
X101494022Y-69264860D01*
X101492040Y-69265307D01*
X101464331Y-69250433D01*
X101417169Y-69208872D01*
X101354521Y-69145217D01*
X101280355Y-69064060D01*
X101198641Y-68969995D01*
X101113346Y-68867613D01*
X101028440Y-68761507D01*
X100947889Y-68656269D01*
X100875664Y-68556493D01*
X100860031Y-68533900D01*
X100799146Y-68440049D01*
X100732986Y-68329735D01*
X100665617Y-68210629D01*
X100601108Y-68090404D01*
X100543525Y-67976730D01*
X100496935Y-67877279D01*
X100465406Y-67799723D01*
X100457264Y-67774190D01*
X100441779Y-67726682D01*
X100422835Y-67708310D01*
X100388309Y-67710108D01*
X100374472Y-67712946D01*
X100325078Y-67726133D01*
X100292843Y-67739362D01*
X100292539Y-67739565D01*
X100255224Y-67758571D01*
X100190885Y-67785309D01*
X100109813Y-67815910D01*
X100022298Y-67846503D01*
X99938632Y-67873220D01*
X99931077Y-67875470D01*
X99703405Y-67936653D01*
X99481165Y-67982947D01*
X99252265Y-68016255D01*
X99004612Y-68038480D01*
X98838612Y-68047432D01*
X98537455Y-68060300D01*
X98550375Y-67729842D01*
X98572486Y-67417524D01*
X98613167Y-67114576D01*
X98662479Y-66868631D01*
X98682839Y-66792551D01*
X98711923Y-66696592D01*
X98746235Y-66591044D01*
X98782279Y-66486194D01*
X98816559Y-66392332D01*
X98845577Y-66319745D01*
X98858666Y-66291355D01*
X98882050Y-66239057D01*
X98894767Y-66198312D01*
X98895539Y-66191160D01*
X98878050Y-66169699D01*
X98830896Y-66142467D01*
X98773424Y-66118325D01*
X98704991Y-66090399D01*
X98619865Y-66051824D01*
X98526775Y-66007010D01*
X98434448Y-65960366D01*
X98351615Y-65916305D01*
X98287003Y-65879235D01*
X98249342Y-65853567D01*
X98249231Y-65853470D01*
X98217338Y-65831418D01*
X98202866Y-65826538D01*
X98177764Y-65814957D01*
X98127555Y-65782799D01*
X98057613Y-65733942D01*
X97973311Y-65672262D01*
X97880022Y-65601639D01*
X97783118Y-65525949D01*
X97752539Y-65501545D01*
X97642370Y-65410792D01*
X97542924Y-65324377D01*
X97458208Y-65246150D01*
X97392229Y-65179959D01*
X97348995Y-65129655D01*
X97338565Y-65110311D01*
X97863154Y-65110311D01*
X97872658Y-65119082D01*
X97897418Y-65137963D01*
X97942490Y-65175102D01*
X97998801Y-65223002D01*
X98007613Y-65230615D01*
X98213679Y-65394392D01*
X98443991Y-65551931D01*
X98683872Y-65693499D01*
X98786481Y-65747126D01*
X98880861Y-65793256D01*
X98963253Y-65831329D01*
X99027286Y-65858575D01*
X99066589Y-65872221D01*
X99075465Y-65872863D01*
X99095313Y-65851169D01*
X99126158Y-65808212D01*
X99142435Y-65783239D01*
X99229418Y-65664770D01*
X99343551Y-65538061D01*
X99476302Y-65410812D01*
X99619144Y-65290722D01*
X99763545Y-65185489D01*
X99889502Y-65108921D01*
X100089004Y-65008016D01*
X100285217Y-64921530D01*
X100468313Y-64853573D01*
X100580840Y-64819902D01*
X100650758Y-64802241D01*
X100693829Y-64795073D01*
X100720858Y-64798431D01*
X100742648Y-64812345D01*
X100751802Y-64820406D01*
X100780904Y-64852911D01*
X100790770Y-64873984D01*
X100801862Y-64900873D01*
X100828643Y-64940440D01*
X100829580Y-64941637D01*
X100853853Y-64979687D01*
X100859817Y-65004711D01*
X100859418Y-65005496D01*
X100837264Y-65017820D01*
X100788199Y-65035765D01*
X100727800Y-65054020D01*
X100484011Y-65134643D01*
X100243171Y-65238782D01*
X100019733Y-65359851D01*
X99928548Y-65418213D01*
X99872474Y-65460796D01*
X99800217Y-65522124D01*
X99720433Y-65594117D01*
X99641777Y-65668693D01*
X99572907Y-65737770D01*
X99522479Y-65793268D01*
X99510192Y-65808790D01*
X99349352Y-66056373D01*
X99211613Y-66330539D01*
X99099200Y-66624840D01*
X99014335Y-66932828D01*
X98959241Y-67248054D01*
X98939936Y-67462884D01*
X98929004Y-67663153D01*
X99053925Y-67663149D01*
X99187522Y-67656044D01*
X99347428Y-67636089D01*
X99523820Y-67605318D01*
X99706875Y-67565765D01*
X99886771Y-67519462D01*
X100053684Y-67468442D01*
X100136407Y-67439102D01*
X100224142Y-67406006D01*
X100281183Y-67381301D01*
X100312939Y-67358430D01*
X100324821Y-67330832D01*
X100322239Y-67291950D01*
X100310602Y-67235225D01*
X100309375Y-67229399D01*
X100287175Y-67064907D01*
X100282369Y-66875428D01*
X100294115Y-66670534D01*
X100321567Y-66459799D01*
X100363883Y-66252794D01*
X100409805Y-66090307D01*
X100449255Y-65983383D01*
X100504322Y-65854113D01*
X100569778Y-65713205D01*
X100640394Y-65571366D01*
X100710943Y-65439303D01*
X100776195Y-65327723D01*
X100800973Y-65289230D01*
X100856008Y-65207310D01*
X100894801Y-65153986D01*
X100923379Y-65125743D01*
X100947766Y-65119065D01*
X100973991Y-65130437D01*
X101008078Y-65156344D01*
X101016824Y-65163321D01*
X101066849Y-65201912D01*
X101107127Y-65230954D01*
X101119633Y-65238924D01*
X101127630Y-65255026D01*
X101116220Y-65287902D01*
X101083095Y-65342848D01*
X101058662Y-65378822D01*
X101008880Y-65456398D01*
X100949299Y-65558156D01*
X100886157Y-65672644D01*
X100825696Y-65788411D01*
X100774155Y-65894006D01*
X100755687Y-65934806D01*
X100720225Y-66028853D01*
X100683371Y-66148588D01*
X100648484Y-66280914D01*
X100618925Y-66412733D01*
X100598055Y-66530948D01*
X100593308Y-66567720D01*
X100581343Y-66797117D01*
X100598588Y-67025376D01*
X100646016Y-67263896D01*
X100655909Y-67301692D01*
X100683760Y-67396216D01*
X100718640Y-67501528D01*
X100757180Y-67608735D01*
X100796010Y-67708944D01*
X100831757Y-67793262D01*
X100861053Y-67852794D01*
X100870651Y-67868307D01*
X100887114Y-67895339D01*
X100915036Y-67944350D01*
X100937837Y-67985538D01*
X100990021Y-68073079D01*
X101060262Y-68180101D01*
X101141227Y-68296378D01*
X101225582Y-68411687D01*
X101305997Y-68515802D01*
X101375137Y-68598499D01*
X101386230Y-68610769D01*
X101494022Y-68727999D01*
X101592905Y-68620538D01*
X101649544Y-68554539D01*
X101720153Y-68465743D01*
X101797352Y-68364083D01*
X101873764Y-68259494D01*
X101942010Y-68161908D01*
X101994714Y-68081258D01*
X102000486Y-68071794D01*
X102052315Y-67979121D01*
X102110843Y-67863789D01*
X102170803Y-67737248D01*
X102226928Y-67610949D01*
X102273952Y-67496340D01*
X102305261Y-67409153D01*
X102342918Y-67269781D01*
X102374763Y-67112131D01*
X102397858Y-66953515D01*
X102409263Y-66811242D01*
X102409758Y-66793692D01*
X102407746Y-66730607D01*
X102400692Y-66643476D01*
X102389887Y-66546810D01*
X102383652Y-66500615D01*
X102341455Y-66282611D01*
X102276721Y-66066536D01*
X102186767Y-65845297D01*
X102068909Y-65611805D01*
X102003649Y-65496730D01*
X101919191Y-65364392D01*
X101837891Y-65265327D01*
X101835231Y-65263100D01*
X101753705Y-65194826D01*
X101660589Y-65148182D01*
X101552500Y-65120691D01*
X101513693Y-65115161D01*
X101387725Y-65093343D01*
X101289435Y-65060192D01*
X101208185Y-65012067D01*
X101204672Y-65009425D01*
X101158596Y-64967695D01*
X101109610Y-64912787D01*
X101063634Y-64852998D01*
X101026591Y-64796622D01*
X101004398Y-64751955D01*
X101002978Y-64727292D01*
X101003172Y-64727089D01*
X101030230Y-64719243D01*
X101084791Y-64715219D01*
X101155397Y-64715821D01*
X101160266Y-64716040D01*
X101231071Y-64718512D01*
X101268476Y-64716819D01*
X101278030Y-64709934D01*
X101265284Y-64696832D01*
X101265060Y-64696665D01*
X101227427Y-64671170D01*
X101170203Y-64635402D01*
X101102011Y-64594392D01*
X101031476Y-64553171D01*
X100967221Y-64516769D01*
X100917869Y-64490217D01*
X100892044Y-64478546D01*
X100890891Y-64478384D01*
X100861617Y-64461395D01*
X100824604Y-64416319D01*
X100784912Y-64351988D01*
X100747600Y-64277237D01*
X100717727Y-64200899D01*
X100704203Y-64152405D01*
X100693772Y-64121648D01*
X100672897Y-64098497D01*
X100633189Y-64077283D01*
X100566259Y-64052339D01*
X100545754Y-64045350D01*
X100470383Y-64020635D01*
X100425029Y-64011793D01*
X100405411Y-64023709D01*
X100407249Y-64061272D01*
X100426264Y-64129369D01*
X100438288Y-64168074D01*
X100456897Y-64231348D01*
X100468513Y-64277788D01*
X100470643Y-64297023D01*
X100450459Y-64294721D01*
X100406362Y-64282026D01*
X100382349Y-64273896D01*
X100288601Y-64247199D01*
X100170301Y-64222713D01*
X100041975Y-64202738D01*
X99918148Y-64189574D01*
X99823616Y-64185448D01*
X99663009Y-64194612D01*
X99483200Y-64220359D01*
X99299050Y-64260124D01*
X99159308Y-64300076D01*
X98935109Y-64383397D01*
X98712816Y-64489116D01*
X98488045Y-64619913D01*
X98256412Y-64778469D01*
X98013535Y-64967464D01*
X97869933Y-65088500D01*
X97863154Y-65110311D01*
X97338565Y-65110311D01*
X97332513Y-65099086D01*
X97332462Y-65098011D01*
X97346259Y-65073379D01*
X97383468Y-65030202D01*
X97437819Y-64975351D01*
X97481457Y-64934809D01*
X97547746Y-64874925D01*
X97605808Y-64822023D01*
X97647699Y-64783365D01*
X97662187Y-64769615D01*
X97691096Y-64744783D01*
X97742836Y-64703522D01*
X97808806Y-64652617D01*
X97850231Y-64621321D01*
X98118961Y-64431696D01*
X98378003Y-64274045D01*
X98634256Y-64144957D01*
X98894620Y-64041025D01*
X99165995Y-63958840D01*
X99217555Y-63945846D01*
X99337167Y-63923911D01*
X99481645Y-63908869D01*
X99640364Y-63900798D01*
X99802697Y-63899777D01*
X99958018Y-63905883D01*
X100095701Y-63919195D01*
X100200656Y-63938630D01*
X100269797Y-63955179D01*
X100322557Y-63965719D01*
X100349128Y-63968336D01*
X100350359Y-63967831D01*
X100349979Y-63946842D01*
X100343288Y-63895951D01*
X100331512Y-63823598D01*
X100320996Y-63765230D01*
X100286242Y-63473511D01*
X100287227Y-63377048D01*
X100585011Y-63377048D01*
X100591640Y-63605271D01*
X100621737Y-63820777D01*
X100635166Y-63880059D01*
X100683308Y-64073042D01*
X100868924Y-64165197D01*
X101074511Y-64271760D01*
X101245530Y-64370747D01*
X101385174Y-64464646D01*
X101496634Y-64555943D01*
X101583102Y-64647126D01*
X101647769Y-64740682D01*
X101674822Y-64793226D01*
X101725049Y-64872476D01*
X101786079Y-64917754D01*
X101835231Y-64927769D01*
X101860029Y-64911268D01*
X101898648Y-64865577D01*
X101947349Y-64796416D01*
X102002392Y-64709503D01*
X102060035Y-64610556D01*
X102116539Y-64505294D01*
X102133537Y-64471677D01*
X102229189Y-64263619D01*
X102300818Y-64069109D01*
X102352802Y-63874852D01*
X102382306Y-63716384D01*
X102399989Y-63586393D01*
X102408175Y-63474383D01*
X102406899Y-63365155D01*
X102396192Y-63243511D01*
X102383562Y-63146081D01*
X102333944Y-62903373D01*
X102253054Y-62650533D01*
X102143964Y-62396079D01*
X102046982Y-62211922D01*
X101989634Y-62117023D01*
X101922045Y-62014037D01*
X101848112Y-61907996D01*
X101771730Y-61803931D01*
X101696796Y-61706874D01*
X101627205Y-61621857D01*
X101566853Y-61553909D01*
X101519636Y-61508063D01*
X101489451Y-61489350D01*
X101487319Y-61489164D01*
X101462930Y-61504651D01*
X101420834Y-61547407D01*
X101365000Y-61612184D01*
X101299395Y-61693736D01*
X101227987Y-61786816D01*
X101154745Y-61886177D01*
X101083635Y-61986572D01*
X101018625Y-62082754D01*
X100963684Y-62169477D01*
X100933369Y-62221692D01*
X100840275Y-62399142D01*
X100766613Y-62560308D01*
X100706801Y-62718925D01*
X100655257Y-62888731D01*
X100641759Y-62939335D01*
X100601751Y-63150330D01*
X100585011Y-63377048D01*
X100287227Y-63377048D01*
X100289280Y-63175896D01*
X100329775Y-62875059D01*
X100407391Y-62573672D01*
X100502162Y-62319384D01*
X100540859Y-62235053D01*
X100592929Y-62130137D01*
X100651832Y-62017057D01*
X100711024Y-61908233D01*
X100763964Y-61816085D01*
X100786866Y-61778858D01*
X100830194Y-61712361D01*
X100878344Y-61640667D01*
X100925217Y-61572596D01*
X100964717Y-61516968D01*
X100990746Y-61482602D01*
X100994992Y-61477784D01*
X101019672Y-61449411D01*
X101055195Y-61405380D01*
X101064308Y-61393696D01*
X101115065Y-61331221D01*
X101184867Y-61249538D01*
X101265778Y-61157709D01*
X101349862Y-61064792D01*
X101396462Y-61014502D01*
X101484385Y-60920581D01*
X101558673Y-60990786D01*
G36*
X101558673Y-60990786D02*
G01*
X101676690Y-61110214D01*
X101804411Y-61252944D01*
X101932840Y-61407967D01*
X102052979Y-61564272D01*
X102155832Y-61710852D01*
X102187770Y-61760523D01*
X102209856Y-61795733D01*
X102242519Y-61847597D01*
X102256654Y-61869999D01*
X102312950Y-61967513D01*
X102375826Y-62089980D01*
X102439661Y-62225234D01*
X102498834Y-62361105D01*
X102547723Y-62485424D01*
X102568065Y-62544076D01*
X102647752Y-62833016D01*
X102693671Y-63108832D01*
X102705816Y-63378073D01*
X102684180Y-63647293D01*
X102628755Y-63923043D01*
X102566466Y-64133704D01*
X102529204Y-64235566D01*
X102480555Y-64353679D01*
X102425109Y-64478203D01*
X102367453Y-64599302D01*
X102312178Y-64707137D01*
X102263872Y-64791871D01*
X102248077Y-64816290D01*
X102217893Y-64862754D01*
X102199824Y-64894787D01*
X102197539Y-64901393D01*
X102188018Y-64920041D01*
X102157991Y-64961172D01*
X102105261Y-65027729D01*
X102080014Y-65058829D01*
X102067843Y-65075414D01*
X102064363Y-65092064D01*
X102072584Y-65116186D01*
X102095519Y-65155189D01*
X102136179Y-65216479D01*
X102156078Y-65245933D01*
X102331013Y-65532173D01*
X102473772Y-65824537D01*
X102583171Y-66119475D01*
X102658024Y-66413433D01*
X102697146Y-66702860D01*
X102702878Y-66884684D01*
X102701173Y-66982433D01*
X102698502Y-67069783D01*
X102695234Y-67137140D01*
X102691773Y-67174692D01*
X102654157Y-67353638D01*
X102602328Y-67545294D01*
X102540813Y-67735177D01*
X102474134Y-67908806D01*
X102435381Y-67995307D01*
X102376177Y-68112379D01*
X102307033Y-68238546D01*
X102232948Y-68365578D01*
X102158921Y-68485240D01*
X102089950Y-68589301D01*
X102031035Y-68669528D01*
X102012265Y-68692120D01*
X101987203Y-68722712D01*
X101953044Y-68766474D01*
X101950142Y-68770273D01*
X101875807Y-68864687D01*
X101797072Y-68959364D01*
X101718500Y-69049375D01*
X101644653Y-69129792D01*
X101580091Y-69195683D01*
X101529378Y-69242120D01*
X101497074Y-69264173D01*
X101494022Y-69264860D01*
X101492040Y-69265307D01*
X101464331Y-69250433D01*
X101417169Y-69208872D01*
X101354521Y-69145217D01*
X101280355Y-69064060D01*
X101198641Y-68969995D01*
X101113346Y-68867613D01*
X101028440Y-68761507D01*
X100947889Y-68656269D01*
X100875664Y-68556493D01*
X100860031Y-68533900D01*
X100799146Y-68440049D01*
X100732986Y-68329735D01*
X100665617Y-68210629D01*
X100601108Y-68090404D01*
X100543525Y-67976730D01*
X100496935Y-67877279D01*
X100465406Y-67799723D01*
X100457264Y-67774190D01*
X100441779Y-67726682D01*
X100422835Y-67708310D01*
X100388309Y-67710108D01*
X100374472Y-67712946D01*
X100325078Y-67726133D01*
X100292843Y-67739362D01*
X100292539Y-67739565D01*
X100255224Y-67758571D01*
X100190885Y-67785309D01*
X100109813Y-67815910D01*
X100022298Y-67846503D01*
X99938632Y-67873220D01*
X99931077Y-67875470D01*
X99703405Y-67936653D01*
X99481165Y-67982947D01*
X99252265Y-68016255D01*
X99004612Y-68038480D01*
X98838612Y-68047432D01*
X98537455Y-68060300D01*
X98550375Y-67729842D01*
X98572486Y-67417524D01*
X98613167Y-67114576D01*
X98662479Y-66868631D01*
X98682839Y-66792551D01*
X98711923Y-66696592D01*
X98746235Y-66591044D01*
X98782279Y-66486194D01*
X98816559Y-66392332D01*
X98845577Y-66319745D01*
X98858666Y-66291355D01*
X98882050Y-66239057D01*
X98894767Y-66198312D01*
X98895539Y-66191160D01*
X98878050Y-66169699D01*
X98830896Y-66142467D01*
X98773424Y-66118325D01*
X98704991Y-66090399D01*
X98619865Y-66051824D01*
X98526775Y-66007010D01*
X98434448Y-65960366D01*
X98351615Y-65916305D01*
X98287003Y-65879235D01*
X98249342Y-65853567D01*
X98249231Y-65853470D01*
X98217338Y-65831418D01*
X98202866Y-65826538D01*
X98177764Y-65814957D01*
X98127555Y-65782799D01*
X98057613Y-65733942D01*
X97973311Y-65672262D01*
X97880022Y-65601639D01*
X97783118Y-65525949D01*
X97752539Y-65501545D01*
X97642370Y-65410792D01*
X97542924Y-65324377D01*
X97458208Y-65246150D01*
X97392229Y-65179959D01*
X97348995Y-65129655D01*
X97338565Y-65110311D01*
X97863154Y-65110311D01*
X97872658Y-65119082D01*
X97897418Y-65137963D01*
X97942490Y-65175102D01*
X97998801Y-65223002D01*
X98007613Y-65230615D01*
X98213679Y-65394392D01*
X98443991Y-65551931D01*
X98683872Y-65693499D01*
X98786481Y-65747126D01*
X98880861Y-65793256D01*
X98963253Y-65831329D01*
X99027286Y-65858575D01*
X99066589Y-65872221D01*
X99075465Y-65872863D01*
X99095313Y-65851169D01*
X99126158Y-65808212D01*
X99142435Y-65783239D01*
X99229418Y-65664770D01*
X99343551Y-65538061D01*
X99476302Y-65410812D01*
X99619144Y-65290722D01*
X99763545Y-65185489D01*
X99889502Y-65108921D01*
X100089004Y-65008016D01*
X100285217Y-64921530D01*
X100468313Y-64853573D01*
X100580840Y-64819902D01*
X100650758Y-64802241D01*
X100693829Y-64795073D01*
X100720858Y-64798431D01*
X100742648Y-64812345D01*
X100751802Y-64820406D01*
X100780904Y-64852911D01*
X100790770Y-64873984D01*
X100801862Y-64900873D01*
X100828643Y-64940440D01*
X100829580Y-64941637D01*
X100853853Y-64979687D01*
X100859817Y-65004711D01*
X100859418Y-65005496D01*
X100837264Y-65017820D01*
X100788199Y-65035765D01*
X100727800Y-65054020D01*
X100484011Y-65134643D01*
X100243171Y-65238782D01*
X100019733Y-65359851D01*
X99928548Y-65418213D01*
X99872474Y-65460796D01*
X99800217Y-65522124D01*
X99720433Y-65594117D01*
X99641777Y-65668693D01*
X99572907Y-65737770D01*
X99522479Y-65793268D01*
X99510192Y-65808790D01*
X99349352Y-66056373D01*
X99211613Y-66330539D01*
X99099200Y-66624840D01*
X99014335Y-66932828D01*
X98959241Y-67248054D01*
X98939936Y-67462884D01*
X98929004Y-67663153D01*
X99053925Y-67663149D01*
X99187522Y-67656044D01*
X99347428Y-67636089D01*
X99523820Y-67605318D01*
X99706875Y-67565765D01*
X99886771Y-67519462D01*
X100053684Y-67468442D01*
X100136407Y-67439102D01*
X100224142Y-67406006D01*
X100281183Y-67381301D01*
X100312939Y-67358430D01*
X100324821Y-67330832D01*
X100322239Y-67291950D01*
X100310602Y-67235225D01*
X100309375Y-67229399D01*
X100287175Y-67064907D01*
X100282369Y-66875428D01*
X100294115Y-66670534D01*
X100321567Y-66459799D01*
X100363883Y-66252794D01*
X100409805Y-66090307D01*
X100449255Y-65983383D01*
X100504322Y-65854113D01*
X100569778Y-65713205D01*
X100640394Y-65571366D01*
X100710943Y-65439303D01*
X100776195Y-65327723D01*
X100800973Y-65289230D01*
X100856008Y-65207310D01*
X100894801Y-65153986D01*
X100923379Y-65125743D01*
X100947766Y-65119065D01*
X100973991Y-65130437D01*
X101008078Y-65156344D01*
X101016824Y-65163321D01*
X101066849Y-65201912D01*
X101107127Y-65230954D01*
X101119633Y-65238924D01*
X101127630Y-65255026D01*
X101116220Y-65287902D01*
X101083095Y-65342848D01*
X101058662Y-65378822D01*
X101008880Y-65456398D01*
X100949299Y-65558156D01*
X100886157Y-65672644D01*
X100825696Y-65788411D01*
X100774155Y-65894006D01*
X100755687Y-65934806D01*
X100720225Y-66028853D01*
X100683371Y-66148588D01*
X100648484Y-66280914D01*
X100618925Y-66412733D01*
X100598055Y-66530948D01*
X100593308Y-66567720D01*
X100581343Y-66797117D01*
X100598588Y-67025376D01*
X100646016Y-67263896D01*
X100655909Y-67301692D01*
X100683760Y-67396216D01*
X100718640Y-67501528D01*
X100757180Y-67608735D01*
X100796010Y-67708944D01*
X100831757Y-67793262D01*
X100861053Y-67852794D01*
X100870651Y-67868307D01*
X100887114Y-67895339D01*
X100915036Y-67944350D01*
X100937837Y-67985538D01*
X100990021Y-68073079D01*
X101060262Y-68180101D01*
X101141227Y-68296378D01*
X101225582Y-68411687D01*
X101305997Y-68515802D01*
X101375137Y-68598499D01*
X101386230Y-68610769D01*
X101494022Y-68727999D01*
X101592905Y-68620538D01*
X101649544Y-68554539D01*
X101720153Y-68465743D01*
X101797352Y-68364083D01*
X101873764Y-68259494D01*
X101942010Y-68161908D01*
X101994714Y-68081258D01*
X102000486Y-68071794D01*
X102052315Y-67979121D01*
X102110843Y-67863789D01*
X102170803Y-67737248D01*
X102226928Y-67610949D01*
X102273952Y-67496340D01*
X102305261Y-67409153D01*
X102342918Y-67269781D01*
X102374763Y-67112131D01*
X102397858Y-66953515D01*
X102409263Y-66811242D01*
X102409758Y-66793692D01*
X102407746Y-66730607D01*
X102400692Y-66643476D01*
X102389887Y-66546810D01*
X102383652Y-66500615D01*
X102341455Y-66282611D01*
X102276721Y-66066536D01*
X102186767Y-65845297D01*
X102068909Y-65611805D01*
X102003649Y-65496730D01*
X101919191Y-65364392D01*
X101837891Y-65265327D01*
X101835231Y-65263100D01*
X101753705Y-65194826D01*
X101660589Y-65148182D01*
X101552500Y-65120691D01*
X101513693Y-65115161D01*
X101387725Y-65093343D01*
X101289435Y-65060192D01*
X101208185Y-65012067D01*
X101204672Y-65009425D01*
X101158596Y-64967695D01*
X101109610Y-64912787D01*
X101063634Y-64852998D01*
X101026591Y-64796622D01*
X101004398Y-64751955D01*
X101002978Y-64727292D01*
X101003172Y-64727089D01*
X101030230Y-64719243D01*
X101084791Y-64715219D01*
X101155397Y-64715821D01*
X101160266Y-64716040D01*
X101231071Y-64718512D01*
X101268476Y-64716819D01*
X101278030Y-64709934D01*
X101265284Y-64696832D01*
X101265060Y-64696665D01*
X101227427Y-64671170D01*
X101170203Y-64635402D01*
X101102011Y-64594392D01*
X101031476Y-64553171D01*
X100967221Y-64516769D01*
X100917869Y-64490217D01*
X100892044Y-64478546D01*
X100890891Y-64478384D01*
X100861617Y-64461395D01*
X100824604Y-64416319D01*
X100784912Y-64351988D01*
X100747600Y-64277237D01*
X100717727Y-64200899D01*
X100704203Y-64152405D01*
X100693772Y-64121648D01*
X100672897Y-64098497D01*
X100633189Y-64077283D01*
X100566259Y-64052339D01*
X100545754Y-64045350D01*
X100470383Y-64020635D01*
X100425029Y-64011793D01*
X100405411Y-64023709D01*
X100407249Y-64061272D01*
X100426264Y-64129369D01*
X100438288Y-64168074D01*
X100456897Y-64231348D01*
X100468513Y-64277788D01*
X100470643Y-64297023D01*
X100450459Y-64294721D01*
X100406362Y-64282026D01*
X100382349Y-64273896D01*
X100288601Y-64247199D01*
X100170301Y-64222713D01*
X100041975Y-64202738D01*
X99918148Y-64189574D01*
X99823616Y-64185448D01*
X99663009Y-64194612D01*
X99483200Y-64220359D01*
X99299050Y-64260124D01*
X99159308Y-64300076D01*
X98935109Y-64383397D01*
X98712816Y-64489116D01*
X98488045Y-64619913D01*
X98256412Y-64778469D01*
X98013535Y-64967464D01*
X97869933Y-65088500D01*
X97863154Y-65110311D01*
X97338565Y-65110311D01*
X97332513Y-65099086D01*
X97332462Y-65098011D01*
X97346259Y-65073379D01*
X97383468Y-65030202D01*
X97437819Y-64975351D01*
X97481457Y-64934809D01*
X97547746Y-64874925D01*
X97605808Y-64822023D01*
X97647699Y-64783365D01*
X97662187Y-64769615D01*
X97691096Y-64744783D01*
X97742836Y-64703522D01*
X97808806Y-64652617D01*
X97850231Y-64621321D01*
X98118961Y-64431696D01*
X98378003Y-64274045D01*
X98634256Y-64144957D01*
X98894620Y-64041025D01*
X99165995Y-63958840D01*
X99217555Y-63945846D01*
X99337167Y-63923911D01*
X99481645Y-63908869D01*
X99640364Y-63900798D01*
X99802697Y-63899777D01*
X99958018Y-63905883D01*
X100095701Y-63919195D01*
X100200656Y-63938630D01*
X100269797Y-63955179D01*
X100322557Y-63965719D01*
X100349128Y-63968336D01*
X100350359Y-63967831D01*
X100349979Y-63946842D01*
X100343288Y-63895951D01*
X100331512Y-63823598D01*
X100320996Y-63765230D01*
X100286242Y-63473511D01*
X100287227Y-63377048D01*
X100585011Y-63377048D01*
X100591640Y-63605271D01*
X100621737Y-63820777D01*
X100635166Y-63880059D01*
X100683308Y-64073042D01*
X100868924Y-64165197D01*
X101074511Y-64271760D01*
X101245530Y-64370747D01*
X101385174Y-64464646D01*
X101496634Y-64555943D01*
X101583102Y-64647126D01*
X101647769Y-64740682D01*
X101674822Y-64793226D01*
X101725049Y-64872476D01*
X101786079Y-64917754D01*
X101835231Y-64927769D01*
X101860029Y-64911268D01*
X101898648Y-64865577D01*
X101947349Y-64796416D01*
X102002392Y-64709503D01*
X102060035Y-64610556D01*
X102116539Y-64505294D01*
X102133537Y-64471677D01*
X102229189Y-64263619D01*
X102300818Y-64069109D01*
X102352802Y-63874852D01*
X102382306Y-63716384D01*
X102399989Y-63586393D01*
X102408175Y-63474383D01*
X102406899Y-63365155D01*
X102396192Y-63243511D01*
X102383562Y-63146081D01*
X102333944Y-62903373D01*
X102253054Y-62650533D01*
X102143964Y-62396079D01*
X102046982Y-62211922D01*
X101989634Y-62117023D01*
X101922045Y-62014037D01*
X101848112Y-61907996D01*
X101771730Y-61803931D01*
X101696796Y-61706874D01*
X101627205Y-61621857D01*
X101566853Y-61553909D01*
X101519636Y-61508063D01*
X101489451Y-61489350D01*
X101487319Y-61489164D01*
X101462930Y-61504651D01*
X101420834Y-61547407D01*
X101365000Y-61612184D01*
X101299395Y-61693736D01*
X101227987Y-61786816D01*
X101154745Y-61886177D01*
X101083635Y-61986572D01*
X101018625Y-62082754D01*
X100963684Y-62169477D01*
X100933369Y-62221692D01*
X100840275Y-62399142D01*
X100766613Y-62560308D01*
X100706801Y-62718925D01*
X100655257Y-62888731D01*
X100641759Y-62939335D01*
X100601751Y-63150330D01*
X100585011Y-63377048D01*
X100287227Y-63377048D01*
X100289280Y-63175896D01*
X100329775Y-62875059D01*
X100407391Y-62573672D01*
X100502162Y-62319384D01*
X100540859Y-62235053D01*
X100592929Y-62130137D01*
X100651832Y-62017057D01*
X100711024Y-61908233D01*
X100763964Y-61816085D01*
X100786866Y-61778858D01*
X100830194Y-61712361D01*
X100878344Y-61640667D01*
X100925217Y-61572596D01*
X100964717Y-61516968D01*
X100990746Y-61482602D01*
X100994992Y-61477784D01*
X101019672Y-61449411D01*
X101055195Y-61405380D01*
X101064308Y-61393696D01*
X101115065Y-61331221D01*
X101184867Y-61249538D01*
X101265778Y-61157709D01*
X101349862Y-61064792D01*
X101396462Y-61014502D01*
X101484385Y-60920581D01*
X101558673Y-60990786D01*
G37*
D13*
X102141000Y-73144380D02*
X102141000Y-70858380D01*
X103919000Y-73144380D02*
X102141000Y-73144380D01*
X102141000Y-70858380D02*
X103919000Y-70858380D01*
X103919000Y-70858380D02*
X103919000Y-73144380D01*
X99541000Y-73144380D02*
X99541000Y-70858380D01*
X101319000Y-73144380D02*
X99541000Y-73144380D01*
X99541000Y-70858380D02*
X101319000Y-70858380D01*
X101319000Y-70858380D02*
X101319000Y-73144380D01*
X97028000Y-73144380D02*
X97028000Y-70858380D01*
X98806000Y-73144380D02*
X97028000Y-73144380D01*
X97028000Y-70858380D02*
X98806000Y-70858380D01*
X98806000Y-70858380D02*
X98806000Y-73144380D01*
X83200000Y-70700000D02*
X83700000Y-70700000D01*
X86700000Y-70700000D02*
X86300000Y-70700000D01*
X86700000Y-70700000D02*
X86700000Y-64700000D01*
X83200000Y-64700000D02*
X83200000Y-70700000D01*
X83200000Y-64700000D02*
X83700000Y-64700000D01*
X86700000Y-64700000D02*
X86300000Y-64700000D01*
X113900000Y-57300000D02*
X113900000Y-58700000D01*
X113900000Y-58000000D02*
X114800000Y-57300000D01*
X114800000Y-57300000D02*
X114800000Y-58700000D01*
X114800000Y-58700000D02*
X113900000Y-58000000D01*
X133800000Y-55000000D02*
X133800000Y-56400000D01*
X133800000Y-55700000D02*
X134700000Y-55000000D01*
X134700000Y-55000000D02*
X134700000Y-56400000D01*
X134700000Y-56400000D02*
X133800000Y-55700000D01*
X152000000Y-53500000D02*
X152000000Y-54900000D01*
X152000000Y-54200000D02*
X152900000Y-53500000D01*
X152900000Y-53500000D02*
X152900000Y-54900000D01*
X152900000Y-54900000D02*
X152000000Y-54200000D01*
X171000000Y-54900000D02*
X171000000Y-56300000D01*
X171000000Y-55600000D02*
X171900000Y-54900000D01*
X171900000Y-54900000D02*
X171900000Y-56300000D01*
X171900000Y-56300000D02*
X171000000Y-55600000D01*
X190100000Y-59700000D02*
X190100000Y-61100000D01*
X190100000Y-60400000D02*
X191000000Y-59700000D01*
X191000000Y-59700000D02*
X191000000Y-61100000D01*
X191000000Y-61100000D02*
X190100000Y-60400000D01*
X221300000Y-61100000D02*
X221300000Y-62500000D01*
X221300000Y-61800000D02*
X222200000Y-61100000D01*
X222200000Y-61100000D02*
X222200000Y-62500000D01*
X222200000Y-62500000D02*
X221300000Y-61800000D01*
X113900000Y-60400000D02*
X113900000Y-61800000D01*
X113900000Y-61100000D02*
X114800000Y-60400000D01*
X114800000Y-60400000D02*
X114800000Y-61800000D01*
X114800000Y-61800000D02*
X113900000Y-61100000D01*
X134800000Y-58000000D02*
X134800000Y-59400000D01*
X134800000Y-58700000D02*
X135700000Y-58000000D01*
X135700000Y-58000000D02*
X135700000Y-59400000D01*
X135700000Y-59400000D02*
X134800000Y-58700000D01*
X152100000Y-56700000D02*
X152100000Y-58100000D01*
X152100000Y-57400000D02*
X153000000Y-56700000D01*
X153000000Y-56700000D02*
X153000000Y-58100000D01*
X153000000Y-58100000D02*
X152100000Y-57400000D01*
X171000000Y-58000000D02*
X171000000Y-59400000D01*
X171000000Y-58700000D02*
X171900000Y-58000000D01*
X171900000Y-58000000D02*
X171900000Y-59400000D01*
X171900000Y-59400000D02*
X171000000Y-58700000D01*
X190100000Y-62600000D02*
X190100000Y-64000000D01*
X190100000Y-63300000D02*
X191000000Y-62600000D01*
X191000000Y-62600000D02*
X191000000Y-64000000D01*
X191000000Y-64000000D02*
X190100000Y-63300000D01*
X221300000Y-64200000D02*
X221300000Y-65600000D01*
X221300000Y-64900000D02*
X222200000Y-64200000D01*
X222200000Y-64200000D02*
X222200000Y-65600000D01*
X222200000Y-65600000D02*
X221300000Y-64900000D01*
X113900000Y-95300000D02*
X113900000Y-96700000D01*
X113900000Y-96000000D02*
X114800000Y-95300000D01*
X114800000Y-95300000D02*
X114800000Y-96700000D01*
X114800000Y-96700000D02*
X113900000Y-96000000D01*
X133800000Y-93100000D02*
X133800000Y-94500000D01*
X133800000Y-93800000D02*
X134700000Y-93100000D01*
X134700000Y-93100000D02*
X134700000Y-94500000D01*
X134700000Y-94500000D02*
X133800000Y-93800000D01*
X152000000Y-91600000D02*
X152000000Y-93000000D01*
X152000000Y-92300000D02*
X152900000Y-91600000D01*
X152900000Y-91600000D02*
X152900000Y-93000000D01*
X152900000Y-93000000D02*
X152000000Y-92300000D01*
X171000000Y-92900000D02*
X171000000Y-94300000D01*
X171000000Y-93600000D02*
X171900000Y-92900000D01*
X171900000Y-92900000D02*
X171900000Y-94300000D01*
X171900000Y-94300000D02*
X171000000Y-93600000D01*
X190100000Y-97600000D02*
X190100000Y-99000000D01*
X190100000Y-98300000D02*
X191000000Y-97600000D01*
X191000000Y-97600000D02*
X191000000Y-99000000D01*
X191000000Y-99000000D02*
X190100000Y-98300000D01*
X221300000Y-99200000D02*
X221300000Y-100600000D01*
X221300000Y-99900000D02*
X222200000Y-99200000D01*
X222200000Y-99200000D02*
X222200000Y-100600000D01*
X222200000Y-100600000D02*
X221300000Y-99900000D01*
X113900000Y-98400000D02*
X113900000Y-99800000D01*
X113900000Y-99100000D02*
X114800000Y-98400000D01*
X114800000Y-98400000D02*
X114800000Y-99800000D01*
X114800000Y-99800000D02*
X113900000Y-99100000D01*
X134800000Y-96100000D02*
X134800000Y-97500000D01*
X134800000Y-96800000D02*
X135700000Y-96100000D01*
X135700000Y-96100000D02*
X135700000Y-97500000D01*
X135700000Y-97500000D02*
X134800000Y-96800000D01*
X152000000Y-94700000D02*
X152000000Y-96100000D01*
X152000000Y-95400000D02*
X152900000Y-94700000D01*
X152900000Y-94700000D02*
X152900000Y-96100000D01*
X152900000Y-96100000D02*
X152000000Y-95400000D01*
X171000000Y-96100000D02*
X171000000Y-97500000D01*
X171000000Y-96800000D02*
X171900000Y-96100000D01*
X171900000Y-96100000D02*
X171900000Y-97500000D01*
X171900000Y-97500000D02*
X171000000Y-96800000D01*
X190100000Y-100800000D02*
X190100000Y-102200000D01*
X190100000Y-101500000D02*
X191000000Y-100800000D01*
X191000000Y-100800000D02*
X191000000Y-102200000D01*
X191000000Y-102200000D02*
X190100000Y-101500000D01*
X221400000Y-102400000D02*
X221400000Y-103800000D01*
X221400000Y-103100000D02*
X222300000Y-102400000D01*
X222300000Y-102400000D02*
X222300000Y-103800000D01*
X222300000Y-103800000D02*
X221400000Y-103100000D01*
X108011513Y-109722717D02*
X106799077Y-110422717D01*
X107405295Y-110072717D02*
X108461513Y-110502140D01*
X108461513Y-110502140D02*
X107249077Y-111202140D01*
X107249077Y-111202140D02*
X107405295Y-110072717D01*
X117497513Y-126180960D02*
X116285077Y-126880960D01*
X116891295Y-126530960D02*
X117947513Y-126960383D01*
X117947513Y-126960383D02*
X116735077Y-127660383D01*
X116735077Y-127660383D02*
X116891295Y-126530960D01*
X123400000Y-117300000D02*
X123400000Y-118700000D01*
X123400000Y-118000000D02*
X124300000Y-117300000D01*
X124300000Y-117300000D02*
X124300000Y-118700000D01*
X124300000Y-118700000D02*
X123400000Y-118000000D01*
X142400000Y-115100000D02*
X142400000Y-116500000D01*
X142400000Y-115800000D02*
X143300000Y-115100000D01*
X143300000Y-115100000D02*
X143300000Y-116500000D01*
X143300000Y-116500000D02*
X142400000Y-115800000D01*
X161500000Y-115100000D02*
X161500000Y-116500000D01*
X161500000Y-115800000D02*
X162400000Y-115100000D01*
X162400000Y-115100000D02*
X162400000Y-116500000D01*
X162400000Y-116500000D02*
X161500000Y-115800000D01*
X115700000Y-43196000D02*
X124325000Y-43196000D01*
X115700000Y-47104000D02*
X115700000Y-43196000D01*
X115700000Y-47150000D02*
X120750000Y-47196000D01*
X118200001Y-53600000D02*
X118200001Y-58200000D01*
X118225000Y-53575000D02*
X120775000Y-53575000D01*
X118225000Y-58225000D02*
X122775000Y-58225000D01*
X122780000Y-57500000D02*
X122780000Y-58200000D01*
X123075000Y-51375000D02*
X127775000Y-51375000D01*
X124000000Y-56025000D02*
X127775000Y-56025000D01*
X126600000Y-45150000D02*
X126600000Y-49095000D01*
X126600000Y-49104000D02*
X122990000Y-49104000D01*
X127775000Y-51400000D02*
X127800000Y-55999999D01*
X122984999Y-49079999D02*
G75*
G03*
X120725000Y-47200001I-2069999J-190001D01*
G01*
X124000000Y-56029999D02*
G75*
G03*
X122779999Y-57449999I100000J-1320001D01*
G01*
X120700000Y-53569999D02*
G75*
G03*
X123069999Y-51400000I100000J2269999D01*
G01*
X126588999Y-45080000D02*
G75*
G03*
X124325000Y-43196001I-2073999J-190000D01*
G01*
X134700000Y-40796000D02*
X143325000Y-40796000D01*
X134700000Y-44704000D02*
X134700000Y-40796000D01*
X134700000Y-44750000D02*
X139750000Y-44796000D01*
X137200001Y-51200000D02*
X137200001Y-55800000D01*
X137225000Y-51175000D02*
X139775000Y-51175000D01*
X137225000Y-55825000D02*
X141775000Y-55825000D01*
X141780000Y-55100000D02*
X141780000Y-55800000D01*
X142075000Y-48975000D02*
X146775000Y-48975000D01*
X143000000Y-53625000D02*
X146775000Y-53625000D01*
X145600000Y-42750000D02*
X145600000Y-46695000D01*
X145600000Y-46704000D02*
X141990000Y-46704000D01*
X146775000Y-49000000D02*
X146800000Y-53599999D01*
X141984999Y-46679999D02*
G75*
G03*
X139725000Y-44800001I-2069999J-190001D01*
G01*
X143000000Y-53629999D02*
G75*
G03*
X141779999Y-55049999I100000J-1320001D01*
G01*
X139700000Y-51169999D02*
G75*
G03*
X142069999Y-49000000I100000J2269999D01*
G01*
X145588999Y-42680000D02*
G75*
G03*
X143325000Y-40796001I-2073999J-190000D01*
G01*
X153800000Y-39406000D02*
X162425000Y-39406000D01*
X153800000Y-43314000D02*
X153800000Y-39406000D01*
X153800000Y-43360000D02*
X158850000Y-43406000D01*
X156300001Y-49810000D02*
X156300001Y-54410000D01*
X156325000Y-49785000D02*
X158875000Y-49785000D01*
X156325000Y-54435000D02*
X160875000Y-54435000D01*
X160880000Y-53710000D02*
X160880000Y-54410000D01*
X161175000Y-47585000D02*
X165875000Y-47585000D01*
X162100000Y-52235000D02*
X165875000Y-52235000D01*
X164700000Y-41360000D02*
X164700000Y-45305000D01*
X164700000Y-45314000D02*
X161090000Y-45314000D01*
X165875000Y-47610000D02*
X165900000Y-52209999D01*
X161084999Y-45289999D02*
G75*
G03*
X158825000Y-43410001I-2069999J-190001D01*
G01*
X162100000Y-52239999D02*
G75*
G03*
X160879999Y-53659999I100000J-1320001D01*
G01*
X158800000Y-49779999D02*
G75*
G03*
X161169999Y-47610000I100000J2269999D01*
G01*
X164688999Y-41290000D02*
G75*
G03*
X162425000Y-39406001I-2073999J-190000D01*
G01*
X172800000Y-40796000D02*
X181425000Y-40796000D01*
X172800000Y-44704000D02*
X172800000Y-40796000D01*
X172800000Y-44750000D02*
X177850000Y-44796000D01*
X175300001Y-51200000D02*
X175300001Y-55800000D01*
X175325000Y-51175000D02*
X177875000Y-51175000D01*
X175325000Y-55825000D02*
X179875000Y-55825000D01*
X179880000Y-55100000D02*
X179880000Y-55800000D01*
X180175000Y-48975000D02*
X184875000Y-48975000D01*
X181100000Y-53625000D02*
X184875000Y-53625000D01*
X183700000Y-42750000D02*
X183700000Y-46695000D01*
X183700000Y-46704000D02*
X180090000Y-46704000D01*
X184875000Y-49000000D02*
X184900000Y-53599999D01*
X180084999Y-46679999D02*
G75*
G03*
X177825000Y-44800001I-2069999J-190001D01*
G01*
X181100000Y-53629999D02*
G75*
G03*
X179879999Y-55049999I100000J-1320001D01*
G01*
X177800000Y-51169999D02*
G75*
G03*
X180169999Y-49000000I100000J2269999D01*
G01*
X183688999Y-42680000D02*
G75*
G03*
X181425000Y-40796001I-2073999J-190000D01*
G01*
X191900000Y-45596000D02*
X200525000Y-45596000D01*
X191900000Y-49504000D02*
X191900000Y-45596000D01*
X191900000Y-49550000D02*
X196950000Y-49596000D01*
X194400001Y-56000000D02*
X194400001Y-60600000D01*
X194425000Y-55975000D02*
X196975000Y-55975000D01*
X194425000Y-60625000D02*
X198975000Y-60625000D01*
X198980000Y-59900000D02*
X198980000Y-60600000D01*
X199275000Y-53775000D02*
X203975000Y-53775000D01*
X200200000Y-58425000D02*
X203975000Y-58425000D01*
X202800000Y-47550000D02*
X202800000Y-51495000D01*
X202800000Y-51504000D02*
X199190000Y-51504000D01*
X203975000Y-53800000D02*
X204000000Y-58399999D01*
X199184999Y-51479999D02*
G75*
G03*
X196925000Y-49600001I-2069999J-190001D01*
G01*
X200200000Y-58429999D02*
G75*
G03*
X198979999Y-59849999I100000J-1320001D01*
G01*
X196900000Y-55969999D02*
G75*
G03*
X199269999Y-53800000I100000J2269999D01*
G01*
X202788999Y-47480000D02*
G75*
G03*
X200525000Y-45596001I-2073999J-190000D01*
G01*
X210900000Y-47096000D02*
X219525000Y-47096000D01*
X210900000Y-51004000D02*
X210900000Y-47096000D01*
X210900000Y-51050000D02*
X215950000Y-51096000D01*
X213400001Y-57500000D02*
X213400001Y-62100000D01*
X213425000Y-57475000D02*
X215975000Y-57475000D01*
X213425000Y-62125000D02*
X217975000Y-62125000D01*
X217980000Y-61400000D02*
X217980000Y-62100000D01*
X218275000Y-55275000D02*
X222975000Y-55275000D01*
X219200000Y-59925000D02*
X222975000Y-59925000D01*
X221800000Y-49050000D02*
X221800000Y-52995000D01*
X221800000Y-53004000D02*
X218190000Y-53004000D01*
X222975000Y-55300000D02*
X223000000Y-59899999D01*
X218184999Y-52979999D02*
G75*
G03*
X215925000Y-51100001I-2069999J-190001D01*
G01*
X219200000Y-59929999D02*
G75*
G03*
X217979999Y-61349999I100000J-1320001D01*
G01*
X215900000Y-57469999D02*
G75*
G03*
X218269999Y-55300000I100000J2269999D01*
G01*
X221788999Y-48980000D02*
G75*
G03*
X219525000Y-47096001I-2073999J-190000D01*
G01*
X115700000Y-62296000D02*
X124325000Y-62296000D01*
X115700000Y-66204000D02*
X115700000Y-62296000D01*
X115700000Y-66250000D02*
X120750000Y-66296000D01*
X118200001Y-72700000D02*
X118200001Y-77300000D01*
X118225000Y-72675000D02*
X120775000Y-72675000D01*
X118225000Y-77325000D02*
X122775000Y-77325000D01*
X122780000Y-76600000D02*
X122780000Y-77300000D01*
X123075000Y-70475000D02*
X127775000Y-70475000D01*
X124000000Y-75125000D02*
X127775000Y-75125000D01*
X126600000Y-64250000D02*
X126600000Y-68195000D01*
X126600000Y-68204000D02*
X122990000Y-68204000D01*
X127775000Y-70500000D02*
X127800000Y-75099999D01*
X122984999Y-68179999D02*
G75*
G03*
X120725000Y-66300001I-2069999J-190001D01*
G01*
X124000000Y-75129999D02*
G75*
G03*
X122779999Y-76549999I100000J-1320001D01*
G01*
X120700000Y-72669999D02*
G75*
G03*
X123069999Y-70500000I100000J2269999D01*
G01*
X126588999Y-64180000D02*
G75*
G03*
X124325000Y-62296001I-2073999J-190000D01*
G01*
X134700000Y-59896000D02*
X143325000Y-59896000D01*
X134700000Y-63804000D02*
X134700000Y-59896000D01*
X134700000Y-63850000D02*
X139750000Y-63896000D01*
X137200001Y-70300000D02*
X137200001Y-74900000D01*
X137225000Y-70275000D02*
X139775000Y-70275000D01*
X137225000Y-74925000D02*
X141775000Y-74925000D01*
X141780000Y-74200000D02*
X141780000Y-74900000D01*
X142075000Y-68075000D02*
X146775000Y-68075000D01*
X143000000Y-72725000D02*
X146775000Y-72725000D01*
X145600000Y-61850000D02*
X145600000Y-65795000D01*
X145600000Y-65804000D02*
X141990000Y-65804000D01*
X146775000Y-68100000D02*
X146800000Y-72699999D01*
X141984999Y-65779999D02*
G75*
G03*
X139725000Y-63900001I-2069999J-190001D01*
G01*
X143000000Y-72729999D02*
G75*
G03*
X141779999Y-74149999I100000J-1320001D01*
G01*
X139700000Y-70269999D02*
G75*
G03*
X142069999Y-68100000I100000J2269999D01*
G01*
X145588999Y-61780000D02*
G75*
G03*
X143325000Y-59896001I-2073999J-190000D01*
G01*
X153800000Y-58496000D02*
X162425000Y-58496000D01*
X153800000Y-62404000D02*
X153800000Y-58496000D01*
X153800000Y-62450000D02*
X158850000Y-62496000D01*
X156300001Y-68900000D02*
X156300001Y-73500000D01*
X156325000Y-68875000D02*
X158875000Y-68875000D01*
X156325000Y-73525000D02*
X160875000Y-73525000D01*
X160880000Y-72800000D02*
X160880000Y-73500000D01*
X161175000Y-66675000D02*
X165875000Y-66675000D01*
X162100000Y-71325000D02*
X165875000Y-71325000D01*
X164700000Y-60450000D02*
X164700000Y-64395000D01*
X164700000Y-64404000D02*
X161090000Y-64404000D01*
X165875000Y-66700000D02*
X165900000Y-71299999D01*
X161084999Y-64379999D02*
G75*
G03*
X158825000Y-62500001I-2069999J-190001D01*
G01*
X162100000Y-71329999D02*
G75*
G03*
X160879999Y-72749999I100000J-1320001D01*
G01*
X158800000Y-68869999D02*
G75*
G03*
X161169999Y-66700000I100000J2269999D01*
G01*
X164688999Y-60380000D02*
G75*
G03*
X162425000Y-58496001I-2073999J-190000D01*
G01*
X172800000Y-59796000D02*
X181425000Y-59796000D01*
X172800000Y-63704000D02*
X172800000Y-59796000D01*
X172800000Y-63750000D02*
X177850000Y-63796000D01*
X175300001Y-70200000D02*
X175300001Y-74800000D01*
X175325000Y-70175000D02*
X177875000Y-70175000D01*
X175325000Y-74825000D02*
X179875000Y-74825000D01*
X179880000Y-74100000D02*
X179880000Y-74800000D01*
X180175000Y-67975000D02*
X184875000Y-67975000D01*
X181100000Y-72625000D02*
X184875000Y-72625000D01*
X183700000Y-61750000D02*
X183700000Y-65695000D01*
X183700000Y-65704000D02*
X180090000Y-65704000D01*
X184875000Y-68000000D02*
X184900000Y-72599999D01*
X180084999Y-65679999D02*
G75*
G03*
X177825000Y-63800001I-2069999J-190001D01*
G01*
X181100000Y-72629999D02*
G75*
G03*
X179879999Y-74049999I100000J-1320001D01*
G01*
X177800000Y-70169999D02*
G75*
G03*
X180169999Y-68000000I100000J2269999D01*
G01*
X183688999Y-61680000D02*
G75*
G03*
X181425000Y-59796001I-2073999J-190000D01*
G01*
X191900000Y-64496000D02*
X200525000Y-64496000D01*
X191900000Y-68404000D02*
X191900000Y-64496000D01*
X191900000Y-68450000D02*
X196950000Y-68496000D01*
X194400001Y-74900000D02*
X194400001Y-79500000D01*
X194425000Y-74875000D02*
X196975000Y-74875000D01*
X194425000Y-79525000D02*
X198975000Y-79525000D01*
X198980000Y-78800000D02*
X198980000Y-79500000D01*
X199275000Y-72675000D02*
X203975000Y-72675000D01*
X200200000Y-77325000D02*
X203975000Y-77325000D01*
X202800000Y-66450000D02*
X202800000Y-70395000D01*
X202800000Y-70404000D02*
X199190000Y-70404000D01*
X203975000Y-72700000D02*
X204000000Y-77299999D01*
X199184999Y-70379999D02*
G75*
G03*
X196925000Y-68500001I-2069999J-190001D01*
G01*
X200200000Y-77329999D02*
G75*
G03*
X198979999Y-78749999I100000J-1320001D01*
G01*
X196900000Y-74869999D02*
G75*
G03*
X199269999Y-72700000I100000J2269999D01*
G01*
X202788999Y-66380000D02*
G75*
G03*
X200525000Y-64496001I-2073999J-190000D01*
G01*
X210900000Y-65996000D02*
X219525000Y-65996000D01*
X210900000Y-69904000D02*
X210900000Y-65996000D01*
X210900000Y-69950000D02*
X215950000Y-69996000D01*
X213400001Y-76400000D02*
X213400001Y-81000000D01*
X213425000Y-76375000D02*
X215975000Y-76375000D01*
X213425000Y-81025000D02*
X217975000Y-81025000D01*
X217980000Y-80300000D02*
X217980000Y-81000000D01*
X218275000Y-74175000D02*
X222975000Y-74175000D01*
X219200000Y-78825000D02*
X222975000Y-78825000D01*
X221800000Y-67950000D02*
X221800000Y-71895000D01*
X221800000Y-71904000D02*
X218190000Y-71904000D01*
X222975000Y-74200000D02*
X223000000Y-78799999D01*
X218184999Y-71879999D02*
G75*
G03*
X215925000Y-70000001I-2069999J-190001D01*
G01*
X219200000Y-78829999D02*
G75*
G03*
X217979999Y-80249999I100000J-1320001D01*
G01*
X215900000Y-76369999D02*
G75*
G03*
X218269999Y-74200000I100000J2269999D01*
G01*
X221788999Y-67880000D02*
G75*
G03*
X219525000Y-65996001I-2073999J-190000D01*
G01*
X115700000Y-81296000D02*
X124325000Y-81296000D01*
X115700000Y-85204000D02*
X115700000Y-81296000D01*
X115700000Y-85250000D02*
X120750000Y-85296000D01*
X118200001Y-91700000D02*
X118200001Y-96300000D01*
X118225000Y-91675000D02*
X120775000Y-91675000D01*
X118225000Y-96325000D02*
X122775000Y-96325000D01*
X122780000Y-95600000D02*
X122780000Y-96300000D01*
X123075000Y-89475000D02*
X127775000Y-89475000D01*
X124000000Y-94125000D02*
X127775000Y-94125000D01*
X126600000Y-83250000D02*
X126600000Y-87195000D01*
X126600000Y-87204000D02*
X122990000Y-87204000D01*
X127775000Y-89500000D02*
X127800000Y-94099999D01*
X122984999Y-87179999D02*
G75*
G03*
X120725000Y-85300001I-2069999J-190001D01*
G01*
X124000000Y-94129999D02*
G75*
G03*
X122779999Y-95549999I100000J-1320001D01*
G01*
X120700000Y-91669999D02*
G75*
G03*
X123069999Y-89500000I100000J2269999D01*
G01*
X126588999Y-83180000D02*
G75*
G03*
X124325000Y-81296001I-2073999J-190000D01*
G01*
X134700000Y-78896000D02*
X143325000Y-78896000D01*
X134700000Y-82804000D02*
X134700000Y-78896000D01*
X134700000Y-82850000D02*
X139750000Y-82896000D01*
X137200001Y-89300000D02*
X137200001Y-93900000D01*
X137225000Y-89275000D02*
X139775000Y-89275000D01*
X137225000Y-93925000D02*
X141775000Y-93925000D01*
X141780000Y-93200000D02*
X141780000Y-93900000D01*
X142075000Y-87075000D02*
X146775000Y-87075000D01*
X143000000Y-91725000D02*
X146775000Y-91725000D01*
X145600000Y-80850000D02*
X145600000Y-84795000D01*
X145600000Y-84804000D02*
X141990000Y-84804000D01*
X146775000Y-87100000D02*
X146800000Y-91699999D01*
X141984999Y-84779999D02*
G75*
G03*
X139725000Y-82900001I-2069999J-190001D01*
G01*
X143000000Y-91729999D02*
G75*
G03*
X141779999Y-93149999I100000J-1320001D01*
G01*
X139700000Y-89269999D02*
G75*
G03*
X142069999Y-87100000I100000J2269999D01*
G01*
X145588999Y-80780000D02*
G75*
G03*
X143325000Y-78896001I-2073999J-190000D01*
G01*
X153800000Y-77596000D02*
X162425000Y-77596000D01*
X153800000Y-81504000D02*
X153800000Y-77596000D01*
X153800000Y-81550000D02*
X158850000Y-81596000D01*
X156300001Y-88000000D02*
X156300001Y-92600000D01*
X156325000Y-87975000D02*
X158875000Y-87975000D01*
X156325000Y-92625000D02*
X160875000Y-92625000D01*
X160880000Y-91900000D02*
X160880000Y-92600000D01*
X161175000Y-85775000D02*
X165875000Y-85775000D01*
X162100000Y-90425000D02*
X165875000Y-90425000D01*
X164700000Y-79550000D02*
X164700000Y-83495000D01*
X164700000Y-83504000D02*
X161090000Y-83504000D01*
X165875000Y-85800000D02*
X165900000Y-90399999D01*
X161084999Y-83479999D02*
G75*
G03*
X158825000Y-81600001I-2069999J-190001D01*
G01*
X162100000Y-90429999D02*
G75*
G03*
X160879999Y-91849999I100000J-1320001D01*
G01*
X158800000Y-87969999D02*
G75*
G03*
X161169999Y-85800000I100000J2269999D01*
G01*
X164688999Y-79480000D02*
G75*
G03*
X162425000Y-77596001I-2073999J-190000D01*
G01*
X172800000Y-78896000D02*
X181425000Y-78896000D01*
X172800000Y-82804000D02*
X172800000Y-78896000D01*
X172800000Y-82850000D02*
X177850000Y-82896000D01*
X175300001Y-89300000D02*
X175300001Y-93900000D01*
X175325000Y-89275000D02*
X177875000Y-89275000D01*
X175325000Y-93925000D02*
X179875000Y-93925000D01*
X179880000Y-93200000D02*
X179880000Y-93900000D01*
X180175000Y-87075000D02*
X184875000Y-87075000D01*
X181100000Y-91725000D02*
X184875000Y-91725000D01*
X183700000Y-80850000D02*
X183700000Y-84795000D01*
X183700000Y-84804000D02*
X180090000Y-84804000D01*
X184875000Y-87100000D02*
X184900000Y-91699999D01*
X180084999Y-84779999D02*
G75*
G03*
X177825000Y-82900001I-2069999J-190001D01*
G01*
X181100000Y-91729999D02*
G75*
G03*
X179879999Y-93149999I100000J-1320001D01*
G01*
X177800000Y-89269999D02*
G75*
G03*
X180169999Y-87100000I100000J2269999D01*
G01*
X183688999Y-80780000D02*
G75*
G03*
X181425000Y-78896001I-2073999J-190000D01*
G01*
X191900000Y-83696000D02*
X200525000Y-83696000D01*
X191900000Y-87604000D02*
X191900000Y-83696000D01*
X191900000Y-87650000D02*
X196950000Y-87696000D01*
X194400001Y-94100000D02*
X194400001Y-98700000D01*
X194425000Y-94075000D02*
X196975000Y-94075000D01*
X194425000Y-98725000D02*
X198975000Y-98725000D01*
X198980000Y-98000000D02*
X198980000Y-98700000D01*
X199275000Y-91875000D02*
X203975000Y-91875000D01*
X200200000Y-96525000D02*
X203975000Y-96525000D01*
X202800000Y-85650000D02*
X202800000Y-89595000D01*
X202800000Y-89604000D02*
X199190000Y-89604000D01*
X203975000Y-91900000D02*
X204000000Y-96499999D01*
X199184999Y-89579999D02*
G75*
G03*
X196925000Y-87700001I-2069999J-190001D01*
G01*
X200200000Y-96529999D02*
G75*
G03*
X198979999Y-97949999I100000J-1320001D01*
G01*
X196900000Y-94069999D02*
G75*
G03*
X199269999Y-91900000I100000J2269999D01*
G01*
X202788999Y-85580000D02*
G75*
G03*
X200525000Y-83696001I-2073999J-190000D01*
G01*
X210900000Y-85196000D02*
X219525000Y-85196000D01*
X210900000Y-89104000D02*
X210900000Y-85196000D01*
X210900000Y-89150000D02*
X215950000Y-89196000D01*
X213400001Y-95600000D02*
X213400001Y-100200000D01*
X213425000Y-95575000D02*
X215975000Y-95575000D01*
X213425000Y-100225000D02*
X217975000Y-100225000D01*
X217980000Y-99500000D02*
X217980000Y-100200000D01*
X218275000Y-93375000D02*
X222975000Y-93375000D01*
X219200000Y-98025000D02*
X222975000Y-98025000D01*
X221800000Y-87150000D02*
X221800000Y-91095000D01*
X221800000Y-91104000D02*
X218190000Y-91104000D01*
X222975000Y-93400000D02*
X223000000Y-97999999D01*
X218184999Y-91079999D02*
G75*
G03*
X215925000Y-89200001I-2069999J-190001D01*
G01*
X219200000Y-98029999D02*
G75*
G03*
X217979999Y-99449999I100000J-1320001D01*
G01*
X215900000Y-95569999D02*
G75*
G03*
X218269999Y-93400000I100000J2269999D01*
G01*
X221788999Y-87080000D02*
G75*
G03*
X219525000Y-85196001I-2073999J-190000D01*
G01*
X115700000Y-100296000D02*
X124325000Y-100296000D01*
X115700000Y-104204000D02*
X115700000Y-100296000D01*
X115700000Y-104250000D02*
X120750000Y-104296000D01*
X118200001Y-110700000D02*
X118200001Y-115300000D01*
X118225000Y-110675000D02*
X120775000Y-110675000D01*
X118225000Y-115325000D02*
X122775000Y-115325000D01*
X122780000Y-114600000D02*
X122780000Y-115300000D01*
X123075000Y-108475000D02*
X127775000Y-108475000D01*
X124000000Y-113125000D02*
X127775000Y-113125000D01*
X126600000Y-102250000D02*
X126600000Y-106195000D01*
X126600000Y-106204000D02*
X122990000Y-106204000D01*
X127775000Y-108500000D02*
X127800000Y-113099999D01*
X122984999Y-106179999D02*
G75*
G03*
X120725000Y-104300001I-2069999J-190001D01*
G01*
X124000000Y-113129999D02*
G75*
G03*
X122779999Y-114549999I100000J-1320001D01*
G01*
X120700000Y-110669999D02*
G75*
G03*
X123069999Y-108500000I100000J2269999D01*
G01*
X126588999Y-102180000D02*
G75*
G03*
X124325000Y-100296001I-2073999J-190000D01*
G01*
X134700000Y-97996000D02*
X143325000Y-97996000D01*
X134700000Y-101904000D02*
X134700000Y-97996000D01*
X134700000Y-101950000D02*
X139750000Y-101996000D01*
X137200001Y-108400000D02*
X137200001Y-113000000D01*
X137225000Y-108375000D02*
X139775000Y-108375000D01*
X137225000Y-113025000D02*
X141775000Y-113025000D01*
X141780000Y-112300000D02*
X141780000Y-113000000D01*
X142075000Y-106175000D02*
X146775000Y-106175000D01*
X143000000Y-110825000D02*
X146775000Y-110825000D01*
X145600000Y-99950000D02*
X145600000Y-103895000D01*
X145600000Y-103904000D02*
X141990000Y-103904000D01*
X146775000Y-106200000D02*
X146800000Y-110799999D01*
X141984999Y-103879999D02*
G75*
G03*
X139725000Y-102000001I-2069999J-190001D01*
G01*
X143000000Y-110829999D02*
G75*
G03*
X141779999Y-112249999I100000J-1320001D01*
G01*
X139700000Y-108369999D02*
G75*
G03*
X142069999Y-106200000I100000J2269999D01*
G01*
X145588999Y-99880000D02*
G75*
G03*
X143325000Y-97996001I-2073999J-190000D01*
G01*
X153800000Y-96596000D02*
X162425000Y-96596000D01*
X153800000Y-100504000D02*
X153800000Y-96596000D01*
X153800000Y-100550000D02*
X158850000Y-100596000D01*
X156300001Y-107000000D02*
X156300001Y-111600000D01*
X156325000Y-106975000D02*
X158875000Y-106975000D01*
X156325000Y-111625000D02*
X160875000Y-111625000D01*
X160880000Y-110900000D02*
X160880000Y-111600000D01*
X161175000Y-104775000D02*
X165875000Y-104775000D01*
X162100000Y-109425000D02*
X165875000Y-109425000D01*
X164700000Y-98550000D02*
X164700000Y-102495000D01*
X164700000Y-102504000D02*
X161090000Y-102504000D01*
X165875000Y-104800000D02*
X165900000Y-109399999D01*
X161084999Y-102479999D02*
G75*
G03*
X158825000Y-100600001I-2069999J-190001D01*
G01*
X162100000Y-109429999D02*
G75*
G03*
X160879999Y-110849999I100000J-1320001D01*
G01*
X158800000Y-106969999D02*
G75*
G03*
X161169999Y-104800000I100000J2269999D01*
G01*
X164688999Y-98480000D02*
G75*
G03*
X162425000Y-96596001I-2073999J-190000D01*
G01*
X172800000Y-97996000D02*
X181425000Y-97996000D01*
X172800000Y-101904000D02*
X172800000Y-97996000D01*
X172800000Y-101950000D02*
X177850000Y-101996000D01*
X175300001Y-108400000D02*
X175300001Y-113000000D01*
X175325000Y-108375000D02*
X177875000Y-108375000D01*
X175325000Y-113025000D02*
X179875000Y-113025000D01*
X179880000Y-112300000D02*
X179880000Y-113000000D01*
X180175000Y-106175000D02*
X184875000Y-106175000D01*
X181100000Y-110825000D02*
X184875000Y-110825000D01*
X183700000Y-99950000D02*
X183700000Y-103895000D01*
X183700000Y-103904000D02*
X180090000Y-103904000D01*
X184875000Y-106200000D02*
X184900000Y-110799999D01*
X180084999Y-103879999D02*
G75*
G03*
X177825000Y-102000001I-2069999J-190001D01*
G01*
X181100000Y-110829999D02*
G75*
G03*
X179879999Y-112249999I100000J-1320001D01*
G01*
X177800000Y-108369999D02*
G75*
G03*
X180169999Y-106200000I100000J2269999D01*
G01*
X183688999Y-99880000D02*
G75*
G03*
X181425000Y-97996001I-2073999J-190000D01*
G01*
X191900000Y-102696000D02*
X200525000Y-102696000D01*
X191900000Y-106604000D02*
X191900000Y-102696000D01*
X191900000Y-106650000D02*
X196950000Y-106696000D01*
X194400001Y-113100000D02*
X194400001Y-117700000D01*
X194425000Y-113075000D02*
X196975000Y-113075000D01*
X194425000Y-117725000D02*
X198975000Y-117725000D01*
X198980000Y-117000000D02*
X198980000Y-117700000D01*
X199275000Y-110875000D02*
X203975000Y-110875000D01*
X200200000Y-115525000D02*
X203975000Y-115525000D01*
X202800000Y-104650000D02*
X202800000Y-108595000D01*
X202800000Y-108604000D02*
X199190000Y-108604000D01*
X203975000Y-110900000D02*
X204000000Y-115499999D01*
X199184999Y-108579999D02*
G75*
G03*
X196925000Y-106700001I-2069999J-190001D01*
G01*
X200200000Y-115529999D02*
G75*
G03*
X198979999Y-116949999I100000J-1320001D01*
G01*
X196900000Y-113069999D02*
G75*
G03*
X199269999Y-110900000I100000J2269999D01*
G01*
X202788999Y-104580000D02*
G75*
G03*
X200525000Y-102696001I-2073999J-190000D01*
G01*
X210950000Y-104196000D02*
X219575000Y-104196000D01*
X210950000Y-108104000D02*
X210950000Y-104196000D01*
X210950000Y-108150000D02*
X216000000Y-108196000D01*
X213450001Y-114600000D02*
X213450001Y-119200000D01*
X213475000Y-114575000D02*
X216025000Y-114575000D01*
X213475000Y-119225000D02*
X218025000Y-119225000D01*
X218030000Y-118500000D02*
X218030000Y-119200000D01*
X218325000Y-112375000D02*
X223025000Y-112375000D01*
X219250000Y-117025000D02*
X223025000Y-117025000D01*
X221850000Y-106150000D02*
X221850000Y-110095000D01*
X221850000Y-110104000D02*
X218240000Y-110104000D01*
X223025000Y-112400000D02*
X223050000Y-116999999D01*
X218234999Y-110079999D02*
G75*
G03*
X215975000Y-108200001I-2069999J-190001D01*
G01*
X219250000Y-117029999D02*
G75*
G03*
X218029999Y-118449999I100000J-1320001D01*
G01*
X215950000Y-114569999D02*
G75*
G03*
X218319999Y-112400000I100000J2269999D01*
G01*
X221838999Y-106080000D02*
G75*
G03*
X219575000Y-104196001I-2073999J-190000D01*
G01*
X93311995Y-115704120D02*
X100781464Y-111391620D01*
X95265995Y-119088547D02*
X93311995Y-115704120D01*
X95288995Y-119128385D02*
X99685423Y-116643222D01*
X100679059Y-123464248D02*
X102979059Y-127447965D01*
X100688209Y-123430098D02*
X102896574Y-122155098D01*
X103013209Y-127457116D02*
X106953625Y-125182116D01*
X106595455Y-124551748D02*
X106945455Y-125157965D01*
X103788432Y-119099842D02*
X107858752Y-116749842D01*
X106914506Y-122664360D02*
X110183752Y-120776860D01*
X103728672Y-111946334D02*
X105701172Y-115362804D01*
X105705672Y-115370598D02*
X102579320Y-117175598D01*
X107871252Y-116771493D02*
X110192902Y-120742709D01*
X102562989Y-117157312D02*
G75*
G03*
X99665773Y-116659186I-1697671J-1199546D01*
G01*
X106917006Y-122668690D02*
G75*
G03*
X106570454Y-124508446I746602J-1093154D01*
G01*
X102829121Y-122188267D02*
G75*
G03*
X103796601Y-119123993I-1048396J2015877D01*
G01*
X103684146Y-111891212D02*
G75*
G03*
X100781464Y-111391620I-1701137J-1201545D01*
G01*
X102811995Y-132158602D02*
X110281464Y-127846102D01*
X104765995Y-135543029D02*
X102811995Y-132158602D01*
X104788995Y-135582867D02*
X109185423Y-133097704D01*
X110179059Y-139918730D02*
X112479059Y-143902447D01*
X110188209Y-139884580D02*
X112396574Y-138609580D01*
X112513209Y-143911598D02*
X116453625Y-141636598D01*
X116095455Y-141006230D02*
X116445455Y-141612447D01*
X113288432Y-135554324D02*
X117358752Y-133204324D01*
X116414506Y-139118842D02*
X119683752Y-137231342D01*
X113228672Y-128400816D02*
X115201172Y-131817286D01*
X115205672Y-131825080D02*
X112079320Y-133630080D01*
X117371252Y-133225975D02*
X119692902Y-137197191D01*
X112062989Y-133611794D02*
G75*
G03*
X109165773Y-133113668I-1697671J-1199546D01*
G01*
X116417006Y-139123172D02*
G75*
G03*
X116070454Y-140962928I746602J-1093154D01*
G01*
X112329121Y-138642749D02*
G75*
G03*
X113296601Y-135578475I-1048396J2015877D01*
G01*
X113184146Y-128345694D02*
G75*
G03*
X110281464Y-127846102I-1701137J-1201545D01*
G01*
X125200000Y-119196000D02*
X133825000Y-119196000D01*
X125200000Y-123104000D02*
X125200000Y-119196000D01*
X125200000Y-123150000D02*
X130250000Y-123196000D01*
X127700001Y-129600000D02*
X127700001Y-134200000D01*
X127725000Y-129575000D02*
X130275000Y-129575000D01*
X127725000Y-134225000D02*
X132275000Y-134225000D01*
X132280000Y-133500000D02*
X132280000Y-134200000D01*
X132575000Y-127375000D02*
X137275000Y-127375000D01*
X133500000Y-132025000D02*
X137275000Y-132025000D01*
X136100000Y-121150000D02*
X136100000Y-125095000D01*
X136100000Y-125104000D02*
X132490000Y-125104000D01*
X137275000Y-127400000D02*
X137300000Y-131999999D01*
X132484999Y-125079999D02*
G75*
G03*
X130225000Y-123200001I-2069999J-190001D01*
G01*
X133500000Y-132029999D02*
G75*
G03*
X132279999Y-133449999I100000J-1320001D01*
G01*
X130200000Y-129569999D02*
G75*
G03*
X132569999Y-127400000I100000J2269999D01*
G01*
X136088999Y-121080000D02*
G75*
G03*
X133825000Y-119196001I-2073999J-190000D01*
G01*
X144200000Y-116946000D02*
X152825000Y-116946000D01*
X144200000Y-120854000D02*
X144200000Y-116946000D01*
X144200000Y-120900000D02*
X149250000Y-120946000D01*
X146700001Y-127350000D02*
X146700001Y-131950000D01*
X146725000Y-127325000D02*
X149275000Y-127325000D01*
X146725000Y-131975000D02*
X151275000Y-131975000D01*
X151280000Y-131250000D02*
X151280000Y-131950000D01*
X151575000Y-125125000D02*
X156275000Y-125125000D01*
X152500000Y-129775000D02*
X156275000Y-129775000D01*
X155100000Y-118900000D02*
X155100000Y-122845000D01*
X155100000Y-122854000D02*
X151490000Y-122854000D01*
X156275000Y-125150000D02*
X156300000Y-129749999D01*
X151484999Y-122829999D02*
G75*
G03*
X149225000Y-120950001I-2069999J-190001D01*
G01*
X152500000Y-129779999D02*
G75*
G03*
X151279999Y-131199999I100000J-1320001D01*
G01*
X149200000Y-127319999D02*
G75*
G03*
X151569999Y-125150000I100000J2269999D01*
G01*
X155088999Y-118830000D02*
G75*
G03*
X152825000Y-116946001I-2073999J-190000D01*
G01*
X163300000Y-116946000D02*
X171925000Y-116946000D01*
X163300000Y-120854000D02*
X163300000Y-116946000D01*
X163300000Y-120900000D02*
X168350000Y-120946000D01*
X165800001Y-127350000D02*
X165800001Y-131950000D01*
X165825000Y-127325000D02*
X168375000Y-127325000D01*
X165825000Y-131975000D02*
X170375000Y-131975000D01*
X170380000Y-131250000D02*
X170380000Y-131950000D01*
X170675000Y-125125000D02*
X175375000Y-125125000D01*
X171600000Y-129775000D02*
X175375000Y-129775000D01*
X174200000Y-118900000D02*
X174200000Y-122845000D01*
X174200000Y-122854000D02*
X170590000Y-122854000D01*
X175375000Y-125150000D02*
X175400000Y-129749999D01*
X170584999Y-122829999D02*
G75*
G03*
X168325000Y-120950001I-2069999J-190001D01*
G01*
X171600000Y-129779999D02*
G75*
G03*
X170379999Y-131199999I100000J-1320001D01*
G01*
X168300000Y-127319999D02*
G75*
G03*
X170669999Y-125150000I100000J2269999D01*
G01*
X174188999Y-118830000D02*
G75*
G03*
X171925000Y-116946001I-2073999J-190000D01*
G01*
X94541000Y-73139449D02*
X94541000Y-70853449D01*
X96319000Y-73139449D02*
X94541000Y-73139449D01*
X94541000Y-70853449D02*
X96319000Y-70853449D01*
X96319000Y-70853449D02*
X96319000Y-73139449D01*
X94160000Y-73330000D02*
X106860000Y-73330000D01*
X94160000Y-75870000D02*
X94160000Y-73330000D01*
X94160000Y-75870000D02*
X106860000Y-75870000D01*
X106860000Y-73330000D02*
X106860000Y-75870000D01*
X104741000Y-73139449D02*
X104741000Y-70853449D01*
X106519000Y-73139449D02*
X104741000Y-73139449D01*
X104741000Y-70853449D02*
X106519000Y-70853449D01*
X106519000Y-70853449D02*
X106519000Y-73139449D01*
D15*
X87436960Y-54383940D02*
X84836000Y-54383940D01*
X84836000Y-54383940D02*
X84836000Y-61186060D01*
X84836000Y-57884060D02*
X83334860Y-57884060D01*
X83334860Y-57884060D02*
X83334860Y-59184540D01*
X83334860Y-59184540D02*
X84836000Y-59184540D01*
X87436960Y-61186060D02*
X87436960Y-54383940D01*
X84836000Y-61186060D02*
X87436960Y-61186060D01*
D16*
X84101000Y-82181000D02*
X91921000Y-82181000D01*
X85701000Y-82181000D02*
X85701000Y-81261000D01*
X91921000Y-82181000D02*
X91921000Y-76061000D01*
X88061000Y-81421000D02*
X89661000Y-81421000D01*
X89661000Y-81421000D02*
X89661000Y-80421000D01*
X84101000Y-81261000D02*
X84101000Y-82181000D01*
X85701000Y-81261000D02*
X84101000Y-81261000D01*
X85701000Y-80981000D02*
X85701000Y-81261000D01*
X85701000Y-80981000D02*
X84486000Y-80981000D01*
X89661000Y-80921000D02*
X91921000Y-80921000D01*
X88061000Y-80421000D02*
X88061000Y-81421000D01*
X89661000Y-80421000D02*
X88061000Y-80421000D01*
X89661000Y-80421000D02*
X91921000Y-80421000D01*
X87561000Y-79621000D02*
X87561000Y-78621000D01*
X91921000Y-79621000D02*
X87561000Y-79621000D01*
X87561000Y-78621000D02*
X91921000Y-78621000D01*
X88061000Y-77821000D02*
X88061000Y-76821000D01*
X89661000Y-77821000D02*
X88061000Y-77821000D01*
X84101000Y-76981000D02*
X85701000Y-76981000D01*
X85701000Y-76981000D02*
X85701000Y-77261000D01*
X88061000Y-76821000D02*
X89661000Y-76821000D01*
X89661000Y-76821000D02*
X89661000Y-77821000D01*
X84101000Y-76061000D02*
X84101000Y-76981000D01*
X85701000Y-76061000D02*
X85701000Y-76981000D01*
X91921000Y-76061000D02*
X84101000Y-76061000D01*
D13*
X87111000Y-73143000D02*
X87111000Y-70857000D01*
X88889000Y-73143000D02*
X87111000Y-73143000D01*
X87111000Y-70857000D02*
X88889000Y-70857000D01*
X88889000Y-70857000D02*
X88889000Y-73143000D01*
X89611000Y-73131375D02*
X89611000Y-70845375D01*
X91389000Y-73131375D02*
X89611000Y-73131375D01*
X89611000Y-70845375D02*
X91389000Y-70845375D01*
X91389000Y-70845375D02*
X91389000Y-73131375D01*
D17*
X86150000Y-40800000D03*
X86150000Y-47800000D03*
X87900000Y-40800000D03*
X87900000Y-47800000D03*
D18*
X84050000Y-49600000D03*
X90000000Y-49600000D03*
X84050000Y-45600000D03*
X90000000Y-45600000D03*
X84050000Y-42600000D03*
X90000000Y-42600000D03*
X85800000Y-51100000D03*
X88250000Y-51100000D03*
D19*
X92180000Y-41230000D03*
X92180000Y-43770000D03*
X92180000Y-46310000D03*
X92180000Y-48850000D03*
X92180000Y-51390000D03*
X92180000Y-53930000D03*
X92180000Y-56470000D03*
X92180000Y-59010000D03*
X92180000Y-61550000D03*
X92180000Y-64090000D03*
X92180000Y-66630000D03*
X92180000Y-69170000D03*
X107420000Y-69170000D03*
X107420000Y-66630000D03*
X107420000Y-64090000D03*
X107420000Y-61550000D03*
X107420000Y-59010000D03*
X107420000Y-56470000D03*
X107420000Y-53930000D03*
X107420000Y-51390000D03*
X107420000Y-48850000D03*
X107420000Y-46310000D03*
X107420000Y-43770000D03*
X107420000Y-41230000D03*
D20*
X95430000Y-74600000D03*
X97970000Y-74600000D03*
X100510000Y-74600000D03*
X103050000Y-74600000D03*
X105590000Y-74600000D03*
D21*
X86334600Y-56286400D03*
X86334600Y-59283600D03*
D22*
X179861773Y-121387065D02*
X180456326Y-121064561D01*
X125619545Y-37086762D02*
X115211711Y-37086762D01*
X100262836Y-140931049D02*
X101964989Y-143887377D01*
X225460000Y-109808112D02*
X225460000Y-119289735D01*
X124800603Y-136422266D02*
X125318492Y-135995060D01*
X178319348Y-133972851D02*
X178288901Y-134275347D01*
X224798960Y-120533736D02*
X224544152Y-120671952D01*
X208157255Y-120789735D02*
X213424836Y-120789735D01*
X101964989Y-143887377D02*
X103615641Y-146775920D01*
X112835230Y-145166147D02*
X114510925Y-144196008D01*
X156843047Y-37086762D02*
X146435213Y-37086762D01*
X178319348Y-127943854D02*
X178319348Y-129161894D01*
X147341260Y-135467150D02*
X154710782Y-135467150D01*
X85684295Y-111431313D02*
X86827295Y-115310486D01*
X95209295Y-132349730D02*
X96860295Y-135143730D01*
X225020912Y-120350648D02*
X224798960Y-120533736D01*
X189919538Y-37585374D02*
X178989563Y-37215654D01*
X105173811Y-149290554D02*
X105301953Y-149354467D01*
X91780295Y-126634730D02*
X93431295Y-129501049D01*
X94396044Y-37086762D02*
X83988210Y-37086762D01*
X215525697Y-39885159D02*
X208420758Y-38945561D01*
X178319348Y-125507775D02*
X178319348Y-126725814D01*
X123521981Y-138738736D02*
X123338893Y-138960688D01*
X178319348Y-131597973D02*
X178319348Y-133972851D01*
X178989563Y-37215654D02*
X167250881Y-37086762D01*
X225204001Y-120128696D02*
X225020912Y-120350648D01*
X154710782Y-135467150D02*
X162080304Y-135467150D01*
X124050893Y-137534708D02*
X124373397Y-136940155D01*
X139971738Y-135467150D02*
X147341260Y-135467150D01*
X123338893Y-138960688D02*
X123116940Y-139143777D01*
X167250881Y-37086762D02*
X156843047Y-37086762D01*
X178319348Y-124289735D02*
X178319348Y-125507775D01*
X83776462Y-37108075D02*
X83988210Y-37086762D01*
X146435213Y-37086762D02*
X136027379Y-37086762D01*
X177658308Y-135216853D02*
X177403500Y-135355069D01*
X224278471Y-42156190D02*
X220889319Y-40963847D01*
X96860295Y-135143730D02*
X98587142Y-138064730D01*
X202889673Y-120789735D02*
X208157255Y-120789735D01*
X136027379Y-37086762D02*
X125619545Y-37086762D01*
X213424836Y-120789735D02*
X218692418Y-120789735D01*
X123660197Y-138483927D02*
X123521981Y-138738736D01*
X225460000Y-52918378D02*
X225460000Y-62400000D01*
X123784295Y-138202271D02*
X124050893Y-137534708D01*
X180456326Y-121064561D02*
X181113524Y-120860778D01*
X125913045Y-135672556D02*
X126578295Y-135524730D01*
X124373397Y-136940155D02*
X124800603Y-136422266D01*
X83398295Y-99366700D02*
X84033295Y-103393730D01*
X177121844Y-135442404D02*
X176819348Y-135472851D01*
X88224295Y-119192029D02*
X89875295Y-122979432D01*
X197622092Y-120789735D02*
X202889673Y-120789735D01*
X105056778Y-149190906D02*
X105173811Y-149290554D01*
X220889319Y-40963847D02*
X215525697Y-39885159D01*
X218692418Y-120789735D02*
X223959999Y-120789735D01*
X82937528Y-50750629D02*
X82937528Y-44443695D01*
X178319348Y-126725814D02*
X178319348Y-127943854D01*
X178319348Y-129161894D02*
X178319348Y-130379933D01*
X178916678Y-122332160D02*
X179343884Y-121814271D01*
X116186619Y-143225869D02*
X117862313Y-142255730D01*
X104951320Y-149056172D02*
X105056778Y-149190906D01*
X105916241Y-149239778D02*
X107808147Y-148076564D01*
X225460000Y-81363245D02*
X225460000Y-90844867D01*
X225460000Y-62400000D02*
X225460000Y-71881623D01*
X117862313Y-142255730D02*
X123116940Y-139143777D01*
X178288901Y-134275347D02*
X178201565Y-134557003D01*
X224544152Y-120671952D02*
X224262495Y-120759288D01*
X199807654Y-38170488D02*
X189919538Y-37585374D01*
X178390391Y-123583911D02*
X178594174Y-122926713D01*
X208420758Y-38945561D02*
X199807654Y-38170488D01*
X104857908Y-148887001D02*
X104951320Y-149056172D01*
X82937528Y-44443695D02*
X82937528Y-38136762D01*
X224262495Y-120759288D02*
X223959999Y-120789735D01*
X82937528Y-75978362D02*
X82937528Y-69671429D01*
X82937528Y-63364495D02*
X82937528Y-57057562D01*
X178063349Y-134811812D02*
X177880261Y-135033764D01*
X225460000Y-100326490D02*
X225460000Y-109808112D01*
X132602217Y-135467150D02*
X139971738Y-135467150D01*
X93431295Y-129501049D02*
X95209295Y-132349730D01*
X82938210Y-38136762D02*
X82959523Y-37925015D01*
X225460000Y-43436755D02*
X225460000Y-52918378D01*
X86827295Y-115310486D02*
X88224295Y-119192029D01*
X114510925Y-144196008D02*
X116186619Y-143225869D01*
X225460000Y-43436755D02*
X224278471Y-42156190D01*
X82937528Y-57057562D02*
X82937528Y-50750629D01*
X109483841Y-147106425D02*
X111159536Y-146136286D01*
X177880261Y-135033764D02*
X177658308Y-135216853D01*
X98587142Y-138064730D02*
X100262836Y-140931049D01*
X105748347Y-149325300D02*
X105916241Y-149239778D01*
X225460000Y-71881623D02*
X225460000Y-81363245D01*
X83579303Y-37169210D02*
X83776462Y-37108075D01*
X83400937Y-37265961D02*
X83579303Y-37169210D01*
X225342217Y-119873887D02*
X225204001Y-120128696D01*
X104803877Y-37086762D02*
X94396044Y-37086762D01*
X111159536Y-146136286D02*
X112835230Y-145166147D01*
X181819348Y-120789735D02*
X187086929Y-120789735D01*
X187086929Y-120789735D02*
X192354511Y-120789735D01*
X178201565Y-134557003D02*
X178063349Y-134811812D01*
X192354511Y-120789735D02*
X197622092Y-120789735D01*
X181113524Y-120860778D02*
X181819348Y-120789735D01*
X82937528Y-69671429D02*
X82937528Y-63364495D01*
X179343884Y-121814271D02*
X179861773Y-121387065D01*
X83117409Y-37549489D02*
X83245570Y-37394123D01*
X225459999Y-119289735D02*
X225429552Y-119592231D01*
X105301953Y-149354467D02*
X105440735Y-149381996D01*
X177403500Y-135355069D02*
X177121844Y-135442404D01*
X127276067Y-135495519D02*
X132602217Y-135467150D01*
X125318492Y-135995060D02*
X125913045Y-135672556D01*
X82959523Y-37925015D02*
X83020657Y-37727855D01*
X178319348Y-124289735D02*
X178390391Y-123583911D01*
X84795295Y-107426892D02*
X85684295Y-111431313D01*
X107808147Y-148076564D02*
X109483841Y-147106425D01*
X83245570Y-37394123D02*
X83400937Y-37265961D01*
X123784295Y-138202271D02*
X123660197Y-138483927D01*
X115211711Y-37086762D02*
X104803877Y-37086762D01*
X82937777Y-95341456D02*
X83398295Y-99366700D01*
D23*
X82937528Y-75978362D02*
X82937777Y-95341456D01*
D22*
X83020657Y-37727855D02*
X83117409Y-37549489D01*
X105589689Y-149372490D02*
X105748347Y-149325300D01*
X162080304Y-135467150D02*
X176819348Y-135472851D01*
X84033295Y-103393730D02*
X84795295Y-107426892D01*
X105440735Y-149381996D02*
X105589689Y-149372490D01*
X89875295Y-122979432D02*
X91780295Y-126634730D01*
X225429552Y-119592231D02*
X225342217Y-119873887D01*
X225460000Y-90844867D02*
X225460000Y-100326490D01*
X178594174Y-122926713D02*
X178916678Y-122332160D01*
X103615641Y-146775920D02*
X104857908Y-148887001D01*
X178319348Y-130379933D02*
X178319348Y-131597973D01*
X126578295Y-135524730D02*
X127276067Y-135495519D01*
M02*
