  0
SECTION
  2
HEADER
  9
$ANGBASE
  50
0.0
  9
$ANGDIR
  70
1
  9
$MEASUREMENT
  70
0
  0
ENDSEC
  0
SECTION
  2
TABLES
  0
TABLE
  2
LTYPE
  70
4
  0
LTYPE
  5
40F
  2
CONTINUOUS
  70
0
  3
Solid line
  72
65
  73
0
  40
0.0
  0
LTYPE
  5
410
  2
DASHDOT
 70
0
  3
Dash Dot ____ _ ____ _
 72
65
 73
4
 40
2.0
 49
1.25
 49
-0.25
 49
0.25
 49
-0.25
  0
LTYPE
  5
411
  2
DASHED
 70
0
  3
Dashed __ __ __ __ __
 72
65
 73
2
 40
0.75
 49
0.5
 49
-0.25
  0
LTYPE
  5
43B
  2
DOTTED
 70
0
  3
Dotted .  .  .  .
 72
65
 73
2
 40
0.2
 49
0.0
 49
-0.2
  0
ENDTAB
  0
TABLE
  2
STYLE
  70
4
  0
STYLE
  2
KICAD
  70
0
  40
0
  41
1
  42
1
  50
0
  71
0
  3
isocp.shx
  0
STYLE
  2
KICADB
  70
0
  40
0
  41
1
  42
1
  50
0
  71
0
  3
isocp.shx
  0
STYLE
  2
KICADI
  70
0
  40
0
  41
1
  42
1
  50
15
  71
0
  3
isocp.shx
  0
STYLE
  2
KICADBI
  70
0
  40
0
  41
1
  42
1
  50
15
  71
0
  3
isocp.shx
  0
ENDTAB
  0
TABLE
  2
LAYER
  70
1
  0
LAYER
  2
BLACK
  70
0
  62
7
  6
CONTINUOUS
  0
ENDTAB
  0
ENDSEC
  0
SECTION
  2
ENTITIES
0
LINE
8
BLACK
6
CONTINUOUS
10
3.71637968503937
20
-1.4561717322834646
11
4.1261368897637798
21
-1.4561717322834646
0
LINE
8
BLACK
6
CONTINUOUS
10
4.1261368897637798
20
-1.4561717322834646
11
4.5358941338582675
21
-1.4561717322834646
0
LINE
8
BLACK
6
CONTINUOUS
10
4.5358941338582675
20
-1.4561717322834646
11
4.945651377952756
21
-1.4561717322834646
0
LINE
8
BLACK
6
CONTINUOUS
10
4.945651377952756
20
-1.4561717322834646
11
5.3554086220472437
21
-1.4561717322834646
0
LINE
8
BLACK
6
CONTINUOUS
10
5.3554086220472437
20
-1.4561717322834646
11
5.7651658661417322
21
-1.4561717322834646
0
LINE
8
BLACK
6
CONTINUOUS
10
5.7651658661417322
20
-1.4561717322834646
11
6.1749231102362208
21
-1.4561717322834646
0
LINE
8
BLACK
6
CONTINUOUS
10
6.1749231102362208
20
-1.4561717322834646
11
6.5846803543307084
21
-1.4561717322834646
0
LINE
8
BLACK
6
CONTINUOUS
10
6.5846803543307084
20
-1.4561717322834646
11
6.5847019291338578
21
-1.4561787401574804
0
LINE
8
BLACK
6
CONTINUOUS
10
6.5847019291338578
20
-1.4561787401574804
11
6.5847235826771655
21
-1.4561719685039369
0
LINE
8
BLACK
6
CONTINUOUS
10
6.5847235826771655
20
-1.4561719685039369
11
7.0468764173228342
21
-1.4612464566929133
0
LINE
8
BLACK
6
CONTINUOUS
10
7.0468764173228342
20
-1.4612464566929133
11
7.0469210236220468
21
-1.4612614960629922
0
LINE
8
BLACK
6
CONTINUOUS
10
7.0469210236220468
20
-1.4612614960629922
11
7.0469662992125981
21
-1.461248464566929
0
LINE
8
BLACK
6
CONTINUOUS
10
7.0469662992125981
20
-1.461248464566929
11
7.477280236220472
21
-1.4758043700787402
0
LINE
8
BLACK
6
CONTINUOUS
10
7.477280236220472
20
-1.4758043700787402
11
7.4773292913385827
21
-1.4758221259842519
0
LINE
8
BLACK
6
CONTINUOUS
10
7.4773292913385827
20
-1.4758221259842519
11
7.4773797244094489
21
-1.4758090157480315
0
LINE
8
BLACK
6
CONTINUOUS
10
7.4773797244094489
20
-1.4758090157480315
11
7.8666756299212599
21
-1.498845
0
LINE
8
BLACK
6
CONTINUOUS
10
7.8666756299212599
20
-1.498845
11
7.8667343307086615
21
-1.4988679921259842
0
LINE
8
BLACK
6
CONTINUOUS
10
7.8667343307086615
20
-1.4988679921259842
11
7.8667959448818898
21
-1.4988539370078739
0
LINE
8
BLACK
6
CONTINUOUS
10
7.8667959448818898
20
-1.4988539370078739
11
8.2058944881889762
21
-1.529368622047244
0
LINE
8
BLACK
6
CONTINUOUS
10
8.2058944881889762
20
-1.529368622047244
11
8.2059733858267716
21
-1.5294023228346456
0
LINE
8
BLACK
6
CONTINUOUS
10
8.2059733858267716
20
-1.5294023228346456
11
8.2060577952755906
21
-1.5293867716535432
0
LINE
8
BLACK
6
CONTINUOUS
10
8.2060577952755906
20
-1.5293867716535432
11
8.4857798425196851
21
-1.5663788188976377
0
LINE
8
BLACK
6
CONTINUOUS
10
8.4857798425196851
20
-1.5663788188976377
11
8.4859036220472444
21
-1.5664379527559056
0
LINE
8
BLACK
6
CONTINUOUS
10
8.4859036220472444
20
-1.5664379527559056
11
8.4860398818897629
21
-1.5664221259842519
0
LINE
8
BLACK
6
CONTINUOUS
10
8.4860398818897629
20
-1.5664221259842519
11
8.6972061023622054
21
-1.6088901574803149
0
LINE
8
BLACK
6
CONTINUOUS
10
8.6972061023622054
20
-1.6088901574803149
11
8.6974531102362196
21
-1.6090291732283464
0
LINE
8
BLACK
6
CONTINUOUS
10
8.6974531102362196
20
-1.6090291732283464
11
8.6977364566929136
21
-1.6090360236220471
0
LINE
8
BLACK
6
CONTINUOUS
10
8.6977364566929136
20
-1.6090360236220471
11
8.831167637795275
21
-1.6559786614173229
0
LINE
8
BLACK
6
CONTINUOUS
10
8.831167637795275
20
-1.6559786614173229
11
8.8319241338582675
21
-1.6565566535433069
0
LINE
8
BLACK
6
CONTINUOUS
10
8.8319241338582675
20
-1.6565566535433069
11
8.8327546062992131
21
-1.6570227559055117
0
LINE
8
BLACK
6
CONTINUOUS
10
8.8327546062992131
20
-1.6570227559055117
11
8.8792714566929138
21
-1.7074387007874015
0
LINE
8
BLACK
6
CONTINUOUS
10
8.8792714566929138
20
-1.7074387007874015
11
8.8793707086614173
21
-1.7076545669291339
0
LINE
8
BLACK
6
CONTINUOUS
10
8.8793707086614173
20
-1.7076545669291339
11
8.8795630708661424
21
-1.7077943307086614
0
LINE
8
BLACK
6
CONTINUOUS
10
8.8795630708661424
20
-1.7077943307086614
11
8.8798713385826762
21
-1.7087431496062992
0
LINE
8
BLACK
6
CONTINUOUS
10
8.8798713385826762
20
-1.7087431496062992
11
8.8802881102362203
21
-1.7096493700787401
0
LINE
8
BLACK
6
CONTINUOUS
10
8.8802881102362203
20
-1.7096493700787401
11
8.8802414960629914
21
-1.7098824015748031
0
LINE
8
BLACK
6
CONTINUOUS
10
8.8802414960629914
20
-1.7098824015748031
11
8.8803149606299208
21
-1.7101084645669291
0
LINE
8
BLACK
6
CONTINUOUS
10
8.8803149606299208
20
-1.7101084645669291
11
8.8803149606299208
21
-2.0834007086614172
0
LINE
8
BLACK
6
CONTINUOUS
10
8.8803149606299208
20
-2.0834007086614172
11
8.8803149606299208
21
-2.4566929133858268
0
LINE
8
BLACK
6
CONTINUOUS
10
8.8803149606299208
20
-2.4566929133858268
11
8.8803149606299208
21
-2.8299851574803148
0
LINE
8
BLACK
6
CONTINUOUS
10
8.8803149606299208
20
-2.8299851574803148
11
8.8803149606299208
21
-3.2032773622047244
0
LINE
8
BLACK
6
CONTINUOUS
10
8.8803149606299208
20
-3.2032773622047244
11
8.8803149606299208
21
-3.576569566929134
0
LINE
8
BLACK
6
CONTINUOUS
10
8.8803149606299208
20
-3.576569566929134
11
8.8803149606299208
21
-3.9498618110236219
0
LINE
8
BLACK
6
CONTINUOUS
10
8.8803149606299208
20
-3.9498618110236219
11
8.8803149606299208
21
-4.323154015748031
0
LINE
8
BLACK
6
CONTINUOUS
10
8.8803149606299208
20
-4.323154015748031
11
8.8803149606299208
21
-4.6964462598425198
0
LINE
8
BLACK
6
CONTINUOUS
10
8.8803149606299208
20
-4.6964462598425198
11
8.8802517322834635
21
-4.6966407874015745
0
LINE
8
BLACK
6
CONTINUOUS
10
8.8802517322834635
20
-4.6966407874015745
11
8.8802951181102365
21
-4.6968405511811024
0
LINE
8
BLACK
6
CONTINUOUS
10
8.8802951181102365
20
-4.6968405511811024
11
8.8790964173228346
21
-4.7087498425196852
0
LINE
8
BLACK
6
CONTINUOUS
10
8.8790964173228346
20
-4.7087498425196852
11
8.8789341732283464
21
-4.7091186220472441
0
LINE
8
BLACK
6
CONTINUOUS
10
8.8789341732283464
20
-4.7091186220472441
11
8.8789396062992125
21
-4.7095215354330708
0
LINE
8
BLACK
6
CONTINUOUS
10
8.8789396062992125
20
-4.7095215354330708
11
8.8755012204724402
21
-4.7206103937007873
0
LINE
8
BLACK
6
CONTINUOUS
10
8.8755012204724402
20
-4.7206103937007873
11
8.8752733070866139
21
-4.7209331102362206
0
LINE
8
BLACK
6
CONTINUOUS
10
8.8752733070866139
20
-4.7209331102362206
11
8.8752014960629921
21
-4.7213215354330709
0
LINE
8
BLACK
6
CONTINUOUS
10
8.8752014960629921
20
-4.7213215354330709
11
8.8697599212598419
21
-4.7313533858267718
0
LINE
8
BLACK
6
CONTINUOUS
10
8.8697599212598419
20
-4.7313533858267718
11
8.8694785826771643
21
-4.731620551181102
0
LINE
8
BLACK
6
CONTINUOUS
10
8.8694785826771643
20
-4.731620551181102
11
8.8693362992125984
21
-4.7319814960629918
0
LINE
8
BLACK
6
CONTINUOUS
10
8.8693362992125984
20
-4.7319814960629918
11
8.8621280708661416
21
-4.7407197637795271
0
LINE
8
BLACK
6
CONTINUOUS
10
8.8621280708661416
20
-4.7407197637795271
11
8.8618031102362202
21
-4.7409265748031499
0
LINE
8
BLACK
6
CONTINUOUS
10
8.8618031102362202
20
-4.7409265748031499
11
8.8615962992125983
21
-4.7412515354330704
0
LINE
8
BLACK
6
CONTINUOUS
10
8.8615962992125983
20
-4.7412515354330704
11
8.8528580314960621
21
-4.7484597244094484
0
LINE
8
BLACK
6
CONTINUOUS
10
8.8528580314960621
20
-4.7484597244094484
11
8.852497125984252
21
-4.7486020078740152
0
LINE
8
BLACK
6
CONTINUOUS
10
8.852497125984252
20
-4.7486020078740152
11
8.8522299606299217
21
-4.7488833464566929
0
LINE
8
BLACK
6
CONTINUOUS
10
8.8522299606299217
20
-4.7488833464566929
11
8.8421981102362199
21
-4.7543249212598422
0
LINE
8
BLACK
6
CONTINUOUS
10
8.8421981102362199
20
-4.7543249212598422
11
8.8418096850393706
21
-4.7543967322834648
0
LINE
8
BLACK
6
CONTINUOUS
10
8.8418096850393706
20
-4.7543967322834648
11
8.8414869685039363
21
-4.7546246456692911
0
LINE
8
BLACK
6
CONTINUOUS
10
8.8414869685039363
20
-4.7546246456692911
11
8.8303981102362208
21
-4.7580630708661413
0
LINE
8
BLACK
6
CONTINUOUS
10
8.8303981102362208
20
-4.7580630708661413
11
8.8299951181102365
21
-4.7580576377952752
0
LINE
8
BLACK
6
CONTINUOUS
10
8.8299951181102365
20
-4.7580576377952752
11
8.8296263385826776
21
-4.7582198818897634
0
LINE
8
BLACK
6
CONTINUOUS
10
8.8296263385826776
20
-4.7582198818897634
11
8.8177170866141736
21
-4.7594185826771653
0
LINE
8
BLACK
6
CONTINUOUS
10
8.8177170866141736
20
-4.7594185826771653
11
8.8175172440944873
21
-4.7593751574803145
0
LINE
8
BLACK
6
CONTINUOUS
10
8.8175172440944873
20
-4.7593751574803145
11
8.8173227952755902
21
-4.7594383858267717
0
LINE
8
BLACK
6
CONTINUOUS
10
8.8173227952755902
20
-4.7594383858267717
11
8.6099377165354323
21
-4.7594383858267717
0
LINE
8
BLACK
6
CONTINUOUS
10
8.6099377165354323
20
-4.7594383858267717
11
8.4025525984251974
21
-4.7594383858267717
0
LINE
8
BLACK
6
CONTINUOUS
10
8.4025525984251974
20
-4.7594383858267717
11
8.1951675196850395
21
-4.7594383858267717
0
LINE
8
BLACK
6
CONTINUOUS
10
8.1951675196850395
20
-4.7594383858267717
11
7.9877824015748029
21
-4.7594383858267717
0
LINE
8
BLACK
6
CONTINUOUS
10
7.9877824015748029
20
-4.7594383858267717
11
7.7803973228346459
21
-4.7594383858267717
0
LINE
8
BLACK
6
CONTINUOUS
10
7.7803973228346459
20
-4.7594383858267717
11
7.573012244094488
21
-4.7594383858267717
0
LINE
8
BLACK
6
CONTINUOUS
10
7.573012244094488
20
-4.7594383858267717
11
7.3656271259842514
21
-4.7594383858267717
0
LINE
8
BLACK
6
CONTINUOUS
10
7.3656271259842514
20
-4.7594383858267717
11
7.1584395669291334
21
-4.7594383858267717
0
LINE
8
BLACK
6
CONTINUOUS
10
7.1584395669291334
20
-4.7594383858267717
11
7.131241771653543
21
-4.7621759055118114
0
LINE
8
BLACK
6
CONTINUOUS
10
7.131241771653543
20
-4.7621759055118114
11
7.1061159842519688
21
-4.7699668897637792
0
LINE
8
BLACK
6
CONTINUOUS
10
7.1061159842519688
20
-4.7699668897637792
11
7.0833837795275585
21
-4.7822975196850397
0
LINE
8
BLACK
6
CONTINUOUS
10
7.0833837795275585
20
-4.7822975196850397
11
7.0635794881889762
21
-4.7986340944881887
0
LINE
8
BLACK
6
CONTINUOUS
10
7.0635794881889762
20
-4.7986340944881887
11
7.0472428740157476
21
-4.8184385039370081
0
LINE
8
BLACK
6
CONTINUOUS
10
7.0472428740157476
20
-4.8184385039370081
11
7.0349121653543305
21
-4.8411707480314963
0
LINE
8
BLACK
6
CONTINUOUS
10
7.0349121653543305
20
-4.8411707480314963
11
7.027121299212598
21
-4.866296456692913
0
LINE
8
BLACK
6
CONTINUOUS
10
7.027121299212598
20
-4.866296456692913
11
7.0243837795275592
21
-4.8934941732283468
0
LINE
8
BLACK
6
CONTINUOUS
10
7.0243837795275592
20
-4.8934941732283468
11
7.0243837795275592
21
-4.9412509842519681
0
LINE
8
BLACK
6
CONTINUOUS
10
7.0243837795275592
20
-4.9412509842519681
11
7.0243837795275592
21
-4.9892052755905514
0
LINE
8
BLACK
6
CONTINUOUS
10
7.0243837795275592
20
-4.9892052755905514
11
7.0243837795275592
21
-5.0371596062992126
0
LINE
8
BLACK
6
CONTINUOUS
10
7.0243837795275592
20
-5.0371596062992126
11
7.0243837795275592
21
-5.0851139370078737
0
LINE
8
BLACK
6
CONTINUOUS
10
7.0243837795275592
20
-5.0851139370078737
11
7.0243837795275592
21
-5.1330682283464562
0
LINE
8
BLACK
6
CONTINUOUS
10
7.0243837795275592
20
-5.1330682283464562
11
7.0243837795275592
21
-5.1810225590551182
0
LINE
8
BLACK
6
CONTINUOUS
10
7.0243837795275592
20
-5.1810225590551182
11
7.0243837795275592
21
-5.2745216929133854
0
LINE
8
BLACK
6
CONTINUOUS
10
7.0243837795275592
20
-5.2745216929133854
11
7.024320551181102
21
-5.2747161417322834
0
LINE
8
BLACK
6
CONTINUOUS
10
7.024320551181102
20
-5.2747161417322834
11
7.0243639763779528
21
-5.2749159842519679
0
LINE
8
BLACK
6
CONTINUOUS
10
7.0243639763779528
20
-5.2749159842519679
11
7.0231652755905509
21
-5.2868252755905507
0
LINE
8
BLACK
6
CONTINUOUS
10
7.0231652755905509
20
-5.2868252755905507
11
7.0230030314960628
21
-5.2871940551181105
0
LINE
8
BLACK
6
CONTINUOUS
10
7.0230030314960628
20
-5.2871940551181105
11
7.0230084645669288
21
-5.287597007874016
0
LINE
8
BLACK
6
CONTINUOUS
10
7.0230084645669288
20
-5.287597007874016
11
7.0195700393700786
21
-5.2986858267716537
0
LINE
8
BLACK
6
CONTINUOUS
10
7.0195700393700786
20
-5.2986858267716537
11
7.0193421259842514
21
-5.2990085433070861
0
LINE
8
BLACK
6
CONTINUOUS
10
7.0193421259842514
20
-5.2990085433070861
11
7.0192703149606297
21
-5.2993969685039373
0
LINE
8
BLACK
6
CONTINUOUS
10
7.0192703149606297
20
-5.2993969685039373
11
7.0138287401574804
21
-5.3094288188976373
0
LINE
8
BLACK
6
CONTINUOUS
10
7.0138287401574804
20
-5.3094288188976373
11
7.0135474015748027
21
-5.3096959842519684
0
LINE
8
BLACK
6
CONTINUOUS
10
7.0135474015748027
20
-5.3096959842519684
11
7.0134051181102359
21
-5.3100569291338582
0
LINE
8
BLACK
6
CONTINUOUS
10
7.0134051181102359
20
-5.3100569291338582
11
7.0061969291338579
21
-5.3187951968503935
0
LINE
8
BLACK
6
CONTINUOUS
10
7.0061969291338579
20
-5.3187951968503935
11
7.0058719291338578
21
-5.319002086614173
0
LINE
8
BLACK
6
CONTINUOUS
10
7.0058719291338578
20
-5.319002086614173
11
7.0056651181102358
21
-5.3193269685039368
0
LINE
8
BLACK
6
CONTINUOUS
10
7.0056651181102358
20
-5.3193269685039368
11
6.9969268503937005
21
-5.3265351968503936
0
LINE
8
BLACK
6
CONTINUOUS
10
6.9969268503937005
20
-5.3265351968503936
11
6.9965659448818895
21
-5.3266774803149604
0
LINE
8
BLACK
6
CONTINUOUS
10
6.9965659448818895
20
-5.3266774803149604
11
6.9962987795275593
21
-5.326958818897638
0
LINE
8
BLACK
6
CONTINUOUS
10
6.9962987795275593
20
-5.326958818897638
11
6.9862669291338584
21
-5.3324003937007873
0
LINE
8
BLACK
6
CONTINUOUS
10
6.9862669291338584
20
-5.3324003937007873
11
6.9858785039370082
21
-5.3324722047244091
0
LINE
8
BLACK
6
CONTINUOUS
10
6.9858785039370082
20
-5.3324722047244091
11
6.9855557874015748
21
-5.3327001181102363
0
LINE
8
BLACK
6
CONTINUOUS
10
6.9855557874015748
20
-5.3327001181102363
11
6.9744669685039371
21
-5.3361385039370077
0
LINE
8
BLACK
6
CONTINUOUS
10
6.9744669685039371
20
-5.3361385039370077
11
6.9740639763779528
21
-5.3361330708661416
0
LINE
8
BLACK
6
CONTINUOUS
10
6.9740639763779528
20
-5.3361330708661416
11
6.973695196850394
21
-5.3362953149606298
0
LINE
8
BLACK
6
CONTINUOUS
10
6.973695196850394
20
-5.3362953149606298
11
6.96178594488189
21
-5.3374940157480317
0
LINE
8
BLACK
6
CONTINUOUS
10
6.96178594488189
20
-5.3374940157480317
11
6.9615853543307082
21
-5.3374504330708659
0
LINE
8
BLACK
6
CONTINUOUS
10
6.9615853543307082
20
-5.3374504330708659
11
6.961390118110236
21
-5.3375138188976381
0
LINE
8
BLACK
6
CONTINUOUS
10
6.961390118110236
20
-5.3375138188976381
11
6.3811127952755902
21
-5.3372893700787403
0
LINE
8
BLACK
6
CONTINUOUS
10
6.3811127952755902
20
-5.3372893700787403
11
6.0909756692913382
21
-5.3372893700787403
0
LINE
8
BLACK
6
CONTINUOUS
10
6.0909756692913382
20
-5.3372893700787403
11
5.8008370078740157
21
-5.3372893700787403
0
LINE
8
BLACK
6
CONTINUOUS
10
5.8008370078740157
20
-5.3372893700787403
11
5.5106983464566932
21
-5.3372893700787403
0
LINE
8
BLACK
6
CONTINUOUS
10
5.5106983464566932
20
-5.3372893700787403
11
5.2205733070866138
21
-5.3372893700787403
0
LINE
8
BLACK
6
CONTINUOUS
10
5.2205733070866138
20
-5.3372893700787403
11
5.0109605905511811
21
-5.3384058267716537
0
LINE
8
BLACK
6
CONTINUOUS
10
5.0109605905511811
20
-5.3384058267716537
11
4.9839108661417324
21
-5.3395382283464565
0
LINE
8
BLACK
6
CONTINUOUS
10
4.9839108661417324
20
-5.3395382283464565
11
4.9585988582677167
21
-5.3451628346456692
0
LINE
8
BLACK
6
CONTINUOUS
10
4.9585988582677167
20
-5.3451628346456692
11
4.9360105118110233
21
-5.3574154330708659
0
LINE
8
BLACK
6
CONTINUOUS
10
4.9360105118110233
20
-5.3574154330708659
11
4.916206220472441
21
-5.3737520078740157
0
LINE
8
BLACK
6
CONTINUOUS
10
4.916206220472441
20
-5.3737520078740157
11
4.8998696062992124
21
-5.3935564173228343
0
LINE
8
BLACK
6
CONTINUOUS
10
4.8998696062992124
20
-5.3935564173228343
11
4.8874640944881893
21
-5.4164266141732282
0
LINE
8
BLACK
6
CONTINUOUS
10
4.8874640944881893
20
-5.4164266141732282
11
4.8770536614173228
21
-5.4424944488188975
0
LINE
8
BLACK
6
CONTINUOUS
10
4.8770536614173228
20
-5.4424944488188975
11
4.8770074803149601
21
-5.4425498818897635
0
LINE
8
BLACK
6
CONTINUOUS
10
4.8770074803149601
20
-5.4425498818897635
11
4.8770002362204723
21
-5.4426216929133853
0
LINE
8
BLACK
6
CONTINUOUS
10
4.8770002362204723
20
-5.4426216929133853
11
4.8721144881889762
21
-5.4537105118110238
0
LINE
8
BLACK
6
CONTINUOUS
10
4.8721144881889762
20
-5.4537105118110238
11
4.8720028346456692
21
-5.4538354724409448
0
LINE
8
BLACK
6
CONTINUOUS
10
4.8720028346456692
20
-5.4538354724409448
11
4.8719723622047244
21
-5.454000275590551
0
LINE
8
BLACK
6
CONTINUOUS
10
4.8719723622047244
20
-5.454000275590551
11
4.8665307874015751
21
-5.4640321259842519
0
LINE
8
BLACK
6
CONTINUOUS
10
4.8665307874015751
20
-5.4640321259842519
11
4.8662494488188974
21
-5.4642992913385822
0
LINE
8
BLACK
6
CONTINUOUS
10
4.8662494488188974
20
-5.4642992913385822
11
4.8661071653543306
21
-5.4646602362204719
0
LINE
8
BLACK
6
CONTINUOUS
10
4.8661071653543306
20
-5.4646602362204719
11
4.8588989763779526
21
-5.4733985039370081
0
LINE
8
BLACK
6
CONTINUOUS
10
4.8588989763779526
20
-5.4733985039370081
11
4.8585739763779525
21
-5.4736053937007876
0
LINE
8
BLACK
6
CONTINUOUS
10
4.8585739763779525
20
-5.4736053937007876
11
4.8583671653543306
21
-5.4739302755905515
0
LINE
8
BLACK
6
CONTINUOUS
10
4.8583671653543306
20
-5.4739302755905515
11
4.8496288976377953
21
-5.4811385039370082
0
LINE
8
BLACK
6
CONTINUOUS
10
4.8496288976377953
20
-5.4811385039370082
11
4.8493370472440942
21
-5.4812535433070861
0
LINE
8
BLACK
6
CONTINUOUS
10
4.8493370472440942
20
-5.4812535433070861
11
4.849129803149606
21
-5.4814889763779524
0
LINE
8
BLACK
6
CONTINUOUS
10
4.849129803149606
20
-5.4814889763779524
11
4.6422547244094483
21
-5.6040068110236216
0
LINE
8
BLACK
6
CONTINUOUS
10
4.6422547244094483
20
-5.6040068110236216
11
4.6422347637795278
21
-5.6040112598425198
0
LINE
8
BLACK
6
CONTINUOUS
10
4.6422347637795278
20
-5.6040112598425198
11
4.6422211023622042
21
-5.6040264960629917
0
LINE
8
BLACK
6
CONTINUOUS
10
4.6422211023622042
20
-5.6040264960629917
11
4.5762489370078736
21
-5.6422209448818901
0
LINE
8
BLACK
6
CONTINUOUS
10
4.5762489370078736
20
-5.6422209448818901
11
4.5762488582677161
21
-5.6422209448818901
0
LINE
8
BLACK
6
CONTINUOUS
10
4.5762488582677161
20
-5.6422209448818901
11
4.5102767322834643
21
-5.6804153937007875
0
LINE
8
BLACK
6
CONTINUOUS
10
4.5102767322834643
20
-5.6804153937007875
11
4.5102766535433068
21
-5.6804153937007875
0
LINE
8
BLACK
6
CONTINUOUS
10
4.5102766535433068
20
-5.6804153937007875
11
4.4443044881889762
21
-5.718609842519685
0
LINE
8
BLACK
6
CONTINUOUS
10
4.4443044881889762
20
-5.718609842519685
11
4.4443044094488187
21
-5.718609842519685
0
LINE
8
BLACK
6
CONTINUOUS
10
4.4443044094488187
20
-5.718609842519685
11
4.3783322834645668
21
-5.7568042913385824
0
LINE
8
BLACK
6
CONTINUOUS
10
4.3783322834645668
20
-5.7568042913385824
11
4.3783322047244093
21
-5.7568042913385824
0
LINE
8
BLACK
6
CONTINUOUS
10
4.3783322047244093
20
-5.7568042913385824
11
4.3123600393700787
21
-5.7949987401574798
0
LINE
8
BLACK
6
CONTINUOUS
10
4.3123600393700787
20
-5.7949987401574798
11
4.3123599606299212
21
-5.7949987401574798
0
LINE
8
BLACK
6
CONTINUOUS
10
4.3123599606299212
20
-5.7949987401574798
11
4.2464326771653544
21
-5.8331672047244094
0
LINE
8
BLACK
6
CONTINUOUS
10
4.2464326771653544
20
-5.8331672047244094
11
4.1719927952755906
21
-5.8789356299212594
0
LINE
8
BLACK
6
CONTINUOUS
10
4.1719927952755906
20
-5.8789356299212594
11
4.1718335433070868
21
-5.8789740944881892
0
LINE
8
BLACK
6
CONTINUOUS
10
4.1718335433070868
20
-5.8789740944881892
11
4.1717177165354329
21
-5.8790899212598422
0
LINE
8
BLACK
6
CONTINUOUS
10
4.1717177165354329
20
-5.8790899212598422
11
4.1651077165354327
21
-5.8824569291338582
0
LINE
8
BLACK
6
CONTINUOUS
10
4.1651077165354327
20
-5.8824569291338582
11
4.1647452755905512
21
-5.8825142913385822
0
LINE
8
BLACK
6
CONTINUOUS
10
4.1647452755905512
20
-5.8825142913385822
11
4.1644431496062992
21
-5.8827224409448817
0
LINE
8
BLACK
6
CONTINUOUS
10
4.1644431496062992
20
-5.8827224409448817
11
4.1581967716535431
21
-5.8845803149606297
0
LINE
8
BLACK
6
CONTINUOUS
10
4.1581967716535431
20
-5.8845803149606297
11
4.1577450787401578
21
-5.8845689763779525
0
LINE
8
BLACK
6
CONTINUOUS
10
4.1577450787401578
20
-5.8845689763779525
11
4.1573251181102364
21
-5.8847357086614176
0
LINE
8
BLACK
6
CONTINUOUS
10
4.1573251181102364
20
-5.8847357086614176
11
4.1514607874015743
21
-5.8851099606299213
0
LINE
8
BLACK
6
CONTINUOUS
10
4.1514607874015743
20
-5.8851099606299213
11
4.1509587007874016
21
-5.8849814960629923
0
LINE
8
BLACK
6
CONTINUOUS
10
4.1509587007874016
20
-5.8849814960629923
11
4.1504440157480316
21
-5.8850427165354331
0
LINE
8
BLACK
6
CONTINUOUS
10
4.1504440157480316
20
-5.8850427165354331
11
4.1449801574803145
21
-5.883958897637795
0
LINE
8
BLACK
6
CONTINUOUS
10
4.1449801574803145
20
-5.883958897637795
11
4.144515511811024
21
-5.8836989763779526
0
LINE
8
BLACK
6
CONTINUOUS
10
4.144515511811024
20
-5.8836989763779526
11
4.1439889763779529
21
-5.8836202362204721
0
LINE
8
BLACK
6
CONTINUOUS
10
4.1439889763779529
20
-5.8836202362204721
11
4.1389440157480317
21
-5.8811039763779522
0
LINE
8
BLACK
6
CONTINUOUS
10
4.1389440157480317
20
-5.8811039763779522
11
4.1385977165354326
21
-5.8807635433070864
0
LINE
8
BLACK
6
CONTINUOUS
10
4.1385977165354326
20
-5.8807635433070864
11
4.1381488976377954
21
-5.8805784645669288
0
LINE
8
BLACK
6
CONTINUOUS
10
4.1381488976377954
20
-5.8805784645669288
11
4.1335412992125979
21
-5.8766553149606295
0
LINE
8
BLACK
6
CONTINUOUS
10
4.1335412992125979
20
-5.8766553149606295
11
4.1333292519685036
21
-5.8763104330708664
0
LINE
8
BLACK
6
CONTINUOUS
10
4.1333292519685036
20
-5.8763104330708664
11
4.1329933464566926
21
-5.876084330708661
0
LINE
8
BLACK
6
CONTINUOUS
10
4.1329933464566926
20
-5.876084330708661
11
4.1288414566929132
21
-5.8707798425196849
0
LINE
8
BLACK
6
CONTINUOUS
10
4.1288414566929132
20
-5.8707798425196849
11
4.1287308267716538
21
-5.8704766929133854
0
LINE
8
BLACK
6
CONTINUOUS
10
4.1287308267716538
20
-5.8704766929133854
11
4.1284952362204725
21
-5.8702562992125982
0
LINE
8
BLACK
6
CONTINUOUS
10
4.1284952362204725
20
-5.8702562992125982
11
4.1248435433070867
21
-5.8636430314960633
0
LINE
8
BLACK
6
CONTINUOUS
10
4.1248435433070867
20
-5.8636430314960633
11
4.0759628346456696
21
-5.7805762204724411
0
LINE
8
BLACK
6
CONTINUOUS
10
4.0759628346456696
20
-5.7805762204724411
11
4.0759571259842522
21
-5.7805505511811024
0
LINE
8
BLACK
6
CONTINUOUS
10
4.0759571259842522
20
-5.7805505511811024
11
4.0759376771653546
21
-5.7805328740157478
0
LINE
8
BLACK
6
CONTINUOUS
10
4.0759376771653546
20
-5.7805328740157478
11
4.0109513779527557
21
-5.6668107086614175
0
LINE
8
BLACK
6
CONTINUOUS
10
4.0109513779527557
20
-5.6668107086614175
11
3.9439514960629922
21
-5.5504442125984248
0
LINE
8
BLACK
6
CONTINUOUS
10
3.9439514960629922
20
-5.5504442125984248
11
3.8779847244094485
21
-5.4376062992125984
0
LINE
8
BLACK
6
CONTINUOUS
10
3.8779847244094485
20
-5.4376062992125984
11
3.8100083858267717
21
-5.322622834645669
0
LINE
8
BLACK
6
CONTINUOUS
10
3.8100083858267717
20
-5.322622834645669
11
3.8100082677165354
21
-5.3226224409448815
0
LINE
8
BLACK
6
CONTINUOUS
10
3.8100082677165354
20
-5.3226224409448815
11
3.8100079527559054
21
-5.3226221653543302
0
LINE
8
BLACK
6
CONTINUOUS
10
3.8100079527559054
20
-5.3226221653543302
11
3.745031811023622
21
-5.2126625590551177
0
LINE
8
BLACK
6
CONTINUOUS
10
3.745031811023622
20
-5.2126625590551177
11
3.6750575984251967
21
-5.1005510629921256
0
LINE
8
BLACK
6
CONTINUOUS
10
3.6750575984251967
20
-5.1005510629921256
11
3.6750400000000001
21
-5.1004803149606301
0
LINE
8
BLACK
6
CONTINUOUS
10
3.6750400000000001
20
-5.1004803149606301
11
3.6749859055118108
21
-5.1004315354330707
0
LINE
8
BLACK
6
CONTINUOUS
10
3.6749859055118108
20
-5.1004315354330707
11
3.6099859055118109
21
-4.9875843307086614
0
LINE
8
BLACK
6
CONTINUOUS
10
3.6099859055118109
20
-4.9875843307086614
11
3.6099679527559054
21
-4.9874995275590548
0
LINE
8
BLACK
6
CONTINUOUS
10
3.6099679527559054
20
-4.9874995275590548
11
3.6099061023622045
21
-4.9874388188976377
0
LINE
8
BLACK
6
CONTINUOUS
10
3.6099061023622045
20
-4.9874388188976377
11
3.5349061417322836
21
-4.8435294488188978
0
LINE
8
BLACK
6
CONTINUOUS
10
3.5349061417322836
20
-4.8435294488188978
11
3.5348826377952753
21
-4.8433894881889765
0
LINE
8
BLACK
6
CONTINUOUS
10
3.5348826377952753
20
-4.8433894881889765
11
3.5347884251968504
21
-4.8432831889763781
0
LINE
8
BLACK
6
CONTINUOUS
10
3.5347884251968504
20
-4.8432831889763781
11
3.4697884251968505
21
-4.6941727952755903
0
LINE
8
BLACK
6
CONTINUOUS
10
3.4697884251968505
20
-4.6941727952755903
11
3.4697753937007874
21
-4.6940390157480314
0
LINE
8
BLACK
6
CONTINUOUS
10
3.4697753937007874
20
-4.6940390157480314
11
3.469693031496063
21
-4.6939327952755905
0
LINE
8
BLACK
6
CONTINUOUS
10
3.469693031496063
20
-4.6939327952755905
11
3.4146930708661416
21
-4.5411161417322834
0
LINE
8
BLACK
6
CONTINUOUS
10
3.4146930708661416
20
-4.5411161417322834
11
3.4146892519685039
21
-4.5409953543307084
0
LINE
8
BLACK
6
CONTINUOUS
10
3.4146892519685039
20
-4.5409953543307084
11
3.4146209448818898
21
-4.5408956299212599
0
LINE
8
BLACK
6
CONTINUOUS
10
3.4146209448818898
20
-4.5408956299212599
11
3.3696209448818899
21
-4.3881723228346452
0
LINE
8
BLACK
6
CONTINUOUS
10
3.3696209448818899
20
-4.3881723228346452
11
3.3696247637795276
21
-4.3880329133858265
0
LINE
8
BLACK
6
CONTINUOUS
10
3.3696247637795276
20
-4.3880329133858265
11
3.3695540157480313
21
-4.3879128346456691
0
LINE
8
BLACK
6
CONTINUOUS
10
3.3695540157480313
20
-4.3879128346456691
11
3.3345540157480316
21
-4.230258464566929
0
LINE
8
BLACK
6
CONTINUOUS
10
3.3345540157480316
20
-4.230258464566929
11
3.3345602362204723
21
-4.23019342519685
0
LINE
8
BLACK
6
CONTINUOUS
10
3.3345602362204723
20
-4.23019342519685
11
3.3345288582677166
21
-4.2301361023622048
0
LINE
8
BLACK
6
CONTINUOUS
10
3.3345288582677166
20
-4.2301361023622048
11
3.3045288582677164
21
-4.0713501968503936
0
LINE
8
BLACK
6
CONTINUOUS
10
3.3045288582677164
20
-4.0713501968503936
11
3.3045367716535434
21
-4.0712881889763777
0
LINE
8
BLACK
6
CONTINUOUS
10
3.3045367716535434
20
-4.0712881889763777
11
3.3045084645669291
21
-4.0712325196850392
0
LINE
8
BLACK
6
CONTINUOUS
10
3.3045084645669291
20
-4.0712325196850392
11
3.279508503937008
21
-3.9126880314960628
0
LINE
8
BLACK
6
CONTINUOUS
10
3.279508503937008
20
-3.9126880314960628
11
3.2795222047244095
21
-3.912601811023622
0
LINE
8
BLACK
6
CONTINUOUS
10
3.2795222047244095
20
-3.912601811023622
11
3.2794859448818898
21
-3.9125223228346457
0
LINE
8
BLACK
6
CONTINUOUS
10
3.2794859448818898
20
-3.9125223228346457
11
3.26135531496063
21
-3.754048149606299
0
LINE
8
BLACK
6
CONTINUOUS
10
3.26135531496063
20
-3.754048149606299
11
3.2618392913385827
21
-3.7516635433070866
0
LINE
8
BLACK
6
CONTINUOUS
10
3.2618392913385827
20
-3.7516635433070866
11
3.2623140157480313
21
-3.7512281102362204
0
LINE
8
BLACK
6
CONTINUOUS
10
3.2623140157480313
20
-3.7512281102362204
11
3.2623042519685037
21
-2.9937570472440944
0
LINE
8
BLACK
6
CONTINUOUS
10
3.2623042519685037
20
-2.9937570472440944
11
3.2620718897637793
21
-2.9935882283464568
0
LINE
8
BLACK
6
CONTINUOUS
10
3.2620718897637793
20
-2.9935882283464568
11
3.26132
21
-2.991274094488189
0
LINE
8
BLACK
6
CONTINUOUS
10
3.26132
20
-2.991274094488189
11
3.26132
21
-2.7429696456692914
0
LINE
8
BLACK
6
CONTINUOUS
10
3.26132
20
-2.7429696456692914
11
3.26132
21
-2.4946651574803149
0
LINE
8
BLACK
6
CONTINUOUS
10
3.26132
20
-2.4946651574803149
11
3.26132
21
-2.2463607086614172
0
LINE
8
BLACK
6
CONTINUOUS
10
3.26132
20
-2.2463607086614172
11
3.26132
21
-1.9980562598425196
0
LINE
8
BLACK
6
CONTINUOUS
10
3.26132
20
-1.9980562598425196
11
3.26132
21
-1.7497517716535433
0
LINE
8
BLACK
6
CONTINUOUS
10
3.26132
20
-1.7497517716535433
11
3.26132
21
-1.5014473228346457
0
LINE
8
BLACK
6
CONTINUOUS
10
3.26132
20
-1.5014473228346457
11
3.2613992519685038
21
-1.5012032677165354
0
LINE
8
BLACK
6
CONTINUOUS
10
3.2613992519685038
20
-1.5012032677165354
11
3.2613666535433068
21
-1.5010530314960631
0
LINE
8
BLACK
6
CONTINUOUS
10
3.2613666535433068
20
-1.5010530314960631
11
3.2622057480314961
21
-1.4927165354330709
0
LINE
8
BLACK
6
CONTINUOUS
10
3.2622057480314961
20
-1.4927165354330709
11
3.2623679527559055
21
-1.4923477165354331
0
LINE
8
BLACK
6
CONTINUOUS
10
3.2623679527559055
20
-1.4923477165354331
11
3.2623625590551182
21
-1.4919448425196851
0
LINE
8
BLACK
6
CONTINUOUS
10
3.2623625590551182
20
-1.4919448425196851
11
3.2647694094488187
21
-1.4841825984251968
0
LINE
8
BLACK
6
CONTINUOUS
10
3.2647694094488187
20
-1.4841825984251968
11
3.2649972834645666
21
-1.4838598425196849
0
LINE
8
BLACK
6
CONTINUOUS
10
3.2649972834645666
20
-1.4838598425196849
11
3.2650691338582676
21
-1.4834714173228347
0
LINE
8
BLACK
6
CONTINUOUS
10
3.2650691338582676
20
-1.4834714173228347
11
3.2688782677165356
21
-1.4764491732283465
0
LINE
8
BLACK
6
CONTINUOUS
10
3.2688782677165356
20
-1.4764491732283465
11
3.2691595669291336
21
-1.476181968503937
0
LINE
8
BLACK
6
CONTINUOUS
10
3.2691595669291336
20
-1.476181968503937
11
3.2693018897637796
21
-1.475821062992126
0
LINE
8
BLACK
6
CONTINUOUS
10
3.2693018897637796
20
-1.475821062992126
11
3.2743475984251966
21
-1.4697042913385827
0
LINE
8
BLACK
6
CONTINUOUS
10
3.2743475984251966
20
-1.4697042913385827
11
3.2746724803149605
21
-1.4694974409448818
0
LINE
8
BLACK
6
CONTINUOUS
10
3.2746724803149605
20
-1.4694974409448818
11
3.27487937007874
21
-1.4691725196850394
0
LINE
8
BLACK
6
CONTINUOUS
10
3.27487937007874
20
-1.4691725196850394
11
3.280996181102362
21
-1.4641267716535433
0
LINE
8
BLACK
6
CONTINUOUS
10
3.280996181102362
20
-1.4641267716535433
11
3.281357086614173
21
-1.4639844488188976
0
LINE
8
BLACK
6
CONTINUOUS
10
3.281357086614173
20
-1.4639844488188976
11
3.2816242913385825
21
-1.4637031496062991
0
LINE
8
BLACK
6
CONTINUOUS
10
3.2816242913385825
20
-1.4637031496062991
11
3.2886465748031495
21
-1.4598940551181101
0
LINE
8
BLACK
6
CONTINUOUS
10
3.2886465748031495
20
-1.4598940551181101
11
3.2890349606299214
21
-1.4598222047244094
0
LINE
8
BLACK
6
CONTINUOUS
10
3.2890349606299214
20
-1.4598222047244094
11
3.2893577165354331
21
-1.4595943307086614
0
LINE
8
BLACK
6
CONTINUOUS
10
3.2893577165354331
20
-1.4595943307086614
11
3.2971198818897638
21
-1.457187440944882
0
LINE
8
BLACK
6
CONTINUOUS
10
3.2971198818897638
20
-1.457187440944882
11
3.2975227952755906
21
-1.4571928346456693
0
LINE
8
BLACK
6
CONTINUOUS
10
3.2975227952755906
20
-1.4571928346456693
11
3.2978916141732282
21
-1.4570306299212599
0
LINE
8
BLACK
6
CONTINUOUS
10
3.2978916141732282
20
-1.4570306299212599
11
3.3062281496062993
21
-1.4561915354330708
0
LINE
8
BLACK
6
CONTINUOUS
10
3.3062281496062993
20
-1.4561915354330708
11
3.3064279527559055
21
-1.4562349212598424
0
LINE
8
BLACK
6
CONTINUOUS
10
3.3064279527559055
20
-1.4562349212598424
11
3.3066224409448819
21
-1.4561717322834646
0
LINE
8
BLACK
6
CONTINUOUS
10
3.3066224409448819
20
-1.4561717322834646
11
3.71637968503937
21
-1.4561717322834646
0
LINE
8
BLACK
6
CONTINUOUS
10
3.3068200000000001
20
-1.4640457480314961
11
3.2990740551181101
21
-1.4648253937007873
0
LINE
8
BLACK
6
CONTINUOUS
10
3.2990740551181101
20
-1.4648253937007873
11
3.292059960629921
21
-1.4670003149606299
0
LINE
8
BLACK
6
CONTINUOUS
10
3.292059960629921
20
-1.4670003149606299
11
3.285713188976378
21
-1.4704429921259843
0
LINE
8
BLACK
6
CONTINUOUS
10
3.285713188976378
20
-1.4704429921259843
11
3.280181220472441
21
-1.4750062992125983
0
LINE
8
BLACK
6
CONTINUOUS
10
3.280181220472441
20
-1.4750062992125983
11
3.275618149606299
21
-1.4805379921259842
0
LINE
8
BLACK
6
CONTINUOUS
10
3.275618149606299
20
-1.4805379921259842
11
3.2721753149606299
21
-1.486885
0
LINE
8
BLACK
6
CONTINUOUS
10
3.2721753149606299
20
-1.486885
11
3.2700005118110234
21
-1.4938988976377952
0
LINE
8
BLACK
6
CONTINUOUS
10
3.2700005118110234
20
-1.4938988976377952
11
3.269201062992126
21
-1.5018416141732283
0
LINE
8
BLACK
6
CONTINUOUS
10
3.269201062992126
20
-1.5018416141732283
11
3.2691940157480315
21
-1.5018575984251967
0
LINE
8
BLACK
6
CONTINUOUS
10
3.2691940157480315
20
-1.5018575984251967
11
3.2691940157480315
21
-1.7497517716535433
0
LINE
8
BLACK
6
CONTINUOUS
10
3.2691940157480315
20
-1.7497517716535433
11
3.2691940157480315
21
-1.9980562598425196
0
LINE
8
BLACK
6
CONTINUOUS
10
3.2691940157480315
20
-1.9980562598425196
11
3.2691940157480315
21
-2.2463607086614172
0
LINE
8
BLACK
6
CONTINUOUS
10
3.2691940157480315
20
-2.2463607086614172
11
3.2691940157480315
21
-2.4946651574803149
0
LINE
8
BLACK
6
CONTINUOUS
10
3.2691940157480315
20
-2.4946651574803149
11
3.2691940157480315
21
-2.7429696456692914
0
LINE
8
BLACK
6
CONTINUOUS
10
3.2691940157480315
20
-2.7429696456692914
11
3.2691940157480315
21
-2.991274094488189
0
LINE
8
BLACK
6
CONTINUOUS
10
3.2691940157480315
20
-2.991274094488189
11
3.2684421259842518
21
-2.9935882283464568
0
LINE
8
BLACK
6
CONTINUOUS
10
3.2684421259842518
20
-2.9935882283464568
11
3.2682097637795273
21
-2.9937570078740157
0
LINE
8
BLACK
6
CONTINUOUS
10
3.2682097637795273
20
-2.9937570078740157
11
3.2682195275590549
21
-3.7510517716535432
0
LINE
8
BLACK
6
CONTINUOUS
10
3.2682195275590549
20
-3.7510517716535432
11
3.2691783070866141
21
-3.7531531102362203
0
LINE
8
BLACK
6
CONTINUOUS
10
3.2691783070866141
20
-3.7531531102362203
11
3.2872994488188976
21
-3.9115446456692911
0
LINE
8
BLACK
6
CONTINUOUS
10
3.2872994488188976
20
-3.9115446456692911
11
3.3122768897637793
21
-4.069945905511811
0
LINE
8
BLACK
6
CONTINUOUS
10
3.3122768897637793
20
-4.069945905511811
11
3.3422544881889764
21
-4.2286133464566928
0
LINE
8
BLACK
6
CONTINUOUS
10
3.3422544881889764
20
-4.2286133464566928
11
3.3772117322834645
21
-4.3860751181102362
0
LINE
8
BLACK
6
CONTINUOUS
10
3.3772117322834645
20
-4.3860751181102362
11
3.4221412992125981
21
-4.5385594488188978
0
LINE
8
BLACK
6
CONTINUOUS
10
3.4221412992125981
20
-4.5385594488188978
11
3.4770579133858268
21
-4.6911444094488184
0
LINE
8
BLACK
6
CONTINUOUS
10
3.4770579133858268
20
-4.6911444094488184
11
3.5419520078740159
21
-4.8400118110236221
0
LINE
8
BLACK
6
CONTINUOUS
10
3.5419520078740159
20
-4.8400118110236221
11
3.6168504330708662
21
-4.9837262598425198
0
LINE
8
BLACK
6
CONTINUOUS
10
3.6168504330708662
20
-4.9837262598425198
11
3.6817741338582675
21
-5.0964409842519682
0
LINE
8
BLACK
6
CONTINUOUS
10
3.6817741338582675
20
-5.0964409842519682
11
3.7517372834645668
21
-5.2085347244094491
0
LINE
8
BLACK
6
CONTINUOUS
10
3.7517372834645668
20
-5.2085347244094491
11
3.7517493307086611
21
-5.2085832677165351
0
LINE
8
BLACK
6
CONTINUOUS
10
3.7517493307086611
20
-5.2085832677165351
11
3.7517869291338584
21
-5.2086164173228342
0
LINE
8
BLACK
6
CONTINUOUS
10
3.7517869291338584
20
-5.2086164173228342
11
3.8167869291338583
21
-5.3186164173228345
0
LINE
8
BLACK
6
CONTINUOUS
10
3.8167869291338583
20
-5.3186164173228345
11
3.8167869291338583
21
-5.318616496062992
0
LINE
8
BLACK
6
CONTINUOUS
10
3.8167869291338583
20
-5.318616496062992
11
3.8847725984251968
21
-5.4336157086614172
0
LINE
8
BLACK
6
CONTINUOUS
10
3.8847725984251968
20
-5.4336157086614172
11
3.8847747637795274
21
-5.4336255118110239
0
LINE
8
BLACK
6
CONTINUOUS
10
3.8847747637795274
20
-5.4336255118110239
11
3.8847823622047244
21
-5.4336322834645667
0
LINE
8
BLACK
6
CONTINUOUS
10
3.8847823622047244
20
-5.4336322834645667
11
3.9507545669291337
21
-5.5464794881889761
0
LINE
8
BLACK
6
CONTINUOUS
10
3.9507545669291337
20
-5.5464794881889761
11
3.9507574803149605
21
-5.5464928740157475
0
LINE
8
BLACK
6
CONTINUOUS
10
3.9507574803149605
20
-5.5464928740157475
11
3.9507676377952756
21
-5.5465020472440942
0
LINE
8
BLACK
6
CONTINUOUS
10
3.9507676377952756
20
-5.5465020472440942
11
4.0177815354330706
21
-5.6628929133858268
0
LINE
8
BLACK
6
CONTINUOUS
10
4.0177815354330706
20
-5.6628929133858268
11
4.0177829133858269
21
-5.662899448818898
0
LINE
8
BLACK
6
CONTINUOUS
10
4.0177829133858269
20
-5.662899448818898
11
4.0177879133858267
21
-5.6629040157480315
0
LINE
8
BLACK
6
CONTINUOUS
10
4.0177879133858267
20
-5.6629040157480315
11
4.0827610629921258
21
-5.7766032677165349
0
LINE
8
BLACK
6
CONTINUOUS
10
4.0827610629921258
20
-5.7766032677165349
11
4.1316572047244096
21
-5.8596962598425195
0
LINE
8
BLACK
6
CONTINUOUS
10
4.1316572047244096
20
-5.8596962598425195
11
4.1316693700787397
21
-5.859751299212598
0
LINE
8
BLACK
6
CONTINUOUS
10
4.1316693700787397
20
-5.859751299212598
11
4.1317105905511813
21
-5.859789881889764
0
LINE
8
BLACK
6
CONTINUOUS
10
4.1317105905511813
20
-5.859789881889764
11
4.1352359842519686
21
-5.8661744094488188
0
LINE
8
BLACK
6
CONTINUOUS
10
4.1352359842519686
20
-5.8661744094488188
11
4.1389487007874015
21
-5.8709179133858269
0
LINE
8
BLACK
6
CONTINUOUS
10
4.1389487007874015
20
-5.8709179133858269
11
4.1428879527559053
21
-5.8742719685039368
0
LINE
8
BLACK
6
CONTINUOUS
10
4.1428879527559053
20
-5.8742719685039368
11
4.1470305118110238
21
-5.8763381496062994
0
LINE
8
BLACK
6
CONTINUOUS
10
4.1470305118110238
20
-5.8763381496062994
11
4.151472047244094
21
-5.8772191732283465
0
LINE
8
BLACK
6
CONTINUOUS
10
4.151472047244094
20
-5.8772191732283465
11
4.1563790157480316
21
-5.8769060236220474
0
LINE
8
BLACK
6
CONTINUOUS
10
4.1563790157480316
20
-5.8769060236220474
11
4.1618538582677163
21
-5.8752776377952758
0
LINE
8
BLACK
6
CONTINUOUS
10
4.1618538582677163
20
-5.8752776377952758
11
4.168003070866142
21
-5.8721453543307085
0
LINE
8
BLACK
6
CONTINUOUS
10
4.168003070866142
20
-5.8721453543307085
11
4.2423531889763781
21
-5.8264321653543307
0
LINE
8
BLACK
6
CONTINUOUS
10
4.2423531889763781
20
-5.8264321653543307
11
4.2424061811023623
21
-5.8264193307086609
0
LINE
8
BLACK
6
CONTINUOUS
10
4.2424061811023623
20
-5.8264193307086609
11
4.2424426377952758
21
-5.826378779527559
0
LINE
8
BLACK
6
CONTINUOUS
10
4.2424426377952758
20
-5.826378779527559
11
4.3084147637795276
21
-5.7881844094488191
0
LINE
8
BLACK
6
CONTINUOUS
10
4.3084147637795276
20
-5.7881844094488191
11
4.3084148425196851
21
-5.7881843307086616
0
LINE
8
BLACK
6
CONTINUOUS
10
4.3084148425196851
20
-5.7881843307086616
11
4.3743870078740157
21
-5.7499899606299207
0
LINE
8
BLACK
6
CONTINUOUS
10
4.3743870078740157
20
-5.7499899606299207
11
4.3743870866141732
21
-5.7499898818897632
0
LINE
8
BLACK
6
CONTINUOUS
10
4.3743870866141732
20
-5.7499898818897632
11
4.440359212598425
21
-5.7117955118110233
0
LINE
8
BLACK
6
CONTINUOUS
10
4.440359212598425
20
-5.7117955118110233
11
4.4403592913385825
21
-5.7117954330708658
0
LINE
8
BLACK
6
CONTINUOUS
10
4.4403592913385825
20
-5.7117954330708658
11
4.5063314566929131
21
-5.6736010629921259
0
LINE
8
BLACK
6
CONTINUOUS
10
4.5063314566929131
20
-5.6736010629921259
11
4.5063315354330706
21
-5.6736009842519683
0
LINE
8
BLACK
6
CONTINUOUS
10
4.5063315354330706
20
-5.6736009842519683
11
4.5723036614173225
21
-5.6354066141732284
0
LINE
8
BLACK
6
CONTINUOUS
10
4.5723036614173225
20
-5.6354066141732284
11
4.57230374015748
21
-5.6354065354330709
0
LINE
8
BLACK
6
CONTINUOUS
10
4.57230374015748
20
-5.6354065354330709
11
4.6382576377952756
21
-5.5972227165354331
0
LINE
8
BLACK
6
CONTINUOUS
10
4.6382576377952756
20
-5.5972227165354331
11
4.8448543700787399
21
-5.4748696850393701
0
LINE
8
BLACK
6
CONTINUOUS
10
4.8448543700787399
20
-5.4748696850393701
11
4.8530652362204725
21
-5.4680965354330704
0
LINE
8
BLACK
6
CONTINUOUS
10
4.8530652362204725
20
-5.4680965354330704
11
4.8597909055118107
21
-5.4599432283464564
0
LINE
8
BLACK
6
CONTINUOUS
10
4.8597909055118107
20
-5.4599432283464564
11
4.864974094488189
21
-5.4503876771653541
0
LINE
8
BLACK
6
CONTINUOUS
10
4.864974094488189
20
-5.4503876771653541
11
4.8697667716535431
21
-5.4395101181102357
0
LINE
8
BLACK
6
CONTINUOUS
10
4.8697667716535431
20
-5.4395101181102357
11
4.8802372047244091
21
-5.4132921259842517
0
LINE
8
BLACK
6
CONTINUOUS
10
4.8802372047244091
20
-5.4132921259842517
11
4.8803894488188977
21
-5.413109133858268
0
LINE
8
BLACK
6
CONTINUOUS
10
4.8803894488188977
20
-5.413109133858268
11
4.8804327559055114
21
-5.4128751181102359
0
LINE
8
BLACK
6
CONTINUOUS
10
4.8804327559055114
20
-5.4128751181102359
11
4.8931297637795277
21
-5.3894675196850397
0
LINE
8
BLACK
6
CONTINUOUS
10
4.8931297637795277
20
-5.3894675196850397
11
4.8934110629921257
21
-5.3892003149606298
0
LINE
8
BLACK
6
CONTINUOUS
10
4.8934110629921257
20
-5.3892003149606298
11
4.8935533858267712
21
-5.3888394094488188
0
LINE
8
BLACK
6
CONTINUOUS
10
4.8935533858267712
20
-5.3888394094488188
11
4.9103725196850396
21
-5.3684501181102364
0
LINE
8
BLACK
6
CONTINUOUS
10
4.9103725196850396
20
-5.3684501181102364
11
4.9106973622047239
21
-5.3682432677165357
0
LINE
8
BLACK
6
CONTINUOUS
10
4.9106973622047239
20
-5.3682432677165357
11
4.910904291338583
21
-5.3679183070866143
0
LINE
8
BLACK
6
CONTINUOUS
10
4.910904291338583
20
-5.3679183070866143
11
4.9312936220472441
21
-5.3510991732283459
0
LINE
8
BLACK
6
CONTINUOUS
10
4.9312936220472441
20
-5.3510991732283459
11
4.9316545275590551
21
-5.3509568503937004
0
LINE
8
BLACK
6
CONTINUOUS
10
4.9316545275590551
20
-5.3509568503937004
11
4.9319217322834641
21
-5.3506755511811024
0
LINE
8
BLACK
6
CONTINUOUS
10
4.9319217322834641
20
-5.3506755511811024
11
4.9553293307086612
21
-5.3379785433070861
0
LINE
8
BLACK
6
CONTINUOUS
10
4.9553293307086612
20
-5.3379785433070861
11
4.9558746850393698
21
-5.3378776771653538
0
LINE
8
BLACK
6
CONTINUOUS
10
4.9558746850393698
20
-5.3378776771653538
11
4.9563524803149601
21
-5.3375959448818895
0
LINE
8
BLACK
6
CONTINUOUS
10
4.9563524803149601
20
-5.3375959448818895
11
4.9825434251968499
21
-5.3317760236220471
0
LINE
8
BLACK
6
CONTINUOUS
10
4.9825434251968499
20
-5.3317760236220471
11
4.9828984645669294
21
-5.3318099999999999
0
LINE
8
BLACK
6
CONTINUOUS
10
4.9828984645669294
20
-5.3318099999999999
11
4.9832327559055116
21
-5.3316857480314956
0
LINE
8
BLACK
6
CONTINUOUS
10
4.9832327559055116
20
-5.3316857480314956
11
5.0107040944881884
21
-5.3305357086614169
0
LINE
8
BLACK
6
CONTINUOUS
10
5.0107040944881884
20
-5.3305357086614169
11
5.0107763779527561
21
-5.330555866141732
0
LINE
8
BLACK
6
CONTINUOUS
10
5.0107763779527561
20
-5.330555866141732
11
5.0108477952755903
21
-5.3305322834645672
0
LINE
8
BLACK
6
CONTINUOUS
10
5.0108477952755903
20
-5.3305322834645672
11
5.2205387795275593
21
-5.3294153937007875
0
LINE
8
BLACK
6
CONTINUOUS
10
5.2205387795275593
20
-5.3294153937007875
11
5.2205492519685039
21
-5.3294187401574806
0
LINE
8
BLACK
6
CONTINUOUS
10
5.2205492519685039
20
-5.3294187401574806
11
5.2205597244094486
21
-5.3294153543307088
0
LINE
8
BLACK
6
CONTINUOUS
10
5.2205597244094486
20
-5.3294153543307088
11
5.5106983464566932
21
-5.3294153543307088
0
LINE
8
BLACK
6
CONTINUOUS
10
5.5106983464566932
20
-5.3294153543307088
11
5.8008370078740157
21
-5.3294153543307088
0
LINE
8
BLACK
6
CONTINUOUS
10
5.8008370078740157
20
-5.3294153543307088
11
6.0909756692913382
21
-5.3294153543307088
0
LINE
8
BLACK
6
CONTINUOUS
10
6.0909756692913382
20
-5.3294153543307088
11
6.3811143307086615
21
-5.3294153543307088
0
LINE
8
BLACK
6
CONTINUOUS
10
6.3811143307086615
20
-5.3294153543307088
11
6.3811150787401569
21
-5.3294155905511813
0
LINE
8
BLACK
6
CONTINUOUS
10
6.3811150787401569
20
-5.3294155905511813
11
6.381115866141732
21
-5.3294153543307088
0
LINE
8
BLACK
6
CONTINUOUS
10
6.381115866141732
20
-5.3294153543307088
11
6.961194842519685
21
-5.3296397244094491
0
LINE
8
BLACK
6
CONTINUOUS
10
6.961194842519685
20
-5.3296397244094491
11
6.9725127559055116
21
-5.3285005118110238
0
LINE
8
BLACK
6
CONTINUOUS
10
6.9725127559055116
20
-5.3285005118110238
11
6.9828534645669293
21
-5.325294133858268
0
LINE
8
BLACK
6
CONTINUOUS
10
6.9828534645669293
20
-5.325294133858268
11
6.9922098031496063
21
-5.3202189370078736
0
LINE
8
BLACK
6
CONTINUOUS
10
6.9922098031496063
20
-5.3202189370078736
11
7.0003631889763778
21
-5.3134932283464567
0
LINE
8
BLACK
6
CONTINUOUS
10
7.0003631889763778
20
-5.3134932283464567
11
7.007088858267716
21
-5.3053399212598427
0
LINE
8
BLACK
6
CONTINUOUS
10
7.007088858267716
20
-5.3053399212598427
11
7.0121640551181104
21
-5.2959834645669286
0
LINE
8
BLACK
6
CONTINUOUS
10
7.0121640551181104
20
-5.2959834645669286
11
7.0153704724409449
21
-5.2856427952755904
0
LINE
8
BLACK
6
CONTINUOUS
10
7.0153704724409449
20
-5.2856427952755904
11
7.0165097637795277
21
-5.2743241732283463
0
LINE
8
BLACK
6
CONTINUOUS
10
7.0165097637795277
20
-5.2743241732283463
11
7.0165097637795277
21
-5.1810225590551182
0
LINE
8
BLACK
6
CONTINUOUS
10
7.0165097637795277
20
-5.1810225590551182
11
7.0165097637795277
21
-5.1330682283464562
0
LINE
8
BLACK
6
CONTINUOUS
10
7.0165097637795277
20
-5.1330682283464562
11
7.0165097637795277
21
-5.0851139370078737
0
LINE
8
BLACK
6
CONTINUOUS
10
7.0165097637795277
20
-5.0851139370078737
11
7.0165097637795277
21
-5.0371596062992126
0
LINE
8
BLACK
6
CONTINUOUS
10
7.0165097637795277
20
-5.0371596062992126
11
7.0165097637795277
21
-4.9892052755905514
0
LINE
8
BLACK
6
CONTINUOUS
10
7.0165097637795277
20
-4.9892052755905514
11
7.0165097637795277
21
-4.9412509842519681
0
LINE
8
BLACK
6
CONTINUOUS
10
7.0165097637795277
20
-4.9412509842519681
11
7.0165097637795277
21
-4.8932966535433069
0
LINE
8
BLACK
6
CONTINUOUS
10
7.0165097637795277
20
-4.8932966535433069
11
7.0165729527559053
21
-4.893102165354331
0
LINE
8
BLACK
6
CONTINUOUS
10
7.0165729527559053
20
-4.893102165354331
11
7.0165295669291341
21
-4.8929023622047243
0
LINE
8
BLACK
6
CONTINUOUS
10
7.0165295669291341
20
-4.8929023622047243
11
7.0193265354330707
21
-4.8651140551181102
0
LINE
8
BLACK
6
CONTINUOUS
10
7.0193265354330707
20
-4.8651140551181102
11
7.0194887401574801
21
-4.8647452362204726
0
LINE
8
BLACK
6
CONTINUOUS
10
7.0194887401574801
20
-4.8647452362204726
11
7.0194833464566928
21
-4.8643422834645671
0
LINE
8
BLACK
6
CONTINUOUS
10
7.0194833464566928
20
-4.8643422834645671
11
7.0275062992125985
21
-4.8384683858267712
0
LINE
8
BLACK
6
CONTINUOUS
10
7.0275062992125985
20
-4.8384683858267712
11
7.027734173228346
21
-4.83814562992126
0
LINE
8
BLACK
6
CONTINUOUS
10
7.027734173228346
20
-4.83814562992126
11
7.0278060236220474
21
-4.8377572047244097
0
LINE
8
BLACK
6
CONTINUOUS
10
7.0278060236220474
20
-4.8377572047244097
11
7.0405030314960628
21
-4.8143496062992126
0
LINE
8
BLACK
6
CONTINUOUS
10
7.0405030314960628
20
-4.8143496062992126
11
7.0407843307086608
21
-4.8140824015748027
0
LINE
8
BLACK
6
CONTINUOUS
10
7.0407843307086608
20
-4.8140824015748027
11
7.0409266535433073
21
-4.8137214960629917
0
LINE
8
BLACK
6
CONTINUOUS
10
7.0409266535433073
20
-4.8137214960629917
11
7.0577457874015748
21
-4.7933322047244094
0
LINE
8
BLACK
6
CONTINUOUS
10
7.0577457874015748
20
-4.7933322047244094
11
7.0580706299212599
21
-4.7931253543307086
0
LINE
8
BLACK
6
CONTINUOUS
10
7.0580706299212599
20
-4.7931253543307086
11
7.0582775590551181
21
-4.7928003937007873
0
LINE
8
BLACK
6
CONTINUOUS
10
7.0582775590551181
20
-4.7928003937007873
11
7.0786668897637792
21
-4.7759812598425198
0
LINE
8
BLACK
6
CONTINUOUS
10
7.0786668897637792
20
-4.7759812598425198
11
7.0790277952755902
21
-4.7758389370078742
0
LINE
8
BLACK
6
CONTINUOUS
10
7.0790277952755902
20
-4.7758389370078742
11
7.0792950000000001
21
-4.7755576377952753
0
LINE
8
BLACK
6
CONTINUOUS
10
7.0792950000000001
20
-4.7755576377952753
11
7.1027025984251964
21
-4.7628606299212599
0
LINE
8
BLACK
6
CONTINUOUS
10
7.1027025984251964
20
-4.7628606299212599
11
7.1030909842519687
21
-4.7627887795275585
0
LINE
8
BLACK
6
CONTINUOUS
10
7.1030909842519687
20
-4.7627887795275585
11
7.1034137401574799
21
-4.762560905511811
0
LINE
8
BLACK
6
CONTINUOUS
10
7.1034137401574799
20
-4.762560905511811
11
7.1292876771653546
21
-4.754537992125984
0
LINE
8
BLACK
6
CONTINUOUS
10
7.1292876771653546
20
-4.754537992125984
11
7.1296905511811026
21
-4.7545433858267714
0
LINE
8
BLACK
6
CONTINUOUS
10
7.1296905511811026
20
-4.7545433858267714
11
7.130059409448819
21
-4.7543811417322832
0
LINE
8
BLACK
6
CONTINUOUS
10
7.130059409448819
20
-4.7543811417322832
11
7.1578477559055118
21
-4.7515841732283466
0
LINE
8
BLACK
6
CONTINUOUS
10
7.1578477559055118
20
-4.7515841732283466
11
7.1580475590551176
21
-4.7516275590551178
0
LINE
8
BLACK
6
CONTINUOUS
10
7.1580475590551176
20
-4.7516275590551178
11
7.1582420472440944
21
-4.7515643700787402
0
LINE
8
BLACK
6
CONTINUOUS
10
7.1582420472440944
20
-4.7515643700787402
11
7.3656271259842514
21
-4.7515643700787402
0
LINE
8
BLACK
6
CONTINUOUS
10
7.3656271259842514
20
-4.7515643700787402
11
7.573012244094488
21
-4.7515643700787402
0
LINE
8
BLACK
6
CONTINUOUS
10
7.573012244094488
20
-4.7515643700787402
11
7.7803973228346459
21
-4.7515643700787402
0
LINE
8
BLACK
6
CONTINUOUS
10
7.7803973228346459
20
-4.7515643700787402
11
7.9877824015748029
21
-4.7515643700787402
0
LINE
8
BLACK
6
CONTINUOUS
10
7.9877824015748029
20
-4.7515643700787402
11
8.1951675196850395
21
-4.7515643700787402
0
LINE
8
BLACK
6
CONTINUOUS
10
8.1951675196850395
20
-4.7515643700787402
11
8.4025525984251974
21
-4.7515643700787402
0
LINE
8
BLACK
6
CONTINUOUS
10
8.4025525984251974
20
-4.7515643700787402
11
8.6099377165354323
21
-4.7515643700787402
0
LINE
8
BLACK
6
CONTINUOUS
10
8.6099377165354323
20
-4.7515643700787402
11
8.8171252362204715
21
-4.7515643700787402
0
LINE
8
BLACK
6
CONTINUOUS
10
8.8171252362204715
20
-4.7515643700787402
11
8.8284438976377952
21
-4.7504250787401574
0
LINE
8
BLACK
6
CONTINUOUS
10
8.8284438976377952
20
-4.7504250787401574
11
8.8387846850393696
21
-4.7472186220472441
0
LINE
8
BLACK
6
CONTINUOUS
10
8.8387846850393696
20
-4.7472186220472441
11
8.8481409842519678
21
-4.7421434645669294
0
LINE
8
BLACK
6
CONTINUOUS
10
8.8481409842519678
20
-4.7421434645669294
11
8.8562943307086606
21
-4.7354177952755903
0
LINE
8
BLACK
6
CONTINUOUS
10
8.8562943307086606
20
-4.7354177952755903
11
8.8630200393700793
21
-4.7272644488188975
0
LINE
8
BLACK
6
CONTINUOUS
10
8.8630200393700793
20
-4.7272644488188975
11
8.8680952362204728
21
-4.7179080314960631
0
LINE
8
BLACK
6
CONTINUOUS
10
8.8680952362204728
20
-4.7179080314960631
11
8.8713016141732286
21
-4.707567362204724
0
LINE
8
BLACK
6
CONTINUOUS
10
8.8713016141732286
20
-4.707567362204724
11
8.8724409448818893
21
-4.6962483464566924
0
LINE
8
BLACK
6
CONTINUOUS
10
8.8724409448818893
20
-4.6962483464566924
11
8.8724409448818893
21
-4.323154015748031
0
LINE
8
BLACK
6
CONTINUOUS
10
8.8724409448818893
20
-4.323154015748031
11
8.8724409448818893
21
-3.9498618110236219
0
LINE
8
BLACK
6
CONTINUOUS
10
8.8724409448818893
20
-3.9498618110236219
11
8.8724409448818893
21
-3.576569566929134
0
LINE
8
BLACK
6
CONTINUOUS
10
8.8724409448818893
20
-3.576569566929134
11
8.8724409448818893
21
-3.2032773622047244
0
LINE
8
BLACK
6
CONTINUOUS
10
8.8724409448818893
20
-3.2032773622047244
11
8.8724409448818893
21
-2.8299851574803148
0
LINE
8
BLACK
6
CONTINUOUS
10
8.8724409448818893
20
-2.8299851574803148
11
8.8724409448818893
21
-2.4566929133858268
0
LINE
8
BLACK
6
CONTINUOUS
10
8.8724409448818893
20
-2.4566929133858268
11
8.8724409448818893
21
-2.0834007086614172
0
LINE
8
BLACK
6
CONTINUOUS
10
8.8724409448818893
20
-2.0834007086614172
11
8.8724409448818893
21
-1.7116472440944881
0
LINE
8
BLACK
6
CONTINUOUS
10
8.8724409448818893
20
-1.7116472440944881
11
8.827631141732283
21
-1.6630815354330708
0
LINE
8
BLACK
6
CONTINUOUS
10
8.827631141732283
20
-1.6630815354330708
11
8.6953835039370073
21
-1.6165552755905512
0
LINE
8
BLACK
6
CONTINUOUS
10
8.6953835039370073
20
-1.6165552755905512
11
8.4846168503937012
21
-1.5741675984251968
0
LINE
8
BLACK
6
CONTINUOUS
10
8.4846168503937012
20
-1.5741675984251968
11
8.2051073228346461
21
-1.537203622047244
0
LINE
8
BLACK
6
CONTINUOUS
10
8.2051073228346461
20
-1.537203622047244
11
7.8661491732283464
21
-1.5067015748031496
0
LINE
8
BLACK
6
CONTINUOUS
10
7.8661491732283464
20
-1.5067015748031496
11
7.4769651574803149
21
-1.4836722047244093
0
LINE
8
BLACK
6
CONTINUOUS
10
7.4769651574803149
20
-1.4836722047244093
11
7.0467447637795271
21
-1.4691194881889764
0
LINE
8
BLACK
6
CONTINUOUS
10
7.0467447637795271
20
-1.4691194881889764
11
6.5846586220472441
21
-1.4640457480314961
0
LINE
8
BLACK
6
CONTINUOUS
10
6.5846586220472441
20
-1.4640457480314961
11
6.1749231102362208
21
-1.4640457480314961
0
LINE
8
BLACK
6
CONTINUOUS
10
6.1749231102362208
20
-1.4640457480314961
11
5.7651658661417322
21
-1.4640457480314961
0
LINE
8
BLACK
6
CONTINUOUS
10
5.7651658661417322
20
-1.4640457480314961
11
5.3554086220472437
21
-1.4640457480314961
0
LINE
8
BLACK
6
CONTINUOUS
10
5.3554086220472437
20
-1.4640457480314961
11
4.945651377952756
21
-1.4640457480314961
0
LINE
8
BLACK
6
CONTINUOUS
10
4.945651377952756
20
-1.4640457480314961
11
4.5358941338582675
21
-1.4640457480314961
0
LINE
8
BLACK
6
CONTINUOUS
10
4.5358941338582675
20
-1.4640457480314961
11
4.1261368897637798
21
-1.4640457480314961
0
LINE
8
BLACK
6
CONTINUOUS
10
4.1261368897637798
20
-1.4640457480314961
11
3.71637968503937
21
-1.4640457480314961
0
LINE
8
BLACK
6
CONTINUOUS
10
3.71637968503937
20
-1.4640457480314961
11
3.3068200000000001
21
-1.4640457480314961
  0
ENDSEC
  0
EOF
