G04 #@! TF.GenerationSoftware,KiCad,Pcbnew,7.0.9*
G04 #@! TF.CreationDate,2023-12-23T03:50:24-05:00*
G04 #@! TF.ProjectId,Lily58_Pro,4c696c79-3538-45f5-9072-6f2e6b696361,rev?*
G04 #@! TF.SameCoordinates,Original*
G04 #@! TF.FileFunction,Profile,NP*
%FSLAX46Y46*%
G04 Gerber Fmt 4.6, Leading zero omitted, Abs format (unit mm)*
G04 Created by KiCad (PCBNEW 7.0.9) date 2023-12-23 03:50:24*
%MOMM*%
%LPD*%
G01*
G04 APERTURE LIST*
G04 #@! TA.AperFunction,Profile*
%ADD10C,0.200000*%
G04 #@! TD*
G04 #@! TA.AperFunction,Profile*
%ADD11C,0.150000*%
G04 #@! TD*
G04 APERTURE END LIST*
D10*
X179861773Y-121387065D02*
X180456326Y-121064561D01*
X125619545Y-37086762D02*
X115211711Y-37086762D01*
X100262836Y-140931049D02*
X101964989Y-143887377D01*
X225460000Y-109808112D02*
X225460000Y-119289735D01*
X124800603Y-136422266D02*
X125318492Y-135995060D01*
X178319348Y-133972851D02*
X178288901Y-134275347D01*
X224798960Y-120533736D02*
X224544152Y-120671952D01*
X208157255Y-120789735D02*
X213424836Y-120789735D01*
X101964989Y-143887377D02*
X103615641Y-146775920D01*
X112835230Y-145166147D02*
X114510925Y-144196008D01*
X156843047Y-37086762D02*
X146435213Y-37086762D01*
X178319348Y-127943854D02*
X178319348Y-129161894D01*
X147341260Y-135467150D02*
X154710782Y-135467150D01*
X85684295Y-111431313D02*
X86827295Y-115310486D01*
X95209295Y-132349730D02*
X96860295Y-135143730D01*
X225020912Y-120350648D02*
X224798960Y-120533736D01*
X189919538Y-37585374D02*
X178989563Y-37215654D01*
X105173811Y-149290554D02*
X105301953Y-149354467D01*
X91780295Y-126634730D02*
X93431295Y-129501049D01*
X94396044Y-37086762D02*
X83988210Y-37086762D01*
X215525697Y-39885159D02*
X208420758Y-38945561D01*
X178319348Y-125507775D02*
X178319348Y-126725814D01*
X123521981Y-138738736D02*
X123338893Y-138960688D01*
X178319348Y-131597973D02*
X178319348Y-133972851D01*
X178989563Y-37215654D02*
X167250881Y-37086762D01*
X225204001Y-120128696D02*
X225020912Y-120350648D01*
X154710782Y-135467150D02*
X162080304Y-135467150D01*
X124050893Y-137534708D02*
X124373397Y-136940155D01*
X139971738Y-135467150D02*
X147341260Y-135467150D01*
X123338893Y-138960688D02*
X123116940Y-139143777D01*
X167250881Y-37086762D02*
X156843047Y-37086762D01*
X178319348Y-124289735D02*
X178319348Y-125507775D01*
X83776462Y-37108075D02*
X83988210Y-37086762D01*
X146435213Y-37086762D02*
X136027379Y-37086762D01*
X177658308Y-135216853D02*
X177403500Y-135355069D01*
X224278471Y-42156190D02*
X220889319Y-40963847D01*
X96860295Y-135143730D02*
X98587142Y-138064730D01*
X202889673Y-120789735D02*
X208157255Y-120789735D01*
X136027379Y-37086762D02*
X125619545Y-37086762D01*
X213424836Y-120789735D02*
X218692418Y-120789735D01*
X123660197Y-138483927D02*
X123521981Y-138738736D01*
X225460000Y-52918378D02*
X225460000Y-62400000D01*
X123784295Y-138202271D02*
X124050893Y-137534708D01*
X180456326Y-121064561D02*
X181113524Y-120860778D01*
X125913045Y-135672556D02*
X126578295Y-135524730D01*
X124373397Y-136940155D02*
X124800603Y-136422266D01*
X83398295Y-99366700D02*
X84033295Y-103393730D01*
X177121844Y-135442404D02*
X176819348Y-135472851D01*
X88224295Y-119192029D02*
X89875295Y-122979432D01*
X197622092Y-120789735D02*
X202889673Y-120789735D01*
X105056778Y-149190906D02*
X105173811Y-149290554D01*
X220889319Y-40963847D02*
X215525697Y-39885159D01*
X218692418Y-120789735D02*
X223959999Y-120789735D01*
X82937528Y-50750629D02*
X82937528Y-44443695D01*
X178319348Y-126725814D02*
X178319348Y-127943854D01*
X178319348Y-129161894D02*
X178319348Y-130379933D01*
X178916678Y-122332160D02*
X179343884Y-121814271D01*
X116186619Y-143225869D02*
X117862313Y-142255730D01*
X104951320Y-149056172D02*
X105056778Y-149190906D01*
X105916241Y-149239778D02*
X107808147Y-148076564D01*
X225460000Y-81363245D02*
X225460000Y-90844867D01*
X225460000Y-62400000D02*
X225460000Y-71881623D01*
X117862313Y-142255730D02*
X123116940Y-139143777D01*
X178288901Y-134275347D02*
X178201565Y-134557003D01*
X224544152Y-120671952D02*
X224262495Y-120759288D01*
X199807654Y-38170488D02*
X189919538Y-37585374D01*
X178390391Y-123583911D02*
X178594174Y-122926713D01*
X208420758Y-38945561D02*
X199807654Y-38170488D01*
X104857908Y-148887001D02*
X104951320Y-149056172D01*
X82937528Y-44443695D02*
X82937528Y-38136762D01*
X224262495Y-120759288D02*
X223959999Y-120789735D01*
X82937528Y-75978362D02*
X82937528Y-69671429D01*
X82937528Y-63364495D02*
X82937528Y-57057562D01*
X178063349Y-134811812D02*
X177880261Y-135033764D01*
X225460000Y-100326490D02*
X225460000Y-109808112D01*
X132602217Y-135467150D02*
X139971738Y-135467150D01*
X93431295Y-129501049D02*
X95209295Y-132349730D01*
X82938210Y-38136762D02*
X82959523Y-37925015D01*
X225460000Y-43436755D02*
X225460000Y-52918378D01*
X86827295Y-115310486D02*
X88224295Y-119192029D01*
X114510925Y-144196008D02*
X116186619Y-143225869D01*
X225460000Y-43436755D02*
X224278471Y-42156190D01*
X82937528Y-57057562D02*
X82937528Y-50750629D01*
X109483841Y-147106425D02*
X111159536Y-146136286D01*
X177880261Y-135033764D02*
X177658308Y-135216853D01*
X98587142Y-138064730D02*
X100262836Y-140931049D01*
X105748347Y-149325300D02*
X105916241Y-149239778D01*
X225460000Y-71881623D02*
X225460000Y-81363245D01*
X83579303Y-37169210D02*
X83776462Y-37108075D01*
X83400937Y-37265961D02*
X83579303Y-37169210D01*
X225342217Y-119873887D02*
X225204001Y-120128696D01*
X104803877Y-37086762D02*
X94396044Y-37086762D01*
X111159536Y-146136286D02*
X112835230Y-145166147D01*
X181819348Y-120789735D02*
X187086929Y-120789735D01*
X187086929Y-120789735D02*
X192354511Y-120789735D01*
X178201565Y-134557003D02*
X178063349Y-134811812D01*
X192354511Y-120789735D02*
X197622092Y-120789735D01*
X181113524Y-120860778D02*
X181819348Y-120789735D01*
X82937528Y-69671429D02*
X82937528Y-63364495D01*
X179343884Y-121814271D02*
X179861773Y-121387065D01*
X83117409Y-37549489D02*
X83245570Y-37394123D01*
X225459999Y-119289735D02*
X225429552Y-119592231D01*
X105301953Y-149354467D02*
X105440735Y-149381996D01*
X177403500Y-135355069D02*
X177121844Y-135442404D01*
X127276067Y-135495519D02*
X132602217Y-135467150D01*
X125318492Y-135995060D02*
X125913045Y-135672556D01*
X82959523Y-37925015D02*
X83020657Y-37727855D01*
X178319348Y-124289735D02*
X178390391Y-123583911D01*
X84795295Y-107426892D02*
X85684295Y-111431313D01*
X107808147Y-148076564D02*
X109483841Y-147106425D01*
X83245570Y-37394123D02*
X83400937Y-37265961D01*
X123784295Y-138202271D02*
X123660197Y-138483927D01*
X115211711Y-37086762D02*
X104803877Y-37086762D01*
X82937777Y-95341456D02*
X83398295Y-99366700D01*
D11*
X82937528Y-75978362D02*
X82937777Y-95341456D01*
D10*
X83020657Y-37727855D02*
X83117409Y-37549489D01*
X105589689Y-149372490D02*
X105748347Y-149325300D01*
X162080304Y-135467150D02*
X176819348Y-135472851D01*
X84033295Y-103393730D02*
X84795295Y-107426892D01*
X105440735Y-149381996D02*
X105589689Y-149372490D01*
X89875295Y-122979432D02*
X91780295Y-126634730D01*
X225429552Y-119592231D02*
X225342217Y-119873887D01*
X225460000Y-90844867D02*
X225460000Y-100326490D01*
X178594174Y-122926713D02*
X178916678Y-122332160D01*
X103615641Y-146775920D02*
X104857908Y-148887001D01*
X178319348Y-130379933D02*
X178319348Y-131597973D01*
X126578295Y-135524730D02*
X127276067Y-135495519D01*
M02*
