G04 #@! TF.GenerationSoftware,KiCad,Pcbnew,7.0.9*
G04 #@! TF.CreationDate,2023-12-22T01:46:26-05:00*
G04 #@! TF.ProjectId,Lily58_Pro,4c696c79-3538-45f5-9072-6f2e6b696361,rev?*
G04 #@! TF.SameCoordinates,Original*
G04 #@! TF.FileFunction,Soldermask,Top*
G04 #@! TF.FilePolarity,Negative*
%FSLAX46Y46*%
G04 Gerber Fmt 4.6, Leading zero omitted, Abs format (unit mm)*
G04 Created by KiCad (PCBNEW 7.0.9) date 2023-12-22 01:46:26*
%MOMM*%
%LPD*%
G01*
G04 APERTURE LIST*
G04 Aperture macros list*
%AMRoundRect*
0 Rectangle with rounded corners*
0 $1 Rounding radius*
0 $2 $3 $4 $5 $6 $7 $8 $9 X,Y pos of 4 corners*
0 Add a 4 corners polygon primitive as box body*
4,1,4,$2,$3,$4,$5,$6,$7,$8,$9,$2,$3,0*
0 Add four circle primitives for the rounded corners*
1,1,$1+$1,$2,$3*
1,1,$1+$1,$4,$5*
1,1,$1+$1,$6,$7*
1,1,$1+$1,$8,$9*
0 Add four rect primitives between the rounded corners*
20,1,$1+$1,$2,$3,$4,$5,0*
20,1,$1+$1,$4,$5,$6,$7,0*
20,1,$1+$1,$6,$7,$8,$9,0*
20,1,$1+$1,$8,$9,$2,$3,0*%
G04 Aperture macros list end*
%ADD10C,1.600000*%
%ADD11RoundRect,0.200000X-0.600000X-1.050000X0.600000X-1.050000X0.600000X1.050000X-0.600000X1.050000X0*%
%ADD12C,5.300000*%
%ADD13C,1.924000*%
%ADD14RoundRect,0.200000X0.571500X-0.317500X0.571500X0.317500X-0.571500X0.317500X-0.571500X-0.317500X0*%
%ADD15C,2.900000*%
%ADD16RoundRect,0.200000X-0.900000X-0.750000X0.900000X-0.750000X0.900000X0.750000X-0.900000X0.750000X0*%
%ADD17RoundRect,0.200000X-1.099519X0.404423X-0.199519X-1.154423X1.099519X-0.404423X0.199519X1.154423X0*%
%ADD18C,2.300000*%
%ADD19C,2.100000*%
%ADD20C,3.400000*%
%ADD21C,0.500000*%
%ADD22C,4.400000*%
%ADD23RoundRect,0.200000X-0.350000X-0.750000X0.350000X-0.750000X0.350000X0.750000X-0.350000X0.750000X0*%
%ADD24RoundRect,0.200000X1.200000X1.200000X-1.200000X1.200000X-1.200000X-1.200000X1.200000X-1.200000X0*%
%ADD25RoundRect,0.200000X1.000000X1.000000X-1.000000X1.000000X-1.000000X-1.000000X1.000000X-1.000000X0*%
%ADD26RoundRect,0.200000X0.900000X1.000000X-0.900000X1.000000X-0.900000X-1.000000X0.900000X-1.000000X0*%
%ADD27RoundRect,0.200000X1.250000X1.250000X-1.250000X1.250000X-1.250000X-1.250000X1.250000X-1.250000X0*%
%ADD28RoundRect,0.200000X0.071891X-0.824519X0.678109X-0.474519X-0.071891X0.824519X-0.678109X0.474519X0*%
%ADD29RoundRect,0.200000X0.439230X1.639230X-1.639230X0.439230X-0.439230X-1.639230X1.639230X-0.439230X0*%
%ADD30RoundRect,0.200000X0.366025X1.366025X-1.366025X0.366025X-0.366025X-1.366025X1.366025X-0.366025X0*%
%ADD31RoundRect,0.200000X0.279423X1.316025X-1.279423X0.416025X-0.279423X-1.316025X1.279423X-0.416025X0*%
%ADD32RoundRect,0.200000X0.457532X1.707532X-1.707532X0.457532X-0.457532X-1.707532X1.707532X-0.457532X0*%
%ADD33C,1.797000*%
%ADD34RoundRect,0.200000X-0.398780X0.497840X-0.398780X-0.497840X0.398780X-0.497840X0.398780X0.497840X0*%
%ADD35RoundRect,0.200000X-0.398780X0.499110X-0.398780X-0.499110X0.398780X-0.499110X0.398780X0.499110X0*%
%ADD36C,1.299160*%
%ADD37RoundRect,0.200000X-0.749300X0.349250X-0.749300X-0.349250X0.749300X-0.349250X0.749300X0.349250X0*%
%ADD38RoundRect,0.450000X0.625000X-0.350000X0.625000X0.350000X-0.625000X0.350000X-0.625000X-0.350000X0*%
%ADD39RoundRect,0.500000X0.575000X-0.300000X0.575000X0.300000X-0.575000X0.300000X-0.575000X-0.300000X0*%
G04 #@! TA.AperFunction,Profile*
%ADD40C,0.200000*%
G04 #@! TD*
G04 #@! TA.AperFunction,Profile*
%ADD41C,0.150000*%
G04 #@! TD*
G04 APERTURE END LIST*
D10*
X86150000Y-40800000D03*
X86150000Y-47800000D03*
X87900000Y-40800000D03*
X87900000Y-47800000D03*
D11*
X84050000Y-49600000D03*
X90000000Y-49600000D03*
X84050000Y-45600000D03*
X90000000Y-45600000D03*
X84050000Y-42600000D03*
X90000000Y-42600000D03*
X85800000Y-51100000D03*
X88250000Y-51100000D03*
D12*
X129600000Y-59600000D03*
X205800000Y-61800000D03*
X129600000Y-97600000D03*
X205800000Y-100000000D03*
X95181295Y-108473730D03*
D13*
X92180000Y-41230000D03*
X108718815Y-42425745D03*
X92180000Y-43770000D03*
X108718815Y-44965745D03*
X92180000Y-46310000D03*
X108718815Y-47505745D03*
X92180000Y-48850000D03*
X108718815Y-50045745D03*
X92180000Y-51390000D03*
X108718815Y-52585745D03*
X92180000Y-53930000D03*
X108718815Y-55125745D03*
X92180000Y-56470000D03*
X108718815Y-57665745D03*
X92180000Y-59010000D03*
X108718815Y-60205745D03*
X92180000Y-61550000D03*
X108718815Y-62745745D03*
X92180000Y-64090000D03*
X108718815Y-65285745D03*
X92180000Y-66630000D03*
X108718815Y-67825745D03*
X92180000Y-69170000D03*
X108718815Y-70365745D03*
X93478815Y-70365745D03*
X107420000Y-69170000D03*
X93478815Y-67825745D03*
X107420000Y-66630000D03*
X93478815Y-65285745D03*
X107420000Y-64090000D03*
X93478815Y-62745745D03*
X107420000Y-61550000D03*
X93478815Y-60205745D03*
X107420000Y-59010000D03*
X93478815Y-57665745D03*
X107420000Y-56470000D03*
X93478815Y-55125745D03*
X107420000Y-53930000D03*
X93478815Y-52585745D03*
X107420000Y-51390000D03*
X93478815Y-50045745D03*
X107420000Y-48850000D03*
X93478815Y-47505745D03*
X107420000Y-46310000D03*
X93478815Y-44965745D03*
X107420000Y-43770000D03*
X93478815Y-42425745D03*
X107420000Y-41230000D03*
D14*
X103030000Y-72501760D03*
X103030000Y-71501000D03*
X100430000Y-72501760D03*
X100430000Y-71501000D03*
X97917000Y-72501760D03*
X97917000Y-71501000D03*
D15*
X85000000Y-70950000D03*
X85000000Y-64450000D03*
D16*
X112700000Y-58000000D03*
X116100000Y-58000000D03*
X132600000Y-55700000D03*
X136000000Y-55700000D03*
X150800000Y-54200000D03*
X154200000Y-54200000D03*
X169800000Y-55600000D03*
X173200000Y-55600000D03*
X188900000Y-60400000D03*
X192300000Y-60400000D03*
X220100000Y-61800000D03*
X223500000Y-61800000D03*
X112700000Y-61100000D03*
X116100000Y-61100000D03*
X133600000Y-58700000D03*
X137000000Y-58700000D03*
X150900000Y-57400000D03*
X154300000Y-57400000D03*
X169800000Y-58700000D03*
X173200000Y-58700000D03*
X188900000Y-63300000D03*
X192300000Y-63300000D03*
X220100000Y-64900000D03*
X223500000Y-64900000D03*
X112700000Y-96000000D03*
X116100000Y-96000000D03*
X132600000Y-93800000D03*
X136000000Y-93800000D03*
X150800000Y-92300000D03*
X154200000Y-92300000D03*
X169800000Y-93600000D03*
X173200000Y-93600000D03*
X188900000Y-98300000D03*
X192300000Y-98300000D03*
X220100000Y-99900000D03*
X223500000Y-99900000D03*
X112700000Y-99100000D03*
X116100000Y-99100000D03*
X133600000Y-96800000D03*
X137000000Y-96800000D03*
X150800000Y-95400000D03*
X154200000Y-95400000D03*
X169800000Y-96800000D03*
X173200000Y-96800000D03*
X188900000Y-101500000D03*
X192300000Y-101500000D03*
X220200000Y-103100000D03*
X223600000Y-103100000D03*
D17*
X106805295Y-109033487D03*
X108505295Y-111977973D03*
X116291295Y-125491730D03*
X117991295Y-128436216D03*
D16*
X122200000Y-118000000D03*
X125600000Y-118000000D03*
X141200000Y-115800000D03*
X144600000Y-115800000D03*
X160300000Y-115800000D03*
X163700000Y-115800000D03*
D18*
X115000000Y-50000000D03*
D19*
X115420000Y-50000000D03*
D20*
X115500000Y-53700000D03*
D21*
X116675000Y-47420000D03*
D20*
X116690000Y-47459999D03*
X117960000Y-44920000D03*
D22*
X120500000Y-50000000D03*
D20*
X120500000Y-55900000D03*
X123040000Y-44920000D03*
X124310000Y-47460000D03*
X124310000Y-47460000D03*
D21*
X124325000Y-47420000D03*
D20*
X125500000Y-53700000D03*
D19*
X125580000Y-50000000D03*
D18*
X126000000Y-50000000D03*
D23*
X113300000Y-44900000D03*
D24*
X114800000Y-44920000D03*
D25*
X128600000Y-53700000D03*
D26*
X117700000Y-55900000D03*
D27*
X127400000Y-47459999D03*
D23*
X129000000Y-47500000D03*
D18*
X134000000Y-47600000D03*
D19*
X134420000Y-47600000D03*
D20*
X134500000Y-51300000D03*
D21*
X135675000Y-45020000D03*
D20*
X135690000Y-45059999D03*
X136960000Y-42520000D03*
D22*
X139500000Y-47600000D03*
D20*
X139500000Y-53500000D03*
X142040000Y-42520000D03*
X143310000Y-45060000D03*
X143310000Y-45060000D03*
D21*
X143325000Y-45020000D03*
D20*
X144500000Y-51300000D03*
D19*
X144580000Y-47600000D03*
D18*
X145000000Y-47600000D03*
D23*
X132300000Y-42500000D03*
D24*
X133800000Y-42520000D03*
D25*
X147600000Y-51300000D03*
D26*
X136700000Y-53500000D03*
D27*
X146400000Y-45059999D03*
D23*
X148000000Y-45100000D03*
D18*
X153100000Y-46210000D03*
D19*
X153520000Y-46210000D03*
D20*
X153600000Y-49910000D03*
D21*
X154775000Y-43630000D03*
D20*
X154790000Y-43669999D03*
X156060000Y-41130000D03*
D22*
X158600000Y-46210000D03*
D20*
X158600000Y-52110000D03*
X161140000Y-41130000D03*
X162410000Y-43670000D03*
X162410000Y-43670000D03*
D21*
X162425000Y-43630000D03*
D20*
X163600000Y-49910000D03*
D19*
X163680000Y-46210000D03*
D18*
X164100000Y-46210000D03*
D23*
X151400000Y-41110000D03*
D24*
X152900000Y-41130000D03*
D25*
X166700000Y-49910000D03*
D26*
X155800000Y-52110000D03*
D27*
X165500000Y-43669999D03*
D23*
X167100000Y-43710000D03*
D18*
X172100000Y-47600000D03*
D19*
X172520000Y-47600000D03*
D20*
X172600000Y-51300000D03*
D21*
X173775000Y-45020000D03*
D20*
X173790000Y-45059999D03*
X175060000Y-42520000D03*
D22*
X177600000Y-47600000D03*
D20*
X177600000Y-53500000D03*
X180140000Y-42520000D03*
X181410000Y-45060000D03*
X181410000Y-45060000D03*
D21*
X181425000Y-45020000D03*
D20*
X182600000Y-51300000D03*
D19*
X182680000Y-47600000D03*
D18*
X183100000Y-47600000D03*
D23*
X170400000Y-42500000D03*
D24*
X171900000Y-42520000D03*
D25*
X185700000Y-51300000D03*
D26*
X174800000Y-53500000D03*
D27*
X184500000Y-45059999D03*
D23*
X186100000Y-45100000D03*
D18*
X191200000Y-52400000D03*
D19*
X191620000Y-52400000D03*
D20*
X191700000Y-56100000D03*
D21*
X192875000Y-49820000D03*
D20*
X192890000Y-49859999D03*
X194160000Y-47320000D03*
D22*
X196700000Y-52400000D03*
D20*
X196700000Y-58300000D03*
X199240000Y-47320000D03*
X200510000Y-49860000D03*
X200510000Y-49860000D03*
D21*
X200525000Y-49820000D03*
D20*
X201700000Y-56100000D03*
D19*
X201780000Y-52400000D03*
D18*
X202200000Y-52400000D03*
D23*
X189500000Y-47300000D03*
D24*
X191000000Y-47320000D03*
D25*
X204800000Y-56100000D03*
D26*
X193900000Y-58300000D03*
D27*
X203600000Y-49859999D03*
D23*
X205200000Y-49900000D03*
D18*
X210200000Y-53900000D03*
D19*
X210620000Y-53900000D03*
D20*
X210700000Y-57600000D03*
D21*
X211875000Y-51320000D03*
D20*
X211890000Y-51359999D03*
X213160000Y-48820000D03*
D22*
X215700000Y-53900000D03*
D20*
X215700000Y-59800000D03*
X218240000Y-48820000D03*
X219510000Y-51360000D03*
X219510000Y-51360000D03*
D21*
X219525000Y-51320000D03*
D20*
X220700000Y-57600000D03*
D19*
X220780000Y-53900000D03*
D18*
X221200000Y-53900000D03*
D23*
X208500000Y-48800000D03*
D24*
X210000000Y-48820000D03*
D25*
X223800000Y-57600000D03*
D26*
X212900000Y-59800000D03*
D27*
X222600000Y-51359999D03*
D23*
X224200000Y-51400000D03*
D18*
X115000000Y-69100000D03*
D19*
X115420000Y-69100000D03*
D20*
X115500000Y-72800000D03*
D21*
X116675000Y-66520000D03*
D20*
X116690000Y-66559999D03*
X117960000Y-64020000D03*
D22*
X120500000Y-69100000D03*
D20*
X120500000Y-75000000D03*
X123040000Y-64020000D03*
X124310000Y-66560000D03*
X124310000Y-66560000D03*
D21*
X124325000Y-66520000D03*
D20*
X125500000Y-72800000D03*
D19*
X125580000Y-69100000D03*
D18*
X126000000Y-69100000D03*
D23*
X113300000Y-64000000D03*
D24*
X114800000Y-64020000D03*
D25*
X128600000Y-72800000D03*
D26*
X117700000Y-75000000D03*
D27*
X127400000Y-66559999D03*
D23*
X129000000Y-66600000D03*
D18*
X134000000Y-66700000D03*
D19*
X134420000Y-66700000D03*
D20*
X134500000Y-70400000D03*
D21*
X135675000Y-64120000D03*
D20*
X135690000Y-64159999D03*
X136960000Y-61620000D03*
D22*
X139500000Y-66700000D03*
D20*
X139500000Y-72600000D03*
X142040000Y-61620000D03*
X143310000Y-64160000D03*
X143310000Y-64160000D03*
D21*
X143325000Y-64120000D03*
D20*
X144500000Y-70400000D03*
D19*
X144580000Y-66700000D03*
D18*
X145000000Y-66700000D03*
D23*
X132300000Y-61600000D03*
D24*
X133800000Y-61620000D03*
D25*
X147600000Y-70400000D03*
D26*
X136700000Y-72600000D03*
D27*
X146400000Y-64159999D03*
D23*
X148000000Y-64200000D03*
D18*
X153100000Y-65300000D03*
D19*
X153520000Y-65300000D03*
D20*
X153600000Y-69000000D03*
D21*
X154775000Y-62720000D03*
D20*
X154790000Y-62759999D03*
X156060000Y-60220000D03*
D22*
X158600000Y-65300000D03*
D20*
X158600000Y-71200000D03*
X161140000Y-60220000D03*
X162410000Y-62760000D03*
X162410000Y-62760000D03*
D21*
X162425000Y-62720000D03*
D20*
X163600000Y-69000000D03*
D19*
X163680000Y-65300000D03*
D18*
X164100000Y-65300000D03*
D23*
X151400000Y-60200000D03*
D24*
X152900000Y-60220000D03*
D25*
X166700000Y-69000000D03*
D26*
X155800000Y-71200000D03*
D27*
X165500000Y-62759999D03*
D23*
X167100000Y-62800000D03*
D18*
X172100000Y-66600000D03*
D19*
X172520000Y-66600000D03*
D20*
X172600000Y-70300000D03*
D21*
X173775000Y-64020000D03*
D20*
X173790000Y-64059999D03*
X175060000Y-61520000D03*
D22*
X177600000Y-66600000D03*
D20*
X177600000Y-72500000D03*
X180140000Y-61520000D03*
X181410000Y-64060000D03*
X181410000Y-64060000D03*
D21*
X181425000Y-64020000D03*
D20*
X182600000Y-70300000D03*
D19*
X182680000Y-66600000D03*
D18*
X183100000Y-66600000D03*
D23*
X170400000Y-61500000D03*
D24*
X171900000Y-61520000D03*
D25*
X185700000Y-70300000D03*
D26*
X174800000Y-72500000D03*
D27*
X184500000Y-64059999D03*
D23*
X186100000Y-64100000D03*
D18*
X191200000Y-71300000D03*
D19*
X191620000Y-71300000D03*
D20*
X191700000Y-75000000D03*
D21*
X192875000Y-68720000D03*
D20*
X192890000Y-68759999D03*
X194160000Y-66220000D03*
D22*
X196700000Y-71300000D03*
D20*
X196700000Y-77200000D03*
X199240000Y-66220000D03*
X200510000Y-68760000D03*
X200510000Y-68760000D03*
D21*
X200525000Y-68720000D03*
D20*
X201700000Y-75000000D03*
D19*
X201780000Y-71300000D03*
D18*
X202200000Y-71300000D03*
D23*
X189500000Y-66200000D03*
D24*
X191000000Y-66220000D03*
D25*
X204800000Y-75000000D03*
D26*
X193900000Y-77200000D03*
D27*
X203600000Y-68759999D03*
D23*
X205200000Y-68800000D03*
D18*
X210200000Y-72800000D03*
D19*
X210620000Y-72800000D03*
D20*
X210700000Y-76500000D03*
D21*
X211875000Y-70220000D03*
D20*
X211890000Y-70259999D03*
X213160000Y-67720000D03*
D22*
X215700000Y-72800000D03*
D20*
X215700000Y-78700000D03*
X218240000Y-67720000D03*
X219510000Y-70260000D03*
X219510000Y-70260000D03*
D21*
X219525000Y-70220000D03*
D20*
X220700000Y-76500000D03*
D19*
X220780000Y-72800000D03*
D18*
X221200000Y-72800000D03*
D23*
X208500000Y-67700000D03*
D24*
X210000000Y-67720000D03*
D25*
X223800000Y-76500000D03*
D26*
X212900000Y-78700000D03*
D27*
X222600000Y-70259999D03*
D23*
X224200000Y-70300000D03*
D18*
X115000000Y-88100000D03*
D19*
X115420000Y-88100000D03*
D20*
X115500000Y-91800000D03*
D21*
X116675000Y-85520000D03*
D20*
X116690000Y-85559999D03*
X117960000Y-83020000D03*
D22*
X120500000Y-88100000D03*
D20*
X120500000Y-94000000D03*
X123040000Y-83020000D03*
X124310000Y-85560000D03*
X124310000Y-85560000D03*
D21*
X124325000Y-85520000D03*
D20*
X125500000Y-91800000D03*
D19*
X125580000Y-88100000D03*
D18*
X126000000Y-88100000D03*
D23*
X113300000Y-83000000D03*
D24*
X114800000Y-83020000D03*
D25*
X128600000Y-91800000D03*
D26*
X117700000Y-94000000D03*
D27*
X127400000Y-85559999D03*
D23*
X129000000Y-85600000D03*
D18*
X134000000Y-85700000D03*
D19*
X134420000Y-85700000D03*
D20*
X134500000Y-89400000D03*
D21*
X135675000Y-83120000D03*
D20*
X135690000Y-83159999D03*
X136960000Y-80620000D03*
D22*
X139500000Y-85700000D03*
D20*
X139500000Y-91600000D03*
X142040000Y-80620000D03*
X143310000Y-83160000D03*
X143310000Y-83160000D03*
D21*
X143325000Y-83120000D03*
D20*
X144500000Y-89400000D03*
D19*
X144580000Y-85700000D03*
D18*
X145000000Y-85700000D03*
D23*
X132300000Y-80600000D03*
D24*
X133800000Y-80620000D03*
D25*
X147600000Y-89400000D03*
D26*
X136700000Y-91600000D03*
D27*
X146400000Y-83159999D03*
D23*
X148000000Y-83200000D03*
D18*
X153100000Y-84400000D03*
D19*
X153520000Y-84400000D03*
D20*
X153600000Y-88100000D03*
D21*
X154775000Y-81820000D03*
D20*
X154790000Y-81859999D03*
X156060000Y-79320000D03*
D22*
X158600000Y-84400000D03*
D20*
X158600000Y-90300000D03*
X161140000Y-79320000D03*
X162410000Y-81860000D03*
X162410000Y-81860000D03*
D21*
X162425000Y-81820000D03*
D20*
X163600000Y-88100000D03*
D19*
X163680000Y-84400000D03*
D18*
X164100000Y-84400000D03*
D23*
X151400000Y-79300000D03*
D24*
X152900000Y-79320000D03*
D25*
X166700000Y-88100000D03*
D26*
X155800000Y-90300000D03*
D27*
X165500000Y-81859999D03*
D23*
X167100000Y-81900000D03*
D18*
X172100000Y-85700000D03*
D19*
X172520000Y-85700000D03*
D20*
X172600000Y-89400000D03*
D21*
X173775000Y-83120000D03*
D20*
X173790000Y-83159999D03*
X175060000Y-80620000D03*
D22*
X177600000Y-85700000D03*
D20*
X177600000Y-91600000D03*
X180140000Y-80620000D03*
X181410000Y-83160000D03*
X181410000Y-83160000D03*
D21*
X181425000Y-83120000D03*
D20*
X182600000Y-89400000D03*
D19*
X182680000Y-85700000D03*
D18*
X183100000Y-85700000D03*
D23*
X170400000Y-80600000D03*
D24*
X171900000Y-80620000D03*
D25*
X185700000Y-89400000D03*
D26*
X174800000Y-91600000D03*
D27*
X184500000Y-83159999D03*
D23*
X186100000Y-83200000D03*
D18*
X191200000Y-90500000D03*
D19*
X191620000Y-90500000D03*
D20*
X191700000Y-94200000D03*
D21*
X192875000Y-87920000D03*
D20*
X192890000Y-87959999D03*
X194160000Y-85420000D03*
D22*
X196700000Y-90500000D03*
D20*
X196700000Y-96400000D03*
X199240000Y-85420000D03*
X200510000Y-87960000D03*
X200510000Y-87960000D03*
D21*
X200525000Y-87920000D03*
D20*
X201700000Y-94200000D03*
D19*
X201780000Y-90500000D03*
D18*
X202200000Y-90500000D03*
D23*
X189500000Y-85400000D03*
D24*
X191000000Y-85420000D03*
D25*
X204800000Y-94200000D03*
D26*
X193900000Y-96400000D03*
D27*
X203600000Y-87959999D03*
D23*
X205200000Y-88000000D03*
D18*
X210200000Y-92000000D03*
D19*
X210620000Y-92000000D03*
D20*
X210700000Y-95700000D03*
D21*
X211875000Y-89420000D03*
D20*
X211890000Y-89459999D03*
X213160000Y-86920000D03*
D22*
X215700000Y-92000000D03*
D20*
X215700000Y-97900000D03*
X218240000Y-86920000D03*
X219510000Y-89460000D03*
X219510000Y-89460000D03*
D21*
X219525000Y-89420000D03*
D20*
X220700000Y-95700000D03*
D19*
X220780000Y-92000000D03*
D18*
X221200000Y-92000000D03*
D23*
X208500000Y-86900000D03*
D24*
X210000000Y-86920000D03*
D25*
X223800000Y-95700000D03*
D26*
X212900000Y-97900000D03*
D27*
X222600000Y-89459999D03*
D23*
X224200000Y-89500000D03*
D18*
X115000000Y-107100000D03*
D19*
X115420000Y-107100000D03*
D20*
X115500000Y-110800000D03*
D21*
X116675000Y-104520000D03*
D20*
X116690000Y-104559999D03*
X117960000Y-102020000D03*
D22*
X120500000Y-107100000D03*
D20*
X120500000Y-113000000D03*
X123040000Y-102020000D03*
X124310000Y-104560000D03*
X124310000Y-104560000D03*
D21*
X124325000Y-104520000D03*
D20*
X125500000Y-110800000D03*
D19*
X125580000Y-107100000D03*
D18*
X126000000Y-107100000D03*
D23*
X113300000Y-102000000D03*
D24*
X114800000Y-102020000D03*
D25*
X128600000Y-110800000D03*
D26*
X117700000Y-113000000D03*
D27*
X127400000Y-104559999D03*
D23*
X129000000Y-104600000D03*
D18*
X134000000Y-104800000D03*
D19*
X134420000Y-104800000D03*
D20*
X134500000Y-108500000D03*
D21*
X135675000Y-102220000D03*
D20*
X135690000Y-102259999D03*
X136960000Y-99720000D03*
D22*
X139500000Y-104800000D03*
D20*
X139500000Y-110700000D03*
X142040000Y-99720000D03*
X143310000Y-102260000D03*
X143310000Y-102260000D03*
D21*
X143325000Y-102220000D03*
D20*
X144500000Y-108500000D03*
D19*
X144580000Y-104800000D03*
D18*
X145000000Y-104800000D03*
D23*
X132300000Y-99700000D03*
D24*
X133800000Y-99720000D03*
D25*
X147600000Y-108500000D03*
D26*
X136700000Y-110700000D03*
D27*
X146400000Y-102259999D03*
D23*
X148000000Y-102300000D03*
D18*
X153100000Y-103400000D03*
D19*
X153520000Y-103400000D03*
D20*
X153600000Y-107100000D03*
D21*
X154775000Y-100820000D03*
D20*
X154790000Y-100859999D03*
X156060000Y-98320000D03*
D22*
X158600000Y-103400000D03*
D20*
X158600000Y-109300000D03*
X161140000Y-98320000D03*
X162410000Y-100860000D03*
X162410000Y-100860000D03*
D21*
X162425000Y-100820000D03*
D20*
X163600000Y-107100000D03*
D19*
X163680000Y-103400000D03*
D18*
X164100000Y-103400000D03*
D23*
X151400000Y-98300000D03*
D24*
X152900000Y-98320000D03*
D25*
X166700000Y-107100000D03*
D26*
X155800000Y-109300000D03*
D27*
X165500000Y-100859999D03*
D23*
X167100000Y-100900000D03*
D18*
X172100000Y-104800000D03*
D19*
X172520000Y-104800000D03*
D20*
X172600000Y-108500000D03*
D21*
X173775000Y-102220000D03*
D20*
X173790000Y-102259999D03*
X175060000Y-99720000D03*
D22*
X177600000Y-104800000D03*
D20*
X177600000Y-110700000D03*
X180140000Y-99720000D03*
X181410000Y-102260000D03*
X181410000Y-102260000D03*
D21*
X181425000Y-102220000D03*
D20*
X182600000Y-108500000D03*
D19*
X182680000Y-104800000D03*
D18*
X183100000Y-104800000D03*
D23*
X170400000Y-99700000D03*
D24*
X171900000Y-99720000D03*
D25*
X185700000Y-108500000D03*
D26*
X174800000Y-110700000D03*
D27*
X184500000Y-102259999D03*
D23*
X186100000Y-102300000D03*
D18*
X191200000Y-109500000D03*
D19*
X191620000Y-109500000D03*
D20*
X191700000Y-113200000D03*
D21*
X192875000Y-106920000D03*
D20*
X192890000Y-106959999D03*
X194160000Y-104420000D03*
D22*
X196700000Y-109500000D03*
D20*
X196700000Y-115400000D03*
X199240000Y-104420000D03*
X200510000Y-106960000D03*
X200510000Y-106960000D03*
D21*
X200525000Y-106920000D03*
D20*
X201700000Y-113200000D03*
D19*
X201780000Y-109500000D03*
D18*
X202200000Y-109500000D03*
D23*
X189500000Y-104400000D03*
D24*
X191000000Y-104420000D03*
D25*
X204800000Y-113200000D03*
D26*
X193900000Y-115400000D03*
D27*
X203600000Y-106959999D03*
D23*
X205200000Y-107000000D03*
D18*
X210250000Y-111000000D03*
D19*
X210670000Y-111000000D03*
D20*
X210750000Y-114700000D03*
D21*
X211925000Y-108420000D03*
D20*
X211940000Y-108459999D03*
X213210000Y-105920000D03*
D22*
X215750000Y-111000000D03*
D20*
X215750000Y-116900000D03*
X218290000Y-105920000D03*
X219560000Y-108460000D03*
X219560000Y-108460000D03*
D21*
X219575000Y-108420000D03*
D20*
X220750000Y-114700000D03*
D19*
X220830000Y-111000000D03*
D18*
X221250000Y-111000000D03*
D23*
X208550000Y-105900000D03*
D24*
X210050000Y-105920000D03*
D25*
X223850000Y-114700000D03*
D26*
X212950000Y-116900000D03*
D27*
X222650000Y-108459999D03*
D23*
X224250000Y-108500000D03*
D18*
X96107777Y-121946557D03*
D19*
X96471508Y-121736557D03*
D20*
X98390790Y-124900851D03*
D21*
X96268370Y-118874711D03*
D20*
X96301360Y-118901852D03*
X96131212Y-116067148D03*
D22*
X100870917Y-119196557D03*
D20*
X103820917Y-124306107D03*
X100530622Y-113527148D03*
X102900474Y-115091852D03*
X102900474Y-115091852D03*
D21*
X102893464Y-115049711D03*
D20*
X107051044Y-119900851D03*
D19*
X105270326Y-116656557D03*
D18*
X105634057Y-116446557D03*
D28*
X92085534Y-118379827D03*
D29*
X93394572Y-117647148D03*
D30*
X109735723Y-118350851D03*
D31*
X101396046Y-125706107D03*
D32*
X105576492Y-113546852D03*
D28*
X106982133Y-112781493D03*
D18*
X105607777Y-138401039D03*
D19*
X105971508Y-138191039D03*
D20*
X107890790Y-141355333D03*
D21*
X105768370Y-135329193D03*
D20*
X105801360Y-135356334D03*
X105631212Y-132521630D03*
D22*
X110370917Y-135651039D03*
D20*
X113320917Y-140760589D03*
X110030622Y-129981630D03*
X112400474Y-131546334D03*
X112400474Y-131546334D03*
D21*
X112393464Y-131504193D03*
D20*
X116551044Y-136355333D03*
D19*
X114770326Y-133111039D03*
D18*
X115134057Y-132901039D03*
D28*
X101585534Y-134834309D03*
D29*
X102894572Y-134101630D03*
D30*
X119235723Y-134805333D03*
D31*
X110896046Y-142160589D03*
D32*
X115076492Y-130001334D03*
D28*
X116482133Y-129235975D03*
D18*
X124500000Y-126000000D03*
D19*
X124920000Y-126000000D03*
D20*
X125000000Y-129700000D03*
D21*
X126175000Y-123420000D03*
D20*
X126190000Y-123459999D03*
X127460000Y-120920000D03*
D22*
X130000000Y-126000000D03*
D20*
X130000000Y-131900000D03*
X132540000Y-120920000D03*
X133810000Y-123460000D03*
X133810000Y-123460000D03*
D21*
X133825000Y-123420000D03*
D20*
X135000000Y-129700000D03*
D19*
X135080000Y-126000000D03*
D18*
X135500000Y-126000000D03*
D23*
X122800000Y-120900000D03*
D24*
X124300000Y-120920000D03*
D25*
X138100000Y-129700000D03*
D26*
X127200000Y-131900000D03*
D27*
X136900000Y-123459999D03*
D23*
X138500000Y-123500000D03*
D18*
X143500000Y-123750000D03*
D19*
X143920000Y-123750000D03*
D20*
X144000000Y-127450000D03*
D21*
X145175000Y-121170000D03*
D20*
X145190000Y-121209999D03*
X146460000Y-118670000D03*
D22*
X149000000Y-123750000D03*
D20*
X149000000Y-129650000D03*
X151540000Y-118670000D03*
X152810000Y-121210000D03*
X152810000Y-121210000D03*
D21*
X152825000Y-121170000D03*
D20*
X154000000Y-127450000D03*
D19*
X154080000Y-123750000D03*
D18*
X154500000Y-123750000D03*
D23*
X141800000Y-118650000D03*
D24*
X143300000Y-118670000D03*
D25*
X157100000Y-127450000D03*
D26*
X146200000Y-129650000D03*
D27*
X155900000Y-121209999D03*
D23*
X157500000Y-121250000D03*
D18*
X162600000Y-123750000D03*
D19*
X163020000Y-123750000D03*
D20*
X163100000Y-127450000D03*
D21*
X164275000Y-121170000D03*
D20*
X164290000Y-121209999D03*
X165560000Y-118670000D03*
D22*
X168100000Y-123750000D03*
D20*
X168100000Y-129650000D03*
X170640000Y-118670000D03*
X171910000Y-121210000D03*
X171910000Y-121210000D03*
D21*
X171925000Y-121170000D03*
D20*
X173100000Y-127450000D03*
D19*
X173180000Y-123750000D03*
D18*
X173600000Y-123750000D03*
D23*
X160900000Y-118650000D03*
D24*
X162400000Y-118670000D03*
D25*
X176200000Y-127450000D03*
D26*
X165300000Y-129650000D03*
D27*
X175000000Y-121209999D03*
D23*
X176600000Y-121250000D03*
D22*
X86000000Y-85000000D03*
X108000000Y-85000000D03*
D14*
X95430000Y-72496829D03*
X95430000Y-71496069D03*
D33*
X95430000Y-74600000D03*
X97970000Y-74600000D03*
X100510000Y-74600000D03*
X103050000Y-74600000D03*
X105590000Y-74600000D03*
D14*
X105630000Y-72496829D03*
X105630000Y-71496069D03*
D34*
X87431880Y-54135020D03*
D35*
X85234780Y-54135020D03*
D36*
X86334600Y-56286400D03*
X86334600Y-59283600D03*
D34*
X87434420Y-61434980D03*
X85234780Y-61434980D03*
D37*
X88084660Y-55537100D03*
X88084660Y-58534300D03*
X88084660Y-60032900D03*
D38*
X85561000Y-80121000D03*
D39*
X85561000Y-78121000D03*
D14*
X88000000Y-72500380D03*
X88000000Y-71499620D03*
X90500000Y-72488755D03*
X90500000Y-71487995D03*
D36*
X86334600Y-59283600D03*
X86334600Y-56286400D03*
D40*
X179861773Y-121387065D02*
X180456326Y-121064561D01*
X125619545Y-37086762D02*
X115211711Y-37086762D01*
X100262836Y-140931049D02*
X101964989Y-143887377D01*
X225460000Y-109808112D02*
X225460000Y-119289735D01*
X124800603Y-136422266D02*
X125318492Y-135995060D01*
X178319348Y-133972851D02*
X178288901Y-134275347D01*
X224798960Y-120533736D02*
X224544152Y-120671952D01*
X208157255Y-120789735D02*
X213424836Y-120789735D01*
X101964989Y-143887377D02*
X103615641Y-146775920D01*
X112835230Y-145166147D02*
X114510925Y-144196008D01*
X156843047Y-37086762D02*
X146435213Y-37086762D01*
X178319348Y-127943854D02*
X178319348Y-129161894D01*
X147341260Y-135467150D02*
X154710782Y-135467150D01*
X85684295Y-111431313D02*
X86827295Y-115310486D01*
X95209295Y-132349730D02*
X96860295Y-135143730D01*
X225020912Y-120350648D02*
X224798960Y-120533736D01*
X189919538Y-37585374D02*
X178989563Y-37215654D01*
X105173811Y-149290554D02*
X105301953Y-149354467D01*
X91780295Y-126634730D02*
X93431295Y-129501049D01*
X94396044Y-37086762D02*
X83988210Y-37086762D01*
X215525697Y-39885159D02*
X208420758Y-38945561D01*
X178319348Y-125507775D02*
X178319348Y-126725814D01*
X123521981Y-138738736D02*
X123338893Y-138960688D01*
X178319348Y-131597973D02*
X178319348Y-133972851D01*
X178989563Y-37215654D02*
X167250881Y-37086762D01*
X225204001Y-120128696D02*
X225020912Y-120350648D01*
X154710782Y-135467150D02*
X162080304Y-135467150D01*
X124050893Y-137534708D02*
X124373397Y-136940155D01*
X139971738Y-135467150D02*
X147341260Y-135467150D01*
X123338893Y-138960688D02*
X123116940Y-139143777D01*
X167250881Y-37086762D02*
X156843047Y-37086762D01*
X178319348Y-124289735D02*
X178319348Y-125507775D01*
X83776462Y-37108075D02*
X83988210Y-37086762D01*
X146435213Y-37086762D02*
X136027379Y-37086762D01*
X177658308Y-135216853D02*
X177403500Y-135355069D01*
X224278471Y-42156190D02*
X220889319Y-40963847D01*
X96860295Y-135143730D02*
X98587142Y-138064730D01*
X202889673Y-120789735D02*
X208157255Y-120789735D01*
X136027379Y-37086762D02*
X125619545Y-37086762D01*
X213424836Y-120789735D02*
X218692418Y-120789735D01*
X123660197Y-138483927D02*
X123521981Y-138738736D01*
X225460000Y-52918378D02*
X225460000Y-62400000D01*
X123784295Y-138202271D02*
X124050893Y-137534708D01*
X180456326Y-121064561D02*
X181113524Y-120860778D01*
X125913045Y-135672556D02*
X126578295Y-135524730D01*
X124373397Y-136940155D02*
X124800603Y-136422266D01*
X83398295Y-99366700D02*
X84033295Y-103393730D01*
X177121844Y-135442404D02*
X176819348Y-135472851D01*
X88224295Y-119192029D02*
X89875295Y-122979432D01*
X197622092Y-120789735D02*
X202889673Y-120789735D01*
X105056778Y-149190906D02*
X105173811Y-149290554D01*
X220889319Y-40963847D02*
X215525697Y-39885159D01*
X218692418Y-120789735D02*
X223959999Y-120789735D01*
X82937528Y-50750629D02*
X82937528Y-44443695D01*
X178319348Y-126725814D02*
X178319348Y-127943854D01*
X178319348Y-129161894D02*
X178319348Y-130379933D01*
X178916678Y-122332160D02*
X179343884Y-121814271D01*
X116186619Y-143225869D02*
X117862313Y-142255730D01*
X104951320Y-149056172D02*
X105056778Y-149190906D01*
X105916241Y-149239778D02*
X107808147Y-148076564D01*
X225460000Y-81363245D02*
X225460000Y-90844867D01*
X225460000Y-62400000D02*
X225460000Y-71881623D01*
X117862313Y-142255730D02*
X123116940Y-139143777D01*
X178288901Y-134275347D02*
X178201565Y-134557003D01*
X224544152Y-120671952D02*
X224262495Y-120759288D01*
X199807654Y-38170488D02*
X189919538Y-37585374D01*
X178390391Y-123583911D02*
X178594174Y-122926713D01*
X208420758Y-38945561D02*
X199807654Y-38170488D01*
X104857908Y-148887001D02*
X104951320Y-149056172D01*
X82937528Y-44443695D02*
X82937528Y-38136762D01*
X224262495Y-120759288D02*
X223959999Y-120789735D01*
X82937528Y-75978362D02*
X82937528Y-69671429D01*
X82937528Y-63364495D02*
X82937528Y-57057562D01*
X178063349Y-134811812D02*
X177880261Y-135033764D01*
X225460000Y-100326490D02*
X225460000Y-109808112D01*
X132602217Y-135467150D02*
X139971738Y-135467150D01*
X93431295Y-129501049D02*
X95209295Y-132349730D01*
X82938210Y-38136762D02*
X82959523Y-37925015D01*
X225460000Y-43436755D02*
X225460000Y-52918378D01*
X86827295Y-115310486D02*
X88224295Y-119192029D01*
X114510925Y-144196008D02*
X116186619Y-143225869D01*
X225460000Y-43436755D02*
X224278471Y-42156190D01*
X82937528Y-57057562D02*
X82937528Y-50750629D01*
X109483841Y-147106425D02*
X111159536Y-146136286D01*
X177880261Y-135033764D02*
X177658308Y-135216853D01*
X98587142Y-138064730D02*
X100262836Y-140931049D01*
X105748347Y-149325300D02*
X105916241Y-149239778D01*
X225460000Y-71881623D02*
X225460000Y-81363245D01*
X83579303Y-37169210D02*
X83776462Y-37108075D01*
X83400937Y-37265961D02*
X83579303Y-37169210D01*
X225342217Y-119873887D02*
X225204001Y-120128696D01*
X104803877Y-37086762D02*
X94396044Y-37086762D01*
X111159536Y-146136286D02*
X112835230Y-145166147D01*
X181819348Y-120789735D02*
X187086929Y-120789735D01*
X187086929Y-120789735D02*
X192354511Y-120789735D01*
X178201565Y-134557003D02*
X178063349Y-134811812D01*
X192354511Y-120789735D02*
X197622092Y-120789735D01*
X181113524Y-120860778D02*
X181819348Y-120789735D01*
X82937528Y-69671429D02*
X82937528Y-63364495D01*
X179343884Y-121814271D02*
X179861773Y-121387065D01*
X83117409Y-37549489D02*
X83245570Y-37394123D01*
X225459999Y-119289735D02*
X225429552Y-119592231D01*
X105301953Y-149354467D02*
X105440735Y-149381996D01*
X177403500Y-135355069D02*
X177121844Y-135442404D01*
X127276067Y-135495519D02*
X132602217Y-135467150D01*
X125318492Y-135995060D02*
X125913045Y-135672556D01*
X82959523Y-37925015D02*
X83020657Y-37727855D01*
X178319348Y-124289735D02*
X178390391Y-123583911D01*
X84795295Y-107426892D02*
X85684295Y-111431313D01*
X107808147Y-148076564D02*
X109483841Y-147106425D01*
X83245570Y-37394123D02*
X83400937Y-37265961D01*
X123784295Y-138202271D02*
X123660197Y-138483927D01*
X115211711Y-37086762D02*
X104803877Y-37086762D01*
X82937777Y-95341456D02*
X83398295Y-99366700D01*
D41*
X82937528Y-75978362D02*
X82937777Y-95341456D01*
D40*
X83020657Y-37727855D02*
X83117409Y-37549489D01*
X105589689Y-149372490D02*
X105748347Y-149325300D01*
X162080304Y-135467150D02*
X176819348Y-135472851D01*
X84033295Y-103393730D02*
X84795295Y-107426892D01*
X105440735Y-149381996D02*
X105589689Y-149372490D01*
X89875295Y-122979432D02*
X91780295Y-126634730D01*
X225429552Y-119592231D02*
X225342217Y-119873887D01*
X225460000Y-90844867D02*
X225460000Y-100326490D01*
X178594174Y-122926713D02*
X178916678Y-122332160D01*
X103615641Y-146775920D02*
X104857908Y-148887001D01*
X178319348Y-130379933D02*
X178319348Y-131597973D01*
X126578295Y-135524730D02*
X127276067Y-135495519D01*
M02*
